<?xml version="1.0" standalone="no"?>
<!DOCTYPE svg PUBLIC "-//W3C//DTD SVG 20010904//EN"
 "http://www.w3.org/TR/2001/REC-SVG-20010904/DTD/svg10.dtd">
<svg version="1.0" xmlns="http://www.w3.org/2000/svg"
 width="728.000000pt" height="508.000000pt" viewBox="0 0 728.000000 508.000000"
 preserveAspectRatio="xMidYMid meet">

<g transform="translate(0.000000,508.000000) scale(0.100000,-0.100000)"
fill="#000000" stroke="none">
<path d="M2975 5057 c-86 -41 -163 -131 -198 -232 -6 -16 -13 -138 -16 -270
l-6 -240 -26 -3 c-15 -2 -39 -17 -55 -33 l-29 -30 0 -1937 c0 -1821 1 -1940
18 -1992 39 -125 124 -226 238 -287 l62 -33 677 0 677 0 62 33 c111 59 185
145 233 273 l23 59 3 1905 c2 1048 0 1924 -3 1947 -7 51 -34 83 -77 92 -33 7
-33 7 -40 80 -8 93 -23 150 -60 224 -40 81 -90 132 -166 169 -64 32 -72 33
-182 33 -109 -1 -120 -3 -210 -39 -122 -48 -145 -43 -215 45 -86 110 -154 169
-245 213 l-85 41 -165 3 c-156 2 -168 1 -215 -21z m368 -202 c31 -16 77 -49
100 -74 24 -25 74 -79 112 -118 126 -134 221 -155 397 -87 156 61 250 51 307
-32 41 -60 53 -112 58 -269 5 -143 5 -151 -15 -169 -21 -18 -22 -18 -71 36
-28 30 -70 65 -95 79 -36 18 -49 33 -62 68 -20 53 -93 130 -155 163 -37 19
-59 23 -139 23 -83 0 -101 -3 -145 -27 -48 -25 -127 -99 -136 -127 -4 -11 -18
-11 -75 -2 -155 26 -331 -48 -411 -174 -15 -24 -32 -43 -38 -41 -16 4 -13 622
3 667 15 42 65 92 107 108 17 6 68 9 115 8 69 -3 96 -9 143 -32z m502 -600
c22 -14 35 -38 56 -105 13 -41 20 -48 82 -81 79 -41 115 -74 119 -108 3 -20
-12 -34 -89 -87 -113 -76 -234 -141 -331 -179 -68 -27 -77 -28 -128 -17 -92
19 -253 113 -363 211 -41 36 -43 42 -38 76 9 53 52 103 111 131 74 34 126 32
213 -12 54 -26 80 -34 100 -29 47 10 72 39 84 97 6 29 18 63 26 76 30 48 105
61 158 27z m585 -925 l0 -610 -790 0 -790 0 0 80 c0 125 48 221 169 337 147
142 277 214 516 289 330 103 549 221 790 427 55 47 101 86 103 86 1 1 2 -273
2 -609z m-1405 430 c53 -47 135 -110 182 -141 l85 -57 -102 -53 c-96 -49 -199
-120 -297 -205 l-43 -37 0 334 0 334 39 -45 c21 -25 82 -83 136 -130z m1035
-2405 l0 -1165 -508 0 c-496 0 -508 0 -547 21 -53 28 -102 75 -128 124 l-22
40 -3 1073 -2 1072 605 0 605 0 0 -1165z m368 93 l-3 -1073 -22 -40 c-27 -47
-48 -72 -87 -103 -60 -46 -56 -125 -56 1133 l0 1155 85 0 85 0 -2 -1072z"/>
<path d="M4078 3424 c-88 -47 -48 -184 54 -184 102 0 138 138 48 185 -36 19
-67 19 -102 -1z"/>
<path d="M3404 3116 c-67 -67 -24 -165 72 -166 56 0 94 37 94 92 0 50 -13 74
-50 93 -46 24 -78 19 -116 -19z"/>
<path d="M3865 3106 c-81 -36 -75 -158 10 -186 102 -34 181 109 95 171 -35 26
-70 31 -105 15z"/>
</g>
</svg>
