<?xml version="1.0" standalone="no"?>
<!DOCTYPE svg PUBLIC "-//W3C//DTD SVG 20010904//EN"
 "http://www.w3.org/TR/2001/REC-SVG-20010904/DTD/svg10.dtd">
<svg version="1.0" xmlns="http://www.w3.org/2000/svg"
 width="301.000000pt" height="167.000000pt" viewBox="0 0 301.000000 167.000000"
 preserveAspectRatio="xMidYMid meet">

<g transform="translate(0.000000,167.000000) scale(0.100000,-0.100000)"
fill="#000000" stroke="none">
<path d="M1345 1255 c-48 -19 -79 -24 -153 -24 -104 -1 -115 -5 -189 -68 -29
-24 -81 -57 -115 -73 -96 -43 -128 -89 -128 -182 l0 -38 -46 0 -47 0 6 -61
c11 -119 93 -235 205 -287 53 -25 69 -27 210 -30 l152 -4 0 26 0 26 -142 0
c-129 0 -148 2 -194 24 -28 13 -67 38 -87 55 -39 35 -97 140 -97 178 l0 23
785 0 785 0 0 -22 c0 -33 -42 -119 -79 -161 -18 -20 -60 -50 -93 -67 l-61 -30
-374 0 -373 0 0 -25 0 -26 383 3 382 3 57 27 c112 52 194 168 205 287 l6 61
-65 0 -65 0 19 57 c39 116 -9 231 -122 289 -51 26 -153 24 -207 -4 l-42 -22
-33 20 c-27 16 -51 20 -125 20 -74 0 -106 5 -159 25 -81 31 -121 31 -199 0z
m201 -51 c60 -23 78 -25 141 -20 56 5 79 3 103 -9 16 -8 30 -18 30 -22 0 -4
-10 -27 -22 -52 -27 -55 -29 -141 -5 -188 10 -18 17 -34 17 -38 0 -3 -36 -5
-80 -5 l-81 0 27 45 c37 64 43 146 15 209 l-21 48 -32 -20 c-18 -10 -80 -45
-137 -77 l-103 -57 -28 30 c-54 60 -150 61 -203 2 -26 -29 -29 -30 -49 -15
-78 54 -186 -32 -161 -126 l10 -39 -78 0 -79 0 0 45 c0 73 16 94 99 132 41 19
97 54 125 80 65 59 84 65 170 57 61 -5 80 -3 136 19 84 33 122 33 206 1z m534
-30 c22 -9 40 -19 40 -22 0 -3 -17 -23 -37 -44 -35 -36 -36 -39 -20 -55 16
-16 19 -15 55 20 21 20 41 37 44 37 10 0 38 -79 38 -110 0 -32 -28 -110 -39
-110 -4 0 -24 18 -46 40 -30 30 -42 37 -52 29 -19 -17 -16 -30 14 -61 l27 -28
-94 0 -94 0 32 33 c30 31 31 34 15 50 -16 16 -20 15 -61 -25 -35 -36 -44 -40
-52 -28 -13 20 -30 80 -30 107 0 25 29 103 38 103 3 0 23 -16 43 -36 34 -33
39 -35 58 -22 20 14 20 15 -19 53 -22 22 -40 42 -40 46 0 12 73 38 107 38 18
1 51 -6 73 -15z m-422 -132 c3 -59 -21 -118 -64 -151 -23 -18 -40 -21 -118
-21 -85 0 -93 2 -120 26 -27 25 -27 28 -10 38 127 75 291 163 299 162 6 -2 11
-26 13 -54z m-349 -7 c46 -23 45 -41 -5 -70 l-45 -26 20 -28 c23 -32 19 -41
-16 -41 -36 0 -83 51 -83 90 0 22 9 41 29 61 33 32 58 36 100 14z m-199 -55
c26 -26 25 -58 -2 -87 -27 -28 -57 -29 -86 -3 -26 24 -28 57 -6 88 19 28 67
29 94 2z"/>
<path d="M670 415 l0 -25 835 0 835 0 0 25 0 25 -835 0 -835 0 0 -25z"/>
</g>
</svg>
