<?xml version="1.0" standalone="no"?>
<!DOCTYPE svg PUBLIC "-//W3C//DTD SVG 20010904//EN"
 "http://www.w3.org/TR/2001/REC-SVG-20010904/DTD/svg10.dtd">
<svg version="1.0" xmlns="http://www.w3.org/2000/svg"
 width="360.000000pt" height="360.000000pt" viewBox="0 0 360.000000 360.000000"
 preserveAspectRatio="xMidYMid meet">

<g transform="translate(0.000000,360.000000) scale(0.100000,-0.100000)"
fill="#000000" stroke="none">
<path d="M1376 3129 c-2 -8 -23 -131 -46 -274 -23 -143 -44 -270 -47 -282 -4
-20 0 -19 70 16 142 72 291 108 477 117 128 7 261 -4 358 -29 28 -8 52 -10 52
-5 0 21 -153 160 -232 212 -118 77 -288 157 -433 205 -151 49 -193 58 -199 40z"/>
<path d="M1820 2544 c-295 -36 -582 -148 -875 -343 -71 -47 -134 -87 -140 -88
-5 -1 -26 17 -45 41 -82 100 -230 191 -368 227 -41 10 -79 19 -84 19 -4 0 -8
-270 -8 -600 0 -330 3 -600 8 -600 4 0 35 7 69 15 129 30 274 114 362 210 30
33 48 45 56 39 334 -243 642 -369 990 -405 188 -19 452 7 587 60 l27 10 -34
73 c-97 205 -138 540 -100 820 18 137 48 249 96 362 21 50 37 91 36 92 -6 6
-122 37 -187 50 -74 15 -322 26 -390 18z"/>
<path d="M2512 2398 c-36 -88 -75 -218 -94 -313 -18 -96 -18 -486 1 -580 35
-183 105 -375 136 -375 28 0 234 112 315 171 124 90 256 230 345 362 41 63 75
123 75 134 0 29 -93 179 -171 276 -77 96 -191 199 -292 265 -75 48 -245 132
-269 132 -9 0 -27 -28 -46 -72z m263 -477 c63 -36 88 -135 49 -202 -75 -129
-276 -74 -276 75 0 121 119 187 227 127z"/>
<path d="M1500 771 c0 -94 3 -171 6 -171 19 0 149 59 206 94 73 44 165 120
211 173 l29 33 -79 0 c-73 0 -266 20 -340 36 l-33 7 0 -172z"/>
</g>
</svg>
