<?xml version="1.0" standalone="no"?>
<!DOCTYPE svg PUBLIC "-//W3C//DTD SVG 20010904//EN"
 "http://www.w3.org/TR/2001/REC-SVG-20010904/DTD/svg10.dtd">
<svg version="1.0" xmlns="http://www.w3.org/2000/svg"
 width="242.000000pt" height="208.000000pt" viewBox="0 0 242.000000 208.000000"
 preserveAspectRatio="xMidYMid meet">

<g transform="translate(0.000000,208.000000) scale(0.100000,-0.100000)"
fill="#000000" stroke="none">
<path d="M1045 1696 c-16 -8 -45 -29 -63 -48 l-33 -35 -46 24 c-65 33 -117 31
-154 -6 -23 -24 -29 -38 -29 -74 0 -43 -2 -46 -35 -57 -19 -6 -55 -34 -82 -64
l-48 -53 -49 34 c-86 59 -152 36 -177 -62 -11 -42 -14 -46 -38 -41 -14 3 -47
8 -74 12 l-47 6 0 -48 c0 -64 26 -116 65 -128 39 -13 39 -13 28 -28 -19 -24
-22 -60 -8 -104 11 -37 11 -44 -1 -44 -20 0 -18 -37 6 -105 29 -85 65 -141
139 -218 162 -169 427 -271 737 -284 347 -14 663 103 876 325 104 109 202 280
186 324 -7 17 -87 31 -124 22 -38 -10 -32 6 44 107 19 26 56 63 83 84 29 22
49 45 49 57 0 24 -54 48 -125 55 l-50 5 3 39 c6 58 -5 87 -38 104 -37 19 -71
19 -117 0 -43 -18 -43 -18 -74 68 -14 36 -27 57 -37 57 -9 0 -35 -21 -58 -47
l-41 -48 -38 33 c-48 43 -83 56 -111 43 -18 -8 -26 -6 -41 11 -56 63 -145 65
-211 5 l-22 -21 -30 36 c-56 67 -147 94 -215 64z m139 -80 c23 -14 50 -38 61
-55 23 -36 46 -39 83 -12 47 33 106 46 143 31 30 -13 31 -15 25 -56 -3 -24 -1
-67 4 -95 7 -37 7 -56 -1 -65 -18 -22 -26 -17 -44 30 -21 55 -43 66 -68 34
-11 -13 -39 -45 -64 -71 l-45 -48 -37 25 c-51 35 -83 41 -119 22 -38 -19 -49
-63 -32 -124 14 -53 32 -56 24 -4 -5 34 -3 42 21 60 38 30 56 28 106 -14 l42
-35 60 66 59 66 32 -53 c17 -28 36 -53 43 -55 6 -2 25 16 43 41 50 73 119 97
160 56 16 -16 20 -33 20 -80 l0 -61 -37 8 c-104 22 -222 -3 -290 -62 -51 -44
-75 -101 -72 -174 1 -31 -2 -58 -6 -61 -5 -3 -27 27 -50 67 -53 95 -100 151
-141 170 -33 16 -34 19 -34 75 0 66 -26 130 -61 148 -22 13 -96 15 -127 6 -15
-5 -22 1 -32 24 -14 34 -64 80 -86 80 -22 0 -17 36 10 67 19 22 32 28 64 27
22 -1 56 -11 75 -23 46 -28 52 -27 89 15 53 60 114 70 182 30z m438 -79 c14
-13 33 -36 43 -50 23 -36 44 -34 85 8 19 19 37 35 41 35 4 0 19 -25 35 -56 15
-30 31 -57 35 -60 4 -2 27 5 50 16 60 27 97 26 108 -2 9 -25 -3 -91 -17 -96
-22 -7 -76 -53 -98 -84 -36 -48 -57 -128 -49 -183 4 -25 10 -45 14 -45 4 0 13
27 19 61 23 126 95 199 203 207 32 2 59 1 59 -3 0 -4 -26 -35 -58 -69 -44 -47
-102 -138 -118 -184 0 -1 -27 -7 -60 -13 -32 -5 -66 -12 -75 -15 -12 -3 -15 2
-11 25 6 41 -14 95 -50 133 -26 28 -29 37 -23 74 14 95 -47 184 -125 184 -21
0 -50 -4 -64 -10 -26 -9 -26 -9 -26 39 0 31 5 53 15 61 8 7 15 21 15 31 0 26
22 24 52 -4z m-834 -114 c13 -14 26 -38 29 -54 8 -40 16 -43 72 -28 26 6 60 9
74 5 33 -8 57 -52 57 -105 0 -42 -3 -47 -62 -85 l-36 -24 -22 23 c-33 35 -147
91 -214 105 -84 17 -142 6 -183 -35 -18 -18 -33 -42 -33 -54 0 -24 -6 -25 -40
-6 -14 8 -49 14 -78 15 -51 0 -114 19 -124 36 -3 5 -8 22 -12 38 l-7 29 75 -6
75 -5 11 51 c6 28 15 57 22 64 22 26 64 15 117 -33 50 -45 71 -49 71 -15 0 23
66 86 110 105 42 18 67 13 98 -21z m-35 -231 c54 -24 131 -88 116 -97 -6 -4
-23 4 -37 18 -15 13 -43 33 -62 43 -48 24 -160 25 -223 0 -27 -10 -50 -16 -52
-14 -9 9 29 51 59 64 40 19 142 11 199 -14z m935 -35 c25 -16 54 -48 71 -80
16 -28 34 -57 40 -63 7 -9 3 -14 -12 -18 -41 -11 -66 -6 -72 13 -3 10 -19 38
-36 61 -73 100 -218 105 -271 9 -15 -27 -18 -46 -14 -91 l6 -58 -29 0 c-23 0
-30 5 -34 28 -16 78 31 159 116 202 54 28 70 31 128 28 52 -3 75 -10 107 -31z
m-963 -26 c22 -10 48 -27 58 -39 18 -19 17 -21 -8 -46 -14 -14 -28 -40 -32
-57 l-6 -31 -56 7 c-31 4 -83 11 -116 14 l-60 6 -5 50 c-3 28 -9 55 -13 62 -6
10 17 22 93 47 34 11 108 4 145 -13z m414 -47 c28 -34 91 -144 91 -158 0 -3
-36 -6 -80 -6 l-80 0 -24 53 c-12 28 -19 54 -14 55 21 9 5 40 -28 55 -42 20
-40 43 4 40 19 -2 32 3 36 12 5 14 9 14 35 1 16 -9 43 -32 60 -52z m-714 21
c20 -19 25 -34 25 -75 0 -50 0 -50 -33 -50 -17 0 -47 -4 -65 -9 -25 -8 -32 -7
-29 2 2 7 -2 26 -10 44 -18 45 -16 70 7 93 28 28 75 26 105 -5z m1140 -5 c37
0 132 -115 103 -125 -30 -10 -230 -35 -239 -29 -23 14 1 104 37 135 21 19 52
29 72 23 8 -2 20 -4 27 -4z m-555 -120 l41 -60 -51 0 c-48 0 -180 16 -208 25
-10 4 -9 11 3 35 19 36 47 54 63 38 12 -12 35 -1 27 13 -4 5 14 9 39 9 44 0
46 -2 86 -60z m1080 -24 c0 -11 -47 -85 -87 -137 -171 -226 -483 -361 -838
-362 -188 -1 -311 27 -466 104 -128 64 -225 146 -335 284 -64 79 -64 80 -39
87 27 7 108 -2 220 -26 39 -8 151 -27 250 -42 151 -23 211 -28 370 -27 206 0
284 9 685 82 228 42 240 44 240 37z"/>
</g>
</svg>
