<?xml version="1.0" standalone="no"?>
<!DOCTYPE svg PUBLIC "-//W3C//DTD SVG 20010904//EN"
 "http://www.w3.org/TR/2001/REC-SVG-20010904/DTD/svg10.dtd">
<svg version="1.0" xmlns="http://www.w3.org/2000/svg"
 width="512.000000pt" height="512.000000pt" viewBox="0 0 512.000000 512.000000"
 preserveAspectRatio="xMidYMid meet">

<g transform="translate(0.000000,512.000000) scale(0.100000,-0.100000)"
fill="#000000" stroke="none">
<path d="M4755 4949 c-142 -24 -270 -92 -381 -203 -89 -90 -142 -174 -183
-294 l-26 -77 0 -435 0 -435 32 -67 c42 -90 100 -150 186 -193 38 -19 76 -35
83 -35 12 0 14 -171 14 -1061 0 -804 3 -1072 12 -1103 16 -55 99 -138 154
-154 96 -28 182 -4 247 68 24 26 49 66 55 88 9 29 12 285 12 991 l0 952 -25
24 c-15 16 -36 25 -55 25 -19 0 -40 -9 -55 -25 l-25 -24 0 -951 0 -951 -25
-24 c-32 -33 -78 -33 -110 0 l-25 24 0 1056 0 1055 135 0 c131 0 137 1 160 25
l25 24 0 831 0 831 -25 24 c-20 21 -33 25 -77 24 -29 -1 -75 -5 -103 -10z m45
-874 l0 -715 -136 0 c-170 0 -204 9 -270 75 -76 75 -76 77 -72 530 l3 390 26
66 c37 96 73 153 136 214 78 78 218 152 291 154 l22 1 0 -715z"/>
<path d="M184 4375 l-25 -25 3 -497 c3 -494 3 -498 26 -543 35 -72 76 -114
144 -150 60 -32 69 -34 186 -38 l122 -4 0 -1175 0 -1174 -25 -24 c-32 -33 -78
-33 -110 0 l-25 24 0 1074 c0 1072 0 1074 -21 1101 -16 20 -29 26 -59 26 -30
0 -43 -6 -59 -26 -21 -27 -21 -29 -21 -1102 0 -814 3 -1085 12 -1116 16 -55
99 -138 154 -154 96 -28 182 -4 247 68 24 26 49 66 55 88 9 29 12 341 12 1241
0 687 4 1201 9 1201 20 0 96 89 120 140 l26 55 3 493 3 492 -25 25 c-33 33
-79 33 -111 0 l-25 -24 0 -296 0 -295 -80 0 -80 0 0 295 0 296 -25 24 c-15 16
-36 25 -55 25 -19 0 -40 -9 -55 -25 l-25 -24 0 -296 0 -295 -80 0 -80 0 0 295
0 296 -25 24 c-32 33 -78 33 -111 0z m614 -884 c-3 -118 -12 -141 -72 -185
-25 -19 -42 -21 -166 -21 -124 0 -141 2 -166 21 -60 44 -69 67 -72 185 l-4
109 242 0 242 0 -4 -109z"/>
<path d="M2425 3988 c-460 -52 -920 -292 -1226 -641 -107 -121 -239 -320 -239
-359 0 -54 61 -92 114 -72 9 3 55 65 103 138 114 173 305 367 467 475 295 196
585 293 926 308 373 16 732 -87 1060 -304 168 -112 357 -303 473 -479 48 -73
94 -135 103 -138 32 -12 66 -5 89 19 41 40 33 70 -54 201 -193 291 -436 504
-746 658 -167 83 -277 122 -446 160 -202 44 -425 57 -624 34z"/>
<path d="M3065 3575 c-16 -15 -25 -36 -25 -55 0 -19 9 -40 25 -55 15 -16 36
-25 55 -25 19 0 40 9 55 25 16 15 25 36 25 55 0 19 -9 40 -25 55 -15 16 -36
25 -55 25 -19 0 -40 -9 -55 -25z"/>
<path d="M2345 3495 c-48 -47 -26 -145 50 -220 73 -74 151 -92 248 -59 117 40
199 213 132 279 -49 50 -135 15 -135 -55 0 -41 -39 -80 -80 -80 -41 0 -80 39
-80 80 0 41 -39 80 -80 80 -19 0 -40 -9 -55 -25z"/>
<path d="M1871 3343 c-15 -13 -35 -65 -67 -178 -42 -144 -50 -164 -85 -200
l-39 -40 0 113 c0 107 -1 114 -25 137 -32 33 -78 33 -110 0 -25 -24 -25 -25
-25 -227 -1 -196 -1 -204 -25 -242 l-23 -39 -18 84 c-21 96 -45 129 -94 129
-37 0 -80 -39 -80 -72 0 -13 18 -101 39 -197 22 -95 37 -180 34 -188 -3 -9
-21 9 -49 49 -25 35 -52 69 -61 76 -45 33 -123 -8 -123 -65 0 -19 28 -68 86
-150 l85 -123 -6 -55 c-4 -30 -10 -55 -14 -55 -3 0 -26 28 -51 61 -25 33 -53
65 -62 70 -30 16 -68 10 -93 -16 -45 -44 -36 -68 89 -232 77 -101 116 -161
120 -184 82 -510 90 -554 113 -576 30 -31 77 -30 108 2 14 13 25 34 25 45 0
20 -62 404 -76 474 l-6 28 95 -7 c94 -7 96 -7 121 18 34 34 34 80 2 112 -20
20 -37 24 -125 30 l-101 8 0 72 c0 39 3 74 6 78 3 3 36 -14 73 -39 39 -26 77
-44 94 -44 55 0 94 69 68 119 -6 10 -53 46 -105 81 -53 34 -96 64 -96 65 0 13
24 65 30 65 4 0 61 -20 127 -45 65 -25 128 -45 141 -45 33 0 72 43 72 78 0 49
-28 69 -155 116 -65 24 -121 48 -123 54 -5 15 47 102 61 102 5 0 90 -25 188
-55 98 -30 187 -55 199 -55 31 0 70 44 70 78 0 54 -24 70 -193 122 -87 26
-161 51 -165 55 -7 6 114 125 154 151 22 15 34 13 188 -35 91 -28 174 -51 186
-51 30 0 70 44 70 77 0 52 -24 70 -136 105 -57 17 -101 35 -97 39 5 4 49 24
98 44 106 43 140 74 131 119 -7 38 -39 66 -75 66 -30 0 -122 -35 -213 -81 -32
-16 -59 -29 -62 -29 -2 0 4 28 15 63 25 82 24 103 -6 132 -29 30 -73 33 -104
8z"/>
<path d="M3050 3278 c-141 -20 -313 -93 -430 -183 -129 -100 -270 -282 -270
-351 0 -39 36 -74 76 -74 40 0 53 12 106 95 86 135 78 219 78 -854 l0 -952 25
-24 c34 -35 86 -34 114 1 21 27 21 30 21 1050 l0 1023 84 41 c47 23 101 44
120 47 l36 6 0 -81 c0 -75 2 -82 26 -101 30 -23 71 -27 95 -8 30 23 39 56 39
138 l0 82 83 -6 c45 -3 96 -9 114 -13 l31 -6 4 -104 c4 -128 20 -150 101 -145
39 2 57 37 57 111 0 39 4 70 8 70 24 0 145 -91 207 -155 77 -80 123 -149 164
-252 46 -112 56 -168 56 -303 -1 -136 -22 -237 -70 -328 l-24 -47 -1 196 c0
191 -1 196 -23 217 -29 27 -77 28 -108 3 l-24 -19 -3 -304 -3 -304 -89 -89
-90 -90 0 286 c0 230 3 289 14 298 7 6 26 39 42 74 26 55 29 73 29 162 0 87
-4 107 -27 157 -97 207 -332 293 -534 193 -86 -42 -144 -102 -187 -193 -29
-60 -32 -76 -31 -157 0 -69 6 -104 23 -148 32 -81 114 -168 199 -209 60 -30
75 -33 157 -33 49 0 105 4 123 8 l32 9 0 -306 0 -307 -112 -115 -113 -116 -5
331 c-5 325 -5 331 -27 353 -31 31 -89 30 -114 -1 -18 -22 -19 -47 -19 -435
l0 -411 -100 -97 c-111 -107 -195 -157 -297 -178 -62 -13 -170 -8 -215 9 l-28
11 0 164 0 165 -26 20 c-35 27 -67 26 -101 -3 -26 -23 -28 -28 -33 -142 l-5
-118 -44 50 c-105 119 -145 279 -106 427 20 76 48 130 104 199 l46 58 5 -121
c5 -117 6 -122 33 -145 34 -29 66 -30 101 -3 l26 20 0 274 c0 220 3 288 17
347 13 57 16 124 16 307 0 232 0 234 -22 253 -29 23 -72 23 -101 0 -33 -27
-42 -97 -34 -277 5 -142 4 -170 -15 -248 -24 -103 -75 -212 -131 -282 -23 -27
-61 -77 -87 -110 -268 -348 -107 -858 312 -991 166 -53 326 -41 485 37 84 41
89 45 625 583 571 572 574 575 648 743 55 125 70 204 70 373 0 173 -14 246
-76 389 -48 111 -99 184 -201 287 -221 221 -512 317 -826 272z m276 -663 c202
-60 229 -340 41 -436 -119 -62 -268 -13 -323 104 -64 137 5 295 147 335 49 15
79 14 135 -3z"/>
<path d="M3223 2460 c-47 -19 -58 -92 -20 -128 40 -37 98 -28 123 19 18 36 10
73 -23 99 -28 22 -46 24 -80 10z"/>
<path d="M1945 2055 c-50 -49 -15 -135 55 -135 19 0 40 9 55 25 16 15 25 36
25 55 0 19 -9 40 -25 55 -15 16 -36 25 -55 25 -19 0 -40 -9 -55 -25z"/>
<path d="M1545 1655 c-50 -49 -15 -135 55 -135 19 0 40 -9 55 -25 16 -15 25
-36 25 -55 0 -41 39 -80 80 -80 42 0 80 39 80 81 0 62 -23 113 -75 164 -75 76
-173 98 -220 50z"/>
<path d="M3785 1335 c-50 -49 -15 -135 55 -135 41 0 80 39 80 80 0 41 -39 80
-80 80 -19 0 -40 -9 -55 -25z"/>
<path d="M985 1225 c-40 -39 -32 -70 43 -186 200 -306 460 -535 785 -689 178
-84 318 -129 527 -167 133 -24 467 -24 600 0 211 39 352 83 529 168 323 155
585 385 783 688 44 67 68 115 68 133 0 54 -62 92 -114 72 -9 -3 -55 -65 -103
-138 -116 -176 -305 -367 -473 -479 -328 -217 -687 -320 -1060 -304 -274 13
-503 74 -749 203 -160 83 -281 174 -427 319 -103 102 -149 158 -217 261 -48
73 -94 135 -103 138 -32 12 -66 5 -89 -19z"/>
<path d="M3625 1095 c-50 -49 -15 -135 55 -135 41 0 80 39 80 80 0 41 -39 80
-80 80 -19 0 -40 -9 -55 -25z"/>
<path d="M1625 1015 c-50 -49 -15 -135 55 -135 19 0 40 9 55 25 16 15 25 36
25 55 0 19 -9 40 -25 55 -15 16 -36 25 -55 25 -19 0 -40 -9 -55 -25z"/>
<path d="M3225 775 c-50 -49 -15 -135 55 -135 41 0 80 39 80 80 0 41 -39 80
-80 80 -19 0 -40 -9 -55 -25z"/>
</g>
</svg>
