<?xml version="1.0" standalone="no"?>
<!DOCTYPE svg PUBLIC "-//W3C//DTD SVG 20010904//EN"
 "http://www.w3.org/TR/2001/REC-SVG-20010904/DTD/svg10.dtd">
<svg version="1.0" xmlns="http://www.w3.org/2000/svg"
 width="258.000000pt" height="195.000000pt" viewBox="0 0 258.000000 195.000000"
 preserveAspectRatio="xMidYMid meet">

<g transform="translate(0.000000,195.000000) scale(0.100000,-0.100000)"
fill="#000000" stroke="none">
<path d="M861 1936 c-10 -11 -6 -26 15 -68 54 -107 53 -123 -19 -207 -26 -30
-49 -66 -52 -82 -11 -51 36 -120 98 -142 32 -12 32 22 -1 56 -52 54 -48 79 26
158 54 59 57 65 57 113 0 53 -28 120 -68 164 -24 25 -40 28 -56 8z"/>
<path d="M1756 1811 c-10 -11 -20 -39 -23 -63 -4 -38 0 -50 38 -106 l43 -63
-27 -55 c-35 -71 -36 -104 -2 -104 31 0 50 28 68 100 17 64 10 97 -28 142 -23
28 -26 37 -20 72 14 74 12 91 -11 94 -11 2 -28 -6 -38 -17z"/>
<path d="M1314 1704 c-24 -52 -44 -103 -44 -113 0 -10 16 -32 35 -50 35 -32
36 -33 29 -90 -7 -61 7 -88 40 -75 19 7 27 36 29 103 2 44 -2 54 -31 84 l-34
35 31 60 c17 34 31 71 31 82 0 27 -17 60 -31 60 -6 0 -30 -43 -55 -96z"/>
<path d="M1514 1354 c-23 -8 -59 -30 -81 -49 l-39 -34 -46 30 c-52 34 -173 63
-234 56 -60 -6 -140 -46 -210 -104 -57 -48 -61 -50 -73 -32 -17 29 -70 58
-117 65 -73 11 -147 -18 -215 -85 -57 -55 -59 -59 -59 -109 0 -29 7 -69 15
-89 8 -19 15 -37 15 -38 0 -1 -21 -8 -46 -14 -101 -26 -147 -62 -188 -151 -32
-69 -34 -146 -6 -209 11 -24 20 -44 20 -46 0 -1 -53 -5 -117 -9 -75 -4 -120
-11 -125 -19 -12 -18 0 -64 42 -154 44 -94 66 -112 145 -120 62 -7 72 -15 135
-118 45 -73 63 -85 152 -96 92 -12 1404 7 1503 22 91 13 142 44 235 140 61 63
80 77 98 72 12 -3 33 -3 46 1 34 8 202 197 210 236 12 61 -22 90 -112 95 l-57
4 -5 55 c-7 70 -35 101 -108 118 l-52 13 0 42 c0 55 -32 91 -119 137 l-65 34
0 80 c-1 65 -5 86 -22 109 -31 42 -70 58 -144 57 -65 -1 -65 -1 -90 38 -49 78
-178 110 -286 72z m173 -84 c56 -34 65 -58 50 -126 l-14 -59 -59 3 c-50 3 -69
-2 -129 -31 -38 -19 -81 -46 -94 -60 l-23 -26 -53 30 c-68 38 -115 38 -189 -1
l-57 -31 -55 57 c-33 34 -69 60 -89 65 -45 13 -45 36 -2 75 46 43 77 60 142
79 68 20 131 14 171 -17 25 -20 84 -129 84 -155 0 -19 30 -43 54 -43 38 0 47
20 36 80 -12 64 3 97 69 147 51 39 108 44 158 13z m-946 -109 c44 -44 39 -72
-21 -115 -27 -20 -61 -54 -75 -76 -15 -24 -33 -40 -44 -40 -49 0 -87 110 -58
166 46 88 143 120 198 65z m1187 -11 c44 -27 57 -59 46 -111 -8 -35 -15 -44
-45 -56 l-37 -14 -46 48 c-39 40 -46 53 -41 77 6 34 22 55 50 66 30 13 37 12
73 -10z m-942 -174 c19 -19 34 -38 34 -43 0 -4 -15 -31 -33 -58 -29 -45 -37
-51 -77 -55 -25 -3 -55 -12 -68 -19 -26 -14 -31 -12 -94 48 -48 44 -48 71 -3
105 52 40 94 55 154 56 47 0 57 -4 87 -34z m739 7 c87 -44 114 -86 79 -124 -9
-10 -20 -37 -25 -61 -12 -54 -34 -88 -56 -88 -10 0 -37 19 -61 43 -40 39 -46
42 -99 42 -54 0 -57 1 -67 32 -6 17 -14 35 -18 39 -15 14 -8 43 18 73 57 68
146 85 229 44z m-407 -82 c94 -48 120 -116 70 -185 -12 -16 -27 -48 -33 -70
l-12 -41 -106 -3 c-119 -3 -107 -10 -121 75 -3 18 -17 51 -32 73 -24 35 -25
43 -15 69 14 33 53 71 96 95 37 20 99 15 153 -13z m777 -25 c14 -9 31 -29 40
-46 14 -26 13 -33 -3 -75 -10 -26 -22 -46 -26 -46 -4 0 -23 20 -42 45 -26 35
-43 47 -72 51 -85 15 -93 32 -32 73 39 27 92 26 135 -2z m-1468 -76 c91 -45
122 -92 87 -131 -8 -9 -19 -39 -22 -66 l-7 -48 -140 -3 c-187 -4 -200 -1 -226
50 -38 74 -22 164 34 201 70 46 177 44 274 -3z m370 -122 c37 -36 43 -72 13
-88 -12 -6 -61 -10 -118 -8 -89 3 -97 5 -100 24 -4 25 30 69 72 96 42 26 90
18 133 -24z m967 28 c40 -17 78 -63 74 -90 -4 -28 -54 -37 -161 -30 -62 4 -90
10 -94 20 -8 20 44 84 81 100 40 17 59 17 100 0z m-373 -6 c24 -13 89 -78 89
-89 0 -5 -6 -13 -13 -19 -15 -13 -193 0 -209 16 -15 15 13 57 55 82 36 23 50
24 78 10z m717 -48 c18 -23 15 -50 -8 -62 -22 -12 -136 2 -153 19 -16 16 -3
46 20 44 12 -2 37 4 55 12 37 16 67 11 86 -13z m162 -170 c0 -5 -18 -18 -39
-30 -22 -13 -49 -38 -61 -57 -33 -53 -52 -59 -100 -34 -38 20 -51 21 -148 16
-59 -4 -368 -8 -687 -8 -831 -3 -1170 -11 -1218 -32 -21 -9 -44 -14 -52 -11
-23 9 -60 93 -46 107 7 7 106 14 278 19 148 5 369 15 493 22 251 15 1580 21
1580 8z m-360 -248 c-93 -95 -51 -88 -595 -98 -264 -5 -609 -9 -767 -10 -276
-1 -288 0 -315 20 -29 22 -62 77 -63 106 0 19 -4 19 1295 26 l489 2 -44 -46z"/>
</g>
</svg>
