<?xml version="1.0" standalone="no"?>
<!DOCTYPE svg PUBLIC "-//W3C//DTD SVG 20010904//EN"
 "http://www.w3.org/TR/2001/REC-SVG-20010904/DTD/svg10.dtd">
<svg version="1.0" xmlns="http://www.w3.org/2000/svg"
 width="480.000000pt" height="256.000000pt" viewBox="0 0 480.000000 256.000000"
 preserveAspectRatio="xMidYMid meet">

<g transform="translate(0.000000,256.000000) scale(0.100000,-0.100000)"
fill="#000000" stroke="none">
<path d="M2150 2093 c-85 -9 -262 -47 -350 -75 -330 -106 -581 -306 -671 -535
-30 -76 -33 -248 -7 -333 99 -315 519 -569 1042 -631 145 -17 482 -7 626 19
451 82 772 286 877 560 52 136 41 313 -28 442 -178 335 -718 565 -1311 558
-79 0 -159 -3 -178 -5z m435 -34 c369 -39 703 -173 898 -362 125 -120 186
-251 188 -396 1 -106 -7 -144 -53 -239 -264 -557 -1494 -714 -2158 -277 -151
100 -270 242 -310 371 -27 88 -27 210 0 298 61 196 272 387 554 500 49 20 90
36 92 36 12 0 -11 -57 -29 -71 -15 -12 -19 -24 -14 -46 5 -23 1 -33 -19 -48
-29 -21 -30 -32 -4 -65 14 -18 16 -28 8 -38 -8 -9 -6 -18 10 -33 32 -30 28
-43 -13 -36 -27 4 -38 1 -48 -14 -8 -10 -28 -22 -46 -25 -40 -8 -42 -12 -32
-57 7 -27 5 -39 -5 -48 -8 -6 -14 -18 -14 -25 0 -32 -40 -11 -82 44 -57 73
-65 89 -70 137 -3 28 -9 41 -21 43 -15 3 -16 -5 -11 -87 3 -50 12 -110 20
-133 l14 -41 -33 -31 c-19 -17 -43 -49 -55 -72 -11 -22 -27 -46 -35 -52 -19
-16 -39 6 -71 81 -24 54 -38 68 -50 49 -2 -4 -1 -47 3 -95 10 -109 47 -188
130 -279 56 -61 202 -168 230 -168 8 0 5 -11 -10 -31 -32 -45 -10 -61 28 -20
l28 32 55 -19 c30 -11 76 -31 103 -45 73 -39 147 -51 247 -40 l85 10 46 -42
c39 -36 57 -45 125 -60 43 -9 96 -26 116 -36 20 -11 63 -23 95 -28 50 -7 41
-9 -73 -10 -517 -5 -949 163 -1151 446 -51 71 -92 163 -93 205 0 15 -4 30 -10
33 -6 4 -8 -7 -4 -27 34 -195 207 -389 459 -516 484 -243 1369 -207 1760 72
81 58 174 160 214 235 45 85 38 88 -11 4 -117 -195 -299 -315 -588 -389 -112
-28 -284 -54 -350 -53 l-45 1 40 9 c123 29 295 121 330 177 15 23 25 31 40 27
79 -20 105 -18 171 15 36 19 84 50 107 70 29 26 55 39 85 43 50 6 110 43 182
111 40 38 50 54 48 75 -3 23 -8 26 -50 29 -27 2 -48 6 -48 9 0 4 9 16 19 27
29 31 101 163 101 184 0 10 -11 29 -24 41 -20 19 -33 22 -73 19 -26 -2 -55 -6
-63 -9 -10 -3 -16 7 -20 36 -6 37 -24 71 -126 232 -36 57 -42 62 -74 62 -48 1
-62 -10 -56 -42 19 -91 22 -86 -22 -44 -26 25 -44 36 -55 31 -10 -4 -29 4 -48
20 -18 15 -39 26 -48 24 -22 -4 -25 -41 -7 -76 15 -29 15 -30 -22 -55 -20 -14
-50 -27 -67 -29 -27 -3 -33 2 -53 42 -18 34 -22 55 -17 86 5 33 2 44 -15 59
-11 10 -20 27 -20 37 0 13 -11 24 -30 31 -16 6 -30 16 -30 21 0 20 -74 76
-107 82 -27 5 -39 2 -58 -16 -22 -20 -25 -21 -31 -6 -3 9 -11 16 -18 16 -6 0
-30 19 -54 42 -37 35 -49 41 -90 43 -26 1 -60 5 -76 10 -15 4 -31 4 -35 -1 -3
-5 -18 -15 -33 -21 -16 -7 -28 -20 -28 -29 0 -27 -31 -54 -61 -54 -27 0 -28 2
-22 31 7 35 -6 49 -49 49 -15 0 -39 5 -53 12 -21 9 -32 8 -61 -5 -34 -17 -65
-14 -47 4 14 14 190 41 308 48 129 7 222 5 360 -10z m-285 -50 c0 -6 6 -9 14
-6 8 3 17 3 20 0 11 -12 60 -12 74 -1 10 9 14 6 19 -10 3 -12 12 -22 19 -22 8
0 14 -7 14 -15 0 -8 6 -15 13 -15 6 0 23 -9 37 -20 20 -16 22 -22 11 -29 -7
-5 -21 -6 -31 -4 -13 4 -21 -4 -31 -31 -9 -25 -18 -35 -32 -33 -21 2 -55 -43
-56 -74 -1 -26 -31 -33 -31 -7 0 17 -4 20 -30 15 -23 -5 -33 -2 -44 14 -8 12
-22 19 -32 17 -11 -2 -27 5 -37 15 -15 15 -17 24 -9 42 8 18 6 26 -11 44 -14
13 -17 21 -8 21 23 0 65 41 66 63 0 15 5 21 18 19 9 -2 20 4 23 13 7 17 24 20
24 4z m-360 -42 c0 6 12 18 26 28 22 14 31 15 53 5 14 -7 40 -13 56 -14 28 -1
30 -3 27 -38 -2 -22 2 -38 7 -38 6 0 22 -10 36 -22 19 -17 24 -29 20 -46 -4
-17 1 -29 17 -43 l23 -19 -30 2 c-39 2 -55 -8 -55 -36 0 -28 -19 -53 -45 -58
-11 -2 -22 -14 -25 -28 -8 -34 -57 -35 -84 -2 -13 17 -21 20 -31 12 -9 -8 -19
-4 -36 15 -27 28 -60 32 -79 10 -7 -8 -18 -15 -25 -15 -14 0 -29 28 -26 47 1
7 -6 24 -16 39 -16 25 -16 27 2 40 10 8 22 14 26 14 5 0 3 14 -3 30 -12 35 -5
60 17 60 9 0 15 9 15 24 0 29 25 57 44 50 7 -3 16 3 20 12 6 15 10 14 36 -11
17 -16 30 -24 30 -18z m715 -49 c14 -6 25 -14 25 -18 0 -4 10 -10 23 -14 18
-5 20 -8 7 -16 -13 -9 -12 -12 5 -23 11 -6 29 -14 40 -17 13 -4 21 -16 23 -33
2 -15 12 -33 23 -41 15 -10 18 -20 13 -40 -3 -14 -11 -26 -16 -26 -6 0 -8 -11
-4 -24 5 -21 1 -25 -38 -35 -24 -6 -49 -17 -56 -26 -7 -8 -17 -15 -23 -15 -5
0 -17 -9 -27 -20 -18 -20 -47 -25 -137 -22 -29 1 -43 7 -43 15 0 23 -31 77
-43 77 -8 0 -13 16 -13 41 -1 22 -6 45 -12 51 -6 6 -7 17 -2 27 5 9 11 24 14
33 3 10 12 15 23 12 12 -3 23 5 35 26 13 23 24 31 40 28 21 -3 58 22 58 38 0
10 33 33 47 34 7 0 24 -5 38 -12z m-353 -185 c11 20 32 23 25 4 -3 -8 -1 -20
3 -27 7 -11 14 -11 34 -2 24 11 26 10 27 -16 1 -15 1 -34 0 -44 -2 -16 15 -32
34 -33 6 0 9 -8 7 -18 -2 -9 2 -17 7 -17 6 0 8 -7 5 -15 -4 -8 -12 -15 -20
-15 -17 0 -18 -17 -1 -23 28 -10 -13 -28 -81 -35 -78 -9 -85 -3 -22 18 38 13
40 15 20 22 -28 10 -108 1 -180 -22 -30 -10 -74 -21 -97 -25 -39 -6 -43 -5
-43 14 0 12 6 21 15 21 19 0 20 16 1 23 -21 8 -17 59 6 65 11 2 21 16 25 32 4
21 13 29 33 34 24 4 29 11 32 38 3 31 5 33 48 36 25 2 49 7 54 12 6 6 19 -1
34 -17 22 -24 25 -25 34 -10z m1024 -102 c41 -63 74 -117 74 -121 0 -3 -35
-25 -79 -48 l-79 -42 -5 27 c-2 16 -12 73 -21 128 -9 55 -18 114 -21 132 -5
27 -2 32 17 36 13 2 27 3 32 3 5 -1 42 -53 82 -115z m-256 51 c65 -67 97 -139
106 -234 6 -68 4 -78 -10 -78 -9 0 -21 12 -26 28 -14 37 -33 74 -25 49 20 -69
10 -58 -23 28 -22 55 -53 131 -71 169 -17 38 -31 73 -31 77 0 23 38 4 80 -39z
m-1173 -27 c18 -19 34 -35 37 -35 3 0 6 10 9 23 3 20 5 19 17 -11 7 -20 18
-31 25 -28 10 3 12 -4 10 -24 -2 -16 0 -32 5 -35 6 -3 5 -16 0 -30 -5 -14 -7
-31 -4 -39 8 -21 -38 -31 -67 -15 -27 14 -120 14 -169 -1 -53 -15 -88 -12
-110 10 -12 12 -25 18 -30 15 -15 -10 -12 11 4 24 11 9 12 20 5 44 -5 18 -9
32 -9 33 0 0 18 7 40 14 22 7 40 19 40 25 0 8 12 12 32 10 25 -2 34 -8 39 -26
4 -13 7 -20 8 -15 1 5 8 3 16 -4 12 -10 16 -9 21 4 8 21 30 21 38 0 9 -24 19
-10 11 15 -7 23 -34 28 -52 10 -6 -6 -17 -8 -24 -4 -9 6 -9 11 3 19 8 6 20 21
27 34 17 31 41 27 78 -13z m1256 -3 c36 -36 39 -45 61 -170 13 -73 21 -132 17
-132 -23 1 -33 26 -42 110 -7 69 -16 105 -34 136 -14 24 -30 46 -35 49 -5 3
-15 15 -20 26 -18 33 13 23 53 -19z m-1686 -99 c61 -84 118 -144 166 -175 l51
-32 -59 -15 -59 -14 -46 50 c-51 55 -85 134 -94 218 -4 36 -3 44 4 28 5 -12
21 -39 37 -60z m1377 48 l15 -29 -76 -27 c-45 -16 -85 -24 -99 -21 -36 9 -29
23 10 18 36 -4 54 11 37 31 -5 7 -6 19 -2 26 7 11 13 10 35 -4 28 -19 61 -13
53 9 -5 12 0 26 9 26 2 0 10 -13 18 -29z m-49 9 c3 -5 -1 -10 -10 -10 -9 0
-13 5 -10 10 3 6 8 10 10 10 2 0 7 -4 10 -10z m243 -45 l21 -55 -32 -57 c-18
-32 -36 -67 -40 -77 -10 -25 -19 -14 -46 58 l-22 60 43 37 c24 21 46 38 51 39
4 0 7 5 7 11 0 6 -22 -7 -49 -30 -42 -35 -88 -61 -109 -61 -11 0 132 129 144
130 6 0 21 -25 32 -55z m-318 -5 c0 -5 -6 -10 -14 -10 -8 0 -18 5 -21 10 -3 6
3 10 14 10 12 0 21 -4 21 -10z m120 -66 c-40 -38 -67 -70 -61 -72 22 -7 10
-20 -33 -32 -43 -12 -45 -11 -97 24 -30 20 -60 36 -68 36 -8 0 -11 3 -7 8 8 8
329 110 334 106 2 -1 -28 -33 -68 -70z m-225 27 c74 -1 64 -13 -32 -40 l-72
-20 -31 35 c-16 19 -30 36 -30 38 0 1 24 -1 53 -5 28 -4 79 -8 112 -8z m-368
-31 c-14 -11 -32 -20 -41 -20 -8 0 -51 -11 -95 -25 -96 -30 -164 -86 -201
-164 -18 -39 -29 -51 -45 -51 -12 0 -43 -3 -69 -6 -40 -6 -46 -5 -40 10 3 9
10 13 15 10 5 -3 6 3 2 12 -4 11 -2 15 4 11 6 -4 14 0 17 9 4 10 2 13 -6 8 -7
-4 -1 7 11 25 42 59 205 142 342 176 125 30 139 31 106 5z m263 -74 c0 -16 7
-37 16 -47 15 -16 14 -17 -8 -12 -55 14 -68 32 -68 91 l0 56 30 -29 c20 -19
30 -38 30 -59z m586 -10 c9 -36 -7 -32 -34 9 -19 30 -21 39 -11 58 12 22 13
22 25 -9 7 -17 16 -43 20 -58z m292 13 c-48 -37 -110 -62 -126 -52 -31 19 -21
32 60 77 l83 45 3 -26 c3 -19 -3 -32 -20 -44z m-461 1 l22 -55 -24 -8 c-18 -6
-35 -1 -74 25 -28 18 -51 38 -51 44 0 14 71 54 90 51 8 -1 25 -27 37 -57z
m-656 0 c-114 -69 -170 -108 -207 -142 -24 -23 -44 -30 -88 -35 -67 -7 -71 3
-26 65 44 61 103 99 194 127 92 27 115 32 171 34 l40 1 -84 -50z m-628 34 c3
-4 -1 -13 -10 -22 -16 -16 -43 -8 -51 16 -4 12 49 17 61 6z m261 -7 l30 -13
-51 -31 -50 -31 -52 25 c-61 30 -56 42 20 53 74 10 71 11 103 -3z m457 -28
c-24 -22 -79 -64 -121 -93 -60 -43 -86 -54 -123 -57 -26 -2 -47 -3 -47 -2 0
11 307 193 325 192 6 0 -10 -18 -34 -40z m78 -30 c1 -23 -11 -31 -102 -77 -93
-48 -147 -64 -147 -44 0 4 41 34 91 67 49 33 102 73 117 88 24 25 27 26 34 10
3 -10 7 -30 7 -44z m204 9 c34 -22 47 -37 47 -53 0 -29 -13 -38 -41 -30 -16 5
-18 10 -9 20 19 23 3 35 -31 25 -24 -7 -37 -5 -55 8 -22 16 -33 60 -18 75 9 8
52 -10 107 -45z m-946 26 c-3 -3 -12 -4 -19 -1 -8 3 -5 6 6 6 11 1 17 -2 13
-5z m1363 -41 c0 -8 -12 -13 -30 -13 l-31 0 17 32 c16 30 17 31 30 13 8 -10
14 -25 14 -32z m480 41 c0 -3 -32 -50 -71 -105 l-72 -101 -25 25 -25 25 52 66
c29 37 62 73 74 81 21 14 67 21 67 9z m-2070 -35 c0 -5 -22 -20 -50 -34 -59
-30 -64 -17 -15 32 29 29 38 33 50 23 8 -7 15 -16 15 -21z m1943 -11 c-13 -13
-30 -18 -49 -16 l-29 3 45 27 c48 29 67 21 33 -14z m169 16 c14 -29 3 -54 -75
-171 -34 -51 -47 -63 -69 -63 -49 0 -37 43 43 158 40 56 76 102 81 102 4 0 14
-12 20 -26z m-1844 5 c42 -14 41 -25 -3 -33 -27 -5 -44 -2 -70 14 -19 12 -35
22 -35 23 0 8 82 4 108 -4z m-510 -17 c6 -18 -15 -14 -22 4 -4 10 -1 14 6 12
6 -2 14 -10 16 -16z m1625 -16 l28 -22 -63 -18 c-35 -9 -74 -24 -86 -32 -30
-20 -41 -10 -17 16 10 11 13 20 7 20 -27 0 -11 37 21 48 51 16 80 13 110 -12z
m-1075 -52 c-22 -31 -54 -59 -93 -81 -60 -33 -60 -33 -190 -31 -106 1 -132 4
-142 17 -17 23 -16 31 6 31 20 0 379 92 421 108 14 5 26 8 28 7 2 -2 -12 -25
-30 -51z m-538 34 c0 -6 19 -36 43 -67 23 -31 44 -69 47 -86 4 -21 11 -31 27
-33 12 -2 41 -24 63 -49 22 -25 55 -57 72 -70 19 -14 33 -32 33 -46 0 -20 4
-22 42 -19 l43 4 -16 -39 c-9 -21 -17 -39 -19 -41 -5 -6 -134 75 -181 114 -51
42 -125 141 -149 198 -18 43 -35 127 -29 138 8 12 24 9 24 -4z m279 -12 l23
-25 -38 -10 c-22 -6 -69 -19 -106 -30 -65 -19 -88 -15 -72 10 7 12 142 78 160
79 6 0 21 -11 33 -24z m1672 6 c17 -7 -6 -12 -86 -21 -61 -7 -112 -15 -115
-18 -3 -3 40 -2 95 2 115 8 101 8 143 6 59 -2 24 -19 -40 -20 -67 -1 -160 -21
-215 -48 -31 -14 -35 -14 -51 0 -34 31 -91 48 -140 42 -64 -8 -36 8 53 30 164
41 291 51 356 27z m-631 -11 c0 -4 -60 -37 -133 -74 -114 -56 -141 -75 -192
-129 -33 -36 -73 -86 -90 -113 -26 -42 -39 -53 -90 -72 -72 -28 -69 -28 -62
-3 3 12 1 18 -5 14 -15 -9 -1 32 31 90 15 29 54 73 92 106 72 62 273 175 334
187 42 9 115 5 115 -6z m815 -1 c0 -20 -73 -16 -95 5 -14 15 -10 16 40 13 41
-2 55 -7 55 -18z m-36 -46 c-8 -10 -16 -10 -34 -2 -32 14 -24 26 15 20 24 -3
28 -7 19 -18z m-674 5 c-4 -5 -59 -49 -123 -96 -65 -48 -135 -102 -157 -121
-35 -31 -48 -35 -100 -37 -33 -1 -73 -6 -89 -10 l-30 -8 22 30 c83 117 217
201 387 243 47 12 97 12 90 -1z m1 -54 c-21 -20 -38 -49 -42 -70 -7 -38 -42
-72 -138 -135 -59 -37 -60 -38 -93 -22 -18 9 -32 19 -31 24 6 15 304 236 321
237 13 1 9 -8 -17 -34z m624 25 c19 -5 49 -21 65 -34 27 -22 30 -30 29 -79 0
-86 -81 -208 -172 -261 -8 -5 -6 7 7 33 26 50 27 122 2 176 -23 52 -102 121
-155 137 l-41 13 50 11 c63 15 169 17 215 4z m-402 -20 c17 -11 32 -22 32 -25
0 -4 -4 -4 -8 -1 -5 3 -22 1 -38 -4 l-29 -8 28 -1 27 -1 -20 -37 c-11 -21 -20
-45 -20 -53 0 -12 -16 -15 -90 -15 -105 0 -112 9 -57 71 26 30 28 35 10 25
-24 -12 -53 -59 -53 -86 0 -8 -7 -15 -16 -15 -14 0 -16 8 -11 45 5 49 24 77
72 106 42 26 129 25 173 -1z m-1153 -19 c-3 -6 -14 -11 -23 -11 -15 1 -15 2 2
15 21 16 32 13 21 -4z m434 0 c-13 -10 -60 -33 -104 -50 -149 -60 -385 -210
-457 -290 -27 -29 -48 -49 -48 -43 0 5 7 15 15 22 8 7 15 19 15 27 0 26 42 96
88 146 107 115 303 206 446 207 l69 0 -24 -19z m933 -30 c50 -32 77 -65 102
-126 49 -116 -72 -261 -190 -229 -19 5 -21 11 -17 43 7 51 -29 131 -78 176
-44 40 -48 61 -17 100 55 70 126 83 200 36z m-1266 -12 c-33 -17 -73 -41 -90
-53 -40 -30 -119 -49 -170 -41 -58 10 -166 73 -166 97 0 5 60 9 133 9 72 0
166 4 207 8 41 4 91 9 110 9 34 2 34 1 -24 -29z m-446 1 c0 -5 -4 -10 -9 -10
-6 0 -13 5 -16 10 -3 6 1 10 9 10 9 0 16 -4 16 -10z m163 -111 c23 -6 62 -9
87 -6 40 5 43 4 25 -9 -11 -8 -37 -19 -59 -25 -49 -13 -69 -4 -145 69 l-56 52
53 -35 c29 -19 72 -40 95 -46z m506 64 c-16 -19 -71 -43 -96 -42 -10 0 9 14
42 30 70 34 72 34 54 12z m1511 -8 c0 -36 -166 -165 -212 -165 -32 0 -12 36
32 58 20 10 21 11 3 7 l-21 -6 19 38 c10 20 19 48 19 60 0 22 3 23 80 23 65 0
80 -3 80 -15z m-1576 -90 c-18 -30 -38 -52 -59 -61 -43 -18 -154 -36 -196 -32
-33 3 -32 4 59 61 65 41 110 61 155 70 34 7 63 12 65 12 1 -1 -10 -23 -24 -50z
m897 12 c42 -27 78 -98 79 -153 0 -45 -44 -125 -79 -144 -12 -6 -21 -8 -21 -5
0 4 -13 -3 -29 -14 -37 -27 -39 -26 -44 7 -3 22 -4 20 -6 -10 l-1 -37 -95 -31
c-172 -54 -294 -38 -352 49 -50 74 -18 199 61 246 52 30 65 31 102 4 l29 -21
-27 26 c-16 14 -28 27 -28 29 0 2 25 12 56 23 48 16 53 20 32 25 -18 6 -15 7
15 8 32 1 45 -5 70 -31 17 -20 26 -24 19 -12 -6 11 -19 27 -28 35 -16 13 -14
15 22 20 21 3 73 7 115 8 64 1 82 -3 110 -22z m-1256 -36 c-11 -9 -75 -23 -75
-16 0 2 15 9 33 14 43 12 53 13 42 2z m738 -13 l28 -11 -37 -30 c-67 -56 -90
-145 -59 -232 18 -50 18 -47 -2 -42 -10 3 -30 8 -45 11 -22 5 -30 15 -42 54
-9 29 -15 38 -15 24 -1 -13 4 -32 9 -43 16 -29 -4 -24 -45 12 -77 68 -90 147
-34 206 19 19 47 41 64 48 36 16 140 18 178 3z m-413 -50 c0 -7 -4 -19 -8 -26
-10 -15 -227 -43 -277 -35 -32 5 -34 7 -21 22 12 13 36 17 108 19 51 0 113 8
138 16 58 18 60 18 60 4z m115 -78 c0 -57 -2 -61 -25 -66 -46 -10 -46 -14 0
-10 64 7 27 -10 -41 -18 -76 -10 -180 9 -250 44 -65 33 -75 50 -30 50 57 0
258 30 297 44 21 8 41 15 44 15 3 1 5 -26 5 -59z m-392 -7 c-7 -2 -21 -2 -30
0 -10 3 -4 5 12 5 17 0 24 -2 18 -5z"/>
<path d="M3619 1154 c-5 -15 -8 -29 -5 -31 2 -2 8 10 14 26 13 38 5 41 -9 5z"/>
<path d="M1970 1691 c0 -4 11 -6 25 -3 14 2 25 6 25 8 0 2 -11 4 -25 4 -14 0
-25 -4 -25 -9z"/>
<path d="M2370 1587 c0 -9 -5 -17 -11 -17 -5 0 -7 -5 -3 -11 4 -7 11 -6 22 5
13 12 14 19 4 28 -9 9 -12 8 -12 -5z"/>
<path d="M1995 1350 c-3 -6 1 -7 9 -4 18 7 21 14 7 14 -6 0 -13 -4 -16 -10z"/>
<path d="M1820 1419 c0 -5 5 -7 10 -4 6 3 10 8 10 11 0 2 -4 4 -10 4 -5 0 -10
-5 -10 -11z"/>
<path d="M2958 1293 c7 -3 16 -2 19 1 4 3 -2 6 -13 5 -11 0 -14 -3 -6 -6z"/>
<path d="M2540 1266 c0 -2 8 -10 18 -17 15 -13 16 -12 3 4 -13 16 -21 21 -21
13z"/>
<path d="M2458 1223 c7 -3 16 -2 19 1 4 3 -2 6 -13 5 -11 0 -14 -3 -6 -6z"/>
<path d="M2400 1165 c7 -9 15 -13 17 -11 7 7 -7 26 -19 26 -6 0 -6 -6 2 -15z"/>
<path d="M3287 1145 c9 -19 18 -33 21 -31 4 5 -26 66 -33 66 -3 0 3 -16 12
-35z"/>
<path d="M2806 1185 c-11 -8 -16 -15 -10 -15 5 0 18 7 28 15 11 8 16 15 10 15
-5 0 -18 -7 -28 -15z"/>
<path d="M3485 1074 c-27 -18 -45 -34 -39 -34 11 0 104 59 104 66 0 10 -18 1
-65 -32z"/>
<path d="M1879 1013 c-13 -16 -12 -17 4 -4 16 13 21 21 13 21 -2 0 -10 -8 -17
-17z"/>
<path d="M2645 693 c-11 -2 -37 -11 -59 -19 -21 -8 -47 -12 -57 -9 -11 4 -19
2 -19 -4 0 -17 34 -13 105 10 75 24 90 36 30 22z"/>
<path d="M2235 969 c-22 -42 -15 -44 12 -3 12 19 18 34 13 34 -5 0 -17 -14
-25 -31z"/>
</g>
</svg>
