<?xml version="1.0" standalone="no"?>
<!DOCTYPE svg PUBLIC "-//W3C//DTD SVG 20010904//EN"
 "http://www.w3.org/TR/2001/REC-SVG-20010904/DTD/svg10.dtd">
<svg version="1.0" xmlns="http://www.w3.org/2000/svg"
 width="301.000000pt" height="167.000000pt" viewBox="0 0 301.000000 167.000000"
 preserveAspectRatio="xMidYMid meet">
<metadata>
Created by potrace 1.16, written by Peter Selinger 2001-2019
</metadata>
<g transform="translate(0.000000,167.000000) scale(0.100000,-0.100000)"
fill="#000000" stroke="none">
<path d="M1613 1493 c-32 -12 -6 -148 48 -256 16 -31 32 -79 35 -105 10 -86
13 -94 37 -90 20 3 22 8 21 74 -1 61 -7 83 -44 160 -26 56 -44 109 -47 144 -7
70 -18 86 -50 73z"/>
<path d="M1437 1444 c-21 -22 3 -130 53 -236 18 -37 30 -80 30 -103 0 -49 11
-68 36 -63 16 3 19 13 18 68 -1 53 -8 80 -38 145 -20 44 -40 105 -44 135 -6
45 -11 56 -27 58 -12 2 -24 0 -28 -4z"/>
<path d="M1784 1435 c-13 -32 6 -117 42 -197 21 -47 40 -107 43 -138 6 -50 8
-55 31 -55 24 0 25 2 24 60 0 47 -9 78 -39 145 -22 48 -41 108 -44 140 -5 47
-9 55 -29 58 -13 2 -25 -3 -28 -13z"/>
<path d="M715 1387 c-38 -38 -50 -72 -41 -120 5 -25 34 -60 119 -144 120 -119
152 -136 212 -113 27 10 32 8 79 -40 l51 -50 -46 0 c-63 0 -73 -14 -65 -93 16
-144 82 -289 177 -388 33 -34 59 -63 59 -65 0 -2 -29 -4 -65 -4 -74 0 -82 -7
-71 -66 9 -47 68 -111 114 -124 22 -6 203 -10 453 -10 l416 0 44 23 c54 29 90
86 87 137 l-3 35 -67 3 c-38 2 -68 5 -68 8 0 2 16 19 36 36 47 41 118 142 148
209 31 71 58 195 54 250 l-3 44 -560 3 -560 2 -72 72 c-58 58 -70 75 -62 89 5
10 9 37 9 60 0 42 -4 47 -118 161 l-118 118 -53 0 c-47 0 -57 -4 -86 -33z
m213 -120 c84 -84 105 -109 105 -132 0 -33 -42 -75 -75 -75 -31 0 -228 197
-228 228 0 45 33 79 79 81 8 1 61 -46 119 -102z m1349 -455 c-18 -154 -116
-316 -248 -411 l-42 -31 -304 0 -304 0 -42 29 c-132 92 -230 253 -253 414 l-6
47 602 0 603 0 -6 -48z m-102 -502 c3 -5 -8 -24 -24 -42 l-29 -33 -442 0 -442
0 -29 33 c-16 18 -27 37 -24 42 8 13 982 13 990 0z"/>
</g>
</svg>
