<?xml version="1.0" standalone="no"?>
<!DOCTYPE svg PUBLIC "-//W3C//DTD SVG 20010904//EN"
 "http://www.w3.org/TR/2001/REC-SVG-20010904/DTD/svg10.dtd">
<svg version="1.0" xmlns="http://www.w3.org/2000/svg"
 width="840.000000pt" height="397.000000pt" viewBox="0 0 840.000000 397.000000"
 preserveAspectRatio="xMidYMid meet">

<g transform="translate(0.000000,397.000000) scale(0.100000,-0.100000)"
fill="#000000" stroke="none">
<path d="M4480 3529 c-52 -24 -129 -52 -218 -80 -48 -15 -76 -18 -121 -13 -56
6 -175 -7 -235 -26 -28 -10 -65 -2 -174 37 -40 14 -45 14 -60 -1 -23 -23 -6
-46 46 -64 43 -14 56 -32 24 -32 -25 0 -42 -20 -42 -48 0 -24 -2 -24 -52 -19
-29 4 -67 9 -85 13 l-32 6 3 -83 c2 -72 -1 -87 -18 -106 -16 -19 -17 -27 -8
-48 l11 -25 -47 6 c-26 3 -61 9 -78 14 -43 11 -64 -4 -64 -45 l0 -34 -57 -5
c-96 -10 -141 -24 -206 -66 -33 -22 -69 -40 -78 -40 -30 0 -31 -18 -5 -45 21
-21 29 -23 50 -15 33 12 35 -5 4 -31 -17 -13 -32 -17 -55 -13 -27 5 -38 1 -63
-24 -19 -19 -30 -41 -30 -59 l0 -28 -20 25 -19 25 -28 -25 c-15 -14 -33 -30
-38 -36 -11 -12 -280 -96 -384 -120 -36 -8 -88 -22 -114 -30 -48 -16 -48 -16
-90 13 -23 15 -52 40 -64 54 -26 31 -124 64 -227 79 -48 6 -84 18 -118 39 -27
17 -51 31 -54 31 -13 0 0 -31 32 -79 20 -30 49 -82 65 -116 15 -34 35 -67 43
-74 9 -7 -7 35 -35 94 -27 59 -48 110 -45 112 2 3 13 0 23 -5 10 -6 56 -16
102 -22 46 -6 108 -20 138 -32 49 -18 57 -25 75 -67 24 -55 62 -200 55 -208
-8 -8 -37 53 -37 78 0 15 -5 19 -15 15 -11 -4 -15 1 -15 19 0 15 -8 29 -22 36
-13 6 -33 23 -46 37 l-22 27 6 -35 7 -35 -36 38 c-19 20 -41 37 -49 37 -7 0
-26 14 -41 31 -38 43 -47 28 -11 -18 16 -21 28 -44 26 -50 -2 -8 7 -13 19 -13
24 0 129 -72 171 -116 14 -16 33 -46 42 -66 14 -35 14 -38 -1 -38 -22 0 -84
38 -108 66 -12 14 -35 28 -53 33 -33 10 -41 4 -20 -17 9 -9 8 -12 -5 -12 -9 0
-24 11 -34 25 -10 14 -26 36 -35 48 l-17 22 6 -22 c4 -18 -1 -25 -23 -33 -41
-16 -191 -108 -254 -156 -157 -119 -240 -220 -320 -386 -67 -137 -64 -203 13
-391 63 -151 127 -248 206 -312 85 -68 350 -234 421 -264 30 -13 134 -61 230
-107 104 -49 218 -95 280 -112 152 -43 365 -90 440 -96 36 -3 137 -19 225 -35
164 -31 516 -67 800 -83 268 -15 829 -19 950 -7 274 28 771 117 911 164 106
36 274 86 436 129 102 27 282 104 383 164 97 58 241 169 324 251 121 119 189
268 221 483 12 77 11 92 -4 140 -29 88 -85 165 -221 300 -44 44 -96 88 -115
98 -19 10 -61 38 -92 63 -69 53 -173 108 -333 175 -66 28 -156 69 -199 91 -95
48 -205 85 -301 101 -38 6 -113 23 -165 37 -52 14 -129 28 -170 32 l-75 6 -22
47 c-27 58 -77 96 -160 124 -40 13 -58 24 -48 27 8 4 15 18 15 31 0 19 -7 27
-26 32 -36 9 -142 -2 -159 -16 -18 -15 -35 -5 -35 19 0 32 -34 63 -74 70 l-39
6 -4 99 c-2 55 -8 108 -14 118 -5 9 -24 21 -42 26 -27 7 -33 14 -37 43 -3 23
-12 37 -27 44 -15 6 -23 18 -23 35 0 15 -7 35 -15 46 -8 10 -15 26 -15 35 0 9
-6 19 -14 22 -7 3 -16 18 -19 34 -4 18 -15 34 -32 41 -42 19 -144 14 -195 -9z
m191 -20 l24 -20 -73 4 c-78 5 -192 -17 -250 -47 -18 -9 -39 -15 -45 -12 -7 3
-3 7 9 11 11 3 58 24 105 45 103 47 191 54 230 19z m-169 -80 c-34 -22 -79
-58 -100 -81 -63 -71 -94 -98 -108 -98 -19 0 -18 15 3 31 9 8 40 44 70 81 59
74 109 107 163 107 l35 1 -63 -41z m133 -14 c0 -27 -7 -33 -77 -68 -48 -24
-100 -60 -137 -96 -34 -33 -64 -55 -67 -50 -3 5 -22 9 -42 9 -26 0 -33 3 -22
9 8 6 26 7 40 5 20 -4 33 3 65 35 38 40 41 58 3 24 -10 -9 -21 -14 -24 -10 -9
9 77 97 95 97 22 0 63 29 56 40 -3 4 2 11 11 14 25 9 27 8 22 -19 -4 -17 -1
-25 8 -25 8 0 14 4 14 9 0 5 5 22 10 36 14 37 45 30 45 -10z m61 20 c4 -8 2
-21 -4 -28 -5 -6 -12 -24 -15 -38 -7 -28 -72 -79 -141 -110 -25 -11 -66 -35
-90 -54 -28 -21 -48 -30 -52 -24 -11 18 94 107 165 140 83 40 99 54 107 95 7
36 21 44 30 19z m-884 -39 c21 -8 50 -21 64 -31 24 -15 25 -18 10 -33 -14 -14
-19 -13 -56 17 -22 17 -55 38 -73 46 -30 13 -30 14 -7 14 14 0 42 -6 62 -13z
m423 4 c12 -6 -20 -7 -86 -3 -93 5 -111 3 -152 -15 -53 -23 -65 -14 -14 11 36
18 216 23 252 7z m515 -28 c0 -7 -26 -56 -57 -110 -57 -97 -184 -239 -204
-226 -19 11 -7 31 47 84 76 75 166 196 183 248 10 29 17 38 23 30 4 -7 8 -19
8 -26z m-583 -32 c21 0 32 -4 28 -10 -7 -12 -195 -10 -195 2 0 11 42 17 89 12
24 -2 59 -4 78 -4z m153 1 c0 -15 -23 -28 -80 -46 -62 -20 -114 -44 -108 -51
3 -2 30 5 62 17 32 11 61 18 64 15 9 -9 -22 -39 -55 -53 -40 -16 -63 -16 -100
-1 -15 6 -66 21 -113 32 -71 18 -85 25 -85 41 0 16 6 19 25 16 14 -2 80 -5
146 -8 117 -4 123 -3 159 21 37 25 85 35 85 17z m-534 -59 c16 -54 -2 -58 -39
-8 -20 25 -23 36 -14 45 21 21 41 7 53 -37z m83 -1 c16 -17 46 -34 72 -40 85
-22 89 -32 12 -28 -87 5 -136 30 -141 70 -4 37 22 36 57 -2z m881 3 c-6 -14
-7 -30 -4 -35 15 -25 -134 -207 -186 -229 -40 -17 -52 -4 -20 21 64 51 105
100 153 181 50 85 77 115 57 62z m-146 -58 c-49 -64 -103 -103 -112 -78 -2 8
-11 7 -28 -5 -18 -11 -28 -13 -36 -5 -15 15 32 57 112 97 36 18 74 40 85 48
35 27 29 9 -21 -57z m-964 9 c19 -19 48 -39 65 -45 29 -11 170 -35 270 -46 28
-3 65 -10 83 -16 36 -11 62 -45 40 -53 -22 -7 -180 -26 -184 -22 -3 2 34 13
81 23 47 10 85 22 85 26 0 16 -19 16 -66 2 -27 -8 -90 -19 -139 -24 -133 -14
-162 -3 -252 91 -78 81 -93 116 -45 104 15 -3 43 -22 62 -40z m1135 -57 c-19
-54 -38 -75 -163 -178 -67 -54 -92 -65 -92 -40 0 5 23 21 51 37 60 32 147 132
187 213 32 65 42 46 17 -32z m-1033 53 c18 -10 49 -22 68 -26 64 -13 69 -27 8
-21 -60 5 -148 38 -148 55 0 17 36 13 72 -8z m1131 -55 c8 -51 -10 -170 -32
-213 -11 -21 -44 -71 -74 -111 -54 -71 -99 -107 -311 -249 -68 -45 -245 -118
-257 -106 -17 17 15 41 106 77 50 20 139 64 199 99 91 52 119 74 168 132 76
92 105 151 129 270 11 54 25 107 30 117 15 29 36 21 42 -16z m-495 -18 c49
-43 63 -63 93 -127 49 -107 50 -102 -33 -146 -40 -21 -108 -46 -150 -55 -71
-15 -79 -15 -92 -1 -19 22 -40 63 -41 81 -3 51 -18 143 -32 194 -16 56 -16 59
3 73 15 11 42 13 123 9 90 -4 107 -8 129 -28z m-803 2 c3 -5 -1 -10 -9 -10 -9
0 -16 5 -16 10 0 6 4 10 9 10 6 0 13 -4 16 -10z m478 -2 c-15 -7 -30 -7 -50 0
-26 10 -24 10 22 11 42 0 46 -2 28 -11z m725 -104 c-12 -35 -22 -44 -108 -89
-52 -28 -122 -69 -154 -93 -33 -23 -89 -51 -124 -62 -69 -21 -137 -27 -127
-10 3 6 18 10 33 10 61 0 151 39 259 111 61 41 134 86 162 101 43 24 51 33 51
56 0 16 3 32 8 36 13 14 13 -19 0 -60z m-1172 22 c17 -13 15 -14 -26 -11 -24
1 -46 8 -48 14 -5 16 51 14 74 -3z m221 -32 c-3 -3 -12 -4 -19 -1 -8 3 -5 6 6
6 11 1 17 -2 13 -5z m249 -2 c-2 -4 -26 -19 -53 -32 -42 -22 -61 -25 -148 -24
-96 0 -188 19 -225 45 -11 8 -3 9 32 5 133 -16 206 -16 273 -2 80 16 128 20
121 8z m-612 -43 c45 -23 99 -57 122 -75 42 -35 75 -44 254 -75 41 -7 130 -13
197 -14 83 0 126 -4 134 -12 7 -7 10 -15 7 -18 -3 -3 -115 -6 -249 -8 -259 -2
-261 -1 -321 49 -15 12 -44 28 -65 34 -43 14 -133 76 -133 92 0 6 7 8 15 4 8
-3 15 -1 15 4 0 13 -37 31 -57 28 -10 -2 -19 4 -21 15 -5 26 13 21 102 -24z
m183 1 c79 -30 219 -52 283 -44 30 4 76 17 102 30 52 26 73 30 83 13 4 -6 0
-9 -11 -7 -13 2 -19 -3 -17 -15 3 -47 -179 -82 -272 -53 -27 9 -64 16 -81 16
-34 0 -136 48 -142 68 -5 15 -7 16 55 -8z m-122 0 c3 -5 2 -10 -4 -10 -5 0
-13 5 -16 10 -3 6 -2 10 4 10 5 0 13 -4 16 -10z m88 -44 c38 -23 94 -38 247
-67 53 -11 187 -7 241 6 20 5 28 2 33 -11 3 -9 4 -20 0 -23 -11 -11 -188 -6
-264 7 -41 7 -106 18 -145 24 -49 7 -84 20 -117 42 -27 17 -48 34 -48 39 0 11
9 9 53 -17z m1140 -1 c-3 -8 -11 -15 -17 -15 -7 0 -68 -34 -137 -75 -146 -89
-201 -107 -404 -135 -165 -23 -401 -37 -350 -20 57 18 208 40 274 40 36 0 119
9 185 19 115 19 122 22 235 89 212 127 229 134 214 97z m238 -6 c21 -21 23
-60 3 -66 -7 -2 -15 8 -18 22 -8 33 -53 56 -67 34 -5 -8 -9 -9 -9 -3 0 36 59
45 91 13z m-1608 -30 c68 -23 208 -85 217 -97 3 -4 26 -26 52 -49 28 -25 41
-43 32 -43 -20 0 -44 13 -126 67 -76 50 -192 93 -251 93 -34 0 -38 2 -27 15
15 18 14 18 -28 6 -34 -10 -44 1 -14 18 27 16 77 13 145 -10z m1479 -47 c-18
-59 -85 -145 -154 -197 -69 -52 -148 -95 -174 -95 -9 0 -57 -16 -107 -35 -49
-20 -94 -34 -100 -32 -5 1 8 8 29 15 21 7 111 60 199 120 143 96 168 117 230
195 73 92 98 101 77 29z m-1790 -13 c-32 -29 -62 -38 -62 -20 0 12 82 62 90
55 3 -3 -10 -19 -28 -35z m1638 32 c0 -11 -200 -134 -246 -151 -70 -28 -333
-66 -313 -46 2 3 55 12 116 20 140 20 216 48 335 125 96 62 108 68 108 52z
m209 -5 c15 -18 -7 -67 -41 -90 -30 -21 -34 -13 -15 31 8 21 18 46 21 56 7 21
19 22 35 3z m-1759 -3 c0 -4 -5 -22 -12 -40 -12 -33 -30 -41 -58 -23 -12 8
-10 14 15 40 26 27 55 40 55 23z m90 -13 c0 -11 -4 -20 -9 -20 -14 0 -23 18
-16 30 10 17 25 11 25 -10z m1862 8 c4 -10 10 -10 32 0 31 14 66 16 66 4 0
-12 -76 -35 -120 -37 -19 -1 -43 -6 -54 -10 -33 -14 -13 17 24 37 41 21 47 22
52 6z m-1700 -33 c99 -31 213 -111 266 -186 32 -46 57 -56 137 -58 91 -2 215
-21 248 -37 44 -23 27 -26 -55 -9 -51 10 -117 14 -204 13 -124 -3 -174 4 -174
22 0 5 19 10 43 12 l42 3 -35 16 c-20 9 -43 27 -52 41 -17 26 -139 128 -176
147 -13 7 -51 17 -84 22 -69 11 -81 16 -73 30 9 14 33 11 117 -16z m-217 -15
c3 -5 2 -10 -4 -10 -5 0 -13 5 -16 10 -3 6 -2 10 4 10 5 0 13 -4 16 -10z m162
-19 c29 -6 67 -17 85 -26 37 -18 136 -105 120 -105 -6 0 -13 4 -17 9 -3 5 -22
15 -43 21 -20 7 -54 23 -74 36 -21 13 -47 24 -59 24 -20 0 -128 29 -139 38
-11 8 27 22 50 17 14 -3 49 -9 77 -14z m1803 4 c0 -16 -39 -45 -53 -40 -8 4
-37 -3 -64 -14 -26 -10 -77 -31 -113 -45 -95 -36 -265 -118 -345 -165 -91 -53
-255 -107 -255 -83 0 9 112 62 131 62 20 0 144 53 184 78 22 14 75 43 119 64
43 22 93 49 110 62 43 33 108 65 153 75 43 10 133 14 133 6z m84 -4 c3 -5 -1
-14 -10 -21 -11 -10 -18 -10 -27 -1 -9 9 -9 14 3 21 19 12 27 12 34 1z m-2157
-50 c-6 -30 12 -80 36 -100 21 -16 22 -41 3 -41 -23 0 -74 135 -62 166 9 24
28 4 23 -25z m1517 8 c-16 -17 -56 -46 -89 -64 -97 -54 -156 -66 -333 -69
-135 -2 -164 0 -209 17 -68 25 -58 41 21 33 33 -3 91 -9 127 -12 128 -12 348
33 441 91 67 42 79 43 42 4z m719 -5 c-5 -13 1 -15 28 -12 28 3 36 -2 54 -30
11 -17 39 -61 62 -97 22 -36 37 -65 32 -65 -5 0 -20 18 -33 39 -25 39 -46 59
-46 44 0 -5 11 -25 25 -45 28 -41 31 -58 13 -76 -20 -20 1 -26 22 -7 20 18 21
18 43 -3 12 -11 48 -32 80 -46 31 -14 57 -29 57 -32 0 -4 -11 -17 -25 -30 -15
-13 -25 -34 -25 -50 0 -28 -1 -28 -65 -5 -16 6 -56 18 -87 26 -46 12 -70 27
-115 71 -53 50 -55 53 -18 30 22 -14 74 -37 115 -52 41 -14 89 -33 105 -42 28
-14 29 -14 17 1 -8 9 -51 30 -95 47 -108 41 -152 71 -188 127 -27 44 -42 45
-19 2 20 -36 0 -19 -26 23 -25 39 -26 43 -9 53 9 5 36 22 59 37 49 33 79 35
106 8 25 -25 34 -26 20 -1 -5 11 -37 34 -70 52 -55 29 -70 46 -54 62 12 12 43
-13 37 -29z m-2125 6 c7 -11 10 -20 8 -20 -13 0 -56 24 -56 32 0 16 35 8 48
-12z m77 0 c3 -5 -1 -10 -9 -10 -8 0 -18 5 -21 10 -3 6 1 10 9 10 8 0 18 -4
21 -10z m486 0 c10 0 19 -4 19 -10 0 -11 -30 -13 -54 -4 -9 3 -16 11 -16 16 0
6 7 7 16 4 9 -3 24 -6 35 -6z m1491 -27 c21 -9 38 -21 38 -26 0 -5 -8 -6 -17
-2 -39 16 -178 17 -246 1 -80 -19 -89 -19 -62 -4 17 10 184 44 234 47 8 1 32
-7 53 -16z m-2013 -2 c18 -12 7 -41 -16 -41 -10 0 -30 8 -43 17 l-25 18 30 6
c17 4 32 7 35 8 3 0 11 -3 19 -8z m-278 -27 c-27 -34 -27 -53 -1 -29 20 18 20
17 20 -44 0 -83 19 -121 105 -206 113 -113 168 -152 305 -222 189 -94 175 -98
-40 -10 -135 55 -172 80 -293 197 -88 84 -132 156 -122 200 4 20 2 29 -9 33
-37 14 -6 107 35 107 20 0 20 0 0 -26z m464 -2 c44 -15 91 -35 104 -44 24 -17
24 -18 6 -38 -10 -11 -16 -23 -12 -26 3 -3 18 8 33 25 18 21 31 28 37 22 7 -7
-18 -40 -73 -98 -85 -88 -120 -120 -120 -107 0 4 18 27 41 51 66 72 36 63 -38
-11 -74 -73 -99 -90 -153 -100 -31 -5 -45 1 -115 47 -63 41 -81 58 -83 79 -3
22 3 30 35 47 21 11 76 56 123 100 60 57 92 80 110 80 14 0 61 -12 105 -27z
m-369 -33 c27 -88 9 -92 -20 -5 -19 59 -19 59 -4 54 6 -2 17 -24 24 -49z m114
-10 c0 -10 -4 -19 -8 -19 -12 0 -42 67 -34 75 10 9 42 -34 42 -56z m2038 31
c72 0 46 -16 -46 -28 -100 -13 -398 -108 -479 -152 -29 -15 -53 -25 -53 -21 0
11 151 109 205 133 105 46 227 78 280 73 28 -3 69 -5 93 -5z m-1403 -20 c44
-10 107 -30 140 -45 l60 -25 -110 6 c-120 7 -148 14 -182 46 -46 43 -27 47 92
18z m-795 -46 c0 -14 5 -34 11 -45 5 -11 8 -28 6 -37 -3 -12 -9 -6 -20 20 -19
41 -23 103 -7 93 6 -3 10 -17 10 -31z m-190 -9 c0 -28 19 -35 21 -7 1 9 5 0
10 -21 9 -39 115 -198 153 -230 88 -74 267 -177 310 -177 12 -1 41 -12 66 -25
l45 -24 -32 -1 c-41 0 -217 47 -265 71 -21 11 -76 44 -122 74 -66 43 -94 69
-125 116 -23 34 -41 67 -41 73 0 6 -9 29 -20 51 -21 41 -27 125 -10 125 6 0
10 -11 10 -25z m2344 6 c17 -19 16 -20 -36 -26 -29 -4 -69 -5 -88 -3 l-35 3
55 22 c69 27 83 28 104 4z m581 -46 c77 -18 167 -38 200 -45 33 -7 116 -38
185 -70 69 -32 155 -72 192 -89 37 -17 91 -40 120 -52 85 -33 174 -85 314
-185 118 -84 234 -190 234 -215 0 -5 18 -29 40 -53 79 -85 101 -174 76 -305
-41 -217 -200 -423 -411 -528 -38 -20 -99 -53 -135 -74 -102 -60 -358 -159
-649 -250 -150 -47 -443 -112 -646 -143 -294 -44 -861 -70 -1170 -53 -104 5
-252 9 -327 8 -161 -2 -320 12 -438 39 -47 11 -173 29 -280 40 -107 11 -232
29 -278 40 -46 11 -93 20 -105 20 -12 1 -40 9 -62 20 -22 11 -50 19 -61 20
-12 0 -46 11 -75 24 -30 13 -112 42 -184 66 -71 23 -188 70 -260 105 -71 34
-150 71 -175 82 -25 11 -65 37 -90 58 -25 21 -68 53 -97 71 -135 87 -274 232
-336 352 -34 65 -56 169 -48 232 5 48 60 162 126 261 54 81 86 116 164 181 99
83 237 170 305 194 54 19 66 7 66 -68 0 -43 7 -74 25 -113 34 -71 43 -145 21
-176 -9 -13 -16 -33 -16 -45 0 -19 -7 -22 -57 -28 -71 -8 -84 -15 -76 -44 5
-20 12 -22 68 -22 43 0 66 -5 75 -15 21 -26 3 -43 -57 -54 -110 -21 -137 -32
-173 -71 -87 -95 -100 -110 -100 -120 0 -12 20 -13 36 -2 6 4 21 26 32 49 26
50 85 100 132 113 99 25 212 42 246 36 41 -8 84 -46 83 -73 0 -15 -2 -14 -11
5 -12 24 -48 30 -48 7 0 -11 -11 -8 -49 11 -27 14 -57 24 -68 22 -13 -3 -5
-10 28 -25 25 -11 61 -39 78 -61 20 -24 44 -42 62 -46 36 -7 37 -20 3 -43 -46
-32 -109 -91 -103 -97 3 -4 28 12 55 34 51 42 70 50 60 25 -5 -14 -2 -14 24 0
28 14 30 14 44 -7 42 -68 28 -86 -75 -97 -95 -10 -147 1 -218 44 -32 20 -74
40 -95 46 -20 6 -57 24 -81 41 -26 19 -50 28 -60 24 -19 -7 -11 -26 12 -26 9
0 36 -11 60 -25 24 -14 61 -32 83 -40 22 -8 62 -29 88 -47 45 -32 51 -33 158
-36 89 -3 118 0 143 13 l32 16 52 -44 c81 -68 106 -82 194 -112 82 -28 98 -45
42 -45 -16 0 -29 -4 -29 -10 0 -5 18 -7 43 -3 72 10 198 15 215 8 15 -6 15 -8
-3 -16 -17 -8 -16 -9 6 -4 14 2 35 -2 48 -11 13 -10 32 -14 47 -10 18 5 37 -3
76 -30 49 -33 57 -36 109 -31 30 3 74 14 98 26 l42 22 15 -38 c47 -120 75
-139 196 -128 44 3 95 12 115 19 32 11 43 10 92 -10 57 -23 239 -59 249 -50 6
7 -43 26 -66 26 -9 0 -55 9 -101 20 -86 21 -151 58 -151 86 0 20 6 18 46 -12
52 -40 155 -74 222 -74 49 1 132 17 232 46 24 6 23 5 -9 -30 -22 -22 -45 -36
-60 -37 -15 0 -35 -4 -46 -9 -20 -8 -20 -8 -1 -16 13 -5 42 1 83 15 70 25 109
20 161 -23 39 -33 97 -61 180 -86 100 -30 226 -26 292 11 43 23 45 26 48 76 3
52 4 53 42 64 27 8 43 9 52 2 20 -17 75 -25 83 -14 15 25 41 10 55 -31 13 -37
20 -44 55 -52 47 -11 159 5 208 30 18 9 64 42 103 74 79 64 77 64 289 80 174
13 238 40 251 105 l6 32 116 6 c187 9 228 30 272 138 l25 64 57 7 c91 11 158
52 158 96 0 51 -71 93 -183 107 -29 4 -45 10 -41 17 7 11 38 8 152 -12 63 -11
75 -11 88 2 22 21 7 51 -21 44 -13 -3 -51 4 -86 15 -35 12 -93 22 -129 24 -62
2 -65 4 -87 39 -13 20 -30 36 -38 36 -8 0 -15 5 -15 10 0 19 44 27 115 20 72
-7 88 -2 106 31 15 30 0 51 -32 44 -15 -4 -37 -1 -48 5 -26 14 -87 17 -129 6
-31 -7 -33 -6 -24 11 6 10 31 29 57 43 49 27 66 59 45 85 -20 24 -50 17 -87
-20 -19 -19 -36 -35 -38 -35 -2 0 -17 42 -34 93 -39 115 -58 147 -113 185 -42
29 -120 58 -145 53 -6 -1 -14 3 -18 9 -3 5 -13 10 -21 10 -7 0 -34 15 -59 34
-24 19 -69 41 -98 50 -29 9 -62 25 -73 37 l-19 22 46 -5 c25 -3 73 -18 105
-33 49 -23 56 -28 39 -35 -18 -6 -16 -9 15 -25 19 -10 46 -25 59 -33 l23 -16
-21 43 c-26 50 -93 97 -154 106 -71 11 -106 25 -127 52 -40 51 2 50 225 -2z
m-2855 8 c0 -20 -3 -24 -11 -16 -7 7 -9 19 -6 27 10 24 17 19 17 -11z m1350
-3 c0 -24 -48 -33 -110 -20 -33 7 -63 17 -66 21 -3 5 36 9 85 9 55 0 91 -4 91
-10z m-1461 -14 c7 -8 11 -30 9 -48 -2 -26 -8 -34 -26 -36 -13 -2 -26 -11 -29
-20 -12 -37 -57 -122 -64 -122 -4 0 -11 5 -14 10 -16 25 -59 -11 -50 -41 5
-16 -4 -24 -50 -45 -32 -14 -62 -23 -68 -21 -6 2 -25 30 -42 63 -23 45 -43 67
-85 96 -30 20 -56 41 -58 47 -2 5 21 17 50 25 266 74 347 96 373 99 17 2 33 5
36 6 4 0 12 -5 18 -13z m1881 -21 c-28 -29 -173 -105 -201 -105 -36 0 -19 16
36 34 30 9 77 32 104 50 45 30 67 43 80 45 3 1 -6 -10 -19 -24z m553 6 c40
-33 2 -40 -110 -19 -50 9 -81 9 -141 -1 -89 -15 -241 -59 -324 -95 -61 -26
-43 0 26 39 128 71 233 95 417 92 81 -1 121 -6 132 -16z m-1214 -29 c30 -10
56 -22 58 -29 6 -16 -33 -26 -56 -14 -11 6 -52 11 -92 11 -42 0 -91 7 -120 17
-41 15 -57 16 -106 6 -32 -6 -74 -9 -93 -5 -29 5 -18 8 60 18 146 17 286 16
349 -4z m-1059 -36 c0 -6 -7 -2 -15 8 -8 11 -15 25 -15 30 0 6 7 2 15 -8 8
-11 15 -25 15 -30z m2168 18 c37 -9 82 -23 100 -30 18 -8 38 -12 43 -8 6 3 17
3 27 -1 13 -5 13 -8 4 -14 -8 -4 -41 -1 -75 7 -101 24 -226 20 -347 -10 -58
-15 -126 -36 -150 -47 -25 -11 -58 -21 -73 -21 -15 0 -39 -7 -52 -16 -13 -8
-34 -14 -45 -12 -38 5 104 73 240 114 195 58 229 62 328 38z m-2746 -125 c58
-42 75 -67 109 -166 21 -61 14 -83 -24 -83 -11 0 -37 -5 -58 -12 -48 -14 -55
-8 -35 30 14 28 14 30 -3 35 -16 4 -17 9 -8 56 8 38 8 54 -1 63 -9 9 -12 3
-12 -28 0 -23 -11 -62 -26 -92 -21 -42 -29 -50 -40 -41 -16 13 -34 71 -35 114
0 17 -3 24 -6 18 -12 -31 -23 -8 -23 46 0 37 -8 77 -20 106 -11 26 -20 53 -20
60 0 17 118 -45 202 -106z m1243 84 c-25 -9 -56 -12 -83 -8 -65 10 -43 20 45
21 l78 1 -40 -14z m225 -8 c173 -14 174 -31 3 -39 -71 -3 -159 -9 -196 -12
-98 -9 -109 9 -21 35 88 25 106 29 124 25 8 -1 49 -5 90 -9z m260 6 c0 -5 -7
-14 -15 -21 -27 -23 -8 -23 23 0 44 32 99 36 180 11 39 -11 87 -21 109 -22 21
0 54 -6 73 -13 39 -14 54 -46 22 -46 -23 0 -37 -29 -22 -44 17 -17 11 -26 -15
-26 -14 0 -25 5 -25 10 0 6 -15 10 -34 10 -18 0 -51 6 -72 13 -53 19 -127 30
-120 18 3 -5 22 -12 41 -15 50 -10 123 -44 105 -50 -8 -2 -58 -20 -112 -40
-82 -30 -254 -64 -265 -52 -2 2 8 26 22 54 14 27 25 54 25 58 0 4 12 25 26 45
14 21 24 42 23 48 -5 13 -76 -13 -103 -38 -12 -12 -28 -21 -35 -21 -8 0 -54
-14 -103 -31 -106 -36 -129 -33 -31 5 37 14 117 55 178 91 111 66 125 72 125
56z m-1298 -31 c3 -14 11 -56 17 -94 5 -37 20 -90 34 -117 27 -55 23 -62 -15
-21 -52 57 -57 71 -51 140 5 48 3 63 -5 58 -7 -4 -12 -2 -12 4 0 7 -7 10 -15
6 -18 -6 -19 7 -4 35 14 27 42 20 51 -11z m130 -117 c58 -54 210 -141 276
-159 72 -19 129 -51 115 -65 -14 -14 -124 17 -227 65 -177 82 -258 160 -270
256 l-7 55 44 -65 c25 -36 55 -75 69 -87z m2225 133 c37 -8 85 -17 106 -20 27
-5 37 -12 37 -26 0 -15 10 -20 45 -26 25 -3 48 -10 51 -16 6 -9 -15 -6 -101
18 -27 7 -90 18 -138 24 -102 12 -164 4 -256 -34 -73 -31 -95 -32 -107 -6 -8
18 -11 18 -34 5 -14 -8 -36 -19 -50 -25 -14 -5 -33 -15 -42 -20 -24 -14 -28
-13 -28 8 0 12 25 26 93 52 216 81 293 93 424 66z m-2135 -43 c42 -41 50 -61
15 -38 -25 16 -72 75 -60 75 4 0 24 -17 45 -37z m503 -29 c57 -27 123 -79 114
-89 -4 -3 -57 19 -119 51 -80 40 -108 59 -99 65 17 10 39 5 104 -27z m2191 8
c-9 -9 -37 8 -31 18 5 8 11 7 21 -1 8 -6 12 -14 10 -17z m-1852 9 c30 -12 5
-22 -56 -23 -29 0 -81 -7 -115 -16 -59 -14 -64 -14 -90 4 l-28 19 80 7 c44 4
89 9 100 11 34 7 89 6 109 -2z m1321 -15 c94 -17 112 -23 118 -40 3 -7 28 -16
57 -20 46 -6 100 -39 87 -53 -3 -2 -49 14 -102 37 -88 37 -108 42 -218 49
-109 8 -127 7 -170 -10 -52 -21 -82 -16 -49 7 26 18 117 43 162 43 19 1 71 -5
115 -13z m-2420 -108 c6 -22 4 -28 -9 -28 -19 0 -32 23 -41 72 -11 56 6 70 26
23 10 -22 21 -52 24 -67z m673 87 c54 -23 133 -76 127 -85 -7 -11 -83 11 -160
45 -48 22 -55 28 -45 40 16 19 32 19 78 0z m-140 -50 c74 -53 146 -82 249
-101 93 -16 93 -16 226 10 72 14 146 26 162 26 l30 -1 -28 -15 c-15 -8 -31
-12 -36 -9 -5 3 -22 0 -38 -6 -52 -20 -227 -41 -293 -35 -110 9 -315 103 -334
153 -9 22 11 15 62 -22z m42 18 c136 -64 176 -76 250 -75 83 0 221 28 325 66
61 22 65 22 49 5 -10 -11 -32 -29 -50 -40 -35 -21 -228 -69 -280 -69 -50 0
-225 49 -270 75 -36 21 -84 65 -59 54 6 -3 21 -10 35 -16z m425 8 c-6 -5 -30
-11 -55 -15 -41 -5 -43 -5 -26 9 21 16 97 22 81 6z m1728 2 c-7 -2 -19 -2 -25
0 -7 3 -2 5 12 5 14 0 19 -2 13 -5z m417 -18 c91 -32 122 -70 166 -199 26 -75
30 -106 14 -106 -5 0 -10 8 -10 19 0 10 -16 53 -35 94 -27 60 -43 81 -74 101
-69 44 -152 66 -247 66 -64 0 -85 3 -82 12 13 38 176 45 268 13z m-3221 -20
c16 -36 50 -75 65 -75 10 0 88 -48 174 -107 26 -18 71 -47 99 -64 29 -17 74
-50 100 -74 164 -146 278 -178 653 -179 l235 -1 90 -38 c149 -63 200 -107 124
-107 -18 0 -29 -5 -27 -11 4 -12 7 -13 57 -4 23 4 77 -1 129 -10 74 -14 97
-23 129 -49 62 -53 98 -67 191 -73 109 -7 230 13 335 56 88 35 109 38 101 16
-18 -45 -246 -115 -374 -115 -72 0 -165 27 -244 70 -88 48 -158 70 -250 79
-68 6 -70 7 -101 51 -67 96 -192 127 -465 116 -94 -4 -168 -3 -189 4 -39 11
-51 6 -32 -13 9 -9 65 -11 216 -9 216 2 297 -8 376 -48 40 -21 68 -50 33 -35
-65 28 -376 59 -464 47 -38 -6 -75 -6 -89 -1 -12 5 -79 18 -148 29 -135 22
-168 35 -226 86 -46 42 -37 43 36 3 51 -27 93 -38 207 -54 l35 -5 -35 16 c-19
9 -53 19 -75 22 -22 3 -63 15 -91 27 -57 25 -221 133 -244 160 -8 9 -59 39
-114 67 -115 58 -226 148 -226 185 0 12 -9 28 -20 35 -25 16 -26 41 -3 36 10
-2 24 -17 32 -33z m2569 19 c37 -11 24 -22 -15 -13 -59 13 -120 11 -161 -7
-41 -18 -102 -25 -102 -11 0 4 -12 7 -27 5 -16 -2 -27 -8 -25 -15 2 -14 -20
-18 -32 -6 -4 4 17 20 46 35 52 28 56 28 173 24 66 -3 130 -8 143 -12z m-685
-1 c-7 -2 -19 -2 -25 0 -7 3 -2 5 12 5 14 0 19 -2 13 -5z m1001 -12 c3 -5 -6
-12 -20 -15 -30 -8 -53 2 -33 15 18 11 46 11 53 0z m-3477 -36 c39 -19 81 -35
92 -35 16 0 28 -17 56 -76 19 -42 32 -80 29 -85 -6 -10 -53 -1 -71 14 -9 7
-13 5 -13 -6 0 -9 9 -21 20 -27 29 -15 16 -32 -15 -20 -31 12 -33 -2 -3 -22
33 -22 14 -41 -33 -33 -46 8 -51 -2 -9 -16 16 -6 27 -15 24 -20 -3 -5 -14 -5
-25 2 -11 5 -25 8 -32 6 -7 -2 4 -12 23 -23 l35 -19 -28 -3 c-16 -2 -35 -1
-42 2 -25 9 -64 80 -81 146 -9 36 -25 82 -36 104 -19 37 -26 114 -13 136 11
18 50 11 122 -25z m2787 -15 c65 -19 114 -36 107 -38 -6 -2 -32 3 -58 12 -27
8 -92 23 -146 32 -92 16 -105 16 -233 0 -77 -10 -186 -33 -252 -53 -100 -29
-140 -36 -277 -43 -88 -5 -184 -14 -214 -20 -62 -12 -197 -12 -226 -1 -20 8
116 22 255 27 165 5 280 23 403 65 154 51 200 58 377 55 131 -2 156 -5 264
-36z m428 11 c29 -10 54 -23 56 -29 3 -9 -3 -10 -23 -2 -37 14 -121 12 -184
-5 -43 -11 -64 -12 -102 -3 -27 6 -49 14 -49 17 0 4 33 16 73 28 81 25 143 23
229 -6z m533 -6 c99 -26 145 -60 183 -135 26 -52 31 -74 28 -113 -2 -26 -11
-56 -21 -66 -19 -23 -13 -41 15 -41 13 0 17 -5 14 -15 -5 -11 1 -15 25 -15 24
0 32 -5 37 -25 9 -37 2 -39 -41 -13 -60 37 -88 67 -79 86 16 39 15 75 -5 141
-25 81 -56 123 -108 144 -55 21 -196 38 -292 35 -57 -2 -85 1 -88 9 -6 17 19
21 152 22 80 1 141 -4 180 -14z m-3199 -35 c15 -38 81 -97 128 -114 10 -3 16
-9 13 -13 -7 -6 -106 21 -144 39 -26 13 -56 82 -48 109 10 31 34 22 51 -21z
m295 -35 c31 -40 68 -74 93 -87 22 -11 61 -37 86 -57 25 -21 95 -63 156 -95
61 -31 119 -65 129 -76 18 -19 17 -20 -7 -20 -62 0 -140 42 -268 145 -36 29
-80 60 -98 69 -39 20 -138 118 -158 158 -13 25 -13 28 1 28 8 0 38 -29 66 -65z
m1912 35 c127 -25 154 -34 187 -60 22 -18 40 -33 40 -35 0 -4 -28 5 -115 35
-72 26 -222 42 -249 28 -10 -6 -35 -11 -55 -13 -20 -2 -54 -5 -76 -8 -22 -2
-31 -2 -20 0 11 3 24 9 30 14 33 32 -177 -25 -331 -90 -116 -48 -230 -84 -306
-94 -66 -10 -41 7 60 39 54 18 149 56 212 86 113 54 274 107 328 109 15 0 36
4 47 9 35 15 97 10 248 -20z m-2280 -1 c3 -12 0 -22 -9 -26 -8 -3 -14 -16 -14
-30 0 -34 -22 -24 -34 15 -6 22 -5 36 4 47 18 22 47 19 53 -6z m3238 -10 c100
-22 194 -179 149 -249 -7 -11 -10 -3 -10 31 0 33 -8 58 -29 92 -64 99 -154
127 -357 108 -68 -7 -141 -18 -162 -25 -51 -18 -198 -31 -206 -18 -3 6 15 13
44 17 71 10 70 22 -1 30 -41 5 -57 10 -48 16 22 14 117 10 148 -6 23 -11 41
-12 92 -4 90 14 257 26 299 21 19 -2 56 -8 81 -13z m-1894 -15 c-3 -3 -12 -4
-19 -1 -8 3 -5 6 6 6 11 1 17 -2 13 -5z m1199 -27 c27 -19 64 -41 82 -51 34
-18 40 -31 18 -39 -8 -3 -40 15 -73 41 -32 26 -70 55 -83 64 -19 13 -21 17 -9
17 9 1 39 -14 65 -32z m-2082 -26 c11 -12 16 -21 12 -21 -11 0 -66 43 -66 52
0 12 32 -6 54 -31z m2768 12 c21 -8 59 -38 84 -66 38 -43 45 -56 42 -86 -4
-45 -30 -53 -54 -16 -17 25 -17 28 -1 37 21 11 22 38 1 38 -8 0 -20 14 -26 30
-18 54 -99 75 -188 50 -58 -16 -212 -30 -254 -23 -38 6 -38 7 -15 16 85 34
166 47 268 41 58 -3 122 -12 143 -21z m-3212 -4 c0 -5 -4 -9 -10 -9 -5 0 -10
7 -10 16 0 8 5 12 10 9 6 -3 10 -10 10 -16z m1654 3 c5 -8 -230 -104 -286
-117 -16 -4 -37 -1 -55 9 -21 11 -23 15 -10 16 10 0 50 14 87 30 38 17 106 37
151 45 44 7 84 16 87 19 8 8 20 7 26 -2z m724 -12 c17 -7 32 -15 32 -18 0 -4
-39 -7 -88 -8 -94 0 -220 -28 -332 -71 -64 -25 -236 -139 -275 -183 -26 -29
-96 -65 -93 -48 2 9 -7 12 -27 11 l-29 -2 34 21 c44 26 135 96 223 170 98 83
173 122 277 142 44 8 244 -2 278 -14z m-578 -46 c-141 -75 -262 -124 -302
-123 -18 1 -55 -1 -83 -5 l-50 -6 45 14 c25 8 71 22 104 31 32 9 97 34 145 57
92 43 207 87 231 87 8 1 -32 -24 -90 -55z m-555 15 c-41 -19 -96 -25 -109 -11
-4 4 23 12 61 18 92 16 94 15 48 -7z m-1196 -9 c192 -39 320 -96 429 -193 37
-32 82 -71 100 -85 46 -35 152 -179 152 -205 0 -61 -81 -126 -210 -169 -53
-17 -87 -21 -180 -20 -131 2 -200 18 -239 57 -14 14 -44 41 -66 59 -32 28 -38
37 -27 47 18 19 15 42 -4 35 -12 -4 -14 -1 -9 14 5 14 2 20 -9 20 -15 0 -20
-14 -19 -47 1 -7 -4 -13 -11 -13 -16 0 -76 38 -76 49 0 4 -27 35 -60 67 -34
33 -63 70 -67 84 -3 14 -15 42 -26 63 -18 32 -19 43 -10 67 10 28 10 29 -8 20
-25 -14 -24 -45 6 -105 13 -27 25 -56 25 -64 0 -23 149 -172 209 -210 80 -50
106 -70 99 -76 -19 -19 -249 153 -332 247 -54 61 -89 130 -90 174 0 16 11 52
25 80 20 40 34 54 79 76 46 23 123 41 201 47 9 0 62 -8 118 -19z m993 -1 c70
-23 122 -48 115 -55 -2 -2 -38 9 -80 26 -41 16 -80 30 -86 30 -5 0 -13 5 -16
10 -9 14 -3 13 67 -11z m318 2 c-35 -19 -141 -40 -128 -26 9 10 119 44 143 44
14 0 10 -5 -15 -18z m1370 9 c-36 -11 -50 -11 -50 0 0 6 17 10 38 9 33 -1 34
-2 12 -9z m405 0 c-3 -5 -10 -10 -16 -10 -5 0 -9 5 -9 10 0 6 7 10 16 10 8 0
12 -4 9 -10z m-2185 -31 c41 -11 95 -27 120 -36 25 -8 59 -18 75 -23 17 -4 75
-34 130 -68 72 -43 108 -72 127 -101 23 -36 24 -41 9 -41 -21 0 -44 18 -60 45
-11 19 -11 18 -9 -5 2 -17 -2 -25 -12 -25 -8 0 -15 9 -15 20 0 35 -227 167
-327 189 -94 21 -171 49 -176 65 -5 15 16 12 138 -20z m915 -5 c-155 -136
-286 -224 -334 -224 -33 0 -25 20 17 37 67 28 176 95 257 160 84 67 128 87 60
27z m-1198 -18 c15 -8 25 -15 21 -16 -14 0 -118 42 -123 50 -7 11 61 -12 102
-34z m1839 27 c36 -14 6 -23 -75 -23 -105 0 -243 -27 -361 -70 -83 -31 -271
-120 -340 -161 -33 -20 -33 -18 10 22 143 134 283 206 467 239 48 9 272 4 299
-7z m694 10 c-1 -17 -107 -121 -129 -128 -24 -7 -23 -6 10 41 43 59 120 116
119 87z m-415 -11 c-24 -20 -331 -185 -345 -185 -8 0 -28 -9 -43 -20 -48 -33
-44 -7 6 39 65 59 157 113 247 146 70 25 155 38 135 20z m244 -12 c-19 -10
-42 -27 -50 -36 -13 -16 -12 -17 6 -11 16 6 15 3 -5 -13 -14 -11 -43 -25 -65
-31 -22 -6 -56 -18 -75 -27 -19 -9 -49 -21 -66 -27 -17 -6 -49 -26 -70 -43
-44 -35 -115 -74 -122 -67 -3 2 22 31 55 63 66 64 179 128 285 161 38 11 80
27 95 35 16 8 33 15 38 15 6 0 -6 -8 -26 -19z m-2754 0 c8 -13 -5 -13 -25 0
-13 8 -13 10 2 10 9 0 20 -4 23 -10z m2645 2 c0 -4 -24 -16 -52 -26 -80 -28
-184 -85 -225 -122 -20 -19 -40 -34 -44 -34 -4 0 -21 -11 -37 -25 -17 -14 -33
-21 -36 -16 -4 5 2 14 11 20 15 9 15 10 2 11 -8 0 -30 -11 -49 -25 -19 -14
-45 -25 -58 -25 -18 0 -10 9 42 45 36 24 89 56 118 71 29 14 83 44 120 66 37
22 87 46 110 53 49 16 98 19 98 7z m-2192 -87 c98 -44 186 -99 206 -130 24
-36 2 -33 -70 11 -117 72 -229 134 -244 134 -21 0 -57 27 -70 51 -10 17 -6 17
47 -7 32 -15 91 -41 131 -59z m2913 70 c0 -5 -23 -25 -50 -42 -60 -38 -65 -32
-16 21 31 34 66 45 66 21z m-2814 -46 c54 -17 103 -36 108 -41 7 -8 4 -9 -9
-4 -11 4 -60 18 -110 32 -50 14 -95 30 -100 35 -17 15 9 11 111 -22z m100 16
c29 -8 77 -22 106 -30 67 -19 181 -87 186 -111 2 -10 12 -25 23 -33 12 -8 16
-17 11 -22 -14 -14 -39 -1 -58 27 -8 13 -21 24 -27 24 -6 0 -21 9 -32 19 -12
11 -43 28 -71 39 -73 30 -205 92 -205 97 0 8 9 6 67 -10z m823 10 c0 -7 -110
-80 -157 -104 -41 -21 -93 -28 -93 -13 1 19 20 32 79 52 36 12 85 32 110 45
46 24 61 29 61 20z m739 -4 c23 -15 -1 -18 -94 -13 -58 3 -83 8 -70 13 27 10
147 11 164 0z m755 -1 c-13 -13 -74 -31 -74 -21 0 16 26 31 54 31 20 0 27 -3
20 -10z m-199 -30 c-25 -40 -242 -150 -295 -150 -39 0 -23 19 60 69 8 5 38 14
65 20 28 7 77 27 110 45 61 34 73 37 60 16z m-1704 -46 c11 -14 4 -12 -29 6
-58 32 -80 60 -26 32 22 -11 47 -28 55 -38z m794 17 c-33 -15 -109 -58 -169
-95 -60 -36 -116 -66 -125 -66 -9 0 -40 -11 -69 -25 -75 -35 -96 -32 -52 6 45
38 250 140 360 179 108 38 132 38 55 1z m303 10 c3 -10 -1 -11 -19 -5 -45 15
-167 7 -197 -14 -34 -24 -221 -112 -236 -112 -16 1 91 68 154 97 86 40 139 52
219 50 52 -1 76 -6 79 -16z m819 -8 c2 -6 -17 -18 -44 -26 -255 -82 -302 -112
-566 -374 -217 -215 -307 -284 -492 -376 -151 -76 -173 -81 -360 -75 -172 6
-207 14 -260 63 -44 42 -26 62 24 26 54 -39 200 -51 376 -31 81 9 102 16 215
74 203 104 303 179 490 367 157 159 171 171 299 244 172 100 306 146 318 108z
m-897 -23 c-8 -5 -24 -10 -35 -10 -11 0 -57 -19 -103 -41 -59 -30 -86 -39 -94
-31 -7 7 -2 15 19 26 16 8 51 26 78 40 34 18 63 26 99 26 37 0 47 -3 36 -10z
m1160 -9 c0 -24 -12 -32 -30 -21 -11 7 -11 11 -1 24 18 22 31 20 31 -3z
m-4070 -4 c0 -7 -6 -21 -13 -32 -18 -24 -32 -3 -17 25 12 23 30 27 30 7z
m3900 -21 c22 -13 19 -14 -55 -21 -44 -3 -96 -11 -115 -17 -89 -27 -245 -140
-355 -257 -44 -47 -114 -120 -155 -163 -41 -42 -99 -101 -128 -131 -83 -86
-279 -200 -457 -264 -62 -23 -89 -26 -240 -30 -170 -4 -170 -3 -225 24 -39 20
-56 35 -58 51 -4 27 2 27 42 3 52 -32 234 -38 367 -12 59 12 132 30 163 41 69
23 193 92 283 157 85 61 258 227 331 318 31 39 76 89 99 113 135 135 411 238
503 188z m348 3 c79 -19 71 -29 -22 -29 -48 0 -96 -5 -106 -10 -30 -16 -37 10
-9 31 28 21 71 24 137 8z m-2677 -14 c25 -9 57 -27 72 -41 32 -29 37 -46 5
-18 -21 19 -21 19 -15 -4 l5 -23 -34 22 c-37 22 -97 79 -85 79 4 0 28 -7 52
-15z m1320 -2 c-18 -35 -59 -66 -77 -59 -15 6 -14 9 12 25 16 10 35 25 43 34
18 23 34 22 22 0z m-2843 -16 c3 -16 1 -17 -17 -7 -25 13 -28 33 -4 28 10 -2
19 -11 21 -21z m2768 -2 c-11 -8 -25 -15 -30 -15 -6 0 -2 7 8 15 11 8 25 15
30 15 6 0 2 -7 -8 -15z m-2820 -11 c72 -21 82 -38 18 -30 -57 7 -106 11 -151
14 -48 3 -40 20 10 25 23 2 48 4 55 5 8 1 38 -5 68 -14z m1554 -43 c-1 -11 -9
-6 -25 14 -32 39 -32 55 0 25 14 -13 25 -31 25 -39z m494 6 c10 -16 2 -47 -13
-47 -8 0 -61 84 -61 97 0 9 65 -35 74 -50z m-1914 27 c0 -9 -7 -14 -17 -12
-25 5 -28 28 -4 28 12 0 21 -6 21 -16z m3821 -13 c15 -12 39 -21 53 -21 13 0
26 -7 30 -15 4 -11 -1 -15 -18 -15 -13 0 -40 7 -59 15 -20 8 -62 15 -92 15
-50 0 -69 -7 -156 -55 -84 -47 -245 -143 -338 -203 -24 -16 -24 -14 6 24 65
83 283 241 372 269 64 21 164 14 202 -14z m-2224 -27 c-4 -4 -14 1 -22 12 -22
29 -18 41 7 17 12 -13 19 -26 15 -29z m1698 36 c-3 -5 -12 -10 -18 -10 -7 0
-6 4 3 10 19 12 23 12 15 0z m-689 -51 c27 -6 106 -11 177 -12 79 -1 127 -5
127 -12 0 -5 -25 -60 -55 -122 -53 -110 -55 -112 -97 -124 -24 -6 -99 -12
-168 -13 -120 -1 -127 0 -172 27 -54 31 -66 56 -43 91 22 32 33 36 90 25 45
-8 65 -6 53 6 -2 3 -26 9 -52 14 -54 10 -61 14 -52 36 7 18 30 15 121 -18 56
-20 91 -23 219 -18 16 1 36 6 45 10 11 7 1 11 -34 15 -28 3 -88 16 -135 27
-47 12 -106 27 -132 32 -53 12 -55 16 -32 56 l17 28 37 -18 c21 -10 60 -23 86
-30z m-2547 5 c39 -66 105 -136 205 -216 172 -139 330 -196 544 -198 56 0 62
-2 48 -15 -8 -8 -19 -15 -25 -15 -15 0 -14 -20 2 -21 6 0 3 -4 -8 -9 -18 -8
-18 -9 6 -9 14 -1 33 5 42 12 21 15 31 57 14 57 -7 0 20 11 58 25 39 13 87 34
108 46 21 11 41 19 44 16 9 -10 -115 -120 -180 -160 -59 -36 -95 -44 -90 -19
4 17 -23 15 -41 -3 -8 -8 -21 -15 -28 -15 -10 0 -11 -2 0 -8 22 -14 -149 -36
-229 -29 -59 5 -90 15 -163 52 -90 44 -183 111 -210 150 -7 11 -37 64 -65 117
-49 91 -53 103 -58 187 -3 50 -3 91 0 91 3 0 15 -16 26 -36z m2371 2 c0 -12
-16 -20 -105 -51 l-20 -7 20 17 c16 14 91 54 103 55 1 0 2 -6 2 -14z m740 9
c0 -3 -40 -25 -90 -50 -59 -30 -90 -41 -90 -32 0 21 44 57 87 72 37 14 93 20
93 10z m-3260 -25 c0 -5 -6 -10 -14 -10 -8 0 -18 5 -21 10 -3 6 3 10 14 10 12
0 21 -4 21 -10z m2395 0 c-3 -5 -12 -10 -18 -10 -7 0 -6 4 3 10 19 12 23 12
15 0z m-2295 -21 c0 -5 -7 -9 -15 -9 -15 0 -20 12 -9 23 8 8 24 -1 24 -14z
m3780 17 c0 -2 -26 -31 -58 -64 -32 -33 -91 -106 -132 -163 -253 -348 -353
-464 -466 -545 -78 -56 -130 -74 -211 -74 -61 0 -64 1 -61 22 2 18 10 23 46
25 82 5 152 49 309 191 78 71 198 225 371 476 57 83 125 136 174 136 15 0 28
-2 28 -4z m200 -8 c0 -20 -81 -87 -127 -104 -48 -19 -58 -16 -49 14 5 14 19
21 56 26 39 5 54 13 77 41 29 35 43 43 43 23z m-845 -39 c-42 -42 -117 -89
-143 -89 -8 0 -30 -10 -49 -21 -19 -12 -36 -19 -39 -16 -3 3 7 14 23 24 15 10
40 30 56 45 27 26 159 98 180 98 6 0 -7 -18 -28 -41z m895 -25 c0 -20 -10 -44
-25 -63 -26 -31 -135 -91 -164 -91 -9 0 4 11 29 24 54 27 106 93 123 153 10
39 13 42 24 27 7 -10 13 -32 13 -50z m-2040 46 c0 -5 -7 -10 -16 -10 -8 0 -12
5 -9 10 3 6 10 10 16 10 5 0 9 -4 9 -10z m410 -9 c0 -5 -6 -13 -12 -18 -24
-18 -163 -53 -210 -53 -26 0 -50 -4 -53 -10 -4 -6 9 -10 32 -10 21 0 45 -5 53
-10 11 -7 -2 -10 -42 -10 -32 0 -58 4 -58 9 0 5 -2 15 -5 23 -4 10 14 16 68
25 41 7 105 23 143 36 83 29 84 29 84 18z m163 -30 c54 -26 7 -17 -61 11 -40
16 -42 18 -14 14 18 -3 52 -15 75 -25z m-1295 -8 c91 -18 135 -34 109 -40 -10
-3 -35 2 -56 11 -27 10 -56 13 -96 9 -53 -6 -58 -4 -52 11 6 14 2 17 -21 16
-45 -3 -62 0 -62 10 0 12 64 6 178 -17z m947 17 c-16 -4 -61 -7 -100 -7 -68 0
-68 0 -20 7 28 4 73 7 100 7 42 1 45 -1 20 -7z m1555 -12 c0 -7 -22 -32 -50
-56 -28 -24 -47 -48 -44 -56 4 -11 -34 -46 -52 -46 -10 0 25 50 79 113 48 56
67 69 67 45z m453 -3 c39 -16 12 -23 -65 -18 -46 3 -85 7 -87 9 -1 1 0 8 4 15
8 12 111 8 148 -6z m-677 -39 c-1 -25 -31 -74 -111 -185 -167 -232 -175 -237
-79 -46 62 122 99 183 132 218 25 26 50 47 54 47 4 0 6 -15 4 -34z m-1931 14
c17 -7 15 -9 -12 -9 -22 -1 -33 -6 -33 -16 0 -20 -23 -19 -63 2 l-32 17 25 7
c34 10 91 9 115 -1z m2314 -26 c-13 -14 -37 -35 -54 -47 l-30 -21 24 27 c17
19 20 27 10 27 -8 0 4 11 26 24 48 29 57 25 24 -10z m-1589 17 c0 -5 -10 -11
-22 -14 -22 -6 -22 -6 -4 8 23 17 26 18 26 6z m-585 -21 c14 -6 2 -8 -40 -8
-48 0 -54 2 -30 8 40 10 46 10 70 0z m-300 -29 c42 -20 26 -28 -21 -11 -35 14
-121 -3 -188 -36 -35 -18 -47 -20 -43 -10 4 9 -1 16 -11 18 -12 3 -7 9 18 23
51 27 78 33 145 34 39 0 74 -6 100 -18z m2400 9 c-9 -14 -66 -43 -72 -36 -3 2
12 14 34 25 45 24 46 24 38 11z m-3860 -10 c3 -5 1 -10 -4 -10 -6 0 -11 5 -11
10 0 6 2 10 4 10 3 0 8 -4 11 -10z m4018 -48 c-19 -24 -49 -45 -84 -58 -58
-23 -154 -39 -145 -25 3 5 41 23 83 40 43 17 98 47 123 65 53 39 64 29 23 -22z
m-2034 32 c2 -2 2 -6 0 -9 -8 -7 -49 7 -49 17 0 8 38 2 49 -8z m1758 -48 c-32
-70 -103 -149 -128 -141 -27 9 -119 -41 -119 -65 0 -20 -17 -36 -27 -26 -11
10 47 75 81 91 53 26 163 121 188 164 32 56 35 43 5 -23z m-1804 28 c15 -8 37
-12 47 -9 17 5 20 2 20 -24 0 -28 -3 -31 -34 -31 -18 0 -52 6 -74 14 -67 24
-152 37 -171 26 -13 -7 -10 -9 14 -10 31 0 239 -47 264 -59 17 -8 39 -65 40
-101 1 -25 0 -25 -86 -25 -50 0 -123 -8 -168 -18 -107 -25 -142 -17 -161 38
-29 83 -26 85 168 85 75 0 139 4 142 9 4 5 -64 8 -164 8 -93 -1 -170 1 -170 4
0 3 14 15 31 28 17 13 28 25 25 29 -4 3 -20 -5 -38 -18 l-31 -23 -24 27 c-26
31 -29 46 -9 46 7 0 27 7 42 16 24 13 52 14 169 9 91 -4 149 -12 168 -21z
m2352 0 c30 -20 32 -54 6 -78 -30 -27 -101 -45 -133 -34 -37 13 -28 25 25 33
74 12 108 50 75 83 -17 17 -2 15 27 -4z m-2834 -6 c51 -15 49 -24 -4 -20 -27
2 -76 -6 -128 -21 -171 -51 -200 -45 -66 15 87 40 134 46 198 26z m2775 -3
c19 -15 19 -15 -1 -30 -29 -22 -119 -17 -123 8 -7 33 87 50 124 22z m-866 -20
c-18 -21 -88 -57 -103 -52 -6 2 16 20 48 40 59 37 79 41 55 12z m-1202 5 c43
-7 98 -28 170 -65 58 -30 112 -55 118 -55 7 0 15 -4 19 -9 8 -14 -120 23 -226
64 -87 35 -189 48 -189 25 0 -16 -17 -12 -24 6 -9 23 12 44 43 44 14 0 55 -5
89 -10z m-652 -34 c18 -14 18 -15 1 -21 -9 -4 -28 -4 -41 -1 -23 6 -135 -6
-195 -21 -55 -13 -7 13 62 33 86 26 146 29 173 10z m2144 -1 c0 -8 -82 -57
-87 -51 -9 8 8 26 25 26 9 0 26 7 36 15 21 16 26 18 26 10z m-280 -15 c0 -5
-6 -10 -13 -10 -7 0 -28 -16 -47 -35 -31 -32 -216 -132 -226 -122 -9 8 100 82
191 129 103 54 95 51 95 38z m625 -10 c-3 -5 -27 -22 -53 -37 -38 -23 -60 -28
-114 -29 -38 0 -66 1 -64 3 2 3 42 15 88 28 45 13 94 28 108 33 32 14 43 14
35 2z m70 -40 c-7 -33 -55 -94 -86 -111 -49 -26 -169 -33 -154 -8 4 5 -14 9
-40 9 -28 0 -44 4 -40 10 3 6 18 10 33 10 15 0 63 6 107 13 76 11 82 14 130
62 28 28 52 49 53 48 2 -1 1 -16 -3 -33z m-2792 -5 c34 -14 88 -41 119 -61
124 -76 245 -93 423 -59 145 28 298 10 419 -50 39 -19 92 -38 119 -41 26 -4
50 -11 53 -16 11 -17 -104 3 -236 40 -153 42 -273 52 -382 29 -201 -42 -281
-25 -481 102 -44 27 -96 53 -118 56 -21 4 -41 11 -45 16 -11 18 68 8 129 -16z
m257 14 c0 -12 -61 -39 -106 -46 -19 -3 -46 2 -68 12 -65 31 -43 41 97 44 48
0 77 -3 77 -10z m657 0 l28 -12 -25 -7 c-28 -9 -92 -11 -72 -3 29 12 10 24
-28 18 -26 -4 -40 -3 -40 4 0 15 101 14 137 0z m1923 1 c0 -19 -43 -126 -61
-151 -35 -50 -161 -79 -276 -63 l-58 8 40 6 c38 7 80 17 192 47 68 17 128 73
138 126 4 20 11 37 16 37 5 0 9 -4 9 -10z m-1257 -11 c-21 -21 -157 -49 -233
-47 l-75 1 80 8 c44 5 114 18 155 28 41 10 77 19 80 20 2 1 -1 -4 -7 -10z
m-1618 -44 l40 -24 -32 -1 c-20 0 -42 9 -60 25 -25 22 -26 24 -8 25 11 0 38
-11 60 -25z m1176 -4 l54 -19 -35 -5 c-19 -4 -93 -8 -165 -10 -71 -2 -140 -9
-151 -15 -12 -6 -25 -8 -28 -4 -4 4 10 15 31 25 l38 17 -39 -4 c-62 -8 -29 11
49 28 83 18 169 14 246 -13z m-1271 9 c12 -8 11 -10 -7 -10 -13 0 -23 5 -23
10 0 13 11 13 30 0z m365 -10 c-3 -5 -14 -10 -23 -10 -15 0 -15 2 -2 10 20 13
33 13 25 0z m2151 -38 c-13 -27 -31 -54 -39 -60 -33 -28 -197 -99 -197 -86 0
2 21 15 48 29 26 14 37 24 24 21 -32 -6 -23 14 17 39 18 11 60 39 94 61 34 23
65 42 70 43 4 0 -4 -21 -17 -47z m34 -45 c-26 -51 -56 -84 -90 -102 -34 -17
-170 -49 -177 -41 -3 3 16 15 43 26 27 12 67 29 89 38 56 24 114 78 133 126
14 35 17 38 20 18 2 -13 -6 -42 -18 -65z m-410 48 c-21 -22 -197 -91 -208 -81
-8 9 189 104 217 105 10 1 7 -7 -9 -24z m-2164 -70 c20 -42 21 -51 8 -53 -29
-7 -62 27 -77 75 -14 50 -13 68 3 43 8 -12 10 -11 10 5 l1 20 15 -20 c9 -11
27 -42 40 -70z m2459 75 c-3 -5 -12 -10 -18 -10 -7 0 -6 4 3 10 19 12 23 12
15 0z m-2270 -36 c33 -14 80 -32 105 -41 52 -18 85 -43 58 -43 -27 0 -117 20
-193 43 -59 17 -66 22 -45 27 23 6 21 8 -17 19 -24 6 -43 14 -43 16 0 14 83 1
135 -21z m1408 11 c-2 -5 -35 -13 -75 -17 -40 -4 -113 -18 -163 -33 -49 -14
-103 -29 -120 -32 -26 -5 -28 -4 -17 9 18 22 100 56 175 73 70 15 203 15 200
0z m-323 -10 c0 -10 -58 -34 -102 -40 -35 -5 -52 -3 -69 9 -23 16 -21 19 26
29 28 6 145 8 145 2z m-1367 -26 l22 -21 -22 11 c-12 6 -25 16 -28 21 -11 17
5 11 28 -11z m-18 -26 c39 -43 31 -63 -10 -23 -19 19 -35 38 -35 42 0 16 20 7
45 -19z m1645 21 c0 -16 -214 -73 -227 -60 -9 8 41 30 112 47 72 18 115 23
115 13z m587 -1 c-3 -5 -32 -21 -65 -38 -33 -16 -62 -37 -65 -45 -5 -18 -92
-47 -163 -56 -46 -5 -48 -4 -25 9 23 14 23 15 5 19 -32 7 37 37 181 79 72 20
131 37 133 38 2 1 1 -2 -1 -6z m-1942 -38 c84 -26 129 -35 190 -36 98 -2 58
-16 -50 -18 -87 -1 -169 18 -229 53 -82 48 -59 48 89 1z m-339 1 c10 -8 16
-18 12 -22 -11 -10 -60 14 -53 26 8 14 18 13 41 -4z m317 -52 c87 -30 151 -30
352 -4 151 20 241 25 268 14 25 -9 8 -44 -22 -44 -64 -1 -191 -12 -251 -21
-194 -32 -215 -31 -350 12 -66 21 -110 51 -110 76 0 11 4 11 21 2 12 -6 53
-22 92 -35z m674 25 c42 -20 56 -39 30 -39 -8 0 -22 9 -32 20 -10 11 -32 24
-49 29 -19 6 -24 10 -12 10 11 1 39 -8 63 -20z m258 -14 c66 -22 68 -23 31
-24 -31 -1 -172 26 -185 35 -1 2 0 8 4 14 8 13 52 6 150 -25z m-1275 -7 c30
-5 76 -8 103 -6 26 2 47 0 47 -3 0 -17 -42 -40 -83 -45 -58 -8 -88 -1 -126 32
-34 28 -42 51 -13 39 9 -4 42 -12 72 -17z m-1565 -79 c28 -25 76 -62 109 -83
32 -20 85 -59 117 -86 32 -26 75 -53 96 -60 21 -7 52 -21 68 -30 48 -29 262
-120 282 -120 10 0 77 -23 148 -51 246 -96 460 -145 755 -174 85 -8 200 -24
255 -36 77 -15 166 -23 380 -30 154 -5 341 -13 415 -17 144 -8 641 9 825 28
331 33 798 121 945 177 36 14 93 33 127 43 34 10 115 39 180 65 65 26 142 56
172 66 64 22 369 181 408 212 58 47 69 53 43 23 -32 -36 -190 -155 -272 -205
-120 -73 -288 -139 -498 -197 -113 -30 -245 -71 -294 -90 -49 -19 -121 -39
-160 -45 -39 -5 -100 -16 -136 -24 -131 -29 -468 -85 -595 -100 -184 -21 -766
-21 -885 0 -54 10 -110 13 -155 10 -41 -4 -122 0 -195 9 -69 9 -186 20 -260
26 -74 7 -196 23 -270 36 -74 14 -182 31 -240 39 -124 16 -363 67 -475 101
-44 14 -143 56 -220 94 -77 38 -192 93 -255 123 -200 94 -510 318 -510 368 0
13 13 3 95 -72z m1440 62 c17 -7 39 -18 50 -24 64 -34 79 -39 113 -34 21 3 45
8 55 12 9 4 17 3 17 -2 0 -16 -48 -33 -109 -39 -56 -6 -56 -6 -114 42 -31 27
-57 52 -57 57 0 5 3 7 8 5 4 -2 21 -10 37 -17z m1324 -6 c52 -14 96 -27 99
-30 11 -10 -144 -3 -178 8 -34 12 -55 47 -28 47 7 0 55 -11 107 -25z m-1394 4
c10 -15 -1 -22 -24 -14 -12 3 -19 11 -16 16 8 12 32 11 40 -2z m2413 -10 c-16
-11 -28 -26 -28 -34 0 -17 -41 -33 -115 -45 -124 -20 -151 -7 -45 23 30 9 87
29 125 46 83 35 100 38 63 10z m528 -25 c-13 -33 -92 -55 -219 -61 -67 -3
-119 -3 -116 0 3 4 45 18 95 32 49 14 113 35 141 45 29 11 59 17 67 14 8 -3
18 1 22 8 7 10 9 9 12 -5 2 -10 1 -25 -2 -33z m-1311 15 c-29 -11 -35 -10 -35
5 0 9 8 12 27 8 25 -5 25 -6 8 -13z m-1082 -35 c84 -29 180 -31 307 -9 101 18
298 20 335 3 37 -17 31 -31 -12 -24 -118 18 -234 18 -329 1 -145 -26 -269 -17
-357 26 -36 18 -64 36 -61 41 3 4 15 3 26 -3 11 -6 52 -22 91 -35z m-147 9
c-7 -7 -26 7 -26 19 0 6 6 6 15 -2 9 -7 13 -15 11 -17z m2234 -3 c-8 -5 -19
-10 -25 -10 -5 0 -3 5 5 10 8 5 20 10 25 10 6 0 3 -5 -5 -10z m-2134 -41 c3
-5 -11 -9 -30 -9 -37 0 -58 16 -29 22 23 5 52 -2 59 -13z m1564 7 c0 -2 -52
-30 -114 -61 -73 -35 -134 -58 -165 -62 -66 -8 -66 9 0 26 27 7 77 27 111 43
33 17 83 36 112 43 28 7 52 13 54 14 1 1 2 -1 2 -3z m-1046 -30 c21 -9 60 -20
87 -23 28 -3 46 -10 42 -16 -9 -15 -109 -1 -145 20 -27 16 -56 53 -32 41 5 -2
26 -12 48 -22z m-109 4 c-3 -5 -23 -10 -43 -9 -30 0 -33 2 -17 9 28 12 67 12
60 0z m1419 -10 c-37 -18 -237 -61 -293 -64 -37 -2 -37 23 1 38 18 7 85 19
148 25 63 7 116 14 119 17 2 2 18 4 35 3 l31 -1 -41 -18z m-1747 -6 c5 -14
-41 -34 -78 -34 -35 0 -69 16 -69 32 0 10 36 7 89 -8 20 -6 23 -4 18 10 -5 14
-2 17 15 14 12 -2 23 -8 25 -14z m-157 -24 c25 -26 35 -30 83 -30 39 0 61 6
80 20 32 26 35 25 30 -4 -6 -29 -27 -36 -110 -36 -52 0 -66 4 -92 26 -17 14
-31 32 -31 40 0 21 9 17 40 -16z m457 -6 c29 -18 47 -18 39 1 -10 27 21 28 73
3 56 -26 61 -33 29 -42 -64 -17 -219 14 -249 50 -12 14 -8 15 37 9 27 -4 59
-13 71 -21z m391 -32 c15 -11 43 -24 62 -31 19 -6 65 -30 102 -52 130 -78 282
-75 330 7 24 41 35 43 44 7 15 -56 -44 -94 -157 -101 -104 -6 -239 33 -308 90
-25 21 -62 46 -82 56 -19 10 -34 23 -31 30 5 16 9 15 40 -6z m982 13 c0 -2
-13 -11 -30 -20 -32 -17 -95 -21 -85 -5 10 17 115 40 115 25z m-564 -66 c64 0
68 -13 13 -42 -27 -15 -48 -17 -105 -13 -39 3 -84 11 -100 17 l-29 11 25 10
c17 6 37 6 61 -3 40 -12 59 -7 59 17 0 8 5 12 11 9 6 -4 35 -7 65 -6z"/>
<path d="M4485 3340 c-8 -13 5 -13 25 0 13 8 13 10 -2 10 -9 0 -20 -4 -23 -10z"/>
<path d="M4450 3319 c0 -5 5 -7 10 -4 6 3 10 8 10 11 0 2 -4 4 -10 4 -5 0 -10
-5 -10 -11z"/>
<path d="M3600 3225 c0 -8 9 -19 21 -25 20 -11 20 -11 4 14 -20 30 -25 32 -25
11z"/>
<path d="M4840 3113 c-3 -34 -1 -58 3 -54 5 4 7 32 5 62 l-3 54 -5 -62z"/>
<path d="M4120 3148 c0 -2 11 -25 25 -52 20 -39 25 -64 25 -121 0 -79 10 -99
55 -109 22 -5 26 -4 15 4 -10 7 -11 10 -2 10 7 0 31 17 55 39 50 46 97 71 132
71 16 0 25 6 25 15 0 8 -1 15 -2 15 -2 0 -27 -7 -56 -14 -36 -10 -68 -28 -104
-61 -33 -30 -59 -45 -72 -43 -19 3 -22 12 -26 78 -6 72 -41 170 -62 170 -4 0
-8 -1 -8 -2z"/>
<path d="M4335 3049 c-4 -6 -4 -13 -1 -16 3 -4 6 -2 6 3 0 5 19 8 43 7 32 -2
37 -1 22 6 -28 13 -63 13 -70 0z"/>
<path d="M4234 2995 c-19 -14 -19 -14 2 -15 11 0 29 7 40 15 19 14 19 14 -2
15 -11 0 -29 -7 -40 -15z"/>
<path d="M4310 2900 c-9 -6 -10 -10 -3 -10 6 0 15 5 18 10 8 12 4 12 -15 0z"/>
<path d="M5355 2609 c-36 -16 -37 -19 -14 -19 14 0 34 9 44 20 21 24 21 24
-30 -1z"/>
<path d="M5418 2559 c-19 -11 -24 -29 -8 -29 5 0 14 9 20 20 12 23 12 23 -12
9z"/>
<path d="M3280 2682 c0 -10 15 -33 34 -51 19 -19 40 -46 46 -62 7 -15 19 -30
27 -34 39 -14 25 11 -64 116 -30 35 -43 44 -43 31z"/>
<path d="M3291 2585 c20 -13 39 -32 43 -41 4 -9 9 -14 12 -11 10 10 -16 47
-46 62 -44 23 -49 18 -9 -10z"/>
<path d="M3237 2563 c21 -53 34 -75 39 -71 4 5 -44 108 -51 108 -2 0 3 -17 12
-37z"/>
<path d="M3139 2523 c13 -25 98 -103 111 -103 14 0 -77 98 -103 112 -16 8 -17
7 -8 -9z"/>
<path d="M3300 2526 c0 -2 7 -7 16 -10 8 -3 12 -2 9 4 -6 10 -25 14 -25 6z"/>
<path d="M3307 2469 c7 -7 15 -10 18 -7 3 3 -2 9 -12 12 -14 6 -15 5 -6 -5z"/>
<path d="M2860 2493 c0 -4 5 -15 10 -23 8 -13 10 -13 10 2 0 9 -4 20 -10 23
-5 3 -10 3 -10 -2z"/>
<path d="M6369 2286 c7 -8 27 -19 44 -25 l32 -11 -30 25 c-33 28 -66 35 -46
11z"/>
<path d="M6400 2210 c19 -17 49 -38 65 -46 30 -15 30 -15 -5 16 -19 17 -48 38
-65 46 -30 15 -30 15 5 -16z"/>
<path d="M6470 2233 c1 -11 50 -46 56 -40 3 3 -9 15 -25 27 -17 12 -31 18 -31
13z"/>
<path d="M6330 2184 c0 -8 32 -33 43 -34 4 0 3 9 -3 20 -10 18 -40 29 -40 14z"/>
<path d="M6295 2130 c3 -5 16 -15 28 -21 22 -12 22 -12 3 10 -19 21 -43 30
-31 11z"/>
<path d="M1644 2048 l-19 -23 25 20 c14 11 27 21 29 22 2 2 0 3 -6 3 -5 0 -18
-10 -29 -22z"/>
<path d="M1740 2039 c0 -5 5 -7 10 -4 6 3 10 8 10 11 0 2 -4 4 -10 4 -5 0 -10
-5 -10 -11z"/>
<path d="M1785 2000 c-3 -5 -2 -10 4 -10 5 0 13 5 16 10 3 6 2 10 -4 10 -5 0
-13 -4 -16 -10z"/>
<path d="M1880 1990 c-18 -12 -2 -12 25 0 13 6 15 9 5 9 -8 0 -22 -4 -30 -9z"/>
<path d="M1819 1953 c-13 -15 -12 -15 9 -4 23 12 28 21 13 21 -5 0 -15 -7 -22
-17z"/>
<path d="M1830 1691 c0 -6 20 -11 47 -11 34 0 53 -6 69 -21 13 -12 24 -17 28
-10 10 16 -34 38 -91 46 -36 5 -53 3 -53 -4z"/>
<path d="M2020 1615 c-12 -20 -36 -43 -53 -52 -30 -16 -30 -18 -10 -21 13 -2
46 9 75 25 42 22 54 34 56 56 3 23 0 27 -22 27 -17 0 -31 -10 -46 -35z"/>
<path d="M1828 1623 c12 -2 30 -2 40 0 9 3 -1 5 -23 4 -22 0 -30 -2 -17 -4z"/>
<path d="M1837 1603 c-4 -3 -7 -11 -7 -17 0 -6 5 -5 12 2 6 6 9 14 7 17 -3 3
-9 2 -12 -2z"/>
<path d="M2035 1540 c-3 -5 -1 -10 4 -10 6 0 11 5 11 10 0 6 -2 10 -4 10 -3 0
-8 -4 -11 -10z"/>
<path d="M1687 1523 c-4 -6 0 -16 8 -23 21 -17 28 -8 11 15 -8 11 -15 14 -19
8z"/>
<path d="M1745 1510 c-5 -9 53 -45 61 -38 2 3 -9 14 -26 26 -16 12 -32 18 -35
12z"/>
<path d="M2207 1513 c-12 -12 -7 -22 8 -17 8 4 15 10 15 15 0 11 -14 12 -23 2z"/>
<path d="M1835 1470 c3 -5 13 -10 21 -10 8 0 12 5 9 10 -3 6 -13 10 -21 10 -8
0 -12 -4 -9 -10z"/>
<path d="M6473 1400 c-24 -44 -41 -80 -38 -80 8 0 95 137 95 149 0 27 -18 5
-57 -69z"/>
<path d="M6643 1418 c-12 -24 -32 -59 -44 -78 l-21 -35 31 35 c34 39 64 96 59
111 -2 6 -13 -9 -25 -33z"/>
<path d="M6547 1390 c-19 -33 -33 -60 -30 -60 9 0 31 31 54 73 33 63 15 53
-24 -13z"/>
<path d="M6409 1393 c-25 -37 -27 -43 -10 -28 22 19 57 75 47 75 -3 0 -20 -21
-37 -47z"/>
<path d="M6341 1384 c-12 -27 -11 -28 4 -12 10 9 16 21 13 28 -2 7 -10 -1 -17
-16z"/>
<path d="M2300 1370 c6 -11 16 -20 22 -20 6 0 3 9 -7 20 -10 11 -20 20 -22 20
-2 0 1 -9 7 -20z"/>
<path d="M6672 1313 c-39 -58 -44 -68 -18 -38 32 36 82 115 74 115 -2 0 -28
-35 -56 -77z"/>
<path d="M2270 1369 c0 -9 7 -22 15 -29 19 -16 19 0 0 26 -12 16 -14 16 -15 3z"/>
<path d="M6751 1298 c-44 -60 -47 -67 -19 -40 29 28 86 112 76 112 -2 0 -28
-33 -57 -72z"/>
<path d="M2240 1349 c0 -9 7 -22 15 -29 19 -16 19 0 0 26 -12 16 -14 16 -15 3z"/>
<path d="M6824 1286 c-9 -15 -14 -29 -11 -32 3 -3 13 6 23 20 9 15 14 29 11
32 -3 3 -13 -6 -23 -20z"/>
<path d="M6425 1234 c-9 -15 -12 -23 -6 -20 11 7 35 46 28 46 -3 0 -12 -12
-22 -26z"/>
<path d="M2630 1205 l-25 -14 31 -1 c16 0 39 7 50 15 18 14 18 14 -6 14 -14 0
-36 -6 -50 -14z"/>
<path d="M2686 1171 c-18 -7 -18 -8 -2 -14 16 -6 56 7 56 18 0 7 -32 5 -54 -4z"/>
<path d="M5870 1155 c-13 -14 -19 -25 -13 -25 12 0 48 38 41 45 -2 3 -15 -6
-28 -20z"/>
<path d="M5900 1109 c0 -5 5 -7 10 -4 6 3 10 8 10 11 0 2 -4 4 -10 4 -5 0 -10
-5 -10 -11z"/>
<path d="M3220 1101 c0 -5 7 -15 17 -22 15 -13 15 -12 4 9 -12 23 -21 28 -21
13z"/>
<path d="M3170 1088 c0 -18 18 -34 28 -24 3 4 -2 14 -11 23 -16 16 -17 16 -17
1z"/>
<path d="M3120 1062 c0 -12 19 -26 26 -19 2 2 -2 10 -11 17 -9 8 -15 8 -15 2z"/>
<path d="M5477 1048 c-21 -11 -36 -22 -34 -25 7 -6 77 29 77 39 0 10 3 11 -43
-14z"/>
<path d="M5502 1016 c-47 -34 -49 -38 -15 -25 17 5 39 19 49 30 23 26 6 23
-34 -5z"/>
<path d="M4770 1000 c0 -5 6 -10 14 -10 8 0 18 5 21 10 3 6 -3 10 -14 10 -12
0 -21 -4 -21 -10z"/>
<path d="M4077 964 c-16 -9 -27 -17 -25 -20 8 -8 78 17 73 27 -8 12 -15 11
-48 -7z"/>
<path d="M4805 970 c-3 -5 -2 -10 4 -10 5 0 13 5 16 10 3 6 2 10 -4 10 -5 0
-13 -4 -16 -10z"/>
<path d="M5517 973 c-12 -12 -7 -22 8 -17 8 4 15 10 15 15 0 11 -14 12 -23 2z"/>
<path d="M3958 923 c7 -3 16 -2 19 1 4 3 -2 6 -13 5 -11 0 -14 -3 -6 -6z"/>
<path d="M4085 920 c-16 -7 -13 -9 17 -9 20 -1 40 4 43 9 7 12 -32 12 -60 0z"/>
<path d="M2240 2264 c0 -8 5 -12 10 -9 6 3 10 10 10 16 0 5 -4 9 -10 9 -5 0
-10 -7 -10 -16z"/>
<path d="M2387 2194 c-4 -4 -7 -14 -7 -23 0 -11 3 -12 11 -4 6 6 10 16 7 23
-2 6 -7 8 -11 4z"/>
<path d="M4130 2380 c-11 -7 -6 -10 20 -10 26 0 31 3 20 10 -8 5 -17 10 -20
10 -3 0 -12 -5 -20 -10z"/>
<path d="M4305 2360 c3 -5 8 -10 11 -10 2 0 4 5 4 10 0 6 -5 10 -11 10 -5 0
-7 -4 -4 -10z"/>
<path d="M4355 2350 c3 -5 8 -10 11 -10 2 0 4 5 4 10 0 6 -5 10 -11 10 -5 0
-7 -4 -4 -10z"/>
<path d="M4088 2333 c6 -2 18 -2 25 0 6 3 1 5 -13 5 -14 0 -19 -2 -12 -5z"/>
<path d="M4173 2294 c21 -14 41 -24 43 -21 6 5 -59 47 -72 47 -5 0 9 -12 29
-26z"/>
<path d="M2020 2143 c0 -5 9 -18 20 -28 11 -10 20 -14 20 -8 0 5 -9 18 -20 28
-11 10 -20 14 -20 8z"/>
<path d="M2069 2122 c6 -12 16 -24 22 -28 8 -4 8 -1 0 14 -6 12 -16 24 -22 28
-8 4 -8 1 0 -14z"/>
<path d="M2110 2125 c0 -20 24 -45 42 -45 17 0 19 2 8 16 -15 17 -50 38 -50
29z"/>
<path d="M2160 2010 c0 -6 7 -10 15 -10 8 0 15 2 15 4 0 2 -7 6 -15 10 -8 3
-15 1 -15 -4z"/>
<path d="M2605 2210 c3 -5 8 -10 11 -10 2 0 4 5 4 10 0 6 -5 10 -11 10 -5 0
-7 -4 -4 -10z"/>
<path d="M4240 1860 c-9 -6 -10 -10 -3 -10 6 0 15 5 18 10 8 12 4 12 -15 0z"/>
<path d="M2638 2040 c15 -6 22 -18 22 -35 0 -14 5 -25 10 -25 6 0 10 9 10 20
0 15 7 20 28 20 42 0 77 -22 74 -47 -4 -31 17 -38 28 -9 l9 25 58 -20 c89 -32
108 -44 188 -126 71 -72 135 -173 135 -213 0 -20 -24 -44 -60 -60 -14 -6 -36
-17 -50 -25 -36 -21 -68 -18 -93 9 -12 13 -48 51 -79 85 -58 61 -73 89 -42 77
23 -9 64 20 64 45 0 22 -43 66 -128 131 -49 38 -54 40 -82 28 -24 -10 -33 -10
-45 0 -25 21 -38 6 -17 -20 19 -23 22 -24 56 -12 41 15 40 16 124 -51 44 -36
62 -57 62 -74 0 -17 -6 -23 -22 -23 -25 -1 -58 -21 -58 -36 0 -5 27 -36 61
-69 33 -33 67 -72 75 -87 13 -25 20 -28 63 -28 86 0 191 58 191 105 0 79 -164
292 -256 331 -93 41 -271 94 -310 93 -33 0 -36 -2 -16 -9z"/>
<path d="M2375 2031 c-20 -8 -53 -41 -42 -41 2 0 21 7 42 15 20 9 46 13 58 9
29 -8 65 -42 84 -77 8 -16 30 -35 49 -43 44 -19 44 -34 -1 -27 -39 6 -65 -9
-65 -39 0 -21 80 -130 118 -162 18 -14 22 -25 17 -47 -9 -39 2 -69 26 -69 23
0 24 13 3 45 -19 30 -12 44 19 38 23 -5 51 14 59 39 3 9 12 8 32 -6 44 -28 45
-7 1 29 -43 36 -55 36 -55 1 0 -39 -23 -50 -63 -31 -32 15 -137 139 -137 162
0 19 31 24 66 11 66 -23 64 37 -1 68 -20 9 -47 33 -60 53 -12 20 -31 44 -42
54 -24 21 -80 30 -108 18z"/>
<path d="M2566 2017 c7 -19 64 -60 64 -47 0 14 -46 60 -59 60 -6 0 -8 -6 -5
-13z"/>
<path d="M2706 1985 c4 -8 8 -15 10 -15 2 0 4 7 4 15 0 8 -4 15 -10 15 -5 0
-7 -7 -4 -15z"/>
<path d="M2400 1935 c0 -15 10 -31 26 -41 23 -15 27 -16 41 -2 13 14 11 18
-20 42 -42 32 -47 32 -47 1z"/>
<path d="M2875 1939 c-4 -6 -4 -13 -1 -16 3 -3 1 -12 -5 -20 -9 -10 -8 -13 4
-13 20 0 40 27 33 45 -6 17 -22 20 -31 4z"/>
<path d="M2933 1874 c-8 -23 20 -42 52 -36 32 6 40 19 25 37 -17 21 -69 19
-77 -1z m47 -14 c0 -5 -7 -10 -15 -10 -8 0 -15 5 -15 10 0 6 7 10 15 10 8 0
15 -4 15 -10z"/>
<path d="M2350 1860 c0 -34 95 -55 107 -24 8 22 -6 31 -59 37 -41 4 -48 2 -48
-13z m65 -18 c-3 -3 -11 0 -18 7 -9 10 -8 11 6 5 10 -3 15 -9 12 -12z"/>
<path d="M2394 1785 c-11 -28 4 -45 41 -45 22 0 34 4 30 10 -3 6 -15 10 -26
10 -10 0 -19 5 -19 11 0 7 14 10 35 7 36 -4 47 5 19 16 -29 11 -75 6 -80 -9z"/>
<path d="M3010 1791 c8 -5 28 -11 44 -15 26 -6 28 -5 17 8 -8 9 -28 16 -45 16
-22 -1 -27 -3 -16 -9z"/>
<path d="M2476 1714 c-22 -21 -20 -41 5 -49 22 -7 43 5 22 12 -19 7 -16 21 7
28 11 3 20 11 20 16 0 15 -37 10 -54 -7z"/>
<path d="M2990 1721 c0 -6 10 -11 23 -11 12 0 29 -5 37 -10 12 -8 9 -10 -13
-10 -16 0 -26 -4 -22 -10 9 -14 58 -12 79 3 15 11 15 15 4 24 -19 15 -108 27
-108 14z"/>
<path d="M2950 1643 c0 -6 10 -22 21 -37 24 -31 65 -32 83 -3 9 15 7 21 -8 33
-11 8 -29 14 -40 13 -20 0 -20 0 2 -16 12 -8 22 -19 22 -24 0 -17 -24 -9 -52
18 -15 15 -28 22 -28 16z"/>
<path d="M2830 1616 c0 -15 13 -37 33 -56 l32 -31 -24 -19 c-25 -21 -57 -25
-80 -11 -7 5 -10 14 -7 20 4 6 1 11 -7 11 -17 0 -43 28 -34 36 3 3 15 0 27 -6
29 -15 24 7 -6 27 -17 11 -23 11 -38 0 -17 -13 -17 -15 -2 -45 15 -30 15 -31
-7 -35 -21 -3 -21 -4 5 -15 47 -20 149 -18 181 2 15 10 27 21 27 25 0 3 -18
26 -40 50 -22 24 -40 47 -40 52 0 4 -4 11 -10 14 -6 3 -10 -5 -10 -19z"/>
<path d="M4582 1629 c9 -29 89 -59 153 -58 l60 2 -71 11 c-39 7 -88 23 -109
36 -25 16 -36 19 -33 9z"/>
<path d="M4851 1621 c-21 -14 7 -25 54 -22 47 3 55 8 35 21 -19 12 -71 12 -89
1z"/>
<path d="M2695 1400 c-3 -5 1 -10 10 -10 9 0 13 5 10 10 -3 6 -8 10 -10 10 -2
0 -7 -4 -10 -10z"/>
<path d="M2678 1373 c7 -3 16 -2 19 1 4 3 -2 6 -13 5 -11 0 -14 -3 -6 -6z"/>
<path d="M2628 1353 c12 -2 32 -2 45 0 12 2 2 4 -23 4 -25 0 -35 -2 -22 -4z"/>
<path d="M2633 1315 c0 -8 4 -15 8 -15 4 0 9 7 13 15 3 9 0 15 -8 15 -7 0 -13
-7 -13 -15z"/>
<path d="M5844 1748 l-29 -31 33 22 c17 12 32 27 32 32 0 14 -4 11 -36 -23z"/>
<path d="M5770 1656 c-5 -13 -14 -27 -19 -31 -6 -3 -16 -15 -21 -25 -8 -15 -7
-18 3 -14 8 3 19 15 25 27 7 12 19 32 28 45 10 14 12 22 5 22 -6 0 -16 -11
-21 -24z"/>
<path d="M3837 1429 c7 -7 38 -14 70 -15 l58 -3 -47 8 c-25 5 -57 12 -70 16
-18 6 -21 5 -11 -6z"/>
<path d="M2070 2336 c0 -2 8 -10 18 -17 15 -13 16 -12 3 4 -13 16 -21 21 -21
13z"/>
<path d="M2135 2290 c3 -5 8 -10 11 -10 2 0 4 5 4 10 0 6 -5 10 -11 10 -5 0
-7 -4 -4 -10z"/>
</g>
</svg>
