<?xml version="1.0" standalone="no"?>
<!DOCTYPE svg PUBLIC "-//W3C//DTD SVG 20010904//EN"
 "http://www.w3.org/TR/2001/REC-SVG-20010904/DTD/svg10.dtd">
<svg version="1.0" xmlns="http://www.w3.org/2000/svg"
 width="128.000000pt" height="128.000000pt" viewBox="0 0 128.000000 128.000000"
 preserveAspectRatio="xMidYMid meet">

<g transform="translate(0.000000,128.000000) scale(0.100000,-0.100000)"
fill="#000000" stroke="none">
<path d="M332 1124 c-59 -29 -101 -79 -83 -97 8 -8 21 -2 49 25 44 44 78 58
138 58 148 0 233 -164 150 -290 -57 -86 -185 -107 -263 -43 -51 41 -72 79 -76
138 -2 37 -7 51 -20 53 -14 3 -17 -5 -17 -45 0 -26 9 -67 20 -90 l19 -43 -38
0 c-53 0 -134 -43 -165 -89 -64 -92 -60 -198 11 -280 l34 -40 -43 -3 -43 -3
-3 -77 -3 -78 41 0 40 0 0 -45 0 -46 93 3 92 3 3 43 3 42 135 0 c108 0 134 3
134 14 0 8 -7 17 -16 20 -9 3 -121 6 -250 6 l-234 0 0 40 0 40 600 0 600 0 0
-40 0 -40 -319 0 c-254 0 -321 -3 -330 -13 -6 -8 -8 -17 -4 -20 3 -4 100 -7
214 -7 l208 0 3 -42 3 -43 93 -3 92 -3 0 46 0 45 40 0 41 0 -3 78 -3 77 -43 3
-43 3 34 40 c69 80 75 187 15 275 -13 19 -29 36 -37 39 -30 12 -30 -13 1 -54
85 -117 16 -282 -126 -298 -112 -13 -206 70 -206 181 0 56 14 93 48 129 44 47
80 60 155 59 37 0 67 3 67 8 0 15 -36 30 -74 30 l-35 0 19 43 c62 136 -31 300
-178 315 -79 7 -130 -13 -189 -74 -45 -47 -52 -52 -58 -35 -3 11 -23 35 -45
55 -68 61 -162 73 -248 30z m591 -28 c68 -29 107 -93 107 -174 0 -98 -70 -173
-168 -180 -90 -6 -154 32 -187 111 -51 123 35 255 168 257 26 0 62 -6 80 -14z
m-263 -297 c0 -5 -9 -9 -20 -9 -22 0 -23 1 -14 24 5 13 9 14 20 5 8 -6 14 -15
14 -20z m-350 -65 c146 -74 129 -293 -27 -345 -85 -28 -184 15 -223 96 -54
111 10 243 128 265 43 8 87 2 122 -16z m422 -6 c46 -22 85 -79 94 -134 22
-142 -138 -259 -265 -194 -103 52 -139 172 -80 267 53 85 155 110 251 61z
m-282 -35 c0 -5 -4 -14 -9 -22 -7 -11 -11 -9 -20 8 -10 18 -9 21 9 21 11 0 20
-3 20 -7z m409 -14 c-9 -17 -13 -19 -20 -8 -14 22 -11 29 11 29 18 0 19 -3 9
-21z m-362 -284 c16 -13 9 -14 -60 -15 l-78 0 37 45 38 44 22 -30 c12 -17 31
-37 41 -44z m386 30 l38 -45 -76 0 -76 0 36 37 c19 20 35 40 35 45 0 13 4 10
43 -37z m-653 -230 c0 -24 -3 -25 -55 -25 -52 0 -55 1 -55 25 0 24 3 25 55 25
52 0 55 -1 55 -25z m930 0 c0 -24 -3 -25 -55 -25 -52 0 -55 1 -55 25 0 24 3
25 55 25 52 0 55 -1 55 -25z"/>
<path d="M800 1047 c-93 -33 -109 -186 -22 -231 84 -44 181 -1 197 87 18 94
-82 176 -175 144z m103 -46 c7 -7 4 -13 -9 -17 -10 -4 -26 -13 -34 -20 -13
-11 -23 -11 -52 -1 -38 13 -39 24 -3 46 22 13 82 8 98 -8z m37 -71 c0 -24 -27
-80 -38 -80 -4 0 -12 17 -19 38 -10 32 -10 39 4 50 26 19 53 15 53 -8z m-107
-31 c52 -56 22 -94 -37 -48 -29 23 -50 64 -40 80 9 16 47 0 77 -32z"/>
<path d="M171 683 c-48 -25 -72 -62 -73 -109 -1 -80 51 -134 127 -134 128 0
178 156 75 232 -38 28 -89 32 -129 11z m100 -34 c19 -10 18 -11 -13 -33 -23
-15 -39 -20 -53 -15 -11 4 -29 10 -40 14 -19 6 -19 7 4 26 26 21 71 25 102 8z
m49 -83 c0 -13 -10 -36 -21 -51 l-22 -27 -13 38 c-14 42 -12 52 20 64 27 10
36 4 36 -24z m-131 -1 c30 -15 58 -72 43 -87 -22 -22 -85 27 -97 75 -8 32 9
36 54 12z"/>
<path d="M581 683 c-121 -60 -77 -243 59 -243 137 0 180 185 57 243 -44 21
-73 21 -116 0z m101 -35 c15 -12 13 -15 -16 -34 -29 -18 -35 -19 -66 -6 l-35
14 24 19 c27 22 70 25 93 7z m48 -82 c0 -19 -8 -43 -17 -55 -18 -21 -18 -21
-35 19 l-17 40 27 15 c39 20 42 19 42 -19z m-102 -22 c12 -14 22 -36 22 -50 0
-28 0 -28 -45 -10 -36 15 -55 42 -55 76 0 19 4 21 28 16 15 -4 37 -18 50 -32z"/>
<path d="M393 1049 c-71 -21 -110 -109 -77 -175 25 -50 62 -75 110 -76 80 -1
134 51 134 127 0 90 -80 149 -167 124z m81 -42 c16 -12 15 -14 -12 -34 -25
-19 -33 -20 -65 -10 -41 13 -43 26 -6 44 31 16 61 16 83 0z m49 -91 c-1 -16
-10 -37 -19 -47 -17 -19 -18 -18 -30 18 -15 43 -4 66 30 61 16 -2 21 -9 19
-32z m-105 -12 c23 -26 30 -74 12 -74 -21 0 -70 30 -80 49 -5 11 -10 29 -10
41 0 19 4 21 28 16 15 -4 37 -18 50 -32z"/>
<path d="M990 678 c-113 -76 -69 -238 65 -238 76 0 128 54 127 133 -2 97 -113
159 -192 105z m112 -29 c19 -10 18 -12 -18 -34 -25 -15 -43 -20 -53 -15 -9 5
-25 11 -36 15 -19 6 -19 7 4 26 26 21 71 25 103 8z m48 -83 c0 -13 -10 -36
-21 -51 l-22 -27 -13 38 c-14 42 -12 52 20 64 27 10 36 4 36 -24z m-120 -13
c16 -16 31 -39 32 -53 3 -21 -1 -25 -22 -22 -30 3 -80 54 -80 82 0 29 34 25
70 -7z"/>
</g>
</svg>
