<?xml version="1.0" standalone="no"?>
<!DOCTYPE svg PUBLIC "-//W3C//DTD SVG 20010904//EN"
 "http://www.w3.org/TR/2001/REC-SVG-20010904/DTD/svg10.dtd">
<svg version="1.0" xmlns="http://www.w3.org/2000/svg"
 width="320.000000pt" height="320.000000pt" viewBox="0 0 320.000000 320.000000"
 preserveAspectRatio="xMidYMid meet">

<g transform="translate(0.000000,320.000000) scale(0.100000,-0.100000)"
fill="#000000" stroke="none">
<path d="M1758 2593 c7 -3 16 -2 19 1 4 3 -2 6 -13 5 -11 0 -14 -3 -6 -6z"/>
<path d="M1764 2545 c-12 -19 -14 -31 -6 -52 19 -56 47 -113 54 -113 4 0 -6
27 -22 61 -33 70 -30 93 10 87 23 -4 26 -1 22 19 -6 31 -37 30 -58 -2z"/>
<path d="M1687 2543 c-4 -3 -7 -13 -7 -22 1 -13 3 -13 11 2 11 19 8 33 -4 20z"/>
<path d="M2231 2483 c-21 -22 -31 -43 -36 -79 -9 -66 -18 -94 -49 -143 l-27
-42 -64 57 c-36 31 -74 71 -86 90 -23 39 -29 42 -22 15 5 -20 56 -73 128 -135
l40 -34 -14 -39 c-8 -21 -36 -71 -64 -110 -47 -69 -65 -89 -54 -60 3 8 -3 13
-15 13 -16 0 -19 -6 -15 -29 2 -15 0 -30 -5 -33 -4 -3 -8 1 -9 8 0 7 -6 -3
-13 -22 -6 -19 -18 -34 -25 -32 -7 1 -11 -3 -8 -10 2 -7 -8 -26 -24 -43 -44
-47 -89 -164 -88 -227 l2 -53 7 60 c5 33 20 82 34 109 14 27 26 55 26 62 0 7
13 25 29 41 15 16 36 44 46 62 13 26 19 31 26 20 7 -11 9 -11 9 -1 0 7 28 51
63 97 l62 84 5 -37 c5 -32 6 -28 12 30 8 80 38 142 76 162 16 8 35 23 43 33
12 16 11 16 -9 -1 -27 -23 -36 -17 -24 15 5 13 12 50 16 82 7 56 26 80 26 33
0 -42 17 -72 75 -132 32 -33 53 -51 48 -42 -5 10 -27 37 -49 60 -53 55 -64 78
-64 126 0 49 15 63 59 54 63 -13 68 -73 7 -80 -31 -4 -35 13 -5 21 26 7 20 31
-9 35 -54 8 -10 -111 68 -183 47 -44 73 -101 74 -165 1 -45 -6 -70 -41 -143
-66 -137 -87 -234 -84 -402 1 -137 13 -211 32 -199 5 3 5 12 0 22 -6 12 -4 24
10 41 16 19 19 20 19 6 0 -14 3 -15 15 -5 24 20 17 32 -16 28 -33 -3 -41 10
-42 67 0 53 4 64 26 68 l22 4 -22 2 c-14 0 -23 8 -24 19 0 9 -2 26 -4 37 -3
11 1 25 8 30 7 6 13 16 15 24 3 12 0 12 -12 1 -14 -11 -15 -8 -10 21 4 19 15
50 24 69 10 19 20 52 24 73 9 47 26 87 38 87 5 0 7 4 3 9 -3 5 1 16 9 24 16
16 32 64 28 85 -2 6 2 12 8 12 7 0 8 6 1 18 -5 10 -8 27 -7 38 2 10 -8 34 -22
52 -14 18 -22 36 -18 39 4 4 11 1 16 -7 5 -8 15 -15 22 -15 7 0 13 -5 13 -12
0 -15 12 -26 33 -29 11 -2 4 9 -19 31 -20 18 -44 43 -54 56 -10 15 -15 17 -12
7 4 -10 3 -19 -1 -21 -9 -4 -71 61 -64 68 3 3 0 5 -6 5 -10 0 -42 49 -42 65 0
3 9 5 19 5 11 0 27 10 35 22 l15 21 11 -27 c5 -15 10 -32 10 -37 0 -25 44 -89
95 -139 34 -33 70 -82 91 -123 35 -68 69 -122 149 -235 46 -65 55 -88 31 -79
-17 7 -36 -11 -35 -32 0 -10 4 -7 9 6 11 27 36 21 46 -10 3 -12 23 -51 44 -87
21 -36 40 -79 43 -96 3 -17 10 -41 16 -53 7 -12 11 -39 9 -59 l-3 -37 -32 32
c-18 17 -33 28 -33 24 0 -4 18 -25 40 -46 29 -29 40 -47 40 -70 0 -54 -12
-105 -25 -105 -6 0 -17 -18 -24 -40 -6 -22 -16 -40 -21 -40 -6 0 -10 -8 -10
-18 0 -18 -18 -42 -31 -42 -4 0 -10 8 -12 18 -4 15 -5 15 -6 0 0 -9 3 -19 8
-22 8 -5 -68 -96 -81 -96 -3 0 -11 23 -18 50 -7 27 -16 50 -21 50 -11 0 -2
-43 17 -79 7 -13 10 -29 6 -35 -3 -6 -9 0 -12 13 l-5 23 -15 -28 c-16 -30 -29
-44 -44 -44 -5 0 -1 10 10 22 10 12 13 18 7 14 -12 -7 -18 12 -14 37 1 5 -3 6
-9 2 -5 -3 -10 -1 -10 4 0 6 -7 11 -16 11 -8 0 -13 3 -10 8 2 4 -14 5 -37 2
l-42 -5 35 -3 c19 -2 43 -11 53 -19 37 -35 6 -95 -37 -71 -21 12 -155 -15
-193 -38 -30 -19 -47 -18 -68 6 -10 11 -30 20 -45 20 -32 0 -53 21 -44 44 4
10 -6 28 -29 51 -19 19 -32 37 -28 41 3 4 -1 5 -9 2 -8 -3 -35 3 -60 12 -49
19 -248 56 -256 47 -3 -2 32 -10 77 -17 97 -14 201 -44 247 -72 94 -57 44
-120 -134 -169 -64 -18 -107 -21 -263 -22 -102 -1 -226 2 -276 6 -118 10 -213
37 -218 63 -1 5 -8 9 -16 9 -8 0 -23 14 -33 31 -18 31 -18 32 3 59 l22 27 -21
-13 c-12 -8 -22 -17 -22 -21 0 -5 -12 -9 -27 -9 -25 -2 -26 -2 -5 -6 15 -3 22
-10 18 -18 -2 -7 2 -16 10 -19 8 -3 14 -10 14 -16 0 -13 -87 -13 -95 0 -3 6
-16 10 -28 9 l-22 0 23 -9 c12 -5 22 -12 22 -14 0 -6 -131 -1 -309 11 -77 5
-116 12 -119 21 -2 6 -13 12 -23 12 -11 0 -18 4 -14 9 3 6 -35 9 -97 9 -91 -1
-108 1 -147 23 -24 13 -44 29 -43 34 0 6 -8 13 -19 17 -51 19 -46 98 8 119 32
12 172 1 204 -15 8 -4 5 0 -5 8 -11 9 -34 16 -50 16 l-31 1 38 31 c42 34 112
129 147 198 13 24 36 86 52 137 26 83 35 100 88 156 41 43 59 56 60 44 0 -10
-7 -30 -16 -45 l-16 -27 21 25 c11 14 21 32 21 41 0 23 37 166 49 187 6 11 32
23 70 31 70 15 85 9 100 -43 7 -22 9 -25 10 -10 1 12 -9 34 -20 49 -22 27 -23
27 -103 13 -44 -8 -46 56 -2 107 14 16 23 33 20 37 -10 16 -64 -64 -64 -93 0
-16 -8 -50 -19 -76 -10 -26 -22 -68 -26 -92 -6 -37 -20 -58 -84 -126 -69 -73
-80 -90 -100 -156 -51 -164 -91 -239 -173 -325 -37 -39 -44 -42 -106 -47 -59
-4 -70 -9 -95 -37 -52 -58 -23 -117 85 -177 23 -13 51 -23 63 -23 11 0 25 -4
31 -9 5 -5 30 -6 55 -2 37 6 62 2 115 -16 38 -12 75 -21 82 -18 7 3 10 1 7 -5
-7 -11 48 -26 122 -34 34 -3 53 -1 53 6 0 7 40 9 121 5 71 -2 115 -1 107 4
-28 19 88 2 127 -18 22 -11 54 -24 72 -27 18 -4 33 -15 35 -24 3 -15 16 -17
103 -14 90 2 98 1 76 -11 l-24 -14 38 -13 c29 -10 40 -10 43 -1 2 6 16 11 30
12 26 0 26 1 5 9 -13 5 -23 14 -23 21 0 11 66 9 135 -5 25 -5 26 -4 5 2 -17 6
-2 8 50 9 77 0 242 34 293 60 15 7 27 11 27 7 0 -3 -33 -49 -73 -103 -80 -106
-90 -121 -84 -121 3 0 36 41 73 91 38 50 74 97 79 104 7 9 34 12 85 9 l75 -3
-55 10 c-73 13 -93 34 -25 26 32 -4 43 -3 30 3 -18 8 -18 9 -2 9 11 1 30 -8
44 -19 30 -23 59 -26 78 -6 17 17 104 30 137 21 16 -4 19 -3 9 3 -20 14 4 25
28 12 30 -15 106 -13 121 5 7 8 29 16 49 16 20 1 28 3 18 6 -26 7 -2 33 30 33
13 0 21 4 18 10 -3 5 3 15 15 22 11 7 20 18 20 25 0 7 10 13 23 14 12 0 16 3
9 6 -17 7 44 83 66 83 14 0 15 2 3 9 -12 8 -13 14 -3 35 6 14 16 26 21 26 12
0 6 182 -8 235 -26 105 -41 145 -65 181 -15 22 -36 71 -48 109 -16 54 -39 94
-98 175 -43 58 -90 131 -103 162 -16 36 -52 85 -95 131 -54 57 -74 86 -87 129
-23 72 -60 115 -107 123 -33 6 -41 3 -67 -22z m104 -1033 c3 -5 1 -10 -4 -10
-6 0 -11 5 -11 10 0 6 2 10 4 10 3 0 8 -4 11 -10z m-1485 -492 c0 -11 -82 -10
-100 2 -10 6 4 8 43 7 31 -1 57 -5 57 -9z"/>
<path d="M1660 2463 c-23 -58 -23 -61 0 -20 12 21 20 43 18 48 -2 6 -10 -7
-18 -28z"/>
<path d="M1037 2406 c-14 -13 -31 -43 -38 -67 -7 -24 -19 -53 -26 -64 -7 -11
-13 -24 -13 -30 0 -21 41 52 52 93 14 57 42 82 89 82 48 0 87 -33 119 -99 13
-28 25 -49 27 -47 9 9 -48 105 -77 130 -42 34 -97 35 -133 2z"/>
<path d="M1083 2373 c-9 -37 -5 -59 22 -113 12 -25 25 -61 28 -80 l6 -35 -17
35 c-9 19 -20 37 -24 38 -5 2 -8 13 -9 25 0 12 -5 31 -10 42 -7 15 -8 12 -3
-13 4 -21 1 -39 -8 -49 -8 -10 -8 -14 -1 -10 7 4 19 -3 30 -18 10 -15 30 -40
45 -58 33 -37 90 -145 108 -202 16 -53 32 -70 24 -25 -4 19 -10 37 -14 40 -6
4 -12 22 -21 65 -2 6 -8 16 -15 22 -7 7 -20 33 -30 59 l-17 46 29 24 c24 21
25 23 6 14 -41 -20 -69 -6 -76 40 -3 22 -10 40 -14 40 -10 0 -32 81 -26 92 3
5 13 8 22 7 14 0 13 -2 -3 -9 -13 -6 -15 -9 -5 -9 23 -1 36 12 35 34 0 14 -8
21 -27 23 -23 3 -29 -2 -35 -25z"/>
<path d="M1750 2390 c0 -5 4 -10 10 -10 5 0 16 -12 25 -27 15 -27 16 -27 9 -3
-7 29 -22 50 -35 50 -5 0 -9 -4 -9 -10z"/>
<path d="M1915 2390 c-3 -5 -1 -10 4 -10 6 0 11 5 11 10 0 6 -2 10 -4 10 -3 0
-8 -4 -11 -10z"/>
<path d="M1818 2336 c2 -16 22 -56 43 -89 22 -34 42 -71 45 -84 4 -13 10 -23
15 -23 9 0 -25 83 -47 115 -19 27 -17 54 4 78 16 19 16 20 -2 10 -22 -12 -53
-6 -59 11 -2 6 -2 -2 1 -18z"/>
<path d="M1180 2340 c0 -5 5 -10 11 -10 5 0 7 5 4 10 -3 6 -8 10 -11 10 -2 0
-4 -4 -4 -10z"/>
<path d="M1620 2340 c0 -8 -11 -27 -24 -42 -13 -16 -26 -47 -29 -73 -4 -25
-14 -59 -22 -76 -9 -17 -14 -38 -12 -47 4 -13 5 -13 6 3 2 34 30 65 59 66 26
0 26 1 5 9 -35 14 -31 70 6 113 21 23 27 37 20 48 -7 12 -9 12 -9 -1z"/>
<path d="M1210 2272 c0 -12 19 -26 26 -19 2 2 -2 10 -11 17 -9 8 -15 8 -15 2z"/>
<path d="M1270 2223 c6 -13 7 -23 3 -23 -4 0 12 -20 36 -44 27 -27 39 -46 32
-51 -6 -3 -9 -11 -5 -16 3 -5 9 -7 14 -4 5 3 20 -9 34 -27 14 -18 26 -30 26
-26 0 4 -14 23 -31 43 -17 19 -27 35 -21 35 15 0 122 -119 122 -136 0 -8 4
-14 10 -14 5 0 19 -19 31 -42 12 -24 37 -60 57 -80 44 -46 31 -50 -18 -6 -19
18 -13 9 15 -20 27 -28 51 -52 54 -52 3 0 0 5 -7 12 -18 18 -15 33 4 17 15
-12 64 -101 64 -115 0 -3 -8 0 -17 7 -16 11 -16 11 -5 -1 7 -8 18 -15 25 -15
13 0 41 -53 51 -97 4 -17 1 -32 -9 -42 -8 -8 -15 -18 -15 -22 0 -3 -16 -24
-35 -45 -19 -22 -35 -45 -35 -53 0 -21 -70 -71 -79 -57 -6 9 -11 8 -21 -4 -11
-13 -10 -15 4 -9 10 4 16 1 16 -9 0 -9 5 -19 11 -23 7 -4 10 -1 7 7 -3 8 2 20
9 28 22 21 26 6 7 -24 -14 -22 -15 -28 -4 -35 19 -12 37 16 51 80 8 36 25 68
57 108 80 98 76 90 58 107 -9 9 -16 22 -16 29 0 7 -13 31 -29 53 -16 22 -39
59 -50 82 -12 23 -43 63 -69 89 -63 64 -107 145 -92 171 14 27 13 38 -3 18
-11 -16 -22 -8 -108 75 -52 51 -105 107 -118 123 -13 18 -18 21 -11 8z"/>
<path d="M952 2200 c0 -14 2 -19 5 -12 2 6 2 18 0 25 -3 6 -5 1 -5 -13z"/>
<path d="M1667 2193 c13 -2 32 -16 43 -30 11 -14 20 -21 20 -16 0 19 -41 53
-63 52 l-22 -2 22 -4z"/>
<path d="M2388 2163 c5 -21 7 -23 10 -9 2 10 0 22 -6 28 -6 6 -7 0 -4 -19z"/>
<path d="M2520 2155 c0 -5 5 -17 10 -25 5 -8 10 -10 10 -5 0 6 -5 17 -10 25
-5 8 -10 11 -10 5z"/>
<path d="M1884 2109 c0 -10 4 -19 8 -19 4 0 8 6 8 14 0 8 -4 17 -8 20 -4 2 -8
-4 -8 -15z"/>
<path d="M1920 2125 c0 -5 5 -17 10 -25 5 -8 10 -10 10 -5 0 6 -5 17 -10 25
-5 8 -10 11 -10 5z"/>
<path d="M1150 2084 c0 -6 7 -19 16 -30 14 -18 14 -18 3 6 -14 31 -19 36 -19
24z"/>
<path d="M2554 2075 c-3 -8 -4 -20 -1 -27 3 -7 6 -3 6 10 1 15 5 21 13 16 7
-4 8 -3 4 4 -10 16 -15 15 -22 -3z"/>
<path d="M1521 2064 c0 -11 3 -14 6 -6 3 7 2 16 -1 19 -3 4 -6 -2 -5 -13z"/>
<path d="M1941 2064 c0 -11 3 -14 6 -6 3 7 2 16 -1 19 -3 4 -6 -2 -5 -13z"/>
<path d="M2520 2037 c4 -41 5 -41 8 -8 2 18 0 37 -5 42 -5 5 -6 -11 -3 -34z"/>
<path d="M1375 2030 c10 -11 20 -20 23 -20 3 0 -3 9 -13 20 -10 11 -20 20 -23
20 -3 0 3 -9 13 -20z"/>
<path d="M2379 2021 c-9 -9 -19 -29 -23 -46 -6 -26 -3 -24 19 14 28 48 29 57
4 32z"/>
<path d="M1911 2020 c0 -8 4 -22 9 -30 12 -18 12 -2 0 25 -6 13 -9 15 -9 5z"/>
<path d="M1360 1985 c13 -14 26 -25 28 -25 3 0 -5 11 -18 25 -13 14 -26 25
-28 25 -3 0 5 -11 18 -25z"/>
<path d="M2595 1980 c10 -11 20 -20 23 -20 3 0 -3 9 -13 20 -10 11 -20 20 -23
20 -3 0 3 -9 13 -20z"/>
<path d="M1420 1970 c6 -11 13 -20 16 -20 2 0 0 9 -6 20 -6 11 -13 20 -16 20
-2 0 0 -9 6 -20z"/>
<path d="M1440 1976 c0 -2 8 -10 18 -17 15 -13 16 -12 3 4 -13 16 -21 21 -21
13z"/>
<path d="M1208 1929 c2 -16 7 -31 11 -34 4 -2 5 9 3 26 -2 16 -7 31 -11 34 -4
2 -5 -9 -3 -26z"/>
<path d="M1392 1920 c0 -19 2 -27 5 -17 2 9 2 25 0 35 -3 9 -5 1 -5 -18z"/>
<path d="M2647 1933 c4 -11 3 -14 -5 -9 -8 5 -10 1 -5 -10 4 -11 8 -13 11 -6
2 7 8 9 14 6 6 -4 5 2 -1 15 -14 25 -23 28 -14 4z"/>
<path d="M2311 1873 c-1 -6 -4 -20 -7 -30 -5 -17 -5 -17 6 0 6 10 9 23 6 30
-3 9 -5 9 -5 0z"/>
<path d="M1231 1855 c-1 -12 3 -25 9 -31 5 -5 12 -34 15 -64 2 -30 7 -72 10
-94 3 -21 2 -44 -3 -50 -7 -11 -8 -35 -2 -91 2 -22 5 -13 12 30 12 82 12 99
-1 182 -11 75 -39 156 -40 118z"/>
<path d="M1270 1849 c0 -5 7 -45 16 -87 15 -75 15 -141 -1 -344 -4 -50 2 -67
18 -55 2 1 11 -4 19 -11 13 -10 16 -9 21 8 3 13 1 18 -6 13 -7 -4 -18 -8 -25
-9 -10 -2 -11 1 -1 12 6 8 9 17 6 20 -3 3 -1 18 3 34 6 21 4 32 -5 40 -10 8
-11 18 -5 35 5 14 8 40 6 60 -1 20 1 38 5 41 4 2 6 13 4 24 -2 11 0 22 6 25 5
4 9 11 9 16 0 6 -5 7 -12 3 -7 -4 -1 7 12 25 21 31 22 33 3 22 -17 -9 -22 -7
-29 7 -4 9 -6 21 -5 26 1 5 -2 12 -8 15 -5 4 -2 21 9 44 10 20 18 37 17 38
-16 6 -57 5 -57 -2z"/>
<path d="M1925 1820 c-4 -6 -11 -7 -17 -4 -7 4 -8 2 -4 -5 6 -9 11 -9 22 0 14
11 18 19 10 19 -3 0 -8 -5 -11 -10z"/>
<path d="M2720 1820 c-9 -6 -10 -10 -3 -10 6 0 15 5 18 10 8 12 4 12 -15 0z"/>
<path d="M2291 1804 c0 -11 3 -14 6 -6 3 7 2 16 -1 19 -3 4 -6 -2 -5 -13z"/>
<path d="M1775 1799 c-4 -6 -5 -12 -2 -15 2 -3 7 2 10 11 7 17 1 20 -8 4z"/>
<path d="M1212 1770 c-1 -14 3 -43 7 -65 6 -26 9 -31 9 -15 1 14 -3 43 -7 65
-6 26 -9 31 -9 15z"/>
<path d="M1570 1782 c0 -5 7 -15 15 -22 8 -7 15 -8 15 -2 0 5 -7 15 -15 22 -8
7 -15 8 -15 2z"/>
<path d="M2282 1750 c0 -14 2 -19 5 -12 2 6 2 18 0 25 -3 6 -5 1 -5 -13z"/>
<path d="M1443 1753 c9 -2 23 -2 30 0 6 3 -1 5 -18 5 -16 0 -22 -2 -12 -5z"/>
<path d="M1392 1738 c-5 -7 -12 -24 -16 -38 -5 -22 -4 -22 7 3 8 16 20 33 28
38 8 5 9 9 3 9 -6 0 -16 -6 -22 -12z"/>
<path d="M1630 1744 c0 -6 7 -19 16 -30 14 -18 14 -18 3 6 -14 31 -19 36 -19
24z"/>
<path d="M843 1725 c-3 -9 -3 -19 1 -22 3 -4 6 1 6 11 0 9 5 14 10 11 6 -3 10
-1 10 4 0 17 -20 13 -27 -4z"/>
<path d="M1610 1723 c0 -7 10 -22 23 -35 12 -13 17 -17 11 -8 -6 8 -16 24 -22
35 -6 11 -12 15 -12 8z"/>
<path d="M1837 1712 c-9 -10 -19 -34 -22 -53 l-5 -34 11 35 c6 19 18 43 26 53
9 9 14 17 11 17 -3 0 -12 -8 -21 -18z"/>
<path d="M2365 1700 c-3 -6 1 -7 9 -4 18 7 21 14 7 14 -6 0 -13 -4 -16 -10z"/>
<path d="M2268 1664 c-1 -21 -1 -48 0 -59 0 -11 3 -63 6 -115 2 -52 9 -106 15
-120 11 -23 11 -22 6 9 -3 19 -8 98 -11 175 -6 140 -12 185 -16 110z"/>
<path d="M1635 1650 c17 -19 31 -37 33 -39 1 -2 2 6 2 19 0 13 -3 20 -7 17 -3
-4 -18 3 -32 15 -22 19 -21 17 4 -12z"/>
<path d="M1580 1663 c0 -6 8 -17 18 -24 16 -13 16 -13 2 6 -8 11 -16 22 -17
24 -2 2 -3 0 -3 -6z"/>
<path d="M2740 1661 c0 -6 4 -13 10 -16 6 -3 7 1 4 9 -7 18 -14 21 -14 7z"/>
<path d="M846 1641 c-10 -11 -16 -28 -13 -38 4 -17 5 -17 6 1 0 11 8 28 18 38
9 10 14 18 11 18 -3 0 -13 -9 -22 -19z"/>
<path d="M1900 1641 c0 -6 4 -13 10 -16 6 -3 7 1 4 9 -7 18 -14 21 -14 7z"/>
<path d="M699 1623 c-13 -16 -12 -17 4 -4 9 7 17 15 17 17 0 8 -8 3 -21 -13z"/>
<path d="M1095 1630 c-3 -5 -2 -10 4 -10 5 0 13 5 16 10 3 6 2 10 -4 10 -5 0
-13 -4 -16 -10z"/>
<path d="M2772 1616 c17 -19 48 -16 48 5 0 8 -4 8 -15 -1 -12 -10 -18 -10 -32
1 -17 12 -17 12 -1 -5z"/>
<path d="M2410 1605 c-14 -8 -20 -14 -15 -14 6 0 21 6 35 14 14 8 21 14 15 14
-5 0 -21 -6 -35 -14z"/>
<path d="M1555 1590 c-3 -6 1 -7 9 -4 18 7 21 14 7 14 -6 0 -13 -4 -16 -10z"/>
<path d="M849 1567 c5 -5 21 -7 37 -5 27 3 26 4 -8 9 -22 3 -34 1 -29 -4z"/>
<path d="M2770 1541 c0 -11 4 -23 10 -26 6 -4 7 1 3 10 -3 10 0 21 8 26 11 7
11 9 -3 9 -11 0 -18 -8 -18 -19z"/>
<path d="M1232 1525 c0 -16 2 -22 5 -12 2 9 2 23 0 30 -3 6 -5 -1 -5 -18z"/>
<path d="M1571 1486 c-13 -14 -21 -31 -18 -38 4 -10 6 -10 6 1 1 7 12 24 27
37 14 13 21 24 16 24 -5 0 -19 -11 -31 -24z"/>
<path d="M1252 1470 c0 -14 2 -19 5 -12 2 6 2 18 0 25 -3 6 -5 1 -5 -13z"/>
<path d="M1810 1461 c0 -6 4 -13 10 -16 6 -3 7 1 4 9 -7 18 -14 21 -14 7z"/>
<path d="M2425 1460 c-3 -6 1 -7 9 -4 18 7 21 14 7 14 -6 0 -13 -4 -16 -10z"/>
<path d="M2241 1444 c0 -11 3 -14 6 -6 3 7 2 16 -1 19 -3 4 -6 -2 -5 -13z"/>
<path d="M1222 1390 c0 -19 2 -27 5 -17 2 9 2 25 0 35 -3 9 -5 1 -5 -18z"/>
<path d="M2254 1372 c3 -19 7 -36 10 -40 9 -9 6 31 -5 53 -7 16 -8 13 -5 -13z"/>
<path d="M1766 1382 c-2 -4 4 -8 14 -8 10 0 16 4 14 8 -3 4 -9 8 -14 8 -5 0
-11 -4 -14 -8z"/>
<path d="M1871 1361 c13 -19 22 -46 22 -60 -2 -23 -1 -23 6 -6 7 17 9 15 13
-13 4 -30 3 -32 -26 -32 -23 0 -27 3 -18 12 7 7 12 26 11 43 l-1 30 -9 -30
c-11 -39 -34 -55 -78 -55 -19 0 -31 -3 -28 -7 4 -3 43 -6 87 -6 81 -1 94 -7
68 -37 -7 -8 -2 -6 10 5 13 11 31 20 40 20 8 0 17 6 20 14 3 8 0 11 -7 7 -6
-4 -14 1 -18 11 -3 10 -18 29 -32 43 -14 14 -39 41 -54 60 l-28 35 22 -34z
m79 -104 c0 -20 0 -20 -15 -1 -19 25 -19 35 0 28 8 -4 15 -16 15 -27z"/>
<path d="M2340 1344 c0 -10 10 -42 22 -71 l22 -53 -25 -27 -24 -27 30 21 c30
20 43 24 103 25 34 2 23 18 -12 18 -10 0 -24 7 -31 17 -9 13 -14 13 -20 3 -5
-8 -4 -11 2 -7 6 4 13 1 16 -6 3 -8 -1 -14 -9 -14 -8 0 -17 12 -21 26 -10 40
-53 117 -53 95z"/>
<path d="M1250 1324 c-6 -14 -10 -36 -10 -50 0 -13 -9 -32 -20 -41 -34 -30
-22 -34 24 -8 25 14 47 21 50 16 7 -11 126 57 126 72 0 5 -7 4 -15 -3 -12 -10
-15 -10 -15 0 0 9 -5 8 -18 -3 -10 -9 -27 -14 -39 -11 -14 4 -25 -1 -34 -14
-17 -23 -45 -25 -45 -2 0 9 6 17 14 17 8 0 10 -7 7 -16 -5 -12 -3 -13 6 -4 13
13 3 37 -12 27 -6 -3 -8 5 -5 20 6 33 -2 33 -14 0z"/>
<path d="M1197 1311 c-9 -16 -17 -35 -17 -43 1 -7 10 4 21 25 24 46 21 59 -4
18z"/>
<path d="M1443 1323 c9 -2 25 -2 35 0 9 3 1 5 -18 5 -19 0 -27 -2 -17 -5z"/>
<path d="M1504 1312 c-11 -9 -27 -31 -35 -48 -16 -30 -15 -31 18 -52 44 -30
51 -28 14 3 -34 29 -33 44 7 88 29 30 27 35 -4 9z"/>
<path d="M700 1283 c0 -5 13 -17 28 -27 l27 -19 -24 26 c-26 28 -31 32 -31 20z"/>
<path d="M1718 1283 c7 -3 16 -2 19 1 4 3 -2 6 -13 5 -11 0 -14 -3 -6 -6z"/>
<path d="M570 1266 c0 -2 7 -7 16 -10 8 -3 12 -2 9 4 -6 10 -25 14 -25 6z"/>
<path d="M1125 1250 c-3 -5 -1 -10 4 -10 6 0 11 5 11 10 0 6 -2 10 -4 10 -3 0
-8 -4 -11 -10z"/>
<path d="M1658 1249 c16 -18 15 -29 -3 -29 -8 0 -15 -4 -15 -10 0 -14 10 -12
50 11 19 10 28 18 20 17 -8 -1 -26 4 -40 11 -21 11 -23 11 -12 0z"/>
<path d="M2169 1243 c-13 -16 -12 -17 4 -4 16 13 21 21 13 21 -2 0 -10 -8 -17
-17z"/>
<path d="M2342 1240 c0 -14 2 -19 5 -12 2 6 2 18 0 25 -3 6 -5 1 -5 -13z"/>
<path d="M1028 1233 c-37 -9 -16 -18 45 -19 34 0 49 1 32 3 -16 3 -34 9 -39
14 -6 5 -12 8 -15 8 -4 -1 -14 -3 -23 -6z"/>
<path d="M1158 1233 c-24 -6 -23 -19 2 -19 11 0 20 6 20 13 0 7 -1 12 -2 12
-2 -1 -11 -3 -20 -6z"/>
<path d="M2277 1233 c-3 -5 -2 -15 2 -22 7 -10 13 -10 30 -2 22 12 29 31 10
31 -5 0 -7 -4 -4 -10 8 -13 -8 -13 -22 1 -6 6 -13 7 -16 2z"/>
<path d="M2543 1224 c-18 -8 -33 -16 -33 -19 0 -7 60 16 66 26 6 11 7 11 -33
-7z"/>
<path d="M926 1205 c4 -8 10 -12 15 -9 11 6 2 24 -11 24 -5 0 -7 -7 -4 -15z"/>
<path d="M968 1208 c9 -9 15 -9 24 0 9 9 7 12 -12 12 -19 0 -21 -3 -12 -12z"/>
<path d="M1738 1199 c12 -14 22 -30 22 -36 0 -6 13 -16 30 -23 47 -19 82 -57
75 -80 -4 -12 -2 -20 6 -20 8 0 8 -4 -1 -15 -11 -13 -10 -14 4 -9 9 3 16 13
16 20 0 23 25 27 65 10 21 -9 45 -16 55 -16 10 0 34 -7 55 -16 50 -21 34 -35
-44 -37 -33 -1 -61 -6 -61 -10 0 -5 -8 -7 -17 -6 -10 1 -20 0 -23 -1 -6 -3
-36 -5 -197 -17 -68 -5 -126 -13 -130 -17 -10 -10 255 1 357 15 85 12 149 28
168 42 17 13 11 58 -8 68 -82 42 -235 84 -266 72 -6 -2 -17 3 -24 12 -7 8 -18
15 -24 15 -6 0 -16 10 -21 22 -6 11 -21 28 -35 37 l-25 15 23 -25z m223 -109
c5 0 9 -7 9 -15 0 -18 -42 -5 -48 15 -3 9 1 11 12 7 10 -4 22 -7 27 -7z m78
-35 c0 -11 -3 -14 -6 -7 -2 6 -9 10 -14 6 -5 -3 -16 2 -25 11 -15 14 -13 15
15 13 24 -2 31 -7 30 -23z m42 -9 c5 3 9 0 9 -5 0 -6 -7 -11 -15 -11 -8 0 -15
8 -14 18 0 10 3 12 6 4 2 -6 9 -10 14 -6z"/>
<path d="M570 1179 c45 -39 120 -69 190 -78 38 -5 83 -16 101 -25 18 -9 53
-16 78 -15 l46 1 -45 9 c-25 5 -67 18 -95 29 -27 10 -74 22 -103 25 -29 3 -61
10 -70 15 -9 4 -42 20 -72 35 -49 23 -52 24 -30 4z"/>
<path d="M1672 1184 c-7 -8 -8 -14 -3 -14 10 0 25 19 20 25 -2 1 -10 -3 -17
-11z"/>
<path d="M2437 1193 c-4 -3 -7 -11 -7 -17 0 -7 3 -7 8 1 4 6 21 13 37 16 l30
4 -31 2 c-17 0 -34 -2 -37 -6z"/>
<path d="M1363 1168 c-10 -13 -44 -36 -75 -52 -59 -29 -75 -43 -36 -30 19 6
17 2 -10 -25 -39 -40 -40 -54 -3 -80 34 -25 91 -38 196 -46 78 -6 79 -5 41 9
-59 22 -89 28 -81 17 3 -7 0 -8 -9 -5 -9 3 -16 11 -16 18 0 6 -5 4 -10 -4 -7
-10 -10 -11 -10 -2 0 7 -16 26 -35 43 -39 35 -45 67 -17 92 27 24 36 22 104
-28 34 -25 66 -45 72 -45 5 0 -19 19 -52 41 -45 30 -62 48 -62 64 0 27 24 50
41 39 8 -4 9 -3 5 4 -11 18 -22 15 -43 -10z m-53 -163 c7 -8 8 -15 2 -15 -5 0
-15 7 -22 15 -7 8 -8 15 -2 15 5 0 15 -7 22 -15z m-6 -20 c11 -8 15 -15 9 -15
-19 0 -43 12 -43 21 0 13 12 11 34 -6z"/>
<path d="M2263 1183 c-26 -5 -55 -46 -47 -66 7 -19 -14 -33 -29 -18 -6 6 -16
11 -21 11 -6 0 -1 -6 10 -14 24 -17 75 -10 68 9 -3 8 11 24 33 39 21 14 33 26
27 26 -6 0 -28 -11 -48 -25 -20 -13 -36 -20 -36 -14 0 5 16 19 35 30 19 12 35
23 35 25 0 2 -1 3 -2 3 -2 -1 -13 -4 -25 -6z"/>
<path d="M334 1158 c-5 -16 -1 -27 16 -40 12 -10 27 -18 34 -17 6 0 1 5 -11
11 -27 13 -37 36 -22 54 8 9 8 14 1 14 -6 0 -14 -10 -18 -22z"/>
<path d="M2456 1169 c3 -5 16 -9 30 -9 14 0 23 4 20 9 -3 5 -17 9 -31 9 -13 0
-22 -4 -19 -9z"/>
<path d="M375 1160 c-19 -31 35 -50 185 -66 l45 -5 -30 17 c-16 9 -38 23 -47
32 -12 9 -18 11 -18 4 0 -7 5 -12 12 -12 6 0 8 -3 5 -6 -4 -4 -13 -2 -20 4 -8
7 -17 9 -20 5 -4 -3 -7 -1 -7 5 0 5 6 13 13 15 6 3 -6 6 -28 6 -22 1 -50 4
-61 7 -12 3 -25 0 -29 -6z"/>
<path d="M1164 1155 c-3 -8 -4 -20 -1 -27 3 -7 6 -3 6 9 1 12 9 24 19 26 16 4
16 5 -1 6 -10 0 -20 -6 -23 -14z"/>
<path d="M1628 1163 c7 -3 16 -2 19 1 4 3 -2 6 -13 5 -11 0 -14 -3 -6 -6z"/>
<path d="M1285 1150 c-3 -5 -1 -10 4 -10 6 0 11 5 11 10 0 6 -2 10 -4 10 -3 0
-8 -4 -11 -10z"/>
<path d="M2350 1150 c-12 -8 -10 -10 10 -10 20 0 22 -2 10 -10 -13 -8 -12 -10
3 -10 12 0 17 6 15 17 -4 20 -18 26 -38 13z"/>
<path d="M2888 1153 c12 -2 30 -2 40 0 9 3 -1 5 -23 4 -22 0 -30 -2 -17 -4z"/>
<path d="M1618 1143 c7 -3 16 -2 19 1 4 3 -2 6 -13 5 -11 0 -14 -3 -6 -6z"/>
<path d="M1494 1106 c11 -9 27 -16 35 -15 14 0 14 1 1 6 -8 3 -24 10 -35 15
-20 9 -20 9 -1 -6z"/>
<path d="M1588 1108 c12 -14 10 -17 -15 -21 -16 -2 -6 -4 22 -5 28 0 43 2 35
5 -8 3 -24 13 -35 22 -18 15 -19 15 -7 -1z"/>
<path d="M2436 1102 c-3 -5 8 -6 25 -4 16 2 29 6 29 8 0 8 -49 4 -54 -4z"/>
<path d="M2520 1106 c0 -2 7 -7 16 -10 8 -3 12 -2 9 4 -6 10 -25 14 -25 6z"/>
<path d="M1801 1077 c-13 -21 -12 -21 5 -5 10 10 16 20 13 22 -3 3 -11 -5 -18
-17z"/>
<path d="M2315 1090 c-3 -5 1 -10 9 -10 8 0 18 5 21 10 3 6 -1 10 -9 10 -8 0
-18 -4 -21 -10z"/>
<path d="M1713 1073 c-18 -2 -33 -9 -33 -14 0 -11 50 -1 65 12 5 5 7 8 5 7 -3
0 -20 -3 -37 -5z"/>
<path d="M1018 1063 c7 -3 16 -2 19 1 4 3 -2 6 -13 5 -11 0 -14 -3 -6 -6z"/>
<path d="M1290 1063 c0 -5 12 -20 28 -34 l27 -24 -25 30 c-14 17 -26 32 -27
34 -2 2 -3 0 -3 -6z"/>
<path d="M2968 1053 c7 -3 16 -2 19 1 4 3 -2 6 -13 5 -11 0 -14 -3 -6 -6z"/>
<path d="M1088 1043 c7 -3 16 -2 19 1 4 3 -2 6 -13 5 -11 0 -14 -3 -6 -6z"/>
<path d="M1840 1041 c0 -5 -20 -17 -45 -26 -46 -18 -54 -36 -12 -28 34 7 83
48 69 57 -7 4 -12 3 -12 -3z"/>
<path d="M948 1033 c6 -2 18 -2 25 0 6 3 1 5 -13 5 -14 0 -19 -2 -12 -5z"/>
<path d="M2406 1028 c-9 -5 -44 -14 -79 -19 -34 -6 -66 -14 -71 -19 -6 -6 0
-8 15 -4 39 8 130 16 196 17 54 1 59 3 42 15 -24 17 -81 22 -103 10z"/>
<path d="M1624 1023 c5 -10 -7 -12 -51 -8 -40 4 -52 2 -38 -4 11 -5 49 -9 85
-9 36 0 56 3 45 5 -11 3 -26 10 -34 17 -11 8 -13 8 -7 -1z"/>
<path d="M2198 993 c6 -2 18 -2 25 0 6 3 1 5 -13 5 -14 0 -19 -2 -12 -5z"/>
<path d="M1210 934 c0 -5 32 -49 70 -97 39 -48 70 -90 70 -93 0 -3 -10 -2 -22
2 -13 3 -20 3 -15 -1 4 -5 17 -9 30 -10 16 -1 22 -8 21 -23 -1 -12 3 -19 7
-16 5 3 9 0 9 -5 0 -6 8 -11 17 -11 16 0 53 -10 126 -35 20 -8 35 -9 31 -4 -5
9 22 7 107 -6 15 -2 30 -1 33 3 4 3 26 7 50 7 23 1 48 5 54 9 7 4 16 5 21 2 8
-5 131 32 131 39 0 7 -55 0 -61 -8 -3 -4 -59 -10 -123 -13 -65 -3 -127 -9
-137 -13 -23 -8 -129 9 -129 21 0 4 -19 8 -42 8 -47 0 -58 10 -178 164 -39 49
-70 85 -70 80z"/>
<path d="M2238 883 c12 -2 32 -2 45 0 12 2 2 4 -23 4 -25 0 -35 -2 -22 -4z"/>
<path d="M1923 853 c9 -2 23 -2 30 0 6 3 -1 5 -18 5 -16 0 -22 -2 -12 -5z"/>
<path d="M2178 853 c6 -2 18 -2 25 0 6 3 1 5 -13 5 -14 0 -19 -2 -12 -5z"/>
<path d="M1458 843 c7 -3 16 -2 19 1 4 3 -2 6 -13 5 -11 0 -14 -3 -6 -6z"/>
<path d="M1415 831 c3 -5 -2 -11 -11 -13 -15 -3 -15 -4 1 -18 11 -8 16 -10 12
-3 -5 8 4 10 30 8 35 -2 36 -2 8 5 -16 4 -24 8 -17 9 18 1 5 21 -14 21 -8 0
-13 -4 -9 -9z"/>
<path d="M1220 740 c8 -5 20 -10 25 -10 6 0 3 5 -5 10 -8 5 -19 10 -25 10 -5
0 -3 -5 5 -10z"/>
<path d="M1217 719 c7 -7 15 -10 18 -7 3 3 -2 9 -12 12 -14 6 -15 5 -6 -5z"/>
<path d="M1300 720 c0 -9 39 -25 46 -18 2 3 -7 10 -21 16 -14 6 -25 7 -25 2z"/>
<path d="M1260 702 c8 -5 26 -13 40 -16 17 -5 20 -4 10 2 -8 5 -26 13 -40 16
-17 5 -20 4 -10 -2z"/>
<path d="M1211 696 c10 -10 168 -64 173 -59 6 6 -38 43 -51 43 -4 0 -1 -5 7
-10 24 -16 -2 -12 -65 10 -59 20 -72 23 -64 16z"/>
<path d="M1978 693 c7 -3 16 -2 19 1 4 3 -2 6 -13 5 -11 0 -14 -3 -6 -6z"/>
<path d="M1300 620 c8 -5 20 -10 25 -10 6 0 3 5 -5 10 -8 5 -19 10 -25 10 -5
0 -3 -5 5 -10z"/>
<path d="M1510 600 c8 -5 20 -10 25 -10 6 0 3 5 -5 10 -8 5 -19 10 -25 10 -5
0 -3 -5 5 -10z"/>
<path d="M1968 593 c7 -3 16 -2 19 1 4 3 -2 6 -13 5 -11 0 -14 -3 -6 -6z"/>
<path d="M1387 559 c7 -7 15 -10 18 -7 3 3 -2 9 -12 12 -14 6 -15 5 -6 -5z"/>
</g>
</svg>
