<?xml version="1.0" standalone="no"?>
<!DOCTYPE svg PUBLIC "-//W3C//DTD SVG 20010904//EN"
 "http://www.w3.org/TR/2001/REC-SVG-20010904/DTD/svg10.dtd">
<svg version="1.0" xmlns="http://www.w3.org/2000/svg"
 width="360.000000pt" height="360.000000pt" viewBox="0 0 360.000000 360.000000"
 preserveAspectRatio="xMidYMid meet">

<g transform="translate(0.000000,360.000000) scale(0.100000,-0.100000)"
fill="#000000" stroke="none">
<path d="M1235 2921 c-15 -6 -12 -9 20 -14 24 -4 42 -2 46 4 4 7 9 8 13 1 3
-5 16 -9 29 -9 13 0 38 -16 60 -38 21 -21 40 -36 42 -33 9 8 -26 67 -48 83
-23 16 -126 20 -162 6z"/>
<path d="M1459 2816 c-3 -36 -6 -41 -19 -38 -8 2 -18 9 -22 15 -6 9 -10 9 -15
1 -5 -6 -29 -30 -55 -52 -28 -24 -44 -44 -37 -48 6 -3 8 -17 5 -29 -5 -18 -1
-25 13 -30 30 -9 71 -77 71 -116 0 -32 4 -36 64 -67 63 -33 118 -72 100 -72
-5 0 -23 9 -41 20 -18 10 -34 16 -37 11 -5 -8 76 -51 95 -51 16 0 109 -122
109 -143 0 -4 -17 4 -37 17 -41 26 -111 51 -119 43 -3 -3 10 -9 28 -13 33 -7
33 -7 8 -16 -21 -6 -19 -7 8 -3 22 3 31 1 26 -6 -4 -7 1 -10 11 -7 25 4 83
-54 99 -99 l13 -38 59 3 c67 4 82 16 111 95 9 26 30 63 46 83 25 30 34 34 58
29 23 -5 35 -1 54 17 30 28 32 42 4 33 -14 -5 -19 -3 -15 3 16 26 -95 105
-134 95 -11 -3 -20 0 -20 6 0 6 -8 11 -17 11 -23 1 -47 20 -57 45 -7 19 -8 19
-20 3 -12 -17 -14 -17 -30 0 -9 10 -16 24 -16 31 0 6 -7 26 -16 43 -15 29 -15
32 6 60 12 16 19 32 16 35 -3 3 -27 8 -53 10 -26 3 -57 13 -68 23 -29 25 -128
74 -144 71 -7 -1 -10 2 -7 7 3 5 -1 15 -9 22 -12 10 -15 9 -16 -4z m278 -698
c-3 -8 -6 -5 -6 6 -1 11 2 17 5 13 3 -3 4 -12 1 -19z"/>
<path d="M1980 2823 c-43 -8 -171 -73 -177 -91 -4 -9 -14 -22 -22 -29 -10 -8
-12 -12 -4 -13 7 0 35 20 64 45 40 36 54 44 64 35 11 -9 22 -6 48 14 19 14 43
26 55 26 11 0 24 5 27 10 6 10 -9 11 -55 3z"/>
<path d="M2065 2821 c6 -6 38 -16 70 -22 33 -6 68 -18 77 -26 10 -9 23 -13 31
-10 30 11 39 -8 23 -46 -13 -33 -13 -38 1 -53 12 -12 13 -18 4 -23 -8 -5 -10
-21 -5 -48 7 -48 -17 -131 -45 -157 -10 -9 -26 -37 -36 -61 -9 -25 -23 -45
-31 -45 -8 0 -14 -5 -14 -11 0 -5 4 -8 9 -4 5 3 12 2 14 -2 7 -11 -21 -48 -29
-40 -4 3 -19 -2 -33 -11 -29 -21 -110 -46 -118 -38 -3 3 7 10 23 17 16 6 39
15 52 20 23 9 31 29 11 29 -19 0 -84 -33 -92 -47 -5 -7 -12 -11 -17 -8 -17 10
-21 -15 -6 -37 9 -12 16 -17 16 -10 0 6 7 12 16 12 12 0 15 -6 9 -22 -4 -13
-12 -47 -18 -75 -11 -56 -20 -63 -47 -38 -13 12 -15 26 -10 70 3 30 2 55 -2
55 -8 0 -12 -22 -9 -47 1 -6 -3 -14 -9 -18 -5 -3 -10 -19 -10 -36 0 -16 -5
-29 -12 -29 -8 -1 -6 -6 5 -14 10 -8 26 -12 36 -9 10 3 22 -1 26 -8 6 -9 2
-11 -13 -7 -18 5 -27 -4 -56 -57 -43 -78 -59 -198 -32 -236 12 -18 16 -20 16
-7 0 9 -5 20 -11 24 -17 10 -4 78 26 135 14 28 24 57 21 65 -3 8 6 20 24 29
33 17 36 14 19 -17 -7 -13 -8 -23 -1 -30 7 -7 18 2 34 26 13 21 31 36 43 36
19 1 19 1 1 11 -15 9 -16 13 -5 21 11 7 11 11 2 15 -9 3 -10 10 -3 23 16 30
28 128 17 139 -6 6 -8 14 -4 18 4 4 13 1 19 -5 15 -15 31 -16 22 -1 -5 8 -2 9
11 2 11 -6 32 -7 59 -1 72 17 127 21 138 10 7 -7 -2 -14 -30 -23 -23 -6 -57
-25 -76 -41 -32 -26 -35 -34 -38 -86 -3 -61 -10 -66 -65 -48 -15 5 -23 3 -23
-4 0 -6 14 -13 30 -16 38 -8 38 -25 1 -47 -92 -54 -201 -195 -201 -260 0 -42
16 -39 30 6 17 59 45 111 81 152 36 40 144 125 160 125 5 0 7 4 4 10 -3 5 -1
27 4 47 6 21 13 55 16 76 3 20 12 37 19 37 7 0 30 9 52 19 22 11 53 23 67 27
25 6 26 8 11 19 -16 11 -16 12 2 17 10 4 57 20 104 38 168 62 291 102 297 96
8 -7 16 -2 -87 -53 -47 -23 -107 -49 -135 -58 -101 -33 -135 -48 -135 -60 0
-7 -30 -20 -67 -30 -37 -10 -62 -20 -55 -23 21 -7 145 20 160 35 10 10 10 13
1 13 -35 0 40 32 120 50 24 6 69 22 100 37 31 14 84 38 119 53 67 29 79 45 34
46 -15 0 -33 4 -40 8 -19 11 -58 1 -282 -74 -167 -56 -213 -68 -244 -63 l-38
6 70 32 c38 18 93 40 121 50 29 9 50 19 48 21 -2 3 -49 -11 -103 -31 -55 -19
-100 -35 -101 -35 -1 0 9 21 22 46 14 26 25 54 25 63 0 9 11 53 25 98 35 120
42 211 20 257 -21 43 -36 51 -125 60 -36 4 -76 10 -90 13 -18 4 -22 3 -15 -6z"/>
<path d="M940 2651 c0 -19 52 -75 72 -77 13 -1 54 -9 92 -18 38 -9 71 -14 74
-12 2 3 11 -1 19 -9 19 -20 53 -19 53 1 0 8 -4 12 -10 9 -5 -3 -20 5 -33 18
-19 18 -28 21 -46 13 -17 -7 -27 -4 -49 17 -16 15 -35 27 -43 27 -8 0 -20 5
-27 12 -7 7 -12 8 -12 3 0 -6 -4 -5 -8 1 -8 13 -82 26 -82 15z"/>
<path d="M743 2552 c-73 -7 -18 -72 112 -132 39 -18 81 -38 95 -44 14 -6 32
-26 41 -44 9 -17 21 -37 27 -44 5 -7 12 -22 15 -33 3 -13 5 -8 6 14 1 42 -68
131 -102 131 -52 0 -207 98 -207 131 0 4 37 9 83 11 81 3 81 3 22 8 -33 3 -75
4 -92 2z"/>
<path d="M923 2533 c9 -2 23 -2 30 0 6 3 -1 5 -18 5 -16 0 -22 -2 -12 -5z"/>
<path d="M1023 2523 c9 -2 23 -2 30 0 6 3 -1 5 -18 5 -16 0 -22 -2 -12 -5z"/>
<path d="M1276 2520 c-19 -6 -19 -7 -1 -13 20 -8 29 -4 24 11 -2 5 -13 6 -23
2z"/>
<path d="M1125 2510 c3 -5 8 -10 11 -10 2 0 4 5 4 10 0 6 -5 10 -11 10 -5 0
-7 -4 -4 -10z"/>
<path d="M1160 2501 c0 -6 7 -11 15 -11 14 0 102 -25 194 -56 24 -8 47 -12 49
-9 10 10 -17 28 -45 31 -23 2 -102 22 -195 50 -10 3 -18 1 -18 -5z"/>
<path d="M505 2470 c-4 -6 5 -10 19 -10 14 0 26 5 26 10 0 6 -9 10 -19 10 -11
0 -23 -4 -26 -10z"/>
<path d="M450 2450 c-12 -8 -11 -10 7 -10 12 0 25 5 28 10 8 13 -15 13 -35 0z"/>
<path d="M670 2410 c0 -4 13 -10 29 -12 17 -2 28 -1 26 3 -7 10 -55 18 -55 9z"/>
<path d="M660 2376 c0 -8 -6 -17 -12 -19 -10 -4 -10 -6 0 -6 7 -1 20 5 27 13
12 12 12 15 0 20 -9 3 -15 0 -15 -8z"/>
<path d="M1245 2380 c27 -12 43 -12 25 0 -8 5 -22 9 -30 9 -10 0 -8 -3 5 -9z"/>
<path d="M1065 2360 c4 -6 11 -8 16 -5 14 9 11 15 -7 15 -8 0 -12 -5 -9 -10z"/>
<path d="M540 2325 c0 -2 15 -12 33 -21 17 -9 42 -26 55 -37 l22 -20 0 22 c0
16 -11 27 -42 41 -42 19 -68 25 -68 15z"/>
<path d="M2795 2290 c-72 -35 -124 -55 -275 -105 -25 -8 -54 -15 -66 -15 -25
0 -134 -58 -134 -72 0 -5 -14 -7 -32 -4 -33 6 -33 6 -5 -5 23 -9 27 -16 27
-51 0 -23 -9 -59 -21 -82 -18 -36 -28 -44 -92 -68 -146 -56 -240 -162 -256
-290 -5 -35 -9 -52 -10 -39 -1 29 -6 26 -15 -11 -5 -22 -2 -27 23 -36 l30 -10
6 66 c11 133 82 223 239 302 78 40 87 42 115 30 17 -6 36 -18 42 -26 9 -12 3
-14 -36 -14 -34 0 -75 -12 -140 -41 -102 -44 -137 -72 -116 -92 9 -9 16 -8 29
9 19 24 146 87 207 103 59 16 81 14 120 -11 37 -25 44 -38 20 -38 -8 0 -15 -4
-15 -10 0 -13 3 -13 35 2 18 8 31 8 48 0 12 -6 43 -13 70 -17 26 -3 47 -10 47
-16 0 -5 -5 -9 -11 -9 -16 0 -270 -138 -304 -165 -16 -13 -26 -27 -22 -31 4
-4 17 2 30 13 12 11 65 44 117 73 52 29 120 67 150 84 52 29 62 31 168 32 62
1 112 1 110 -1 -2 -1 -25 -12 -52 -24 -38 -16 -47 -18 -42 -6 8 21 -7 19 -37
-5 -14 -11 -30 -20 -35 -20 -5 0 -15 -7 -22 -15 -7 -8 -38 -24 -70 -36 -34
-12 -57 -26 -54 -33 2 -6 -12 -20 -31 -30 -48 -26 -102 -87 -126 -143 -29 -67
-17 -77 16 -13 15 29 37 67 49 83 50 68 433 261 498 252 l33 -5 -35 14 c-21 8
-33 19 -31 27 2 8 9 35 16 62 11 41 11 48 -2 55 -11 7 -2 16 39 37 65 34 79
45 72 56 -9 16 -37 10 -91 -18 -33 -18 -53 -35 -53 -45 0 -10 -5 -18 -11 -18
-8 0 -8 -5 1 -15 8 -10 10 -30 5 -61 l-7 -46 -51 6 c-28 4 -55 10 -59 12 -5 3
0 21 12 40 11 20 20 42 20 50 0 8 5 14 11 14 6 0 8 9 4 21 -5 14 -3 19 3 15 6
-3 13 -2 17 4 9 15 -24 12 -41 -4 -7 -8 -22 -12 -31 -10 -15 4 -18 -3 -19 -46
-1 -71 -10 -76 -86 -56 -35 9 -68 19 -75 21 -9 3 -9 11 2 32 8 15 15 48 15 73
0 43 2 47 35 59 19 7 35 17 35 22 0 5 6 9 13 8 30 -4 47 2 47 16 0 13 -7 15
-37 9 -21 -4 -42 -13 -46 -20 -4 -8 -12 -14 -18 -14 -5 0 -24 -10 -43 -22 -30
-20 -33 -25 -24 -50 12 -34 2 -98 -15 -98 -7 0 -47 8 -89 17 -74 17 -97 34
-63 47 9 3 15 18 15 39 0 43 10 53 24 24 6 -12 22 -24 35 -25 15 -2 21 0 17 7
-4 7 1 11 14 11 28 0 21 24 -8 28 -26 4 -30 32 -4 32 10 0 35 9 55 19 21 10
46 17 56 14 10 -3 22 0 25 6 4 6 16 11 26 11 10 0 31 11 47 24 40 34 284 146
319 147 25 0 26 2 9 9 -39 17 -89 11 -128 -15 -20 -14 -76 -45 -125 -69 -48
-24 -96 -53 -106 -65 -13 -14 -31 -21 -55 -21 -21 0 -68 -16 -113 -39 -58 -29
-78 -35 -82 -25 -3 8 -1 14 5 14 6 0 35 12 65 26 43 20 55 30 51 44 -5 20 4
25 135 76 48 18 118 49 155 69 51 27 76 35 98 31 22 -4 26 -3 15 4 -30 20 -94
9 -175 -30z m-258 -130 c-26 -16 -53 -30 -60 -30 -28 0 -107 -35 -107 -48 0
-16 -22 -11 -28 6 -2 7 3 12 11 12 9 0 23 7 31 16 9 8 20 13 25 10 5 -3 20 3
34 14 14 11 32 20 40 20 8 0 30 7 48 15 54 23 57 17 6 -15z m-107 -79 c0 -6
-5 -13 -10 -16 -6 -4 -10 -25 -9 -48 3 -67 -8 -90 -39 -83 -22 5 -24 4 -9 -4
27 -17 20 -31 -10 -24 -41 10 -42 11 -33 47 4 17 11 49 15 70 3 21 10 35 15
32 13 -8 40 6 40 21 0 8 9 14 20 14 11 0 20 -4 20 -9z m550 -121 c0 -5 -5 -10
-11 -10 -5 0 -7 5 -4 10 3 6 8 10 11 10 2 0 4 -4 4 -10z m-386 -111 c55 -16
102 -31 104 -34 3 -3 -22 -5 -54 -5 -33 0 -65 5 -72 12 -7 7 -12 8 -12 3 0 -5
-7 0 -15 12 -8 11 -30 24 -50 27 -19 4 -35 12 -35 18 0 6 7 7 18 3 9 -4 62
-21 116 -36z m224 -66 c-10 -2 -26 -2 -35 0 -10 3 -2 5 17 5 19 0 27 -2 18 -5z"/>
<path d="M975 2290 c10 -11 20 -20 23 -20 3 0 -3 9 -13 20 -10 11 -20 20 -23
20 -3 0 3 -9 13 -20z"/>
<path d="M1465 2295 c17 -8 37 -14 45 -14 8 0 -1 7 -20 14 -46 18 -64 17 -25
0z"/>
<path d="M1102 2273 c-29 -10 -42 -20 -38 -29 3 -8 -3 -22 -14 -31 -20 -20
-38 -73 -23 -73 15 0 34 -63 22 -71 -21 -12 2 -29 39 -29 55 0 82 10 82 30 0
18 -30 50 -46 50 -22 0 -60 65 -45 75 5 3 7 14 4 25 -10 39 89 45 134 8 7 -5
17 -7 22 -4 5 4 13 2 16 -4 4 -6 15 -8 26 -5 15 5 19 1 19 -14 0 -12 5 -21 11
-21 6 0 8 7 5 16 -3 9 -6 20 -6 25 0 5 -9 9 -20 9 -17 0 -91 21 -130 37 -9 4
1 9 25 13 l40 7 -40 0 c-22 0 -59 -6 -83 -14z"/>
<path d="M1300 2280 c36 -4 90 -10 120 -13 l55 -6 -65 14 c-36 8 -90 14 -120
13 l-55 -1 65 -7z"/>
<path d="M1518 2253 c7 -3 16 -2 19 1 4 3 -2 6 -13 5 -11 0 -14 -3 -6 -6z"/>
<path d="M3055 2248 c-16 -6 -41 -19 -55 -28 -14 -10 -52 -31 -85 -48 -65 -33
-131 -92 -103 -92 9 0 18 3 20 8 5 12 98 67 188 111 76 37 89 40 120 31 29 -8
32 -8 20 4 -21 20 -70 26 -105 14z"/>
<path d="M1348 2203 c12 -2 30 -2 40 0 9 3 -1 5 -23 4 -22 0 -30 -2 -17 -4z"/>
<path d="M1410 2190 c-30 -4 -75 -15 -99 -24 -53 -19 -52 -19 -45 -1 9 23 -20
18 -44 -8 -26 -27 -28 -42 -7 -33 8 3 15 1 15 -4 0 -20 38 -14 75 12 37 26 48
28 147 31 111 2 135 10 72 21 -19 4 -41 9 -47 10 -7 2 -37 0 -67 -4z"/>
<path d="M3070 2144 c-71 -34 -130 -77 -130 -97 0 -4 19 7 43 27 23 19 56 40
72 45 30 11 30 11 8 -6 -11 -10 -38 -31 -59 -47 -21 -17 -32 -32 -26 -34 6 -2
31 12 54 31 24 19 69 49 101 67 48 27 65 32 100 27 38 -5 40 -4 23 9 -35 25
-105 17 -186 -22z"/>
<path d="M1487 2148 c18 -7 38 -19 45 -25 15 -16 -14 -17 -122 -3 -41 6 -78 6
-83 1 -4 -4 20 -11 55 -14 34 -3 64 -11 66 -17 3 -7 8 -8 16 -1 8 7 24 7 49
-1 36 -11 67 0 67 24 0 10 -53 34 -96 42 -29 6 -29 6 3 -6z"/>
<path d="M2200 2119 c-15 -28 -7 -34 14 -10 11 12 13 21 7 25 -5 4 -15 -3 -21
-15z"/>
<path d="M958 2101 c-22 -25 -27 -27 -43 -15 -10 8 -29 14 -42 14 -18 0 -23
-6 -23 -25 0 -14 -3 -24 -7 -24 -19 3 -31 -2 -36 -15 -4 -11 -1 -13 10 -9 9 4
21 -1 28 -11 33 -44 121 -15 131 44 4 19 11 43 16 53 14 27 -7 20 -34 -12z"/>
<path d="M2082 2118 c2 -5 8 -9 13 -9 5 0 11 4 13 9 1 5 -4 9 -13 9 -9 0 -14
-4 -13 -9z"/>
<path d="M528 2087 c-3 -19 -2 -25 4 -19 6 6 8 18 6 28 -3 14 -5 12 -10 -9z"/>
<path d="M1840 2075 c0 -16 16 -20 24 -6 3 5 -1 11 -9 15 -9 3 -15 0 -15 -9z"/>
<path d="M3202 2076 c-42 -19 -100 -64 -112 -87 -7 -12 17 -4 83 29 71 36 103
46 140 46 65 -1 44 18 -25 23 -32 2 -66 -2 -86 -11z"/>
<path d="M2791 2035 c-74 -28 -95 -45 -88 -71 4 -17 5 -17 12 2 4 13 18 24 33
27 37 8 132 50 132 60 0 11 -20 7 -89 -18z"/>
<path d="M2851 2020 c-47 -24 -52 -28 -33 -34 20 -7 94 23 106 43 13 21 -23
16 -73 -9z"/>
<path d="M330 2006 c0 -2 7 -9 15 -16 9 -7 15 -8 15 -2 0 5 -7 12 -15 16 -8 3
-15 4 -15 2z"/>
<path d="M808 2003 c7 -3 16 -2 19 1 4 3 -2 6 -13 5 -11 0 -14 -3 -6 -6z"/>
<path d="M2167 1985 c10 -18 83 -57 77 -41 -5 12 -66 56 -78 56 -4 0 -3 -7 1
-15z"/>
<path d="M2920 1990 c0 -5 5 -10 11 -10 5 0 7 5 4 10 -3 6 -8 10 -11 10 -2 0
-4 -4 -4 -10z"/>
<path d="M3290 1978 c-51 -11 -76 -28 -42 -28 12 0 22 -6 22 -12 0 -9 3 -8 10
2 6 10 28 15 74 15 50 0 62 3 53 11 -19 18 -67 23 -117 12z"/>
<path d="M557 1965 c-4 -8 0 -21 7 -27 12 -11 12 -16 -2 -33 -17 -20 -17 -20
6 -1 15 13 22 29 20 45 -3 28 -23 39 -31 16z"/>
<path d="M510 1960 c0 -5 5 -10 10 -10 6 0 10 5 10 10 0 6 -4 10 -10 10 -5 0
-10 -4 -10 -10z"/>
<path d="M3176 1961 c-3 -5 1 -14 9 -21 8 -7 15 -20 16 -29 0 -9 5 -3 11 13 8
22 7 30 -3 37 -18 11 -26 11 -33 0z"/>
<path d="M2670 1950 c0 -5 5 -10 11 -10 5 0 7 5 4 10 -3 6 -8 10 -11 10 -2 0
-4 -4 -4 -10z"/>
<path d="M3253 1879 c-38 -24 -42 -39 -10 -36 28 3 87 35 87 47 0 17 -44 11
-77 -11z"/>
<path d="M3346 1889 c2 -5 -8 -15 -23 -23 -35 -18 -64 -57 -87 -120 -18 -46
-20 -48 -49 -42 -17 3 -38 12 -46 20 -9 7 -43 16 -76 20 -49 4 -55 4 -32 -5
38 -15 31 -37 -18 -65 -48 -28 -56 -29 -48 -8 5 14 2 14 -28 -1 -19 -10 -48
-29 -65 -41 -17 -13 -33 -24 -36 -24 -14 0 -180 -81 -176 -85 3 -3 34 8 69 24
60 29 92 33 58 8 -83 -62 -141 -136 -178 -225 -17 -40 -27 -72 -23 -72 5 0 24
35 44 78 62 133 155 216 348 312 47 23 93 49 102 57 15 13 24 13 67 2 28 -7
51 -18 51 -24 0 -10 -43 -34 -85 -47 -36 -11 -257 -141 -303 -178 -60 -48 -68
-66 -40 -83 13 -9 21 -7 36 6 10 9 26 17 36 17 9 0 27 7 40 15 13 9 68 33 122
54 141 56 282 124 264 128 -9 2 -67 -21 -130 -50 -136 -64 -187 -83 -197 -74
-4 4 3 14 15 23 12 8 22 22 22 30 0 8 5 14 12 14 6 0 21 9 32 19 41 39 199
123 220 117 12 -3 34 -8 51 -12 16 -4 47 -20 69 -36 44 -32 56 -35 56 -13 0 9
9 15 21 15 12 0 19 5 17 13 -3 7 -33 15 -74 19 -83 8 -150 33 -136 51 5 7 18
36 28 66 19 54 42 73 80 66 11 -2 23 -4 27 -4 5 -1 6 -5 2 -10 -5 -9 24 -31
42 -31 4 0 20 11 35 25 15 14 32 25 38 25 21 0 9 21 -17 30 -16 6 -36 14 -45
20 -20 12 -100 11 -92 -1z m86 -49 c-22 -21 -37 -27 -27 -11 3 6 -3 15 -12 21
-15 8 -13 9 8 4 16 -3 30 -1 34 6 4 6 10 9 13 6 3 -4 -4 -15 -16 -26z m-482
-329 c0 -15 -79 -91 -95 -91 -30 0 -14 27 38 63 58 41 57 40 57 28z"/>
<path d="M2850 1856 c0 -2 8 -10 18 -17 15 -13 16 -12 3 4 -13 16 -21 21 -21
13z"/>
<path d="M3082 1808 c4 -74 28 -77 28 -4 0 44 -3 56 -16 56 -12 0 -14 -10 -12
-52z"/>
<path d="M3197 1824 c3 -7 9 -14 14 -14 14 0 10 17 -5 23 -10 4 -13 1 -9 -9z"/>
<path d="M3380 1769 c0 -5 5 -7 10 -4 6 3 10 8 10 11 0 2 -4 4 -10 4 -5 0 -10
-5 -10 -11z"/>
<path d="M2475 1760 c-3 -5 1 -10 9 -10 8 0 18 5 21 10 3 6 -1 10 -9 10 -8 0
-18 -4 -21 -10z"/>
<path d="M239 1743 c-13 -15 -12 -15 9 -4 23 12 28 21 13 21 -5 0 -15 -7 -22
-17z"/>
<path d="M3427 1744 c-4 -12 -5 -28 -2 -37 7 -17 -10 -32 -20 -17 -7 12 -25 4
-25 -12 0 -5 6 -8 14 -5 7 3 19 0 25 -6 17 -17 22 -3 19 49 -2 37 -5 44 -11
28z"/>
<path d="M2290 1716 c-65 -29 -80 -41 -122 -96 -28 -36 -48 -74 -48 -88 0 -23
-3 -24 -35 -19 -32 5 -35 4 -35 -18 0 -17 15 -34 60 -64 33 -23 62 -41 65 -41
11 0 4 56 -9 73 -19 24 -3 101 29 143 14 18 25 38 25 44 0 15 48 32 198 70 23
6 42 16 42 22 0 9 -3 9 -12 0 -15 -15 -48 -16 -48 -2 0 17 -31 10 -110 -24z"/>
<path d="M1155 1682 c4 -9 10 -28 13 -40 4 -21 1 -23 -21 -20 -14 1 -25 -1
-24 -7 1 -5 5 -9 10 -7 4 1 7 -2 7 -8 0 -13 37 -13 45 1 4 6 13 8 21 5 8 -3
11 0 7 10 -3 7 0 14 6 14 6 0 11 -4 11 -10 0 -12 27 -13 34 -1 10 15 -6 43
-20 37 -44 -18 -49 -19 -29 -3 24 19 14 32 -34 41 -29 5 -32 4 -26 -12z"/>
<path d="M3508 1635 c2 -19 6 -35 8 -35 2 0 4 16 4 35 0 19 -4 35 -8 35 -4 0
-6 -16 -4 -35z"/>
<path d="M1085 1620 c3 -5 8 -10 11 -10 2 0 4 5 4 10 0 6 -5 10 -11 10 -5 0
-7 -4 -4 -10z"/>
<path d="M2500 1603 c-67 -24 -145 -71 -136 -81 3 -3 14 3 25 12 10 10 52 30
93 46 40 16 64 29 53 29 -11 0 -27 -3 -35 -6z"/>
<path d="M3490 1586 c0 -8 4 -17 9 -20 5 -4 7 3 4 14 -6 23 -13 26 -13 6z"/>
<path d="M1120 1550 c0 -5 5 -10 10 -10 6 0 10 5 10 10 0 6 -4 10 -10 10 -5 0
-10 -4 -10 -10z"/>
<path d="M2594 1472 c-23 -20 -47 -46 -55 -57 -8 -11 11 2 41 29 30 27 59 53
65 58 5 5 5 8 0 8 -6 0 -28 -17 -51 -38z"/>
<path d="M2217 1463 c-12 -11 -8 -23 8 -23 9 0 15 -9 15 -22 0 -16 3 -19 9
-10 19 30 -9 78 -32 55z"/>
<path d="M2376 1336 c-3 -13 -9 -32 -12 -43 -5 -12 -4 -15 3 -8 15 14 34 75
24 75 -5 0 -12 -11 -15 -24z"/>
<path d="M570 1251 c0 -7 -6 -11 -15 -8 -8 4 -17 2 -20 -3 -3 -4 0 -10 5 -12
7 -2 5 -11 -5 -23 -14 -19 -16 -19 -29 -2 -7 9 -17 17 -21 17 -4 0 -2 -7 5
-15 9 -10 9 -15 1 -15 -6 0 -11 -4 -11 -9 0 -13 99 -6 113 8 6 6 7 11 2 11 -4
0 0 9 9 19 10 11 16 26 13 33 -4 8 -6 7 -6 -4 -1 -10 -5 -18 -11 -18 -5 0 -14
8 -19 18 -7 11 -10 12 -11 3z"/>
<path d="M2450 1240 c0 -5 5 -10 10 -10 6 0 10 5 10 10 0 6 -4 10 -10 10 -5 0
-10 -4 -10 -10z"/>
<path d="M420 1214 c0 -9 5 -14 12 -12 18 6 21 28 4 28 -9 0 -16 -7 -16 -16z"/>
<path d="M445 1170 c-3 -5 1 -10 9 -10 9 0 16 5 16 10 0 6 -4 10 -9 10 -6 0
-13 -4 -16 -10z"/>
<path d="M2558 1043 c6 -2 18 -2 25 0 6 3 1 5 -13 5 -14 0 -19 -2 -12 -5z"/>
<path d="M1530 1020 c0 -5 5 -10 11 -10 5 0 7 5 4 10 -3 6 -8 10 -11 10 -2 0
-4 -4 -4 -10z"/>
<path d="M1570 1006 c0 -2 7 -9 15 -16 12 -10 15 -10 15 4 0 9 -7 16 -15 16
-8 0 -15 -2 -15 -4z"/>
<path d="M1614 984 c3 -8 1 -14 -5 -14 -6 0 -7 -4 -4 -10 4 -6 -13 -10 -44
-10 -41 0 -49 -3 -45 -15 4 -9 19 -15 39 -15 41 0 113 -25 140 -49 35 -31 49
-36 36 -14 -6 11 -7 23 -4 27 3 3 1 6 -5 6 -7 0 -12 13 -12 28 0 24 -8 32 -51
55 -35 18 -49 21 -45 11z m16 -44 c0 -5 -5 -10 -11 -10 -5 0 -7 5 -4 10 3 6 8
10 11 10 2 0 4 -4 4 -10z"/>
</g>
</svg>
