<?xml version="1.0" standalone="no"?>
<!DOCTYPE svg PUBLIC "-//W3C//DTD SVG 20010904//EN"
 "http://www.w3.org/TR/2001/REC-SVG-20010904/DTD/svg10.dtd">
<svg version="1.0" xmlns="http://www.w3.org/2000/svg"
 width="334.000000pt" height="320.000000pt" viewBox="0 0 334.000000 320.000000"
 preserveAspectRatio="xMidYMid meet">

<g transform="translate(0.000000,320.000000) scale(0.100000,-0.100000)"
fill="#000000" stroke="none">
<path d="M1440 3025 c-453 -75 -845 -359 -1053 -763 -59 -114 -121 -298 -142
-423 -32 -198 -16 -462 40 -648 47 -157 125 -320 156 -328 13 -4 18 -11 14
-23 -10 -33 143 -222 265 -327 185 -159 390 -264 630 -320 156 -36 392 -43
555 -15 520 89 949 450 1124 945 58 166 75 271 75 477 0 142 -4 205 -18 270
-30 143 -75 269 -137 390 -197 382 -548 652 -978 751 -115 27 -408 35 -531 14z
m461 -71 c483 -82 897 -431 1059 -893 63 -177 75 -251 75 -461 0 -207 -12
-281 -72 -455 -88 -255 -271 -500 -490 -658 -156 -112 -364 -202 -548 -238
-107 -21 -428 -19 -533 4 -491 107 -879 455 -1031 926 -88 272 -86 591 6 861
161 473 580 833 1067 914 115 20 352 20 467 0z"/>
<path d="M1539 2929 c-172 -16 -361 -75 -518 -161 -219 -121 -436 -348 -549
-573 -37 -75 -94 -235 -88 -249 2 -6 6 -5 9 4 86 266 183 427 362 598 191 184
397 293 658 349 104 22 388 25 492 4 268 -53 502 -178 695 -371 188 -187 306
-403 361 -661 32 -149 32 -390 0 -539 -39 -181 -127 -379 -233 -519 -113 -150
-305 -310 -473 -394 -281 -139 -607 -174 -915 -96 -499 126 -886 548 -974
1058 -20 119 -21 322 -1 436 16 91 14 125 -4 59 -34 -129 -36 -343 -6 -516 72
-407 357 -779 740 -963 186 -89 354 -126 575 -127 356 0 679 132 930 381 116
116 182 203 249 331 239 457 194 1009 -116 1421 -280 372 -729 571 -1194 528z"/>
<path d="M2280 2124 c0 -37 16 -61 45 -68 69 -17 -7 -46 -142 -53 -74 -4 -93
-8 -93 -20 0 -13 -3 -13 -15 -3 -14 11 -128 10 -250 -3 -16 -2 -80 -4 -142 -5
-102 -2 -112 -4 -118 -22 -3 -11 -10 -20 -15 -20 -4 0 -6 9 -3 20 5 19 0 20
-75 20 -48 0 -116 9 -169 22 -61 14 -122 21 -198 22 -97 1 -114 -2 -145 -21
-19 -12 -49 -29 -65 -38 -17 -8 -40 -30 -50 -48 -19 -30 -20 -48 -17 -261 l3
-229 -27 -28 c-23 -24 -28 -38 -27 -77 0 -27 8 -62 16 -78 l15 -29 7 38 c4 20
16 49 27 63 19 23 20 41 22 267 1 189 4 247 15 267 l14 25 9 -30 c4 -16 11
-91 14 -165 6 -109 4 -149 -10 -210 -22 -96 -14 -201 17 -231 17 -16 18 -19 4
-19 -14 0 -16 -12 -13 -91 2 -50 8 -94 14 -98 5 -3 12 -17 13 -31 4 -22 9 -25
53 -28 56 -4 55 -6 17 98 -11 30 -20 74 -21 98 0 30 -4 42 -15 42 -8 0 -15 5
-15 11 0 6 6 9 14 6 11 -4 19 9 31 49 27 92 43 68 77 -106 11 -58 26 -112 33
-120 6 -8 15 -23 18 -32 5 -14 18 -18 51 -18 55 0 63 11 36 50 -11 16 -30 51
-42 77 -38 85 -22 276 21 257 36 -16 188 -44 213 -40 15 3 28 0 30 -6 5 -13
291 -17 386 -5 l62 8 0 -36 c0 -30 3 -35 23 -35 17 0 19 -2 8 -9 -14 -9 -15
-31 -12 -248 l1 -33 55 0 c59 0 67 10 40 46 -19 25 -19 140 0 207 8 29 13 61
12 71 -1 10 3 21 8 23 11 3 35 -150 35 -221 0 -22 5 -55 12 -73 12 -32 14 -33
65 -33 29 0 53 3 53 6 0 4 -9 21 -19 38 -26 42 -44 156 -31 191 5 14 10 46 10
71 0 43 24 84 50 84 16 0 69 80 63 96 -3 8 0 14 6 14 6 0 23 26 37 57 23 54
24 58 8 70 -10 7 -15 16 -11 19 4 4 13 1 21 -5 12 -10 21 -3 49 42 20 30 39
57 44 60 4 3 64 8 133 11 138 7 170 19 170 62 0 18 -18 45 -59 87 -33 34 -62
73 -66 87 -3 14 -28 50 -55 79 l-49 54 -54 -6 c-47 -6 -58 -4 -87 18 -45 33
-70 33 -70 -1z m-1170 -154 c0 -11 -4 -20 -10 -20 -5 0 -10 9 -10 20 0 11 5
20 10 20 6 0 10 -9 10 -20z m240 -30 c0 -11 -4 -20 -10 -20 -5 0 -10 9 -10 20
0 11 5 20 10 20 6 0 10 -9 10 -20z m486 -6 c-3 -9 -6 -18 -6 -20 0 -2 -4 -4
-9 -4 -5 0 -7 9 -4 20 3 11 10 20 15 20 6 0 7 -7 4 -16z m274 -5 c0 -11 -4
-17 -10 -14 -5 3 -10 13 -10 21 0 8 5 14 10 14 6 0 10 -9 10 -21z m-1010 -18
c0 -11 -4 -23 -10 -26 -6 -4 -10 5 -10 19 0 14 5 26 10 26 6 0 10 -9 10 -19z
m451 -38 c-9 -16 -10 -14 -11 12 0 21 3 26 11 18 8 -8 8 -16 0 -30z m-215 -10
c-11 -11 -19 6 -11 24 8 17 8 17 12 0 3 -10 2 -21 -1 -24z m487 -3 c-3 -11 -9
-18 -13 -15 -5 3 -6 14 -3 25 3 11 9 18 13 15 5 -3 6 -14 3 -25z m314 15 c9
-25 -4 -29 -17 -6 -7 15 -7 21 0 21 6 0 13 -7 17 -15z m-1047 -35 c0 -11 -4
-20 -10 -20 -5 0 -10 9 -10 20 0 11 5 20 10 20 6 0 10 -9 10 -20z m460 -20 c0
-11 -4 -20 -10 -20 -5 0 -10 9 -10 20 0 11 5 20 10 20 6 0 10 -9 10 -20z m614
4 c9 -22 -3 -32 -14 -14 -12 19 -12 30 -1 30 5 0 12 -7 15 -16z m-834 -15 c0
-11 -4 -18 -10 -14 -5 3 -7 12 -3 20 7 21 13 19 13 -6z m490 -3 c0 -8 -4 -18
-10 -21 -5 -3 -10 3 -10 14 0 12 5 21 10 21 6 0 10 -6 10 -14z m-743 -38 c-3
-7 -5 -2 -5 12 0 14 2 19 5 13 2 -7 2 -19 0 -25z m473 -8 c0 -11 -4 -20 -10
-20 -5 0 -10 9 -10 20 0 11 5 20 10 20 6 0 10 -9 10 -20z m649 6 c8 -9 8 -16
2 -20 -6 -4 -15 3 -21 14 -12 23 2 27 19 6z m-869 -16 c0 -11 -4 -20 -10 -20
-5 0 -10 9 -10 20 0 11 5 20 10 20 6 0 10 -9 10 -20z m480 -10 c0 -11 -4 -20
-10 -20 -5 0 -10 9 -10 20 0 11 5 20 10 20 6 0 10 -9 10 -20z m-730 -27 c0
-20 -3 -24 -11 -16 -7 7 -9 19 -6 27 10 24 17 19 17 -11z m1159 -9 c3 -16 1
-17 -13 -5 -19 16 -21 34 -3 29 6 -3 14 -13 16 -24z m-909 -21 c-1 -24 -2 -26
-11 -10 -5 9 -7 22 -4 27 10 17 15 11 15 -17z m220 7 c0 -11 -4 -20 -10 -20
-5 0 -10 9 -10 20 0 11 5 20 10 20 6 0 10 -9 10 -20z m260 -15 c0 -8 -4 -17
-10 -20 -6 -4 -10 5 -10 20 0 15 4 24 10 20 6 -3 10 -12 10 -20z m476 -22 c-7
-7 -26 7 -26 19 0 6 6 6 15 -2 9 -7 13 -15 11 -17z m-1196 -3 c0 -11 -4 -20
-10 -20 -5 0 -10 9 -10 20 0 11 5 20 10 20 6 0 10 -9 10 -20z m470 -32 c0 -5
-4 -8 -10 -8 -5 0 -10 10 -10 23 0 18 2 19 10 7 5 -8 10 -18 10 -22z m-220 2
c0 -11 -4 -20 -10 -20 -5 0 -10 9 -10 20 0 11 5 20 10 20 6 0 10 -9 10 -20z
m470 -10 c0 -11 -4 -20 -10 -20 -5 0 -10 9 -10 20 0 11 5 20 10 20 6 0 10 -9
10 -20z m-710 -26 c0 -8 -4 -14 -10 -14 -5 0 -10 9 -10 21 0 11 5 17 10 14 6
-3 10 -13 10 -21z m462 -38 c-3 -5 -9 -1 -12 10 -4 10 -5 23 -2 28 3 5 9 1 12
-10 4 -10 5 -23 2 -28z m-212 14 c0 -11 -4 -20 -10 -20 -5 0 -10 9 -10 20 0
11 5 20 10 20 6 0 10 -9 10 -20z m460 -21 c0 -12 7 -19 20 -19 11 0 20 -4 20
-10 0 -10 -27 -3 -47 13 -15 11 -18 51 -3 42 6 -3 10 -15 10 -26z m-696 -14
c3 -8 13 -15 21 -15 9 0 13 -5 10 -10 -5 -8 -11 -7 -21 1 -8 6 -14 8 -14 3 0
-11 -20 18 -20 29 0 13 18 7 24 -8z m161 -5 c4 -6 -5 -10 -20 -10 -15 0 -24 4
-20 10 3 6 12 10 20 10 8 0 17 -4 20 -10z m65 0 c0 -5 -9 -10 -20 -10 -11 0
-20 5 -20 10 0 6 9 10 20 10 11 0 20 -4 20 -10z m64 -1 c-3 -6 -15 -8 -26 -6
-15 4 -18 1 -13 -14 4 -11 2 -19 -4 -19 -12 0 -15 33 -4 43 11 12 55 8 47 -4z
m59 4 c-7 -2 -21 -2 -30 0 -10 3 -4 5 12 5 17 0 24 -2 18 -5z m60 0 c-7 -2
-19 -2 -25 0 -7 3 -2 5 12 5 14 0 19 -2 13 -5z m73 -2 c-3 -5 -15 -7 -26 -4
-28 7 -25 13 6 13 14 0 23 -4 20 -9z m64 -1 c0 -5 -9 -10 -20 -10 -11 0 -20 5
-20 10 0 6 9 10 20 10 11 0 20 -4 20 -10z m60 0 c0 -5 -9 -10 -20 -10 -11 0
-20 5 -20 10 0 6 9 10 20 10 11 0 20 -4 20 -10z m70 0 c0 -5 -9 -10 -20 -10
-11 0 -20 5 -20 10 0 6 9 10 20 10 11 0 20 -4 20 -10z m-580 -10 c0 -5 -9 -10
-20 -10 -11 0 -20 5 -20 10 0 6 9 10 20 10 11 0 20 -4 20 -10z m710 0 c0 -5
-9 -10 -19 -10 -11 0 -23 5 -26 10 -4 6 5 10 19 10 14 0 26 -4 26 -10z m55 0
c3 -5 -3 -10 -14 -10 -12 0 -21 5 -21 10 0 6 6 10 14 10 8 0 18 -4 21 -10z
m65 -10 c0 -5 -6 -10 -14 -10 -8 0 -18 5 -21 10 -3 6 3 10 14 10 12 0 21 -4
21 -10z m98 -2 c17 1 32 -3 32 -8 0 -6 -9 -10 -20 -10 -11 0 -23 -7 -26 -15
-9 -23 -26 -18 -19 5 5 16 2 20 -14 20 -12 0 -21 5 -21 11 0 7 7 8 18 3 9 -4
32 -7 50 -6z m-318 -30 c0 -5 -4 -8 -10 -8 -5 0 -10 10 -10 23 0 18 2 19 10 7
5 -8 10 -18 10 -22z m413 11 c-8 -8 -16 -8 -30 0 -16 9 -14 10 12 11 21 0 26
-3 18 -11z m-1095 -17 c6 -18 -15 -14 -22 4 -4 10 -1 14 6 12 6 -2 14 -10 16
-16z m252 -42 c-1 -12 -4 -11 -15 4 -8 10 -12 23 -8 29 7 11 23 -12 23 -33z
m435 -18 c-8 -9 -25 20 -18 31 3 5 10 2 15 -7 6 -10 7 -20 3 -24z m-656 2 c3
-16 1 -17 -13 -5 -19 16 -21 34 -3 29 6 -3 14 -13 16 -24z m939 9 c-2 -9 -8
-18 -15 -20 -7 -3 -9 3 -6 16 6 25 26 28 21 4z m-690 -49 c-10 -10 -28 6 -28
24 0 15 1 15 17 -1 9 -9 14 -19 11 -23z m422 -15 c0 -11 -4 -17 -10 -14 -5 3
-10 15 -10 26 0 11 5 17 10 14 6 -3 10 -15 10 -26z m238 9 c-2 -6 -10 -14 -16
-16 -7 -2 -10 2 -6 12 7 18 28 22 22 4z m-93 -87 c-8 -13 -35 -15 -35 -2 0 5
8 11 18 13 21 5 26 2 17 -11z"/>
</g>
</svg>
