<?xml version="1.0" standalone="no"?>
<!DOCTYPE svg PUBLIC "-//W3C//DTD SVG 20010904//EN"
 "http://www.w3.org/TR/2001/REC-SVG-20010904/DTD/svg10.dtd">
<svg version="1.0" xmlns="http://www.w3.org/2000/svg"
 width="900.000000pt" height="520.000000pt" viewBox="0 0 900.000000 520.000000"
 preserveAspectRatio="xMidYMid meet">

<g transform="translate(0.000000,520.000000) scale(0.100000,-0.100000)"
fill="#000000" stroke="none">
<path d="M4915 4579 c-456 -46 -1022 -258 -1517 -566 -103 -64 -128 -92 -128
-142 0 -44 13 -67 145 -241 58 -77 105 -143 105 -147 0 -4 -48 -35 -107 -68
-58 -33 -174 -104 -257 -157 -83 -54 -160 -98 -171 -98 -32 1 -131 45 -190 85
-30 21 -114 87 -187 147 -226 185 -329 244 -476 268 -89 15 -131 8 -166 -27
-25 -25 -26 -31 -26 -134 0 -239 67 -568 159 -784 l28 -68 -43 -93 c-85 -181
-132 -390 -141 -621 -5 -124 -3 -146 11 -169 29 -43 72 -55 165 -44 217 25
332 88 571 316 225 213 239 218 362 128 142 -105 365 -254 494 -329 l123 -72
-185 -184 c-102 -101 -192 -196 -200 -211 -30 -57 -9 -133 43 -157 15 -7 139
-58 276 -112 168 -67 260 -99 287 -99 35 0 74 23 340 202 l299 202 53 -13
c570 -136 962 -108 1393 98 106 50 301 168 398 239 294 218 562 521 656 744
22 55 26 77 26 168 0 91 -4 113 -26 168 -63 148 -179 303 -363 487 -281 279
-611 489 -928 591 -62 20 -122 39 -133 44 -12 4 -100 134 -209 309 -104 166
-202 313 -218 326 -26 22 -38 25 -106 24 -42 -1 -113 -5 -157 -10z m237 -359
c47 -74 101 -160 120 -190 l35 -55 -141 -3 c-411 -7 -844 -117 -1322 -334
l-121 -56 -93 125 c-51 68 -91 125 -89 127 20 17 225 129 344 189 287 143 580
248 850 302 122 25 315 46 326 35 4 -3 45 -66 91 -140z m308 -485 c102 -22
202 -51 282 -82 l66 -25 -63 -54 c-568 -482 -568 -1386 0 -1868 l63 -54 -81
-30 c-199 -75 -321 -97 -537 -96 -166 0 -246 9 -420 45 -527 110 -1148 428
-1748 893 -79 61 -110 92 -128 128 -43 84 -25 186 43 250 16 14 105 77 198
140 645 435 1254 689 1830 764 130 17 395 11 495 -11z m663 -280 c136 -85 242
-169 371 -295 179 -174 302 -341 340 -464 17 -53 17 -59 0 -112 -68 -216 -413
-581 -731 -772 l-72 -44 -63 43 c-80 54 -202 176 -255 254 -279 412 -231 938
116 1285 64 64 183 158 202 159 3 1 44 -24 92 -54z m-3880 -76 c84 -42 134
-78 262 -183 61 -50 146 -115 190 -145 44 -30 79 -59 77 -65 -2 -6 -14 -22
-27 -36 -35 -36 -74 -130 -86 -201 -18 -110 19 -251 86 -331 l26 -31 -49 -32
c-26 -18 -102 -84 -168 -147 -122 -116 -175 -158 -253 -198 -32 -16 -116 -47
-137 -50 0 0 3 30 8 68 21 174 65 334 135 482 24 52 45 109 45 126 0 17 -16
75 -36 128 -56 149 -105 328 -126 461 -26 170 -28 185 -17 185 5 0 37 -14 70
-31z m1912 -1846 c50 -19 94 -37 98 -40 8 -5 -369 -263 -383 -263 -8 0 -284
111 -289 116 -3 3 62 73 145 157 l149 152 95 -44 c52 -24 136 -59 185 -78z"/>
<path d="M6055 2831 c-168 -78 -164 -314 7 -385 153 -64 318 79 278 242 -30
128 -169 197 -285 143z"/>
</g>
</svg>
