<?xml version="1.0" standalone="no"?>
<!DOCTYPE svg PUBLIC "-//W3C//DTD SVG 20010904//EN"
 "http://www.w3.org/TR/2001/REC-SVG-20010904/DTD/svg10.dtd">
<svg version="1.0" xmlns="http://www.w3.org/2000/svg"
 width="512.000000pt" height="512.000000pt" viewBox="0 0 512.000000 512.000000"
 preserveAspectRatio="xMidYMid meet">

<g transform="translate(0.000000,512.000000) scale(0.100000,-0.100000)"
fill="#000000" stroke="none">
<path d="M2021 5109 c-81 -24 -168 -107 -195 -187 -11 -31 -16 -83 -16 -164 0
-65 -2 -118 -4 -118 -2 0 -34 16 -71 36 -74 38 -104 39 -140 3 -20 -19 -20
-33 -20 -2325 l0 -2306 28 -24 28 -24 929 0 929 0 28 24 28 24 0 2305 c0 2217
-1 2306 -18 2325 -26 29 -61 35 -103 17 -35 -14 -37 -14 -66 10 -43 36 -79 53
-139 66 -28 6 -71 24 -95 41 -61 41 -138 55 -211 40 -43 -9 -68 -9 -98 -1 -56
16 -137 5 -192 -25 -25 -15 -47 -25 -48 -24 -1 2 -7 32 -13 67 -21 116 -97
204 -204 236 -59 17 -281 20 -337 4z m323 -163 c45 -29 66 -74 66 -142 0 -59
-1 -62 -39 -92 -22 -18 -48 -46 -58 -62 -13 -22 -31 -34 -72 -46 -64 -18 -123
-47 -167 -80 -38 -29 -36 -29 -79 -1 l-35 22 0 149 c0 129 3 155 20 190 34 71
77 86 232 82 80 -2 112 -7 132 -20z m488 -266 c23 -11 34 -11 65 3 74 32 113
26 167 -23 38 -35 49 -40 90 -40 26 0 56 -5 67 -11 17 -9 8 -18 -88 -82 -93
-62 -145 -101 -283 -214 l-26 -22 -30 62 c-42 88 -133 179 -223 220 -39 18
-68 36 -65 40 4 4 30 7 58 7 44 0 55 4 87 36 54 53 104 60 181 24z m-991 -242
c441 -275 794 -691 978 -1155 123 -311 181 -608 181 -933 0 -795 -385 -1537
-1035 -1996 -98 -70 -217 -144 -229 -144 -3 0 -6 965 -6 2145 0 1180 2 2145 5
2145 3 0 51 -28 106 -62z m1549 -2084 c0 -1835 -2 -2145 -14 -2141 -30 12
-186 113 -271 177 -162 121 -300 253 -433 412 -12 15 -7 28 51 115 72 107 178
306 228 423 343 819 250 1745 -249 2482 l-45 67 49 58 c138 164 322 325 509
447 160 105 159 105 168 105 4 1 7 -965 7 -2145z m-958 2105 c129 -28 235
-138 253 -264 5 -38 2 -43 -59 -110 l-65 -70 -73 80 c-84 93 -146 154 -243
238 -38 33 -71 63 -73 66 -7 18 127 69 185 70 12 1 46 -4 75 -10z m205 -3849
c129 -144 310 -302 455 -400 37 -25 68 -48 68 -52 0 -5 -270 -8 -600 -8 -330
0 -600 3 -600 8 0 4 17 18 38 31 143 92 373 291 493 428 35 40 67 72 71 70 4
-1 38 -36 75 -77z"/>
<path d="M2013 3815 c-16 -7 -33 -20 -37 -30 -8 -21 -8 -2728 0 -2750 10 -24
60 -46 89 -39 58 15 55 -73 55 1412 0 870 -4 1370 -10 1382 -15 28 -61 40 -97
25z"/>
<path d="M2296 3529 l-26 -20 0 -1098 0 -1098 23 -21 c31 -29 72 -28 102 3
l25 24 0 1091 0 1091 -25 24 c-30 30 -64 32 -99 4z"/>
<path d="M2584 3039 c-18 -20 -19 -45 -19 -630 l0 -608 22 -22 c32 -32 80 -30
110 5 l23 28 -2 603 c-3 577 -4 604 -22 624 -26 29 -86 29 -112 0z"/>
</g>
</svg>
