<?xml version="1.0" standalone="no"?>
<!DOCTYPE svg PUBLIC "-//W3C//DTD SVG 20010904//EN"
 "http://www.w3.org/TR/2001/REC-SVG-20010904/DTD/svg10.dtd">
<svg version="1.0" xmlns="http://www.w3.org/2000/svg"
 width="225.000000pt" height="225.000000pt" viewBox="0 0 225.000000 225.000000"
 preserveAspectRatio="xMidYMid meet">

<g transform="translate(0.000000,225.000000) scale(0.100000,-0.100000)"
fill="#000000" stroke="none">
<path d="M572 1770 c-251 -46 -453 -219 -470 -405 -4 -43 -10 -55 -43 -83 -73
-63 -75 -161 -5 -219 31 -25 35 -34 37 -85 2 -50 -1 -60 -24 -84 -55 -55 -55
-144 0 -197 25 -23 28 -32 25 -81 l-4 -56 -34 0 c-48 0 -70 -43 -38 -74 14
-14 128 -16 1109 -16 981 0 1095 2 1109 16 30 30 10 74 -34 74 -24 0 -30 4
-30 23 0 12 18 182 40 377 22 195 40 397 40 448 l0 92 -165 0 -165 0 0 128 c0
134 -5 152 -45 152 -40 0 -45 -18 -45 -152 l0 -128 -165 0 -165 0 0 -92 c0
-51 18 -253 40 -448 22 -195 40 -365 40 -377 0 -23 -2 -23 -135 -23 l-135 0 0
49 c0 43 3 51 23 56 34 11 75 54 88 93 21 64 -8 130 -73 163 -36 19 -38 22
-38 69 0 43 3 51 29 66 39 23 61 64 61 116 0 50 -28 103 -64 119 -20 9 -25 21
-30 69 -20 173 -191 340 -406 395 -77 20 -254 28 -328 15z m323 -111 c175 -53
299 -172 321 -308 l7 -41 -517 0 -516 0 0 33 c0 19 14 61 31 95 63 126 206
215 394 246 62 9 211 -3 280 -25z m1265 -274 l0 -25 -285 0 -285 0 0 25 0 25
285 0 285 0 0 -25z m-10 -132 c-1 -10 -18 -169 -39 -353 l-37 -335 -200 0
-199 0 -7 70 c-3 39 -20 193 -37 343 -17 151 -31 278 -31 283 0 5 116 9 275 9
255 0 275 -1 275 -17z m-1770 -80 l64 -48 -144 -3 c-80 -1 -155 0 -167 3 -35
8 -48 41 -28 71 15 23 21 24 113 24 l98 0 64 -47z m540 43 c0 -2 -49 -40 -109
-84 l-109 -80 -108 79 c-59 43 -110 81 -112 84 -3 3 94 5 216 5 122 0 222 -2
222 -4z m371 -6 c20 -11 25 -45 9 -70 -7 -12 -41 -16 -177 -18 -112 -2 -165 0
-158 7 6 5 35 28 65 50 55 40 55 40 148 41 51 0 102 -5 113 -10z m-658 -221
c31 -22 57 -42 57 -45 0 -2 -112 -4 -250 -4 l-250 0 0 45 0 45 193 0 192 0 58
-41z m587 -4 l0 -45 -257 0 c-141 0 -254 2 -252 5 3 2 30 22 60 44 l54 40 198
1 197 0 0 -45z m-845 -182 l65 -48 -146 -3 c-156 -3 -174 2 -174 44 0 37 36
54 117 54 70 0 74 -1 138 -47z m545 40 c0 -5 -50 -43 -110 -86 l-109 -78 -110
78 c-60 43 -110 81 -110 86 -1 4 98 7 219 7 121 0 220 -3 220 -7z m383 -2 c30
-12 39 -43 20 -70 -13 -20 -24 -21 -191 -21 l-176 0 69 50 69 50 93 0 c50 0
103 -4 116 -9z m-671 -227 c35 -25 65 -48 67 -50 2 -2 -111 -4 -252 -4 l-257
0 0 50 0 50 190 0 190 0 62 -46z m588 -4 l0 -50 -255 0 c-140 0 -255 2 -255 4
0 2 28 25 62 50 l62 46 193 0 193 0 0 -50z"/>
<path d="M486 1624 c-30 -30 -13 -74 29 -74 44 0 63 60 26 80 -27 14 -37 13
-55 -6z"/>
<path d="M862 1628 c-17 -17 -15 -53 3 -68 20 -17 62 -5 70 21 13 40 -44 76
-73 47z"/>
<path d="M290 1435 c-31 -38 27 -96 65 -65 18 15 20 51 3 68 -17 17 -53 15
-68 -3z"/>
<path d="M672 1438 c-15 -15 -15 -51 0 -66 18 -18 43 -15 63 8 37 41 -24 97
-63 58z"/>
<path d="M1040 1435 c-31 -38 27 -96 65 -65 18 15 20 51 3 68 -17 17 -53 15
-68 -3z"/>
</g>
</svg>
