<?xml version="1.0" standalone="no"?>
<!DOCTYPE svg PUBLIC "-//W3C//DTD SVG 20010904//EN"
 "http://www.w3.org/TR/2001/REC-SVG-20010904/DTD/svg10.dtd">
<svg version="1.0" xmlns="http://www.w3.org/2000/svg"
 width="260.000000pt" height="220.000000pt" viewBox="0 0 260.000000 220.000000"
 preserveAspectRatio="xMidYMid meet">

<g transform="translate(0.000000,220.000000) scale(0.100000,-0.100000)"
fill="#000000" stroke="none">
<path d="M1218 2152 l-93 -48 -80 22 c-118 33 -154 31 -192 -8 -17 -18 -42
-52 -57 -75 -14 -23 -34 -46 -43 -51 -10 -5 -56 -12 -102 -15 -54 -3 -89 -10
-98 -20 -9 -9 -20 -53 -27 -105 l-11 -91 -61 -55 c-65 -58 -84 -98 -84 -175 0
-83 40 -120 179 -161 116 -36 178 -26 321 47 l115 60 80 -9 c130 -14 157 -7
236 68 37 35 73 64 79 64 7 0 39 -26 73 -59 34 -32 72 -64 85 -70 40 -21 82
-3 154 67 61 59 70 64 91 55 16 -8 31 -31 46 -75 35 -97 72 -158 105 -175 40
-21 142 -21 181 -1 58 31 115 111 115 162 0 40 -9 53 -66 96 l-54 41 0 64 c0
58 -3 66 -31 95 -17 17 -46 42 -65 57 -32 24 -34 29 -34 87 0 71 -22 115 -72
147 -27 16 -45 19 -96 16 -62 -5 -63 -4 -111 39 -27 24 -56 44 -65 44 -8 0
-38 -20 -66 -45 -28 -25 -54 -45 -58 -45 -5 0 -29 13 -55 30 -59 37 -123 70
-137 70 -5 0 -51 -22 -102 -48z"/>
<path d="M1331 1419 c-56 -50 -100 -61 -227 -58 l-103 3 -93 -47 c-51 -25
-115 -52 -143 -58 -27 -6 -56 -13 -62 -15 -16 -4 -17 -79 -3 -228 20 -209 79
-427 158 -581 77 -150 232 -288 370 -330 22 -6 22 -5 22 78 0 69 3 87 18 100
23 21 46 22 66 1 12 -12 16 -36 16 -100 0 -84 0 -85 23 -79 99 30 223 116 298
209 131 162 222 462 236 776 6 142 5 148 -14 154 -34 11 -94 78 -120 134 -14
28 -28 52 -33 52 -5 0 -22 -11 -38 -25 -81 -68 -189 -61 -286 19 l-41 33 -44
-38z m-261 -374 c49 -52 17 -125 -55 -125 -37 0 -62 23 -71 67 -5 26 -1 37 19
57 34 34 76 34 107 1z m567 -1 c20 -20 24 -31 19 -57 -9 -43 -34 -67 -70 -67
-48 0 -76 25 -76 67 0 75 75 109 127 57z"/>
<path d="M227 1356 c-32 -29 -96 -74 -142 -102 -47 -27 -85 -53 -85 -57 0 -18
130 -138 167 -154 54 -23 187 -20 299 7 126 29 126 28 118 122 l-7 77 -71 21
c-96 30 -144 56 -186 100 l-35 38 -58 -52z"/>
<path d="M2296 1372 c-8 -15 -36 -48 -63 -73 -47 -44 -97 -67 -180 -84 l-33
-7 0 -63 c0 -63 0 -64 33 -74 83 -27 178 -42 264 -42 82 -1 99 2 137 25 40 23
146 129 146 144 0 4 -38 29 -85 56 -46 27 -109 71 -139 97 -30 27 -57 49 -60
49 -3 0 -12 -13 -20 -28z"/>
</g>
</svg>
