<?xml version="1.0" standalone="no"?>
<!DOCTYPE svg PUBLIC "-//W3C//DTD SVG 20010904//EN"
 "http://www.w3.org/TR/2001/REC-SVG-20010904/DTD/svg10.dtd">
<svg version="1.0" xmlns="http://www.w3.org/2000/svg"
 width="512.000000pt" height="512.000000pt" viewBox="0 0 512.000000 512.000000"
 preserveAspectRatio="xMidYMid meet">

<g transform="translate(0.000000,512.000000) scale(0.100000,-0.100000)"
fill="#000000" stroke="none">
<path d="M2430 5102 c-75 -21 -117 -41 -182 -88 -104 -74 -139 -86 -287 -100
-204 -19 -309 -67 -378 -169 -65 -99 -74 -166 -46 -327 20 -120 14 -148 -57
-238 -27 -36 -59 -89 -70 -118 -25 -66 -26 -175 -3 -248 l16 -52 -26 -31 c-14
-18 -29 -46 -32 -64 -3 -18 -4 -813 -3 -1767 3 -1619 4 -1737 20 -1766 22 -41
71 -90 112 -112 29 -16 108 -17 1049 -20 l1017 -2 50 21 c54 23 104 73 126
125 12 28 14 322 14 1787 l0 1754 -25 37 -25 37 20 72 c43 154 19 312 -65 426
-47 63 -134 129 -201 151 -19 6 -34 16 -34 21 0 5 13 35 29 67 37 76 44 105
31 151 -14 53 -62 93 -183 152 -76 37 -111 49 -146 49 -55 0 -105 -27 -129
-70 -9 -16 -19 -30 -22 -30 -3 0 -27 45 -53 99 -58 122 -140 206 -234 241 -81
31 -198 36 -283 12z m255 -167 c62 -36 109 -96 146 -184 17 -42 42 -97 55
-122 l23 -46 -105 -189 c-58 -104 -108 -192 -113 -197 -4 -4 -19 6 -35 21
l-27 29 50 201 c39 155 49 207 41 226 -18 49 -82 61 -118 24 -14 -16 -34 -78
-64 -198 l-44 -175 -39 0 -38 0 -23 70 c-63 187 -76 215 -105 231 -25 12 -34
13 -56 2 -15 -7 -34 -25 -42 -39 -13 -24 -11 -37 41 -185 l55 -159 -39 -46
c-22 -26 -50 -72 -62 -103 l-23 -57 -67 179 c-37 99 -76 192 -86 209 -23 38
-76 63 -133 63 -46 0 -95 -28 -146 -84 -14 -14 -28 -26 -31 -26 -4 0 -13 40
-20 90 -15 108 -4 161 44 211 50 52 105 70 255 85 160 15 206 29 306 95 143
93 193 111 294 104 44 -3 77 -12 106 -30z m560 -277 c47 -23 85 -48 85 -55 0
-7 -57 -127 -127 -267 l-127 -253 -67 -7 c-38 -3 -98 -17 -134 -30 -114 -41
-112 -35 92 333 98 176 181 321 185 321 4 0 46 -19 93 -42z m-1274 -533 c43
-116 79 -211 79 -211 0 -2 -98 -34 -104 -34 -3 0 -40 67 -81 150 -90 180 -92
198 -34 264 23 26 46 45 51 44 6 -2 46 -98 89 -213z m1431 146 c80 -36 124
-75 157 -142 26 -52 31 -74 31 -135 0 -121 -47 -236 -95 -233 -5 0 -23 27 -38
60 -34 72 -112 154 -183 194 l-52 29 61 123 c34 68 65 123 68 123 4 0 26 -9
51 -19z m-909 -110 c20 -8 162 -170 191 -219 5 -8 -2 -26 -16 -45 -61 -82 -93
-162 -103 -262 -11 -109 29 -235 108 -337 l36 -47 -74 -61 c-47 -39 -80 -58
-87 -54 -7 4 -55 41 -106 82 l-92 74 31 36 c18 20 44 61 58 92 22 46 26 69 26
145 0 78 -4 97 -28 147 -16 32 -51 80 -79 107 l-50 49 3 84 c4 74 8 90 34 127
29 43 89 91 112 91 6 0 23 -4 36 -9z m-691 -437 l-25 -52 -76 41 c-94 49 -119
71 -142 122 -39 84 -20 181 53 269 l32 39 92 -184 91 -184 -25 -51z m1375 170
c28 -14 69 -42 90 -63 42 -43 88 -125 80 -145 -3 -7 -65 -48 -138 -92 -74 -43
-188 -117 -253 -163 l-120 -84 -42 47 c-80 88 -101 229 -51 338 76 168 271
240 434 162z m-1001 -139 c119 -35 179 -176 121 -285 -12 -24 -34 -52 -48 -62
l-26 -20 -140 94 c-77 51 -147 98 -156 103 -40 27 53 152 129 173 55 14 64 14
120 -3z m-534 -180 c298 -162 610 -381 883 -619 91 -79 116 -96 142 -96 74 0
96 73 41 136 l-32 36 25 19 c287 229 603 441 821 550 l78 39 0 -842 c0 -475
-4 -838 -9 -832 -4 5 -35 47 -67 94 -150 219 -352 468 -516 638 -58 60 -86 82
-104 82 -37 0 -61 -16 -72 -49 -14 -41 0 -65 121 -195 198 -213 393 -468 559
-731 l88 -139 0 -358 0 -358 -132 89 c-529 354 -1152 638 -1778 811 l-175 48
-3 871 c-1 479 1 871 4 871 3 0 60 -29 126 -65z m32 -1876 c462 -133 955 -338
1356 -565 111 -62 487 -306 553 -357 15 -13 17 -39 17 -290 0 -151 -3 -283 -6
-292 -18 -46 -2 -45 -1044 -45 l-982 0 -29 29 -29 29 0 766 c0 573 3 766 12
766 6 0 75 -18 152 -41z"/>
</g>
</svg>
