<?xml version="1.0" standalone="no"?>
<!DOCTYPE svg PUBLIC "-//W3C//DTD SVG 20010904//EN"
 "http://www.w3.org/TR/2001/REC-SVG-20010904/DTD/svg10.dtd">
<svg version="1.0" xmlns="http://www.w3.org/2000/svg"
 width="279.000000pt" height="181.000000pt" viewBox="0 0 279.000000 181.000000"
 preserveAspectRatio="xMidYMid meet">

<g transform="translate(0.000000,181.000000) scale(0.100000,-0.100000)"
fill="#000000" stroke="none">
<path d="M1124 1766 c-21 -21 -34 -44 -34 -60 0 -28 -17 -35 -26 -11 -10 25
-104 65 -153 65 -86 -1 -172 -62 -202 -143 l-12 -35 -343 -4 c-188 -1 -345 -6
-349 -10 -25 -24 22 -28 346 -28 315 0 340 -1 345 -17 4 -10 17 -42 31 -71 55
-117 218 -148 318 -60 20 17 37 29 39 27 2 -2 9 -14 15 -27 15 -29 68 -62 99
-62 60 0 111 56 113 122 0 30 1 31 12 14 100 -160 273 -169 382 -21 14 19 14
19 15 -6 0 -39 40 -91 81 -107 68 -26 135 22 141 101 3 45 8 46 29 4 8 -17 37
-47 63 -64 42 -29 57 -33 111 -33 35 0 76 5 92 11 55 21 109 88 123 154 l6 30
127 3 c97 2 127 6 127 16 0 15 -81 26 -189 26 l-67 0 -13 35 c-17 49 -56 92
-104 116 -32 17 -54 20 -107 17 -80 -4 -125 -30 -166 -95 -15 -24 -27 -43 -28
-43 -1 0 -2 26 -3 57 -3 65 -20 96 -64 119 -68 35 -147 -16 -156 -100 l-6 -46
-34 40 c-43 50 -75 67 -140 76 -85 11 -169 -33 -211 -110 l-16 -31 -7 64 c-5
56 -11 69 -38 93 -46 42 -102 39 -147 -6z m130 -28 c13 -18 16 -53 16 -175 0
-140 -2 -155 -20 -173 -11 -11 -33 -20 -50 -20 -17 0 -39 9 -50 20 -18 18 -20
33 -20 177 0 179 5 193 71 193 28 0 42 -6 53 -22z m636 -4 c11 -11 16 -45 19
-140 5 -189 -7 -224 -76 -224 -68 0 -73 13 -73 191 l0 158 27 21 c31 24 76 21
103 -6z m-898 -37 c56 -34 81 -72 86 -132 3 -42 0 -62 -18 -93 -37 -66 -74
-87 -151 -87 -56 0 -71 4 -102 28 -49 37 -67 75 -67 140 0 131 141 212 252
144z m610 0 c61 -37 88 -82 88 -147 0 -106 -79 -177 -187 -168 -95 8 -153 72
-153 168 0 47 5 64 29 97 53 73 149 95 223 50z m637 -5 c14 -10 38 -35 54 -55
25 -30 30 -45 30 -91 0 -158 -187 -235 -295 -120 -108 116 -15 307 142 289 25
-3 56 -13 69 -23z"/>
<path d="M1019 1203 c0 -5 -1 -82 -2 -173 -2 -204 -18 -266 -84 -340 -53 -59
-106 -81 -132 -56 -13 14 -16 38 -15 131 0 85 -3 115 -12 115 -21 0 -131 -89
-184 -148 -28 -31 -68 -90 -88 -131 -32 -65 -37 -84 -40 -166 -3 -65 0 -108
12 -148 9 -30 16 -58 16 -61 0 -3 -98 -7 -217 -8 -244 -3 -234 0 -213 -77 13
-51 51 -96 101 -122 38 -19 62 -19 1273 -17 l1234 3 39 31 c46 36 85 108 81
149 l-3 30 -257 3 -257 2 7 33 c4 17 7 82 7 142 -1 91 -5 118 -22 157 -36 79
-159 198 -205 198 -16 0 -18 -9 -18 -73 0 -91 -20 -161 -59 -207 l-30 -35 -1
65 c-1 187 -61 321 -177 401 -48 33 -129 65 -178 71 l-29 3 3 -115 c1 -63 -2
-126 -8 -140 l-10 -25 0 26 c-1 14 -10 51 -21 83 -69 201 -205 323 -430 385
-86 24 -80 23 -81 14z m169 -85 c171 -70 280 -199 317 -375 29 -134 19 -170
-56 -208 -46 -24 -54 -10 -53 96 2 106 -3 109 -82 49 -62 -46 -123 -124 -156
-195 -21 -48 -27 -133 -16 -235 l3 -25 -304 0 -304 0 -19 55 c-35 103 -24 220
32 329 21 42 165 201 181 201 5 0 9 -31 9 -68 0 -50 6 -79 23 -112 21 -43 24
-45 64 -44 82 1 157 73 201 192 21 58 25 89 30 224 l5 158 26 -6 c14 -4 59
-20 99 -36z m509 -218 c57 -25 134 -98 162 -155 39 -79 52 -142 49 -254 -2
-118 3 -126 56 -90 64 43 115 150 116 242 0 29 4 47 12 47 20 0 103 -94 129
-146 21 -43 24 -62 24 -164 0 -76 -4 -123 -13 -138 l-13 -22 -512 2 -512 3
-13 55 c-27 115 13 232 112 330 l56 54 0 -34 c1 -55 17 -111 38 -133 18 -17
24 -18 57 -7 58 19 111 74 136 138 16 43 23 87 27 180 5 138 -2 131 89 92z
m1049 -725 c8 -21 -26 -85 -59 -109 -28 -21 -31 -21 -1266 -21 -1165 0 -1238
1 -1264 18 -34 22 -55 54 -63 95 l-6 32 1326 0 c1159 0 1327 -2 1332 -15z"/>
</g>
</svg>
