<?xml version="1.0" standalone="no"?>
<!DOCTYPE svg PUBLIC "-//W3C//DTD SVG 20010904//EN"
 "http://www.w3.org/TR/2001/REC-SVG-20010904/DTD/svg10.dtd">
<svg version="1.0" xmlns="http://www.w3.org/2000/svg"
 width="900.000000pt" height="529.000000pt" viewBox="0 0 900.000000 529.000000"
 preserveAspectRatio="xMidYMid meet">

<g transform="translate(0.000000,529.000000) scale(0.100000,-0.100000)"
fill="#000000" stroke="none">
<path d="M5640 5284 c-103 -10 -279 -36 -334 -50 -46 -12 -75 -13 -137 -6 -96
12 -270 0 -413 -29 -218 -43 -427 -36 -796 29 -145 25 -174 27 -440 26 -374
-1 -713 -16 -734 -33 -12 -10 -30 -10 -91 0 -49 8 -123 10 -208 6 -139 -7
-194 -17 -190 -36 4 -13 -9 -15 -22 -2 -10 9 -80 -9 -195 -51 -30 -11 -79 -26
-109 -34 -29 -8 -119 -42 -200 -76 -80 -33 -209 -78 -286 -99 -77 -22 -161
-48 -187 -59 -26 -11 -139 -42 -251 -69 -205 -50 -287 -76 -287 -91 0 -10 47
-17 195 -27 193 -13 340 -7 455 17 73 15 157 23 275 27 184 6 217 15 238 60
10 23 15 25 58 21 56 -6 116 -35 138 -67 15 -24 15 -24 -19 -17 -115 22 -120
21 -192 -32 -36 -27 -83 -57 -102 -66 -35 -16 -40 -16 -123 5 -130 32 -214 18
-285 -49 -53 -49 -42 -124 25 -159 41 -21 136 -23 240 -3 51 9 83 11 91 5 7
-6 34 -25 59 -44 26 -19 47 -39 47 -43 0 -10 -55 17 -89 43 -26 21 -41 24 -41
9 0 -5 20 -21 45 -36 56 -32 53 -43 -4 -14 -50 25 -55 8 -6 -21 44 -26 46 -35
3 -13 -61 31 -80 47 -68 54 14 8 4 50 -11 50 -5 0 -9 -9 -9 -21 0 -15 -5 -19
-15 -15 -8 3 -19 -2 -24 -12 -9 -16 -10 -16 -16 1 -15 36 -27 16 -20 -33 8
-56 9 -55 -64 -38 -49 11 -51 13 -51 44 0 18 -5 36 -10 39 -6 3 -10 -4 -10
-16 l0 -21 -19 23 c-16 21 -21 22 -49 10 -17 -7 -35 -10 -40 -7 -6 3 -12 -1
-16 -9 -3 -9 -12 -12 -21 -9 -15 6 -34 0 -87 -27 -10 -5 -28 -9 -40 -9 -12 0
-35 -4 -52 -9 -106 -32 -116 -34 -165 -24 -47 9 -51 9 -51 -8 0 -11 -4 -19
-10 -19 -5 0 -10 4 -10 9 0 4 -12 8 -28 8 -15 0 -83 6 -152 14 -165 19 -438
17 -557 -5 -107 -19 -173 -42 -173 -62 0 -17 5 -17 33 0 33 20 100 34 221 45
118 12 162 8 245 -19 l55 -18 -60 -6 c-163 -16 -239 -28 -270 -41 -50 -21 -42
-37 9 -18 32 12 90 17 237 20 210 4 240 1 240 -23 0 -10 5 -12 13 -7 14 9 98
16 172 15 28 -1 201 -3 385 -6 264 -4 352 -2 415 9 44 8 140 22 214 31 118 14
166 26 276 69 14 6 17 5 10 -3 -17 -18 -231 -100 -333 -128 -95 -25 -199 -43
-377 -64 -49 -7 -255 -15 -457 -18 -384 -8 -406 -11 -382 -50 19 -30 107 -51
295 -69 195 -19 604 -22 622 -4 17 17 -34 23 -142 16 -115 -7 -384 7 -576 31
-142 17 -161 22 -147 36 14 14 295 13 319 -1 14 -9 11 -10 -19 -5 -51 8 -51
-12 0 -23 20 -4 187 -8 370 -8 183 0 323 -3 310 -7 -13 -3 -35 -6 -50 -7 -15
-1 -30 -6 -34 -12 -5 -9 20 -10 95 -5 73 6 101 4 101 -4 0 -7 -8 -9 -21 -5
-19 6 -20 4 -14 -24 9 -42 -13 -74 -68 -102 -23 -12 -85 -49 -137 -84 -52 -34
-160 -102 -240 -150 -372 -226 -568 -384 -755 -610 -205 -249 -293 -495 -282
-795 11 -292 80 -467 251 -634 386 -377 891 -522 1686 -486 261 12 402 27 700
75 266 44 803 141 848 154 43 13 61 5 154 -61 99 -72 242 -127 284 -111 25 9
15 22 -41 59 -63 40 -183 149 -174 158 3 3 46 15 94 25 l88 20 61 -55 c64 -58
191 -146 267 -184 130 -67 346 -112 384 -80 14 11 3 19 -72 57 -48 25 -95 51
-104 59 -8 8 -21 14 -28 14 -7 0 -24 9 -38 20 -14 11 -33 20 -42 20 -9 0 -28
6 -43 14 -14 8 -54 17 -87 21 -57 6 -95 24 -54 26 15 0 14 3 -7 17 -30 20
-100 93 -100 104 0 4 30 16 68 27 37 11 123 36 192 56 104 30 384 124 795 265
44 15 163 58 265 95 518 190 828 257 1180 257 262 -1 494 -54 653 -149 84 -51
111 -76 168 -155 77 -106 139 -259 139 -342 0 -56 -33 -161 -70 -226 -78 -134
-227 -247 -431 -328 -265 -105 -383 -132 -734 -172 -443 -49 -1000 -80 -1615
-89 -612 -9 -1777 -4 -2080 10 -326 15 -889 15 -1095 0 -375 -27 -617 -69
-805 -138 -117 -44 -132 -53 -170 -111 -68 -103 -13 -209 154 -291 183 -90
551 -120 991 -80 153 13 245 29 245 41 0 7 -16 8 -42 4 -198 -29 -263 -36
-403 -42 -253 -10 -544 21 -711 76 -128 43 -234 132 -234 196 0 149 242 243
795 306 152 17 1071 17 1635 -1 479 -15 1872 -10 2185 9 88 5 261 14 385 20
421 20 932 70 1130 111 103 21 281 79 406 132 247 104 423 267 476 440 26 88
21 212 -12 300 -56 147 -217 333 -340 393 -157 76 -337 114 -580 121 -168 5
-201 3 -360 -22 -283 -43 -485 -100 -904 -252 -549 -199 -1238 -422 -1309
-423 -5 0 -34 24 -65 53 -31 30 -79 69 -106 87 -31 21 -44 35 -36 40 8 5 7 17
-6 46 -18 41 -21 50 -25 99 -2 17 -7 33 -13 37 -5 3 -11 25 -13 47 -2 22 -10
53 -18 68 -8 16 -15 33 -15 39 0 6 -7 25 -16 43 -9 18 -14 35 -10 38 3 3 67
-20 143 -51 76 -32 172 -64 213 -72 41 -9 94 -20 118 -25 73 -15 279 12 402
53 153 50 146 79 -24 98 -78 9 -112 8 -179 -4 -45 -8 -107 -17 -137 -21 -30
-3 -74 -11 -97 -17 -32 -8 -46 -8 -57 1 -8 7 -105 51 -217 99 -171 74 -204 92
-210 113 -3 13 -25 64 -49 113 l-42 88 20 27 c12 14 65 89 118 166 54 77 145
203 204 280 58 77 139 187 180 245 41 58 97 130 125 160 29 30 59 66 68 79 8
13 66 70 129 128 112 103 147 148 148 189 0 12 8 31 18 43 17 20 17 20 54 -19
20 -22 33 -42 27 -46 -12 -7 -59 -103 -59 -120 0 -6 -7 -17 -16 -25 -39 -33
-117 -230 -98 -249 22 -22 104 76 104 125 0 27 18 16 22 -15 3 -19 -2 -40 -14
-57 -37 -57 -66 -129 -73 -188 -2 -11 -12 -55 -24 -98 -11 -43 -23 -97 -25
-120 -2 -23 -10 -83 -16 -133 -14 -105 -3 -207 31 -279 29 -61 97 -122 146
-130 21 -3 52 -10 70 -14 73 -20 121 18 81 64 -12 14 -26 25 -32 25 -12 0 -59
55 -88 102 -10 15 -25 28 -33 28 -17 0 -19 14 -5 40 8 15 6 21 -8 29 -14 7
-17 18 -14 45 4 32 7 35 27 30 13 -3 26 -1 29 5 4 6 1 11 -6 11 -17 0 -40 53
-32 74 3 9 15 21 25 27 20 10 26 44 9 54 -17 10 -11 50 10 73 13 13 17 27 13
39 -6 16 -5 16 10 4 19 -15 22 -6 18 57 -2 18 2 39 8 46 8 10 7 17 -4 26 -13
11 -13 14 -1 24 26 21 26 68 -2 130 -29 66 -26 79 28 110 31 18 33 19 45 2 12
-16 14 -16 20 3 3 12 11 21 16 21 5 0 9 7 9 16 0 8 5 12 10 9 6 -3 15 4 20 17
5 13 14 30 20 38 23 37 42 91 36 106 -4 11 -2 15 8 11 23 -9 26 4 8 31 -16 24
-16 26 0 20 23 -9 44 17 29 35 -13 17 -5 27 24 27 21 0 62 37 83 75 11 19 11
19 12 -2 l0 -23 20 20 c11 11 25 20 30 20 6 0 10 12 10 26 0 19 4 25 15 20 9
-3 29 7 49 24 26 23 35 27 39 16 3 -8 -2 -16 -15 -19 -16 -5 -19 -11 -13 -35
5 -23 -1 -43 -25 -86 -36 -63 -72 -155 -65 -167 3 -4 1 -18 -4 -30 -9 -25 2
-54 28 -75 11 -8 11 -17 2 -45 -114 -341 -131 -411 -130 -544 1 -108 16 -159
50 -163 21 -3 29 3 43 33 15 31 20 34 37 24 15 -8 18 -14 10 -23 -14 -17 5
-175 23 -196 8 -8 17 -25 20 -38 4 -12 22 -33 40 -47 28 -21 44 -25 103 -25
90 0 170 15 191 37 25 25 51 72 66 121 6 17 3 22 -10 22 -13 0 -14 3 -5 14 9
11 8 18 -4 30 -22 21 -65 21 -65 0 0 -14 -2 -14 -16 -3 -14 11 -18 11 -28 -3
-29 -40 -96 -30 -96 14 0 10 -11 39 -25 64 l-25 44 25 -6 c25 -6 26 -5 21 40
-2 25 0 49 5 52 17 10 9 34 -11 34 -26 0 -25 14 2 32 20 13 21 19 13 53 -11
42 -31 57 -38 28 -4 -15 -5 -14 -6 3 0 12 6 27 14 34 11 9 13 16 5 24 -13 13
-13 93 0 101 6 4 8 16 5 26 -4 11 -1 26 5 34 9 11 8 22 -9 48 -11 18 -29 42
-41 52 -46 41 -8 100 64 100 37 0 41 2 39 23 -2 13 1 21 7 17 6 -3 11 -16 12
-28 0 -12 4 1 7 28 6 49 7 50 38 47 30 -3 31 -1 30 32 -1 21 6 43 17 55 13 14
18 37 18 83 1 61 2 64 27 63 19 0 27 6 29 23 4 23 16 29 27 12 4 -6 21 2 41
20 23 19 45 30 65 30 24 0 30 4 25 15 -7 18 8 20 22 2 29 -35 25 -66 -19 -139
-24 -39 -51 -94 -61 -122 -20 -59 -24 -126 -6 -126 6 0 3 -8 -7 -20 -16 -18
-16 -20 -1 -26 24 -9 20 -72 -8 -135 -36 -78 -56 -193 -56 -311 1 -127 11
-184 39 -212 l22 -21 19 25 c11 14 20 35 20 47 0 12 4 24 9 27 4 3 11 19 14
36 11 52 23 33 35 -56 7 -47 17 -93 21 -102 5 -9 20 -42 33 -72 31 -67 70
-115 111 -137 24 -12 48 -14 110 -9 44 4 88 11 98 17 15 8 18 6 13 -8 -3 -10
15 4 40 31 25 27 46 55 46 61 0 7 7 18 15 25 21 18 19 37 -6 43 -12 3 -18 10
-15 15 3 6 16 8 27 5 20 -6 21 -3 15 33 -5 21 -12 45 -18 52 -26 31 -108 -2
-123 -48 -4 -11 -15 -25 -26 -30 -25 -14 -69 18 -109 77 -25 36 -26 42 -12 46
13 3 11 6 -9 16 -49 24 -67 107 -29 132 19 13 20 18 9 49 -7 19 -19 43 -27 53
-10 11 -11 17 -3 17 8 0 10 12 6 38 -4 20 -9 54 -12 75 -3 24 -10 37 -20 37
-13 0 -13 3 -3 15 10 12 7 21 -19 50 -34 39 -37 55 -20 88 17 32 30 37 67 31
21 -4 32 -2 32 6 0 7 8 9 20 5 15 -5 22 1 34 29 9 22 22 36 33 36 23 0 45 44
30 59 -8 8 -7 11 2 11 10 0 12 9 7 31 -5 26 -4 30 8 20 12 -10 16 -6 22 21 4
18 6 50 5 70 -1 23 4 41 14 50 9 7 33 30 55 51 39 38 66 45 101 27 33 -18 21
-64 -41 -155 -16 -22 -31 -58 -35 -80 -4 -22 -12 -46 -17 -53 -8 -9 -8 -16 0
-24 16 -16 15 -38 -2 -38 -9 0 -13 -14 -13 -47 0 -27 -15 -97 -32 -158 -30
-101 -33 -118 -27 -205 10 -162 39 -277 68 -268 16 6 40 62 57 133 l7 30 17
-32 c9 -18 17 -38 17 -46 0 -7 12 -38 26 -68 15 -30 42 -88 61 -129 39 -86 54
-105 105 -131 35 -18 41 -18 73 -5 25 11 35 21 35 37 0 17 3 19 14 10 17 -14
41 -5 71 29 42 47 16 220 -34 220 -33 0 -51 -11 -51 -31 0 -10 -4 -19 -10 -19
-16 0 -50 43 -56 70 -3 14 -10 35 -16 47 -6 12 -10 33 -10 47 0 15 -4 29 -9
32 -5 3 -9 19 -9 35 0 17 -6 32 -15 35 -8 4 -12 10 -9 15 3 5 -7 25 -22 44
-21 28 -24 38 -15 49 9 11 9 20 2 35 -6 11 -11 29 -11 39 0 11 -16 39 -36 63
-61 73 -33 132 72 147 38 6 48 11 46 24 -3 20 35 48 66 48 19 0 22 4 17 20 -5
14 -2 20 10 20 12 0 15 6 10 20 -4 14 -2 20 7 18 8 -2 13 8 13 27 1 29 8 54
25 85 4 8 18 14 31 14 13 -1 27 4 31 10 4 6 10 -8 14 -32 4 -23 11 -42 17 -42
5 0 7 13 3 32 -4 20 -3 29 3 23 10 -11 14 -30 12 -58 0 -10 -28 -47 -61 -81
-33 -35 -60 -68 -60 -74 0 -7 -4 -12 -9 -12 -4 0 -16 -24 -25 -53 -17 -55 -14
-128 7 -154 6 -9 6 -28 -2 -57 -19 -77 -13 -139 23 -244 38 -111 67 -172 91
-192 14 -11 19 -10 38 9 18 17 22 32 20 71 -1 28 1 50 5 50 4 0 25 -30 45 -66
48 -83 105 -139 170 -170 66 -30 105 -30 150 0 19 13 49 27 65 31 36 7 48 20
57 58 6 22 4 27 -11 27 -18 1 -18 1 -1 11 36 21 7 105 -49 138 -33 20 -51 23
-47 9 2 -4 -6 -12 -17 -18 -11 -6 -20 -17 -20 -25 0 -17 -20 -31 -29 -19 -3 5
-17 15 -31 22 -57 29 -72 40 -59 44 16 5 -19 57 -40 58 -11 0 -11 3 0 16 11
14 10 18 -6 30 -34 22 -55 47 -93 102 -19 30 -54 66 -76 80 -23 14 -43 28 -46
30 -13 10 38 33 65 29 41 -7 88 17 130 67 19 22 42 49 50 59 8 9 15 22 15 27
0 6 5 10 10 10 6 0 10 -5 10 -11 0 -5 5 -7 10 -4 6 3 10 0 10 -9 0 -8 15 -20
34 -26 19 -6 40 -18 46 -26 18 -20 51 -19 43 2 -4 12 -2 15 8 12 8 -2 16 -15
17 -27 3 -21 8 -23 43 -18 36 5 42 2 67 -30 15 -20 41 -49 57 -65 17 -16 50
-48 74 -71 24 -23 50 -41 57 -39 8 2 14 -5 14 -16 0 -29 40 -76 53 -63 17 17
27 13 37 -15 6 -14 14 -23 20 -19 5 3 16 -8 25 -24 16 -33 49 -56 65 -46 12 7
44 -9 71 -36 13 -13 27 -17 42 -14 24 6 32 -12 57 -128 11 -51 43 -121 59
-131 14 -9 20 -79 31 -356 10 -232 21 -337 70 -650 12 -74 21 -152 20 -172 0
-21 7 -49 16 -63 9 -14 14 -32 10 -40 -3 -8 -1 -15 4 -15 6 0 10 -10 10 -22 0
-12 6 -29 13 -37 8 -9 22 -38 31 -64 15 -39 21 -47 37 -42 15 5 19 1 19 -15 0
-31 26 -35 88 -15 44 16 61 28 93 71 21 28 45 78 55 110 9 33 18 61 20 63 2 2
11 -4 20 -14 10 -10 25 -14 38 -11 12 3 31 6 43 6 13 0 40 16 62 35 71 64 121
263 122 480 1 202 -2 238 -26 373 -54 292 -144 584 -271 884 -24 56 -25 96 -2
125 35 44 -154 376 -341 598 -106 127 -312 330 -404 398 -43 33 -88 75 -101
95 -65 103 -387 347 -524 398 -26 10 -71 39 -100 65 -83 73 -363 209 -431 209
-10 0 -42 13 -72 29 -98 51 -264 98 -429 120 -79 11 -573 22 -650 15z m279
-27 c19 -7 39 -21 45 -32 6 -10 16 -25 23 -32 35 -38 23 -214 -29 -420 l-30
-123 36 -53 c101 -146 112 -319 31 -495 -32 -69 -121 -162 -187 -194 -70 -34
-143 -46 -151 -24 -5 12 -15 14 -39 10 -21 -4 -28 -2 -20 3 9 7 1 17 -29 36
-27 18 -39 22 -35 12 3 -8 2 -15 -3 -15 -14 0 -61 41 -61 52 0 6 9 3 20 -7 18
-16 25 -14 21 8 0 4 8 7 19 7 11 0 20 5 20 11 0 7 -12 9 -30 7 -36 -5 -45 4
-31 31 10 18 5 49 -19 106 -17 42 -18 69 -3 98 13 26 13 32 2 41 -24 19 -41
63 -34 85 4 15 1 23 -10 27 -13 5 -15 14 -11 37 3 17 3 28 0 24 -11 -11 -34
13 -34 35 0 10 -7 21 -16 25 -15 6 -15 8 2 20 16 12 16 13 1 13 -21 0 -22 19
-2 26 21 8 19 34 -2 34 -17 1 -17 1 -1 11 13 7 15 15 9 32 -6 16 -3 26 11 39
19 16 19 17 -1 37 -23 23 -28 79 -10 112 8 16 7 25 -6 39 -15 16 -15 18 2 24
17 7 17 8 1 17 -21 12 -35 93 -19 113 6 7 9 21 5 30 -3 9 -1 16 5 16 6 0 11 9
11 20 0 23 -10 26 -28 8 -7 -7 -12 -8 -12 -2 0 5 5 15 11 21 8 8 5 14 -10 23
-31 16 -15 33 25 27 25 -4 34 -2 34 9 0 8 -4 14 -10 14 -5 0 -10 4 -10 9 0 17
364 59 382 43 9 -7 19 -6 32 4 24 17 88 17 135 1z m-2443 -33 c23 -16 26 -16
39 2 12 16 17 17 35 6 15 -9 25 -10 34 -3 7 6 35 8 62 6 27 -3 99 -10 159 -16
61 -5 175 -21 255 -34 80 -14 187 -27 238 -31 51 -4 95 -11 98 -15 2 -4 11 -6
19 -2 21 7 19 -26 -2 -49 -9 -10 -14 -21 -10 -24 10 -10 27 6 41 39 13 31 13
30 21 -48 11 -125 47 -219 116 -311 112 -147 206 -336 235 -473 18 -88 18
-242 -1 -316 -29 -109 -97 -218 -168 -266 -30 -21 -30 -20 8 21 26 27 36 44
27 47 -18 7 -4 23 19 23 11 0 17 5 14 10 -4 6 3 19 15 28 20 16 21 23 14 72
-5 31 -15 55 -23 58 -11 4 -13 -4 -8 -34 4 -33 4 -35 -5 -16 -17 34 -28 26
-28 -18 0 -22 -5 -40 -11 -40 -6 0 -8 9 -3 22 6 20 5 21 -10 9 -9 -7 -16 -20
-16 -27 0 -8 -4 -14 -10 -14 -5 0 -10 -13 -10 -30 l0 -29 -23 23 c-23 23 -34
24 -119 17 -40 -3 -15 -21 30 -22 35 0 42 -2 26 -9 -11 -4 -37 -8 -58 -8 -47
0 -55 -8 -30 -28 16 -13 16 -15 2 -10 -10 3 -20 1 -23 -4 -4 -6 -17 -10 -31
-10 -15 0 -24 -6 -24 -15 0 -22 -15 -18 -33 8 -11 14 -19 18 -24 11 -6 -9 -65
-34 -79 -34 -2 0 -4 6 -4 14 0 24 -27 26 -35 3 -7 -20 -8 -20 -14 8 l-8 30 -7
-26 c-6 -23 -14 -27 -54 -32 -26 -3 -51 -2 -57 1 -5 3 -25 5 -43 3 -18 -1 -38
2 -45 7 -19 15 -76 22 -83 11 -3 -6 -12 -8 -20 -5 -7 3 -18 -4 -24 -14 -6 -11
-16 -20 -23 -19 -9 0 -9 2 1 6 13 5 17 34 5 32 -5 -1 -10 0 -13 1 -3 1 -27 4
-55 6 -27 3 -54 9 -59 14 -15 15 -26 12 -26 -5 0 -20 -19 -19 -26 0 -4 10 -13
13 -26 9 -15 -4 -19 -1 -18 13 4 30 0 39 -9 24 -6 -10 -13 -11 -29 -2 -11 6
-41 11 -65 11 -26 0 -49 6 -56 14 -8 9 -24 12 -50 9 -25 -3 -42 0 -52 9 -8 8
-45 18 -83 22 -70 7 -103 18 -99 33 2 4 -16 8 -40 9 -23 0 -55 6 -70 12 -16 7
-39 12 -52 12 -13 0 -30 7 -39 15 -8 8 -25 15 -38 15 -13 0 -40 9 -59 19 -20
11 -45 17 -56 15 -11 -3 -53 2 -94 10 -41 9 -99 21 -129 27 -30 6 -77 21 -104
34 -27 13 -55 21 -62 18 -21 -8 -6 26 26 62 15 17 33 40 39 53 17 31 16 99 0
118 -11 13 -10 18 5 26 15 8 16 12 5 20 -10 7 -4 7 16 3 40 -9 59 -13 66 -14
12 -2 33 -63 33 -100 l1 -36 105 -3 c161 -3 465 11 463 23 -1 6 -24 13 -50 16
-39 5 -44 7 -25 14 31 10 12 32 -36 41 -33 6 -34 8 -14 15 12 5 22 13 22 19 0
13 -6 13 -33 -1 -18 -10 -24 -8 -43 16 -21 27 -37 32 -119 39 -22 2 -55 9 -74
16 l-33 13 53 26 c48 23 54 29 51 54 -3 20 4 35 25 55 16 15 36 39 46 54 11
17 29 29 52 34 30 5 34 9 29 29 -4 17 1 30 20 46 34 30 33 36 -8 37 -30 1 -43
-8 -118 -86 -46 -48 -90 -103 -97 -122 -20 -49 -40 -70 -69 -70 -13 0 -76 22
-141 49 -164 68 -221 85 -275 82 -18 -1 -19 -2 -1 -21 18 -20 18 -20 -16 -14
-19 4 -40 14 -46 22 -8 10 -13 11 -13 4 0 -7 -8 -12 -18 -12 -10 0 -22 -4 -27
-9 -6 -5 -24 -12 -42 -16 -26 -5 -32 -3 -38 15 -4 12 -2 41 4 64 6 22 12 57
13 76 2 27 10 38 36 54 29 16 35 17 43 5 8 -12 12 -10 25 6 8 11 20 19 25 17
5 -1 25 12 43 29 l34 30 -25 44 c-13 24 -33 47 -44 50 -24 8 -39 -3 -21 -14 8
-5 -9 -10 -44 -14 -31 -3 -60 -10 -63 -15 -10 -16 -83 -23 -148 -14 -34 5 -64
6 -65 2 -3 -6 -246 -50 -303 -55 -11 -1 -40 -11 -65 -23 -25 -12 -56 -22 -70
-22 -14 0 -53 -13 -87 -30 -59 -27 -63 -28 -63 -10 0 25 -4 25 -96 -5 -90 -29
-122 -32 -81 -7 48 30 34 41 -35 26 -66 -15 -267 -31 -258 -21 15 16 253 71
350 81 36 3 126 22 200 41 452 117 824 186 1244 230 167 17 198 23 190 36 -11
18 -156 7 -474 -35 -63 -8 -144 -18 -180 -21 -36 -3 -82 -11 -103 -17 -29 -9
-47 -8 -80 2 -23 7 -46 17 -50 21 -11 8 80 29 128 29 39 0 53 14 29 28 -18 10
13 14 211 28 87 6 153 23 93 24 -40 0 -63 11 -46 21 21 14 102 10 279 -11 90
-11 181 -21 202 -24 20 -2 37 -1 37 4 0 10 -26 20 -51 20 -30 0 -22 17 11 24
17 3 133 11 259 17 171 8 234 8 250 0 17 -10 22 -9 27 4 8 19 28 19 60 -1z
m2859 5 c50 -6 100 -17 112 -25 12 -8 35 -14 52 -14 48 0 158 -39 192 -67 31
-27 31 -28 26 -95 -6 -70 -49 -207 -117 -375 -34 -81 -40 -109 -40 -168 0
-108 -19 -341 -32 -393 -17 -74 -35 -102 -63 -102 -19 0 -23 -4 -18 -17 5 -12
2 -15 -9 -11 -10 4 -19 -2 -27 -18 -20 -45 -173 -97 -231 -79 -18 6 -19 9 -8
22 11 14 10 15 -9 9 -33 -10 -159 47 -136 63 30 20 71 220 73 354 1 24 3 27
15 17 24 -20 19 13 -5 35 -21 19 -27 69 -10 80 6 4 3 16 -10 32 -11 14 -20 33
-20 41 0 9 -12 27 -27 40 -22 18 -23 21 -6 13 27 -14 33 -14 33 -1 0 6 -7 10
-16 10 -8 0 -12 4 -9 10 4 6 -1 7 -11 3 -12 -4 -15 -2 -12 8 2 8 15 15 27 17
18 3 20 6 10 18 -6 8 -9 27 -6 44 4 16 2 32 -3 35 -6 3 -10 2 -10 -4 0 -5 -11
0 -25 12 -15 14 -19 23 -12 26 30 10 38 23 20 37 -11 8 -13 13 -6 14 7 0 20
12 30 26 16 25 16 27 -8 44 -21 17 -22 19 -6 25 9 4 17 17 17 29 1 20 2 20 14
4 18 -24 35 -23 29 1 -3 10 0 22 6 25 19 12 12 28 -9 21 -11 -3 -20 -2 -20 4
0 5 -3 18 -6 28 -6 16 -5 16 9 -2 l16 -20 1 20 c0 20 -19 59 -20 40 0 -5 -5
-2 -11 8 -14 24 -4 34 16 17 20 -17 21 8 1 36 -11 14 -11 22 -3 32 8 10 8 15
-1 21 -8 5 -2 14 18 29 35 26 40 46 9 37 -15 -5 -19 -4 -15 4 9 14 133 14 251
0z m-1084 -121 c64 -147 93 -355 70 -493 -11 -65 -10 -75 10 -120 11 -28 34
-88 50 -134 32 -94 38 -196 18 -293 -14 -65 -63 -159 -106 -203 -38 -39 -112
-66 -168 -61 -22 2 -46 -1 -52 -6 -9 -7 -18 -7 -28 2 -12 10 -15 10 -15 0 0
-7 -6 -10 -12 -7 -7 2 -24 8 -38 12 l-25 8 20 -23 20 -23 -25 8 c-14 4 -29 14
-33 21 -4 8 -22 14 -39 14 -25 0 -28 2 -19 14 10 12 6 15 -19 21 -26 6 -30 10
-24 28 4 12 10 23 14 25 4 2 6 11 3 21 -3 10 0 22 6 25 6 4 11 19 11 34 0 45
11 71 26 65 21 -8 19 63 -2 75 -13 7 -16 19 -11 51 3 22 1 43 -3 46 -4 3 -8
28 -8 56 -1 29 -6 57 -11 62 -6 6 -11 19 -11 28 0 9 -7 19 -15 23 -8 3 -15 12
-15 20 0 8 -10 36 -21 63 -12 26 -21 61 -21 77 1 20 -5 30 -19 33 -10 3 -29
22 -41 42 -13 20 -38 53 -57 74 -30 33 -33 41 -23 62 10 21 9 25 -3 25 -19 0
-20 -4 16 76 26 57 33 88 40 179 4 61 8 113 8 118 1 4 10 2 21 -5 15 -10 22
-10 32 0 19 19 28 14 28 -14 0 -33 16 -23 35 22 12 28 19 34 44 34 23 0 31 -5
31 -17 0 -12 3 -14 8 -6 16 25 61 32 186 30 l130 -2 37 -87z m-624 14 c-15
-17 -15 -19 -1 -34 20 -20 36 -98 20 -98 -14 0 -39 -56 -31 -70 3 -5 1 -10 -6
-10 -8 0 -10 -12 -6 -36 6 -35 5 -35 -15 -22 -29 19 -34 38 -11 39 11 0 6 6
-16 15 -27 12 -32 19 -28 40 2 13 0 27 -4 30 -5 3 -6 23 -3 45 5 32 4 38 -8
34 -11 -4 -13 2 -10 32 6 47 14 53 81 53 52 0 53 -1 38 -18z m2269 -73 c8 -6
14 -8 14 -3 0 5 4 4 8 -2 11 -16 78 -54 96 -54 13 0 15 -6 10 -26 -6 -25 -5
-26 18 -21 17 5 30 2 38 -8 7 -8 16 -15 21 -15 7 0 110 -62 128 -76 8 -7 -43
-154 -75 -214 -19 -36 -63 -99 -99 -140 -36 -41 -65 -79 -65 -85 0 -5 7 -32
16 -60 23 -72 23 -232 0 -312 -10 -35 -23 -63 -27 -63 -5 0 -9 -6 -9 -14 0
-27 -51 -77 -71 -71 -26 9 -49 -6 -23 -15 31 -12 -62 -33 -118 -28 -58 6 -130
50 -121 74 4 12 1 15 -13 12 -24 -4 -62 31 -44 42 6 4 16 44 22 89 9 69 13 81
29 81 27 0 23 28 -6 42 -13 6 -27 19 -30 29 -6 19 0 127 11 187 5 24 3 32 -9
32 -10 0 -13 7 -9 25 5 29 9 30 34 8 27 -24 24 5 -4 34 -13 14 -18 27 -13 31
6 4 11 21 13 37 5 47 55 152 70 147 9 -3 11 3 7 20 -3 12 1 43 10 67 8 24 15
54 15 67 0 18 6 24 21 24 14 0 19 5 16 14 -3 8 0 22 8 32 9 13 10 23 3 31 -8
10 -6 13 6 13 21 0 20 18 -1 43 -10 11 -13 17 -7 14 7 -4 14 2 17 15 5 19 11
20 53 14 26 -3 53 -11 60 -17z m-4882 -29 c-6 -6 -38 -15 -72 -21 -50 -9 -69
-8 -95 2 l-32 14 55 6 c98 10 155 10 144 -1z m-216 -57 c-16 -2 -40 -2 -55 0
-16 2 -3 4 27 4 30 0 43 -2 28 -4z m5529 -193 c18 -16 40 -30 47 -30 8 0 16
-7 20 -15 3 -8 14 -15 24 -15 11 0 25 -7 32 -15 13 -15 116 -91 229 -168 31
-21 70 -52 87 -68 20 -19 36 -27 47 -23 33 12 16 -12 -28 -39 -61 -39 -80 -66
-107 -150 -24 -74 -49 -107 -137 -176 -38 -30 -42 -37 -36 -65 17 -84 16 -98
-6 -166 -21 -65 -22 -74 -9 -153 14 -90 9 -147 -15 -167 -20 -17 -107 14 -99
35 4 9 0 12 -14 8 -34 -8 -162 72 -162 102 0 8 -12 15 -27 17 -21 2 -27 8 -25
21 2 14 -2 18 -20 15 -19 -2 -23 1 -20 21 1 16 -2 22 -12 18 -7 -3 -32 13 -56
38 l-42 43 26 39 c22 33 27 56 37 168 6 72 15 139 21 150 6 11 7 20 1 22 -5 2
-7 18 -5 36 2 22 -3 39 -17 54 -28 29 -26 37 5 29 19 -5 25 -3 21 6 -2 7 2 25
9 39 7 14 10 36 7 47 -4 18 0 23 24 28 28 6 30 9 28 47 -1 23 2 45 9 49 6 4
11 12 11 18 0 5 3 9 7 8 13 -5 37 37 38 65 0 15 8 39 17 54 15 23 17 24 23 7
6 -16 9 -15 23 13 22 41 21 59 0 72 -12 7 -14 10 -4 11 7 0 29 -13 48 -30z
m197 -75 c47 -32 83 -61 80 -64 -2 -3 -30 14 -62 37 -31 24 -85 61 -119 83
-35 23 -63 43 -63 46 0 8 72 -37 164 -102z m-5634 84 c0 -14 -34 -19 -42 -7
-6 10 -11 9 -19 -4 -5 -10 -16 -18 -23 -18 -17 0 -38 25 -29 34 9 9 113 4 113
-5z m184 -81 c14 -6 28 -20 32 -31 12 -37 -11 -35 -48 4 -38 40 -32 50 16 27z
m-159 -118 c-16 -16 -44 -40 -62 -52 -18 -13 -33 -29 -33 -37 0 -11 -5 -10
-20 4 -11 10 -20 25 -20 34 1 13 2 13 11 -2 10 -17 12 -17 28 2 10 12 23 21
28 21 6 0 24 14 41 30 41 39 64 39 27 0z m175 21 c0 -5 -14 -21 -31 -35 -24
-21 -41 -26 -82 -26 -51 0 -51 0 -32 20 33 32 145 64 145 41z m-552 -16 c-10
-10 -68 -24 -68 -16 0 15 13 21 43 21 17 0 28 -2 25 -5z m560 -71 c-14 -14
-32 -20 -91 -31 -15 -3 -30 -9 -33 -14 -3 -5 -17 -9 -31 -9 -18 0 -24 -4 -19
-15 3 -10 -1 -15 -14 -15 -10 0 -22 -4 -25 -10 -10 -16 -35 -12 -35 5 0 24 84
71 158 90 37 9 74 20 82 25 20 13 26 -8 8 -26z m383 -87 c94 -35 177 -79 269
-142 44 -30 85 -55 90 -55 6 0 10 -4 10 -10 0 -18 -15 -11 -71 31 -65 49 -141
89 -168 89 -14 0 -19 5 -15 15 4 8 4 15 1 15 -2 0 -41 13 -86 29 -45 16 -104
34 -131 41 -28 7 -50 15 -50 20 0 11 78 -6 151 -33z m-641 -27 c38 -19 49 -30
33 -30 -11 0 -90 49 -80 50 4 0 26 -9 47 -20z m395 10 c3 -5 15 -10 26 -10 25
0 24 -12 -5 -43 -58 -62 -204 -128 -280 -126 -26 1 -24 3 19 14 28 7 68 22 90
33 52 27 115 87 115 110 0 29 22 43 35 22z m-124 -50 c-13 -11 -29 -20 -37
-20 -8 0 -14 -4 -14 -10 0 -5 -12 -10 -28 -10 -16 0 -32 -8 -39 -19 -6 -10
-29 -21 -50 -25 -21 -4 -51 -9 -66 -12 l-29 -6 18 29 c42 67 52 73 128 74 39
1 85 5 101 9 17 4 32 8 35 8 3 1 -6 -8 -19 -18z m5721 -27 c2 -22 8 -28 28
-28 30 0 113 -73 105 -92 -3 -9 9 -20 33 -30 39 -16 212 -187 212 -210 0 -7 4
-13 10 -13 16 0 120 -111 120 -128 0 -5 9 -17 20 -27 11 -10 20 -24 20 -32 0
-7 6 -13 13 -13 15 0 77 -83 77 -103 0 -7 9 -18 21 -25 11 -7 27 -27 35 -45
17 -39 71 -103 80 -95 3 4 1 16 -6 27 -7 14 -7 21 -1 21 13 0 25 -45 17 -65
-3 -9 0 -15 8 -15 15 0 26 -21 26 -48 0 -12 -4 -11 -23 6 -28 26 -30 26 -73 6
-32 -15 -34 -19 -28 -54 4 -21 1 -47 -5 -59 -16 -29 -61 -57 -69 -44 -10 14
-81 21 -87 8 -3 -6 -7 -5 -11 3 -7 16 -34 -30 -34 -59 0 -16 3 -18 19 -9 31
16 36 12 15 -11 -14 -16 -15 -23 -6 -26 6 -3 12 -16 12 -29 0 -15 6 -24 15
-24 17 0 19 -9 6 -29 -6 -9 -11 -10 -15 -2 -4 6 -20 11 -35 11 -15 0 -31 3
-35 7 -4 4 -23 6 -42 4 -20 -1 -34 2 -34 9 0 6 -4 8 -10 5 -5 -3 -10 -1 -10 5
0 7 -7 10 -15 6 -8 -3 -15 -1 -15 4 0 16 -20 12 -47 -10 -25 -19 -25 -20 -4
-20 11 0 21 -4 21 -10 0 -5 -14 -7 -32 -4 l-33 5 23 -19 c35 -32 27 -32 -38
-5 -49 22 -58 29 -48 40 10 12 7 13 -15 8 -31 -8 -53 7 -212 146 -183 159
-201 179 -213 235 -17 79 -22 154 -10 154 5 0 8 7 4 15 -3 10 1 15 12 15 14 1
14 3 -5 19 l-22 18 22 22 c18 16 22 29 19 58 -3 21 -11 42 -18 46 -21 12 0 44
41 62 49 20 45 36 -7 30 l-43 -5 33 12 c31 10 33 14 27 44 -3 19 -1 35 5 39 6
3 8 11 4 16 -9 15 35 79 51 73 9 -4 16 7 23 38 6 24 10 34 11 24 1 -18 2 -18
21 -1 15 14 20 15 20 4 0 -12 2 -11 10 1 11 18 -5 40 -31 40 -23 0 -23 1 -5
44 32 77 92 113 98 59z m-5462 -22 c6 -16 25 -35 41 -41 29 -12 42 -35 14 -24
-17 7 -21 -11 -5 -21 13 -8 2 -27 -13 -22 -7 2 -13 9 -13 15 -1 7 -2 16 -3 22
-1 11 -61 44 -67 37 -2 -2 3 -24 11 -48 9 -24 15 -61 13 -82 -1 -25 3 -41 12
-47 20 -12 8 -21 -35 -24 -20 -2 -41 -8 -48 -15 -6 -6 -17 -11 -25 -11 -10 0
-7 6 7 18 12 10 22 31 23 52 3 32 0 35 -25 38 -42 5 -43 28 -6 80 31 45 87
101 100 102 4 0 12 -13 19 -29z m5730 -128 c118 -113 263 -279 354 -407 62
-86 131 -204 124 -211 -3 -3 -24 30 -48 72 -82 143 -251 346 -464 558 -160
158 -134 149 34 -12z m-6678 109 c-7 -2 -12 -20 -13 -40 l-1 -37 -10 34 c-12
42 -5 63 19 54 10 -4 12 -8 5 -11z m-147 -32 c-3 -5 -1 -10 6 -10 16 0 50 -41
46 -54 -2 -6 -17 -12 -33 -13 l-29 -3 25 11 c19 8 21 13 10 17 -8 3 -19 11
-23 18 -11 19 -46 18 -54 -1 -3 -9 3 -22 13 -31 18 -14 18 -15 -6 -8 -14 3
-31 12 -39 19 -10 10 -18 11 -31 3 -23 -15 -90 -1 -90 17 0 11 12 15 40 15 22
0 40 4 40 9 0 6 24 12 53 14 28 2 58 4 65 5 7 1 10 -2 7 -8z m-254 -31 c41
-21 -4 -31 -61 -13 -13 5 -13 6 0 14 20 13 37 12 61 -1z m-115 -10 c10 -17
-13 -36 -27 -22 -12 12 -4 33 11 33 5 0 12 -5 16 -11z m1282 -3 c-10 -7 -18
-18 -18 -24 0 -5 -7 -13 -16 -16 -11 -4 -14 -13 -10 -30 3 -14 0 -28 -8 -35
-24 -20 -130 -52 -184 -56 -30 -2 -56 -6 -60 -9 -9 -9 -22 -7 -22 4 0 23 74
79 118 90 26 6 81 28 122 50 76 39 109 50 78 26z m22 -96 c0 -25 -60 -65 -123
-81 -60 -15 -74 -4 -16 11 29 8 56 25 79 50 39 43 60 50 60 20z m-467 -69 c-3
-10 -17 -22 -31 -25 -39 -9 -588 -20 -581 -12 4 4 85 11 180 17 135 7 377 29
431 38 3 0 4 -8 1 -18z m696 -51 c35 -11 120 -31 189 -45 258 -51 426 -101
386 -115 -10 -4 -36 -5 -56 -2 -42 5 -46 -2 -22 -36 17 -24 4 -31 -16 -7 -17
20 -40 19 -56 -2 -13 -17 -13 -17 -14 0 0 21 -28 23 -36 2 -5 -12 -10 -13 -20
-5 -9 8 -18 8 -33 1 -11 -6 -27 -8 -35 -5 -27 10 -17 -15 12 -30 15 -9 21 -15
11 -16 -8 0 -21 6 -27 12 -10 10 -17 10 -33 0 -18 -11 -19 -10 -13 12 6 26
-12 44 -28 28 -6 -6 -17 -8 -24 -5 -8 3 -14 0 -14 -7 0 -9 -4 -9 -12 -2 -17
13 -79 3 -77 -12 3 -15 -11 -46 -21 -46 -4 0 -21 13 -36 28 -16 16 -37 32 -46
35 -15 5 -16 2 -8 -19 13 -33 13 -34 -6 -34 -8 0 -12 5 -9 10 10 17 -4 47 -25
53 -17 4 -20 0 -20 -29 0 -37 -15 -46 -25 -14 -9 28 -28 25 -21 -2 l6 -23 -12
23 c-7 14 -17 21 -26 17 -9 -3 -19 0 -23 6 -5 9 -13 7 -30 -5 -29 -20 -39 -20
-39 0 0 8 5 12 11 8 7 -4 10 1 7 12 -2 10 -12 20 -22 22 -15 3 -18 -1 -14 -22
7 -38 -10 -32 -20 7 -8 30 -9 31 -16 9 -6 -18 -12 -21 -34 -16 -35 9 -79 31
-87 45 -4 6 7 4 23 -5 17 -9 39 -16 49 -15 10 0 13 3 6 5 -7 3 -9 12 -6 20 3
8 -1 14 -10 14 -24 0 -38 25 -29 50 5 12 37 47 73 77 l64 54 101 -5 c59 -3
126 -14 163 -26z m-434 -38 c16 -11 12 -37 -5 -37 -8 0 -14 6 -12 13 1 6 -4
12 -12 12 -8 0 -18 5 -21 10 -7 11 35 13 50 2z m-45 -157 c0 -26 15 -34 23
-12 3 9 10 7 23 -5 11 -11 13 -18 6 -18 -7 0 -12 -4 -12 -10 0 -5 15 -10 33
-10 17 0 77 -11 132 -25 55 -14 110 -25 122 -25 13 0 23 -3 23 -7 0 -5 24 -7
53 -5 40 3 57 0 67 -13 12 -15 10 -16 -16 -11 -27 6 -27 5 6 -10 46 -21 118
-14 141 15 16 19 17 20 22 2 4 -16 13 -18 68 -16 86 3 89 3 89 16 0 6 -9 9
-20 6 -10 -3 -24 1 -31 9 -10 12 -3 14 36 14 43 0 47 -2 42 -20 -4 -16 -1 -20
11 -16 9 2 29 7 44 10 18 4 25 11 22 20 -4 10 9 17 46 25 63 14 83 14 75 1 -3
-5 -15 -10 -26 -10 -11 0 -19 -7 -19 -16 0 -11 6 -14 20 -10 11 3 29 9 41 12
12 3 18 11 15 19 -7 18 42 29 61 13 12 -10 17 -9 24 5 6 9 16 14 25 10 9 -3
20 0 25 8 5 9 21 12 45 10 23 -2 40 2 46 11 7 10 10 10 19 -5 8 -13 14 -15 28
-7 15 7 18 6 17 -8 -1 -19 -31 -29 -94 -31 -35 -1 -42 -4 -40 -18 2 -14 -5
-18 -32 -19 -34 -2 -50 -5 -99 -25 -16 -7 -28 -6 -37 2 -8 6 -31 9 -56 5 -125
-16 -162 -24 -166 -35 -3 -9 -7 -9 -18 0 -11 9 -24 9 -57 -1 -23 -8 -46 -12
-52 -10 -5 2 -59 5 -120 6 -229 4 -295 9 -312 27 -11 11 -13 17 -5 17 7 0 12
7 12 15 0 22 -23 18 -38 -6 -15 -23 -24 -21 -118 22 -34 16 -67 35 -74 44 -7
8 -21 15 -32 15 -14 0 -18 5 -14 16 3 9 6 24 6 35 0 10 5 19 10 19 6 0 10 -11
10 -25z m1143 -6 c-15 -15 -123 -33 -134 -22 -7 7 9 13 50 17 34 4 67 13 74
21 7 7 14 9 16 3 2 -5 -1 -14 -6 -19z m-1307 -11 c10 -17 -33 -48 -67 -48 -16
0 -29 -4 -29 -10 0 -19 -17 -10 -29 16 -14 31 -12 34 31 44 50 12 86 11 94 -2z
m3834 -8 c8 -5 30 -14 48 -21 27 -10 32 -16 27 -33 -4 -12 -11 -40 -15 -63
-17 -78 -65 -153 -90 -138 -6 4 1 20 19 43 25 33 51 90 51 113 0 27 -30 0 -65
-57 -37 -61 -102 -124 -129 -124 -6 0 -21 26 -33 58 -18 45 -20 65 -13 96 5
21 13 42 18 45 5 3 13 20 16 38 4 17 13 36 19 41 25 21 108 22 147 2z m555 -6
c26 -13 31 -13 41 1 11 14 12 14 18 0 4 -11 13 -14 31 -9 24 6 25 5 25 -42 0
-30 -9 -68 -24 -99 -24 -52 -71 -115 -87 -115 -8 0 1 17 53 98 20 32 24 76 6
70 -7 -3 -25 -27 -41 -54 -39 -66 -63 -91 -122 -125 -67 -38 -81 -37 -89 6 -4
20 -4 40 -1 46 4 5 2 16 -4 23 -8 9 -5 23 9 50 10 21 22 51 25 66 3 16 13 34
21 41 8 6 14 16 14 22 0 6 8 19 17 29 18 21 54 18 108 -8z m499 -5 c18 -14 34
-19 51 -15 15 4 25 2 25 -4 0 -7 13 -9 35 -4 43 8 46 -7 10 -51 -19 -23 -25
-26 -25 -12 0 27 -15 20 -45 -20 -69 -94 -135 -143 -191 -143 -25 0 -26 2 -21
43 7 65 31 141 55 171 11 15 18 34 15 42 -9 23 59 18 91 -7z m-3909 1 c3 -5 1
-10 -4 -10 -6 0 -11 5 -11 10 0 6 2 10 4 10 3 0 8 -4 11 -10z m148 -1 c23 -1
-29 -18 -58 -18 l-30 -1 25 14 c14 8 31 12 38 10 8 -2 19 -4 25 -5z m-1078
-10 c-9 -13 21 -46 59 -66 21 -11 31 -12 36 -3 5 8 11 6 20 -5 10 -12 10 -15
-4 -15 -10 0 -14 -4 -11 -10 3 -5 19 -10 35 -10 16 0 31 -4 34 -9 4 -5 -3 -7
-14 -4 -11 3 -20 0 -20 -6 0 -6 7 -11 15 -11 8 0 15 -4 15 -8 0 -20 176 -73
287 -88 68 -9 143 3 143 22 0 17 57 19 80 4 11 -8 5 -10 -24 -8 -24 2 -41 -2
-43 -9 -7 -20 43 -26 77 -10 16 9 30 12 30 7 0 -14 -23 -27 -80 -45 -82 -26
-117 -47 -205 -122 -217 -186 -333 -378 -380 -627 -18 -95 -17 -197 2 -203 20
-7 84 153 88 217 3 52 4 53 20 40 13 -11 15 -8 15 19 0 17 5 31 10 31 6 0 10
11 10 25 0 15 6 25 15 25 8 0 12 6 9 13 -3 8 2 20 11 27 8 7 15 26 15 43 0 29
1 30 14 11 14 -19 15 -19 21 1 4 11 11 31 16 44 5 13 8 26 5 28 -9 9 26 37 47
38 14 0 23 10 31 36 13 44 81 104 128 114 25 6 98 66 98 81 0 2 -10 4 -22 4
-32 0 -17 9 39 23 l50 13 -14 -25 c-7 -14 -13 -32 -13 -40 0 -7 -11 -22 -25
-33 -14 -11 -25 -26 -25 -34 0 -8 -7 -14 -15 -14 -8 0 -15 -4 -15 -10 0 -5 6
-10 12 -10 7 0 3 -7 -9 -15 -35 -25 -58 -81 -45 -110 9 -20 9 -23 -3 -18 -10
3 -15 -2 -15 -16 0 -12 5 -21 11 -21 5 0 8 -3 6 -8 -3 -4 -8 -37 -11 -74 -4
-57 -10 -74 -42 -115 -20 -26 -42 -60 -48 -75 -6 -15 -33 -45 -58 -68 -107
-94 -251 -311 -235 -354 27 -71 193 82 312 289 65 113 87 142 123 161 34 18
34 18 52 -6 38 -52 59 -72 70 -65 8 5 11 1 8 -11 -2 -13 5 -23 26 -32 32 -14
46 -8 28 10 -19 19 -14 28 16 28 37 0 60 -15 36 -24 -14 -5 -15 -9 -5 -19 9
-9 14 -9 21 3 5 8 24 14 44 14 38 0 48 11 19 19 -14 4 -15 5 -2 6 41 3 49 -18
59 -179 6 -85 17 -204 26 -265 8 -60 19 -207 24 -325 9 -211 29 -373 49 -393
17 -17 60 1 68 31 15 51 5 286 -17 391 -15 75 -20 137 -20 258 0 87 -5 253
-12 370 -10 182 -10 214 3 229 19 23 198 106 330 154 145 52 261 107 350 167
41 28 90 58 109 68 34 17 142 47 148 40 2 -2 -14 -16 -36 -31 -47 -35 -149
-119 -332 -274 -74 -64 -188 -158 -254 -210 -244 -193 -238 -240 55 -389 l146
-74 7 -81 c11 -131 35 -266 63 -346 59 -170 160 -357 229 -420 42 -39 74 -78
74 -92 0 -4 -17 -12 -37 -18 -85 -23 -770 -143 -1123 -196 -143 -21 -214 -26
-530 -31 -394 -7 -467 -2 -685 44 -250 52 -482 144 -665 263 -131 86 -295 253
-343 353 -78 158 -113 342 -104 537 7 160 28 238 102 387 79 161 163 271 327
429 204 195 368 300 798 512 140 69 266 134 279 144 26 20 46 24 36 7z m-187
-33 c3 -14 -1 -17 -17 -11 -15 5 -21 2 -21 -9 0 -9 -9 -16 -20 -16 -29 0 -25
22 8 42 32 19 46 18 50 -6z m1865 -43 c-13 -2 -23 -9 -23 -14 0 -6 -5 -7 -10
-4 -6 3 -17 -1 -25 -9 -9 -8 -22 -13 -30 -9 -9 3 -21 0 -29 -6 -7 -6 -15 -8
-18 -5 -3 3 -23 -2 -43 -10 -21 -9 -56 -16 -79 -17 -31 0 -36 -2 -21 -8 18 -7
16 -9 -12 -15 -18 -4 -42 -4 -54 -1 -14 5 -25 1 -33 -11 -9 -12 -15 -14 -20
-6 -11 18 -27 14 -24 -5 2 -13 -5 -19 -24 -21 -32 -4 -36 8 -10 30 26 23 171
68 220 68 23 0 54 7 67 16 26 17 99 32 155 31 21 0 26 -1 13 -4z m1227 -33
c-9 -16 -18 -21 -36 -17 -19 3 -28 -2 -39 -23 -18 -34 -62 -72 -104 -90 -68
-28 -45 19 26 52 24 11 43 26 43 32 0 20 63 74 90 78 30 4 35 -4 20 -32z
m-150 10 c0 -5 -13 -16 -28 -24 -39 -20 -162 -59 -168 -53 -3 3 31 17 75 32
44 14 85 33 91 41 14 16 30 19 30 4z m500 -12 c0 -4 -8 -8 -17 -8 -13 0 -14
-3 -5 -12 8 -8 -4 -28 -51 -81 -68 -77 -126 -121 -154 -115 -22 4 -20 41 5 78
9 14 15 30 14 37 -2 7 7 17 18 23 11 6 20 17 20 25 0 18 12 19 28 3 19 -19 14
3 -5 25 -18 20 -17 20 15 14 21 -4 32 -3 32 5 0 9 3 9 12 0 16 -16 28 -15 28
1 0 8 12 14 30 14 17 0 30 -4 30 -9z m1680 -7 c0 -14 -49 -70 -71 -81 -12 -7
-5 7 19 40 35 48 52 61 52 41z m330 -31 c42 -32 80 -71 80 -81 0 -15 -66 -83
-99 -102 -41 -24 -39 -15 10 38 58 63 44 76 -21 20 -67 -57 -95 -72 -149 -81
-36 -6 -41 -4 -41 12 0 39 22 97 46 121 13 13 24 29 24 35 0 22 82 70 111 64
3 0 21 -12 39 -26z m-3105 -6 l50 -13 -49 5 c-54 6 -108 23 -71 22 11 0 43 -6
70 -14z m-187 -80 c-84 -86 -161 -143 -257 -187 -55 -26 -62 -32 -41 -35 13
-2 42 1 63 8 60 18 54 6 -15 -30 -35 -19 -83 -46 -107 -62 -24 -15 -87 -42
-139 -59 -116 -39 -420 -189 -469 -232 -20 -18 -47 -56 -60 -85 -21 -48 -26
-53 -47 -48 -15 4 -28 0 -36 -9 -14 -17 -46 -20 -55 -5 -3 6 4 10 18 10 14 0
30 7 37 15 10 12 9 15 -6 15 -11 0 -36 13 -55 29 -25 21 -43 28 -57 24 -32 -8
-42 26 -14 45 12 8 22 21 22 29 0 8 8 28 17 44 14 24 33 35 93 53 41 13 98 27
125 31 144 19 193 36 283 97 l43 29 -7 -25 c-9 -38 12 -33 77 15 30 22 86 59
124 81 39 23 92 58 119 80 54 43 72 48 56 17 -29 -53 36 -27 124 51 33 28 76
62 96 75 38 24 90 79 90 96 0 5 12 9 26 9 24 0 20 -6 -48 -76z m-998 58 c0 -5
-6 -9 -12 -10 -7 -1 -35 -4 -63 -6 l-50 -5 50 13 c61 17 75 18 75 8z m880 -7
c18 -22 19 -22 -90 -145 -27 -31 -40 -40 -40 -27 0 10 -8 17 -21 17 -18 0 -20
4 -14 33 12 55 29 82 55 85 13 2 38 15 55 28 35 28 39 29 55 9z m633 -2 c-24
-2 -62 -2 -85 0 -24 2 -5 4 42 4 47 0 66 -2 43 -4z m-947 -18 c-11 -8 -28 -13
-38 -9 -11 3 -18 0 -18 -8 0 -31 -213 -132 -304 -144 -47 -7 -58 -17 -30 -28
58 -22 140 4 353 111 90 46 173 83 184 83 12 0 -35 -28 -103 -63 -69 -34 -145
-76 -170 -93 -72 -50 -100 -61 -256 -104 -156 -43 -276 -93 -334 -138 -19 -16
-56 -40 -82 -55 -38 -22 -48 -25 -48 -12 0 8 5 15 10 15 6 0 10 7 10 16 0 14
3 14 15 4 9 -7 17 -11 18 -9 32 41 47 72 45 91 -2 17 2 23 15 22 9 -1 17 4 17
10 0 22 159 164 198 177 20 6 41 15 46 20 17 16 36 10 29 -8 -5 -12 5 -8 32
13 59 46 86 59 95 44 9 -15 46 -8 43 7 -4 17 54 34 82 23 24 -9 85 7 85 23 0
5 9 5 20 2 11 -3 20 -2 20 4 0 5 12 12 28 14 54 8 58 7 38 -8z m620 -1 c30 -4
54 -11 54 -15 0 -13 -48 -22 -86 -16 -37 6 -116 -27 -161 -67 -41 -36 -24 -1
20 40 55 54 89 75 105 69 8 -3 38 -8 68 -11z m501 -28 c-21 -32 -83 -79 -98
-74 -6 2 14 27 46 56 59 54 80 61 52 18z m-1471 5 c-3 -5 -20 -14 -36 -20 -35
-12 -32 5 4 19 28 12 38 12 32 1z m1234 -16 c0 -9 -82 -26 -100 -20 -39 12
-19 25 40 25 33 0 60 -2 60 -5z m-1540 -24 c-88 -47 -144 -71 -166 -71 -12 0
-25 -4 -28 -9 -10 -16 -108 -23 -117 -9 -15 23 -9 38 15 38 13 0 41 7 62 17
72 30 159 52 214 52 l55 0 -35 -18z m775 -21 c3 -5 -1 -10 -10 -10 -8 0 -18
-8 -21 -17 -20 -62 -42 -85 -114 -124 -41 -22 -86 -51 -100 -64 -14 -12 -36
-28 -49 -35 -23 -12 -23 -11 -17 15 4 15 10 41 13 59 6 32 39 76 56 76 6 0 18
7 27 15 27 24 163 93 187 94 12 1 25 -3 28 -9z m454 -7 c-25 -34 -73 -83 -80
-83 -13 0 10 55 32 79 11 11 29 21 41 21 18 0 19 -2 7 -17z m2601 -7 c0 -27
-15 -42 -25 -26 -8 13 3 50 16 50 5 0 9 -11 9 -24z m-2190 7 c-1 -5 -33 -42
-71 -83 -39 -41 -68 -67 -65 -57 3 10 6 27 6 38 0 26 84 109 110 109 11 0 20
-3 20 -7z m-260 -12 c0 -5 -19 -24 -42 -42 l-43 -33 40 42 c42 45 45 47 45 33z
m1390 -20 c0 -33 -16 -49 -33 -32 -7 7 -7 18 1 36 16 34 32 32 32 -4z m-1336
7 c-18 -31 -68 -87 -80 -92 -25 -10 -14 14 27 59 39 42 70 61 53 33z m356 1
c0 -15 -37 -77 -63 -106 -14 -15 -32 -23 -54 -23 -18 0 -33 3 -33 6 0 13 68
89 100 110 39 27 50 29 50 13z m1540 -8 c0 -5 -7 -14 -15 -21 -13 -10 -15 -9
-15 9 0 12 6 21 15 21 8 0 15 -4 15 -9z m-71 -108 c-3 -121 -5 -133 -25 -133
-12 0 -12 -4 1 -24 21 -32 16 -76 -10 -90 -28 -16 -35 -28 -29 -52 3 -12 1
-25 -5 -28 -29 -18 -3 222 35 322 13 35 24 75 24 88 0 13 3 24 6 24 3 0 4 -48
3 -107z m491 10 c-6 -29 -9 -57 -5 -63 7 -12 -18 -40 -36 -40 -8 0 -10 -11 -6
-33 6 -41 -2 -89 -15 -81 -16 10 12 178 45 264 18 46 22 51 25 30 2 -14 -1
-49 -8 -77z m-2080 81 c0 -4 -18 -30 -40 -58 -23 -28 -51 -65 -63 -83 -12 -18
-85 -114 -162 -213 -221 -286 -375 -490 -412 -549 -49 -74 -55 -101 -37 -162
9 -28 13 -53 11 -56 -7 -6 -121 53 -136 71 -7 8 -15 52 -18 96 l-6 81 165 167
c90 92 199 208 243 257 88 101 436 454 448 455 4 0 7 -3 7 -6z m510 -23 c0
-20 -17 -37 -27 -28 -7 8 7 47 18 47 5 0 9 -9 9 -19z m-1079 -19 c-5 -9 -24
-31 -43 -48 -28 -27 -64 -53 -212 -153 -61 -42 -110 -71 -98 -60 6 7 12 27 12
44 0 23 8 35 35 53 19 12 41 22 50 22 8 0 19 9 25 20 6 12 21 20 35 20 16 0
25 6 25 15 0 9 8 19 18 22 9 4 46 26 81 50 62 42 90 48 72 15z m154 18 c-3 -5
-12 -10 -19 -10 -8 0 -19 -7 -26 -16 -20 -23 -148 -96 -161 -92 -6 2 11 16 37
30 27 15 67 42 89 62 36 32 95 51 80 26z m1430 -56 c-8 -16 -15 -39 -15 -50 0
-12 -9 -33 -21 -48 -18 -23 -18 -26 -4 -26 13 0 15 -5 10 -17 -12 -29 -11 -58
3 -55 6 1 12 -2 12 -8 0 -5 -7 -10 -15 -10 -18 0 -20 -31 -2 -49 10 -10 9 -14
-6 -22 -12 -7 -15 -17 -11 -35 4 -15 2 -24 -6 -24 -7 0 -10 -6 -7 -14 3 -8 -1
-17 -9 -20 -17 -6 -19 -42 -3 -52 8 -5 6 -10 -5 -16 -10 -6 -16 -22 -16 -48 0
-50 -17 -52 -26 -4 -19 104 54 465 109 532 18 23 28 -3 12 -34z m-3055 18 c0
-11 -46 -63 -102 -119 -119 -115 -154 -141 -170 -125 -8 8 6 28 48 73 61 63
203 188 217 189 4 0 7 -8 7 -18z m3169 -14 c5 -13 6 -27 3 -33 -4 -5 -5 -18
-4 -28 2 -10 -1 -24 -7 -31 -14 -17 -2 -86 15 -86 21 0 17 -21 -5 -27 -14 -4
-21 -15 -23 -42 l-3 -36 -15 30 c-11 22 -14 43 -8 79 4 28 5 53 2 57 -2 4 0 9
5 11 4 1 10 27 13 56 5 51 4 53 -16 48 -20 -5 -21 -5 -2 9 27 20 35 19 45 -7z
m554 -5 c4 -3 2 -12 -4 -20 -9 -10 -8 -18 6 -33 10 -11 13 -20 7 -20 -7 0 -12
-4 -12 -10 0 -5 7 -10 15 -10 8 0 15 -4 15 -10 0 -5 -4 -10 -10 -10 -5 0 -10
-11 -10 -24 0 -22 -16 -36 -41 -36 -17 0 -9 18 11 23 26 7 25 35 -2 64 -12 13
-16 23 -10 23 7 0 12 15 12 35 0 33 8 43 23 28z m-2063 -15 c0 -20 -168 -177
-197 -184 -36 -9 -49 15 -18 36 35 23 126 95 164 129 36 33 51 38 51 19z
m-1455 -48 c-9 -10 -20 -33 -26 -53 -6 -21 -17 -37 -29 -40 -20 -5 -28 -27
-10 -27 6 0 10 -4 10 -10 0 -5 -7 -10 -15 -10 -9 0 -12 -6 -9 -15 4 -8 1 -22
-5 -29 -8 -10 -9 -16 -1 -21 16 -10 12 -45 -10 -72 -26 -33 -25 -37 6 -52 17
-8 24 -17 20 -27 -21 -54 -19 -63 18 -78 20 -8 39 -22 42 -31 4 -9 28 -27 55
-41 27 -13 49 -27 49 -29 0 -3 -16 -5 -35 -5 -25 0 -43 8 -65 30 -17 17 -36
30 -43 30 -40 0 -94 181 -81 274 6 45 35 116 47 116 4 0 7 9 7 19 0 26 84 125
88 105 2 -9 -4 -24 -13 -34z m2335 37 c0 -6 -4 -27 -9 -44 -6 -20 -6 -35 0
-38 16 -10 10 -35 -8 -35 -16 -1 -16 -2 2 -16 19 -14 19 -16 2 -25 -9 -6 -14
-15 -11 -21 4 -6 -1 -17 -11 -24 -17 -12 -17 -15 -1 -38 21 -33 20 -39 -3 -31
-26 8 -36 -11 -16 -31 14 -15 13 -19 -15 -45 -31 -30 -54 -37 -65 -19 -3 6 4
10 17 10 22 1 22 1 4 15 -15 12 -16 15 -5 15 9 0 21 12 28 28 17 35 52 185 58
242 2 25 6 51 8 58 6 16 25 16 25 -1z m-710 -18 c0 -12 -70 -89 -81 -89 -19 0
-8 28 27 68 32 38 54 47 54 21z m-1019 -6 c12 -15 12 -16 -3 -10 -13 5 -18 1
-18 -12 0 -40 -140 -132 -197 -130 -25 1 -23 2 13 14 56 18 124 53 124 65 0 6
-4 10 -8 10 -30 0 -344 -121 -366 -141 -16 -14 -26 -10 -26 9 0 10 -5 23 -10
28 -15 15 11 33 100 73 102 46 104 47 201 70 47 11 96 25 110 30 37 15 65 13
80 -6z m3437 -11 c-1 -4 -16 -5 -33 -1 l-30 7 28 1 c15 0 27 7 28 14 0 10 2
10 6 0 2 -7 3 -17 1 -21z m-2248 -22 c0 -20 -39 -77 -282 -408 -51 -70 -100
-133 -110 -140 -10 -7 -18 -18 -18 -24 0 -25 -145 -223 -178 -242 -25 -15 -32
8 -13 44 11 19 26 49 34 66 8 17 30 47 50 66 19 19 43 52 52 72 10 21 29 44
41 53 13 8 24 21 24 29 0 7 9 18 20 24 11 6 20 19 20 28 0 10 19 38 43 62 23
24 54 62 68 85 15 22 45 60 68 84 22 24 41 51 41 59 0 15 20 43 83 114 47 52
57 57 57 28z m4284 -23 c10 -23 26 -62 36 -87 9 -25 27 -67 39 -94 17 -36 21
-57 16 -84 -6 -31 -5 -34 8 -24 18 15 13 23 73 -153 61 -177 127 -457 112
-467 -17 -10 -38 10 -38 38 0 12 -4 25 -9 28 -5 3 -7 15 -4 26 5 20 -42 74
-58 65 -4 -3 -13 4 -19 15 -9 16 -8 25 1 36 10 12 8 16 -9 21 -27 7 -38 43
-22 73 6 12 9 24 7 27 -3 2 -10 -5 -17 -16 -12 -24 -35 -29 -27 -6 4 8 2 17
-3 20 -16 10 -11 42 8 50 16 6 16 7 -1 17 -13 7 -17 17 -13 33 5 19 2 24 -16
27 -19 2 -23 9 -22 35 l2 33 -28 -20 c-37 -26 -49 -8 -13 19 29 21 16 29 -18
11 -15 -9 -26 -4 -56 24 l-38 34 24 19 c17 14 22 24 15 34 -5 8 -7 21 -6 29 3
17 -33 21 -55 7 -15 -9 -22 15 -22 75 1 57 -7 74 -27 57 -10 -9 -14 -9 -14 0
0 22 32 24 60 2 42 -31 56 -26 26 10 -16 19 -23 36 -19 44 8 13 93 84 103 84
3 1 13 -18 24 -42z m-4574 25 c0 -5 -44 -47 -98 -94 -115 -102 -394 -385 -474
-481 -57 -69 -66 -91 -75 -184 -6 -64 -12 -65 -103 -22 -149 70 -142 87 112
285 230 178 351 278 473 390 61 55 117 103 125 107 23 8 40 8 40 -1z m2850
-35 c0 -12 7 -42 16 -66 12 -35 13 -50 3 -79 -10 -31 -9 -38 7 -51 19 -16 33
-91 17 -91 -17 0 -68 177 -79 271 -7 60 -7 61 15 50 11 -7 21 -22 21 -34z
m-336 -36 c-2 -2 -13 4 -23 13 -16 14 -17 21 -8 31 10 10 14 7 23 -14 6 -14
10 -28 8 -30z m438 17 c7 -13 18 -40 24 -60 10 -31 9 -38 -2 -38 -8 0 -14 9
-14 20 0 11 -4 20 -8 20 -4 0 -13 18 -19 40 -11 44 -1 53 19 18z m-538 3 c3
-5 -3 -20 -14 -32 -11 -13 -19 -19 -20 -12 0 6 5 15 10 18 6 3 10 11 10 16 0
6 -4 7 -10 4 -5 -3 -10 -1 -10 4 0 13 27 15 34 2z m-2424 -36 c0 -16 -26 -55
-37 -55 -7 0 -13 -3 -13 -7 0 -5 -17 -26 -38 -48 -40 -43 -99 -110 -166 -188
-107 -124 -279 -287 -304 -287 -27 0 -38 18 -19 33 8 7 37 39 64 73 26 33 109
118 183 188 74 70 139 134 143 142 4 8 13 14 19 14 5 0 42 32 81 70 62 62 87
80 87 65z m2533 -12 c-48 -6 -40 -23 10 -23 l42 0 -42 -20 c-24 -10 -43 -25
-44 -32 -1 -7 -5 3 -9 22 -11 44 2 61 44 58 l31 -1 -32 -4z m-483 -26 c0 9 20
-19 20 -29 0 -3 -13 0 -30 8 -16 9 -30 20 -30 25 0 6 8 5 20 -1 11 -6 20 -7
20 -3z m-2702 -29 c3 -13 -3 -18 -22 -18 -14 0 -27 -4 -31 -9 -9 -16 -92 -59
-127 -66 -39 -9 -70 -22 -196 -82 -51 -25 -112 -47 -135 -49 -23 -2 -36 -1
-28 2 8 4 24 17 36 30 12 13 27 24 32 24 5 0 18 9 27 19 10 11 43 29 74 42 31
12 88 40 126 61 37 21 83 39 102 41 19 1 34 7 34 12 0 6 4 4 9 -3 6 -10 10
-10 21 3 18 22 74 16 78 -7z m3042 -29 c0 -10 5 -19 10 -19 6 0 10 -4 10 -10
0 -5 -9 -10 -20 -10 -19 0 -20 -5 -15 -52 4 -37 2 -47 -4 -33 -5 11 -10 50
-10 87 -1 56 2 66 14 62 8 -4 15 -15 15 -25z m-330 6 c5 3 10 1 10 -4 0 -6 -7
-11 -15 -11 -10 0 -15 -10 -16 -27 0 -25 -1 -26 -9 -8 -5 11 -9 31 -9 44 -1
19 1 21 14 11 8 -6 19 -9 25 -5z m1006 -67 c4 -10 14 -18 23 -18 14 0 14 -2 1
-10 -21 -13 -30 -12 -30 3 0 8 -17 32 -38 55 -29 31 -34 42 -23 44 16 3 55
-41 67 -74z m-4486 59 c0 -14 -50 -47 -71 -47 -16 0 42 59 59 60 6 0 12 -6 12
-13z m1100 -1 c0 -21 -37 -63 -94 -106 -28 -21 -80 -62 -116 -90 -61 -47 -170
-132 -245 -191 -19 -14 -46 -40 -61 -58 -15 -18 -38 -37 -50 -42 -16 -6 -22
-13 -17 -25 5 -13 2 -15 -18 -9 -34 11 -35 12 -14 47 21 37 64 77 83 78 6 0
12 6 12 13 0 8 21 29 48 47 26 19 78 60 115 92 38 32 77 58 88 58 11 0 17 5
14 10 -3 6 9 23 27 38 18 15 53 46 78 70 27 25 62 47 87 54 23 7 40 15 37 20
-3 4 2 8 10 8 9 0 16 -6 16 -14z m-1690 -73 c-34 -86 -83 -173 -97 -173 -15 0
-17 16 -3 25 6 3 10 13 10 22 0 9 16 48 36 87 60 117 94 142 54 39z m3415 46
c-10 -15 -25 -10 -19 6 4 8 10 12 15 9 5 -3 7 -10 4 -15z m1159 12 c13 -5 16
-10 8 -14 -6 -5 -9 -23 -6 -45 4 -26 3 -33 -4 -23 -6 8 -17 11 -27 7 -14 -5
-16 -4 -6 8 9 11 7 15 -9 19 -20 5 -28 27 -10 27 6 0 10 -4 10 -10 0 -5 5 -10
10 -10 21 0 10 39 -12 43 -21 4 -21 4 2 5 14 0 34 -3 44 -7z m-1113 -22 c8
-16 8 -27 -1 -44 -17 -32 -9 -154 11 -169 27 -20 31 -47 9 -53 -25 -7 -26 -28
-2 -38 15 -6 14 -8 -7 -16 -22 -9 -23 -11 -8 -27 13 -15 14 -21 4 -31 -10 -11
-8 -13 11 -8 22 5 23 4 8 -12 -21 -23 -20 -29 7 -33 16 -2 23 -11 25 -30 2
-16 9 -28 16 -28 7 0 13 -7 13 -15 0 -32 -49 -2 -85 51 -11 16 -12 16 -8 2 7
-22 -17 -24 -34 -3 -8 9 -8 15 -2 15 6 0 17 7 25 15 20 20 0 67 -24 60 -17 -6
-35 22 -23 34 4 3 9 0 11 -6 12 -34 23 -5 23 62 0 50 -4 75 -12 75 -6 0 -4 8
6 19 19 21 12 51 -13 51 -14 1 -14 2 2 11 21 12 23 39 2 39 -13 0 -11 5 5 23
15 15 20 30 16 50 -7 32 9 36 25 6z m551 -19 c2 -22 0 -40 -4 -40 -5 0 -8 18
-8 40 0 22 2 40 4 40 2 0 6 -18 8 -40z m2258 0 c0 -6 10 -24 22 -40 25 -35 18
-48 -17 -32 -16 8 -25 20 -25 35 0 19 -8 26 -37 34 l-38 10 48 2 c27 0 47 -3
47 -9z m-1106 -42 c18 -34 20 -48 9 -48 -9 0 -33 49 -33 67 0 21 7 15 24 -19z
m1034 -11 c7 3 12 -4 12 -19 0 -17 3 -19 9 -9 7 10 14 6 32 -18 12 -17 31 -33
41 -37 10 -3 18 -15 18 -26 0 -15 5 -19 20 -15 15 4 20 0 20 -16 -1 -34 -34
-99 -69 -131 -30 -29 -31 -29 -51 -11 -13 11 -18 25 -14 37 3 10 1 18 -5 18
-6 0 -11 9 -11 20 0 11 -7 20 -15 20 -8 0 -15 7 -15 15 0 8 6 15 13 15 6 0 0
10 -15 23 -22 17 -29 34 -34 75 -7 62 8 92 35 69 9 -8 22 -12 29 -10z m-2323
-21 c0 -19 -3 -38 -7 -42 -5 -4 -8 8 -8 28 0 27 6 48 14 48 1 0 1 -15 1 -34z
m183 -15 c0 -36 -1 -38 -24 -27 -27 12 -32 26 -9 26 9 0 15 10 15 26 0 14 4
23 9 19 6 -3 10 -23 9 -44z m600 16 c2 -12 -1 -15 -12 -11 -22 8 -30 36 -9 32
10 -2 19 -11 21 -21z m465 -2 c10 -14 15 -25 11 -25 -11 0 -44 32 -44 42 0 15
15 8 33 -17z m-510 -34 c1 -19 6 -22 30 -18 29 4 58 -25 37 -38 -5 -3 -10 0
-10 8 0 16 -82 30 -88 15 -5 -12 -22 1 -22 17 0 9 6 12 15 9 20 -8 19 6 -2 22
-16 12 -16 15 -3 23 19 13 40 -7 43 -38z m-1821 16 c-6 -7 -9 -23 -5 -35 4
-18 1 -22 -18 -22 -22 -1 -23 -2 -6 -14 15 -11 15 -15 3 -19 -8 -3 -16 -18
-18 -34 -2 -22 -8 -28 -28 -28 -20 0 -26 6 -28 29 -2 16 2 34 9 40 9 8 10 6 6
-12 -3 -15 -1 -22 6 -19 7 2 13 21 15 42 3 34 2 37 -12 26 -16 -14 -21 -4 -8
15 7 11 52 38 64 39 3 0 10 3 14 8 12 12 18 -2 6 -16z m3662 -76 c19 -12 39
-35 46 -52 11 -26 11 -34 -7 -56 -26 -36 -54 -52 -60 -35 -3 6 -10 9 -16 5 -7
-4 -6 1 2 10 12 15 12 22 1 45 -7 15 -23 54 -35 87 -12 33 -26 69 -30 80 -4
11 9 1 29 -22 20 -23 51 -51 70 -62z m-1054 39 c0 -20 -5 -30 -15 -30 -16 0
-19 17 -9 44 10 26 24 18 24 -14z m-5060 -50 c0 -5 -4 -10 -10 -10 -5 0 -10
-8 -10 -17 0 -20 -48 -73 -67 -73 -20 0 -16 7 29 61 40 47 58 60 58 39z m3727
-16 c3 -8 0 -21 -7 -27 -10 -10 -11 -7 -5 12 5 15 4 21 -3 17 -6 -3 -13 -2
-17 4 -3 5 1 10 10 10 8 0 18 -7 22 -16z m-3255 -71 c1 -43 2 -98 3 -123 1
-25 5 -162 9 -305 6 -228 6 -258 -7 -242 -9 11 -19 62 -26 135 -6 64 -16 154
-22 198 -17 128 -17 377 0 397 30 37 41 20 43 -60z m4412 61 c16 -15 21 -34
10 -34 -16 0 -44 23 -44 35 0 19 15 19 34 -1z m85 -18 c9 -10 8 -15 -3 -19
-16 -7 -26 1 -26 20 0 17 14 17 29 -1z m-454 -31 c0 -10 -5 -20 -11 -22 -7 -2
-11 6 -10 22 1 28 21 29 21 0z m-693 -25 c3 -23 0 -25 -47 -28 -37 -2 -46 0
-35 8 12 8 13 11 1 19 -9 6 -10 11 -3 15 6 4 16 -3 22 -14 6 -11 20 -20 31
-20 18 0 20 4 14 33 -5 22 -4 29 3 22 6 -5 12 -21 14 -35z m559 -38 c-6 -2
-11 -15 -11 -28 0 -13 -5 -24 -11 -24 -5 0 -7 5 -4 10 4 6 -3 29 -14 50 -11
22 -17 40 -12 40 5 0 12 -7 15 -16 7 -18 30 -14 32 7 3 32 7 32 11 -1 3 -19 0
-36 -6 -38z m-305 36 c-3 -13 -6 -31 -6 -41 0 -16 -44 -43 -63 -38 -5 1 -5 -8
-2 -20 5 -15 4 -19 -4 -15 -18 12 -13 54 9 66 11 6 20 15 20 20 0 12 32 48 44
49 4 1 6 -9 2 -21z m-1646 1 c0 -5 -5 -9 -11 -9 -8 0 -8 -5 1 -15 10 -12 10
-15 -4 -15 -10 0 -16 -9 -16 -25 0 -18 4 -23 15 -19 10 4 15 0 15 -13 0 -29
-20 -44 -42 -32 -12 6 -18 6 -18 -1 0 -5 -4 -10 -10 -10 -23 0 -8 21 20 26 25
6 27 8 15 21 -8 8 -15 23 -15 34 0 12 -7 19 -20 19 -20 0 -24 8 -15 32 6 16
85 22 85 7z m3660 -81 c0 -14 -18 -9 -24 8 -11 28 -6 39 9 20 8 -11 15 -23 15
-28z m162 -38 c20 -41 37 -81 38 -89 0 -8 8 -24 18 -35 27 -31 41 -94 33 -151
l-7 -50 -8 34 c-18 74 -107 346 -116 355 -20 20 -10 -30 34 -164 39 -121 56
-178 73 -247 4 -19 1 -23 -17 -23 -19 0 -22 -4 -18 -27 3 -16 13 -79 23 -140
19 -124 41 -156 30 -45 -4 37 -11 85 -16 107 -11 53 -11 85 1 85 6 0 10 -8 10
-17 0 -38 23 -143 31 -143 17 0 9 91 -16 184 -7 25 -5 28 9 23 13 -5 16 0 16
28 0 42 20 47 40 10 7 -14 17 -25 22 -25 4 0 8 -9 8 -20 0 -11 4 -28 9 -38 5
-9 12 -25 15 -35 3 -10 10 -15 16 -12 12 8 69 -115 71 -153 1 -15 -1 -34 -5
-43 -5 -11 -1 -19 9 -23 9 -3 13 -11 9 -17 -4 -7 -9 -44 -11 -83 -6 -130 -55
-279 -108 -332 -55 -55 -129 -13 -185 104 -41 86 -56 148 -75 317 -9 77 -27
217 -40 310 -13 94 -26 208 -29 255 -6 82 -5 87 24 133 44 69 65 63 112 -33z
m-6362 53 c0 -10 -16 -35 -35 -57 -19 -21 -35 -43 -35 -48 0 -6 -12 -25 -27
-42 -16 -17 -36 -43 -45 -56 -17 -25 -17 -25 -11 25 7 61 29 100 88 154 48 45
65 51 65 24z m3480 -53 c0 -23 -33 -60 -54 -60 -7 0 -20 8 -27 18 -7 9 -10 14
-6 11 4 -4 21 6 37 22 33 34 50 37 50 9z m-943 -34 c-17 -13 -16 -14 3 -19 30
-8 26 -41 -4 -35 -17 3 -27 0 -31 -11 -6 -14 -8 -14 -21 3 -24 34 -17 53 24
64 50 13 50 13 29 -2z m3531 -29 c2 -20 8 -27 18 -23 8 3 14 -1 14 -8 0 -8 -7
-17 -16 -20 -13 -5 -13 -9 5 -32 27 -34 26 -52 -1 -81 -20 -21 -20 -23 -3 -23
14 0 16 -3 8 -11 -7 -7 -8 -20 -3 -34 4 -12 5 -27 0 -35 -4 -7 -5 -29 -3 -50
3 -22 1 -40 -6 -44 -7 -5 -7 -12 1 -26 9 -14 9 -34 -1 -87 -7 -37 -15 -112
-18 -166 -5 -82 -8 -95 -20 -85 -9 7 -12 21 -9 34 4 13 2 25 -3 28 -5 3 -12
63 -16 133 -4 71 -10 132 -13 137 -6 10 -10 35 -16 96 -2 19 -7 43 -11 53 -4
11 -3 17 5 17 8 0 11 10 7 28 -2 15 -2 36 2 46 5 11 1 32 -7 48 -8 16 -12 39
-8 51 3 11 0 27 -6 34 -8 10 -6 13 11 13 11 0 21 5 21 10 0 6 7 10 15 10 8 0
15 5 15 11 0 24 35 2 38 -24z m122 -137 c0 -60 4 -110 9 -110 5 0 11 -19 14
-42 3 -24 10 -74 16 -113 11 -67 11 -70 -11 -88 l-23 -19 22 5 c18 4 22 -1 27
-32 9 -58 20 -195 17 -205 -1 -6 3 -20 10 -32 6 -12 9 -28 6 -36 -3 -8 -11 2
-21 24 -29 67 -86 75 -127 17 -12 -17 -33 -63 -46 -103 -13 -41 -21 -56 -18
-36 17 127 47 450 60 640 9 124 17 234 19 245 2 11 4 24 5 29 0 6 10 0 21 -12
17 -18 20 -35 20 -132z m-3545 1 c-2 -2 -23 13 -46 33 -24 20 -47 36 -52 36
-5 0 -4 7 3 15 10 12 18 7 55 -33 24 -26 42 -49 40 -51z m-1425 74 c13 -16 18
-80 6 -92 -14 -14 -41 14 -44 46 -6 56 12 77 38 46z m-281 -9 c9 -7 41 -23 71
-34 71 -27 236 -102 281 -128 54 -32 559 -264 574 -264 4 0 26 -8 49 -19 23
-10 53 -24 69 -30 27 -11 36 -34 17 -46 -10 -6 -180 56 -205 75 -5 4 -45 20
-88 35 -44 16 -85 35 -93 43 -17 17 -44 9 -44 -13 0 -8 9 -23 19 -32 11 -9 18
-20 15 -25 -3 -5 0 -15 6 -23 10 -12 10 -15 1 -15 -8 0 -4 -12 9 -30 12 -16
19 -34 16 -39 -4 -5 -3 -11 1 -13 10 -4 53 -130 53 -154 0 -23 37 -124 53
-142 8 -10 7 -16 -3 -22 -20 -13 -40 -1 -46 29 -3 14 -9 33 -13 41 -4 8 -15
42 -25 75 -25 79 -58 170 -77 207 -5 10 -9 25 -9 33 0 8 -4 15 -10 15 -5 0 -7
7 -4 15 4 8 1 15 -6 15 -7 0 -10 8 -7 20 3 10 0 21 -6 23 -7 2 -5 12 6 27 21
30 21 40 2 40 -8 0 -23 4 -33 9 -34 19 -117 56 -127 57 -26 4 -55 17 -55 25 0
5 -10 9 -22 9 -19 0 -115 40 -173 72 -35 20 -67 36 -165 83 -52 25 -108 53
-125 62 l-30 17 25 7 c42 12 83 10 99 -5z m545 -111 c-5 -11 -2 -13 10 -9 12
4 16 0 16 -16 0 -11 11 -41 25 -66 28 -51 18 -57 -36 -21 -40 27 -61 86 -39
111 16 20 31 21 24 1z m-264 -144 c0 -11 4 -22 8 -25 10 -6 23 -129 26 -238 1
-37 -2 -64 -6 -62 -4 3 -8 0 -8 -7 0 -9 -3 -10 -11 -2 -5 5 -12 34 -14 64 -9
111 -11 124 -18 137 -5 6 -10 31 -12 55 -2 23 -6 54 -10 70 -7 24 -5 27 19 27
19 0 26 -5 26 -19z m170 -59 l84 -37 77 -218 c99 -279 122 -325 210 -419 41
-44 69 -83 66 -91 -3 -8 -38 -19 -89 -26 l-83 -14 -74 37 c-55 28 -71 41 -67
53 4 8 1 22 -5 29 -16 19 -45 71 -65 114 -41 88 -92 178 -123 219 -28 35 -29
41 -35 186 -4 83 -9 162 -12 178 -8 37 10 35 116 -11z m-771 -219 c12 -46 31
-160 31 -190 0 -20 -1 -20 -28 5 -33 31 -45 89 -35 171 7 60 18 65 32 14z
m1718 17 c21 -11 49 -20 63 -21 21 -1 19 -3 -10 -10 -38 -10 -279 8 -294 22
-17 15 37 28 122 28 64 1 90 -3 119 -19z m-1023 -216 c20 -31 36 -63 36 -71 0
-7 16 -37 35 -66 19 -28 35 -56 35 -62 0 -5 13 -30 30 -55 16 -24 27 -46 25
-49 -6 -6 -55 40 -55 51 0 4 -15 30 -33 56 -49 70 -119 204 -113 217 2 7 -1
18 -7 24 -7 7 -7 11 0 11 5 0 27 -25 47 -56z m4934 -18 c24 -23 50 -54 57 -71
8 -16 20 -41 28 -55 54 -92 56 -133 11 -222 -68 -134 -174 -111 -229 49 -30
88 -32 155 -5 223 11 28 20 62 20 75 0 28 35 56 59 48 9 -3 35 -24 59 -47z
m-4441 -199 c4 -8 17 -17 27 -20 10 -4 16 -10 13 -14 -3 -3 8 -15 26 -27 18
-12 36 -31 42 -43 5 -12 19 -27 32 -34 12 -6 45 -36 73 -65 29 -30 56 -54 61
-54 5 0 9 -4 9 -10 0 -5 -4 -10 -9 -10 -25 0 -301 256 -301 278 0 16 17 15 27
-1z m-190 -199 c12 -6 20 -15 17 -20 -3 -4 4 -8 15 -8 14 0 19 -5 15 -14 -4
-10 2 -16 18 -18 20 -3 20 -4 5 -10 -11 -5 -27 2 -50 21 -17 15 -42 33 -54 40
-13 6 -23 16 -23 21 0 10 20 6 57 -12z m132 -121 c6 -8 8 -16 5 -20 -10 -9
-34 4 -34 19 0 18 14 18 29 1z m536 -30 c81 -29 236 -107 213 -107 -13 0 -62
15 -158 50 -19 8 -53 20 -76 27 -22 8 -54 26 -70 39 -29 25 -29 25 -4 21 14
-3 57 -17 95 -30z"/>
<path d="M5396 4753 c-11 -11 -7 -23 8 -23 8 0 16 -5 18 -12 2 -6 10 -8 16 -4
7 4 10 12 7 17 -9 14 -42 29 -49 22z"/>
<path d="M1718 4896 c-20 -6 -40 -14 -44 -18 -4 -5 -23 -8 -43 -8 -20 0 -43
-5 -51 -10 -11 -7 -1 -10 35 -9 67 0 151 20 172 42 16 16 16 17 -7 16 -14 -1
-42 -6 -62 -13z"/>
<path d="M1503 4838 c-23 -11 -31 -28 -14 -28 23 0 62 21 56 30 -7 12 -13 12
-42 -2z"/>
<path d="M4721 5101 c-10 -18 -6 -31 11 -31 4 0 8 7 8 15 0 8 5 15 10 15 6 0
10 5 10 10 0 17 -29 11 -39 -9z"/>
<path d="M7262 4284 c-12 -8 -22 -18 -22 -22 1 -9 80 -46 85 -40 9 9 -16 78
-28 78 -7 0 -23 -7 -35 -16z"/>
<path d="M7345 4209 c-8 -23 -1 -34 14 -24 13 8 15 45 2 45 -5 0 -13 -9 -16
-21z"/>
<path d="M7280 4170 c0 -25 4 -31 18 -28 11 2 17 12 17 28 0 16 -6 26 -17 28
-14 3 -18 -3 -18 -28z"/>
<path d="M7444 4178 c4 -13 10 -42 13 -66 7 -52 23 -66 23 -20 0 45 -19 108
-32 108 -6 0 -8 -9 -4 -22z"/>
<path d="M7340 4147 c0 -14 20 -37 32 -37 4 0 8 11 8 25 0 18 -5 25 -20 25
-11 0 -20 -6 -20 -13z"/>
<path d="M7720 3829 c0 -13 18 -38 45 -61 25 -22 52 -53 61 -69 16 -32 47 -38
77 -14 18 13 18 14 -2 34 -12 12 -21 30 -21 41 0 11 -7 23 -15 26 -8 4 -15 12
-15 20 0 8 -8 14 -18 14 -10 0 -27 7 -38 15 -10 8 -31 15 -46 15 -22 0 -28 -5
-28 -21z"/>
<path d="M7957 3642 c-9 -10 -19 -34 -23 -53 -5 -32 -5 -33 10 -15 9 11 16 23
16 28 0 4 16 8 36 8 31 0 35 3 32 23 -4 29 -48 35 -71 9z"/>
<path d="M7990 3549 c11 -37 17 -45 27 -35 9 9 -9 58 -24 63 -9 3 -10 -4 -3
-28z"/>
<path d="M8025 3570 c-9 -14 13 -50 30 -50 9 0 24 -5 35 -12 37 -24 34 4 -4
38 -42 36 -51 40 -61 24z"/>
<path d="M8115 3470 c-9 -15 4 -67 21 -80 11 -10 15 -9 20 4 3 9 10 13 16 10
5 -3 4 -11 -2 -19 -7 -8 -9 -19 -5 -25 9 -15 41 -12 54 4 16 19 3 43 -44 85
-38 33 -50 37 -60 21z"/>
<path d="M2460 3772 c0 -5 7 -15 15 -22 11 -9 15 -9 15 -1 0 7 5 9 11 5 7 -4
10 -1 7 7 -5 16 -48 25 -48 11z"/>
<path d="M8584 2914 c-7 -26 7 -51 23 -41 12 7 4 67 -8 67 -5 0 -12 -12 -15
-26z"/>
<path d="M8700 2821 c0 -5 5 -13 10 -16 6 -3 10 -2 10 4 0 5 -4 13 -10 16 -5
3 -10 2 -10 -4z"/>
<path d="M8756 1935 c10 -142 26 -166 20 -31 -3 60 -10 114 -16 120 -8 8 -9
-17 -4 -89z"/>
<path d="M1535 4360 c-7 -23 2 -43 16 -35 12 8 12 42 0 50 -5 3 -12 -4 -16
-15z"/>
<path d="M5710 3530 c0 -18 4 -29 10 -25 6 3 10 15 10 25 0 10 -4 22 -10 25
-6 4 -10 -7 -10 -25z"/>
</g>
</svg>
