<?xml version="1.0" standalone="no"?>
<!DOCTYPE svg PUBLIC "-//W3C//DTD SVG 20010904//EN"
 "http://www.w3.org/TR/2001/REC-SVG-20010904/DTD/svg10.dtd">
<svg version="1.0" xmlns="http://www.w3.org/2000/svg"
 width="512.000000pt" height="512.000000pt" viewBox="0 0 512.000000 512.000000"
 preserveAspectRatio="xMidYMid meet">

<g transform="translate(0.000000,512.000000) scale(0.100000,-0.100000)"
fill="#000000" stroke="none">
<path d="M4466 5104 c-94 -23 -188 -78 -257 -152 -157 -168 -190 -392 -87
-600 l41 -84 -96 -96 -97 -96 -212 211 c-151 149 -228 218 -264 236 -286 144
-612 -93 -562 -408 12 -80 50 -152 119 -228 l57 -62 56 55 56 54 -49 51 c-63
63 -91 123 -91 195 0 171 176 281 335 211 41 -18 133 -105 502 -474 369 -369
456 -461 474 -502 71 -160 -39 -335 -211 -335 -101 0 -117 13 -480 376 l-335
334 -55 -55 -54 -55 79 -80 80 -80 -94 -94 -94 -94 -57 39 c-338 231 -790 185
-1072 -108 l-38 -39 113 -112 112 -112 55 55 54 55 -57 58 -57 57 53 35 c148
97 348 131 525 89 70 -17 199 -82 265 -134 157 -125 260 -360 243 -554 -12
-132 -46 -236 -110 -333 l-31 -47 -342 342 -343 342 -55 -55 -55 -54 80 -81
80 -80 -148 -148 c-81 -81 -150 -147 -153 -147 -8 0 -27 62 -44 148 -18 94
-64 179 -131 242 -66 62 -133 94 -242 114 -85 16 -132 35 -167 67 -21 18 -22
18 -75 -36 -53 -54 -53 -55 -35 -75 33 -36 156 -89 244 -106 99 -18 123 -29
174 -79 51 -49 72 -95 90 -193 22 -115 55 -182 126 -253 71 -71 138 -104 253
-126 100 -18 145 -40 197 -94 47 -50 55 -66 80 -187 20 -93 66 -195 102 -228
19 -17 22 -16 74 36 54 53 54 54 36 75 -32 35 -51 82 -67 167 -20 109 -52 176
-114 242 -63 67 -148 113 -242 131 -86 18 -148 36 -148 44 0 4 66 73 148 154
l147 147 265 -265 265 -265 38 38 c178 171 268 402 254 647 -10 159 -55 289
-147 426 l-38 56 94 94 93 93 213 -210 c231 -226 270 -255 383 -272 213 -34
406 105 446 321 9 51 9 78 0 128 -23 114 -48 148 -274 377 l-211 212 96 97 96
96 84 -41 c302 -149 646 -1 746 322 21 68 21 225 -1 294 -84 271 -360 432
-631 366z m261 -166 c87 -32 166 -106 204 -192 120 -271 -102 -567 -393 -526
-303 43 -428 418 -212 634 106 106 256 138 401 84z"/>
<path d="M4482 4805 c-113 -58 -164 -198 -113 -311 80 -177 324 -194 426 -30
27 44 30 58 30 126 0 68 -3 82 -30 126 -66 106 -202 145 -313 89z m169 -154
c57 -58 21 -146 -60 -146 -56 0 -86 30 -86 86 0 81 88 117 146 60z"/>
<path d="M1330 2635 l-53 -54 29 -25 c49 -42 124 -75 221 -95 110 -24 158 -47
204 -98 43 -47 53 -73 79 -192 11 -51 31 -114 45 -139 l26 -46 -95 -95 -95
-95 -148 145 c-172 168 -212 193 -313 193 -77 0 -138 -25 -189 -75 -41 -41
-81 -122 -81 -166 0 -28 -4 -33 -25 -33 -48 0 -130 -39 -172 -82 -62 -65 -77
-101 -78 -188 0 -106 19 -138 193 -313 l147 -147 -96 -95 -95 -96 -69 33 c-95
44 -220 51 -319 18 -177 -58 -296 -224 -296 -409 0 -76 12 -125 48 -199 l26
-53 -112 -112 -112 -112 52 -53 53 -52 112 112 112 112 53 -26 c74 -36 123
-48 199 -48 145 0 278 70 358 191 82 122 94 292 31 424 l-32 68 96 96 96 96
147 -147 c175 -174 207 -193 313 -193 86 1 136 21 194 81 37 38 76 126 76 169
0 21 5 25 33 25 44 0 125 40 166 81 50 51 75 112 75 189 0 102 -22 137 -190
310 l-148 151 95 95 95 95 46 -26 c25 -14 88 -34 139 -45 116 -25 144 -36 187
-74 55 -48 79 -96 101 -202 22 -103 54 -178 97 -228 l25 -29 54 53 54 53 -30
43 c-21 31 -36 73 -50 141 -26 121 -59 191 -124 259 -66 67 -136 102 -255 126
-103 21 -163 50 -204 99 -40 48 -52 76 -71 169 -23 118 -63 200 -128 263 -69
67 -138 100 -260 126 -68 14 -110 29 -141 50 l-43 30 -53 -54z m302 -1003
l348 -348 0 -48 c0 -59 -26 -100 -75 -116 -73 -24 -77 -21 -432 333 -183 182
-340 346 -349 365 -21 45 -11 93 27 132 26 26 38 30 82 30 l51 0 348 -348z
m-644 68 c27 0 701 -679 711 -716 12 -45 3 -81 -30 -113 -33 -33 -78 -45 -117
-30 -36 13 -690 665 -708 706 -8 19 -11 45 -8 63 11 54 78 106 122 94 8 -2 21
-4 30 -4z m-306 -860 c58 -22 124 -82 153 -140 26 -51 31 -147 11 -208 -22
-64 -79 -130 -142 -162 -66 -34 -179 -35 -240 -3 -63 34 -97 66 -129 125 -26
45 -30 64 -30 128 0 60 5 85 25 124 66 130 215 188 352 136z"/>
</g>
</svg>
