<?xml version="1.0" standalone="no"?>
<!DOCTYPE svg PUBLIC "-//W3C//DTD SVG 20010904//EN"
 "http://www.w3.org/TR/2001/REC-SVG-20010904/DTD/svg10.dtd">
<svg version="1.0" xmlns="http://www.w3.org/2000/svg"
 width="320.000000pt" height="320.000000pt" viewBox="0 0 320.000000 320.000000"
 preserveAspectRatio="xMidYMid meet">

<g transform="translate(0.000000,320.000000) scale(0.100000,-0.100000)"
fill="#000000" stroke="none">
<path d="M1362 2908 c-7 -7 -12 -17 -12 -22 0 -6 65 -112 144 -236 79 -124
143 -226 141 -228 -1 -1 -53 -7 -116 -13 -165 -15 -351 -54 -507 -105 -106
-35 -137 -42 -143 -32 -5 7 -73 114 -151 238 -124 194 -147 225 -168 225 -50
0 -35 -36 115 -270 80 -126 145 -231 145 -235 0 -3 -21 -16 -47 -29 -88 -42
-247 -154 -326 -231 -179 -170 -260 -342 -259 -550 l0 -95 -89 -184 c-49 -101
-89 -188 -89 -194 0 -17 110 -145 184 -214 130 -120 259 -211 405 -284 l84
-42 99 6 c89 5 108 2 171 -19 99 -34 293 -80 407 -95 121 -17 467 -17 585 0
567 81 1016 341 1188 686 66 132 72 166 72 400 0 222 -8 272 -57 369 -19 38
-20 45 -8 188 l13 148 -24 26 c-93 100 -332 233 -535 298 -167 53 -171 53
-340 13 -124 -30 -157 -34 -199 -27 -27 5 -112 12 -187 16 l-138 7 -136 216
c-189 298 -191 300 -222 269z m1126 -538 c162 -41 379 -142 494 -229 93 -70
91 -68 83 -162 l-7 -81 -60 65 c-141 157 -404 307 -651 373 -37 10 -67 21 -67
25 0 7 77 25 113 28 10 0 53 -8 95 -19z m-771 -69 l32 -49 -46 -47 c-25 -27
-58 -75 -73 -108 l-27 -60 -77 94 c-85 104 -132 139 -189 139 -78 0 -135 -44
-159 -123 -10 -33 -9 -47 4 -84 16 -45 16 -45 -5 -39 -12 4 -58 15 -102 27
l-80 20 -38 61 c-29 47 -35 63 -25 69 7 5 62 24 122 44 174 57 416 101 571
104 l60 1 32 -49z m244 39 c303 -31 605 -132 811 -271 93 -63 228 -203 271
-280 123 -219 114 -436 -27 -647 -58 -88 -167 -196 -263 -263 l-78 -53 64 69
c74 82 131 174 162 265 32 91 32 247 0 340 -32 93 -75 163 -146 239 -56 60
-65 75 -90 159 -17 54 -36 97 -45 102 -11 6 -43 1 -95 -16 -76 -24 -81 -24
-121 -9 -35 13 -44 22 -49 48 -22 102 -107 207 -210 260 -76 39 -196 49 -274
23 -65 -21 -64 -21 -84 14 l-18 30 44 0 c25 0 91 -5 148 -10z m149 -114 c112
-58 180 -162 182 -276 1 -37 -4 -66 -10 -68 -6 -2 -48 -21 -94 -44 -77 -37
-90 -40 -186 -44 -70 -3 -111 -9 -125 -19 -30 -21 -32 -20 -61 29 -14 25 -55
70 -90 101 -62 55 -63 57 -56 94 10 55 45 122 83 159 l33 32 42 -66 c34 -53
46 -65 65 -62 35 5 32 41 -7 100 -20 29 -36 56 -36 60 0 31 200 34 260 4z
m-717 -48 c32 -30 217 -255 217 -264 0 -4 -7 -15 -16 -25 -16 -17 -19 -16 -60
26 -52 51 -102 71 -143 57 -42 -15 -85 8 -120 65 -39 62 -39 96 -2 134 37 37
89 40 124 7z m-514 -50 l20 -33 -36 -8 c-91 -19 -151 -98 -139 -182 4 -25 11
-47 17 -50 21 -14 5 -22 -71 -33 -44 -6 -90 -18 -104 -27 -54 -36 -71 -131
-30 -176 16 -18 15 -22 -14 -81 -52 -103 -66 -176 -58 -305 6 -111 7 -114 52
-195 26 -46 55 -100 65 -120 11 -20 38 -51 62 -67 53 -39 114 -91 104 -91 -4
0 -38 18 -75 41 -205 124 -341 280 -403 459 -35 102 -32 238 8 351 51 148 159
286 313 401 73 55 234 148 257 148 6 0 20 -15 32 -32z m77 -121 c1 -1 17 -27
37 -58 40 -64 49 -72 70 -63 24 9 29 35 12 60 -28 44 -28 44 143 -8 l102 -31
0 -59 c0 -32 -3 -58 -6 -58 -3 0 -20 12 -38 27 -87 73 -200 68 -220 -11 l-6
-24 -61 19 c-33 10 -74 19 -90 19 -31 0 -94 48 -104 81 -21 66 38 124 115 113
25 -3 45 -7 46 -7z m1683 -257 c28 -90 51 -170 51 -177 0 -8 -15 -12 -47 -10
l-48 2 -47 155 c-26 85 -47 162 -47 171 -1 16 67 41 81 30 3 -3 29 -80 57
-171z m-1190 145 c83 -43 181 -249 181 -383 0 -59 -13 -92 -35 -92 -32 0 -97
75 -142 163 -66 132 -88 267 -50 315 12 15 12 15 46 -3z m989 -47 c3 -16 -1
-17 -113 -33 -22 -4 -15 3 30 25 63 32 78 33 83 8z m-729 -14 c61 -51 131
-245 131 -364 0 -56 -24 -110 -48 -110 -11 0 -35 17 -54 38 -33 36 -35 44 -40
123 -4 57 -16 114 -37 175 -34 100 -36 116 -21 145 14 26 33 24 69 -7z m-481
-68 c93 -66 190 -229 199 -336 7 -72 -6 -82 -68 -54 -92 41 -222 236 -236 351
-10 88 21 99 105 39z m1062 40 c0 -8 -152 -87 -158 -82 -8 9 -4 11 78 49 87
41 80 38 80 33z m-1367 -60 c89 -17 137 -40 137 -64 0 -9 14 -48 30 -87 17
-38 30 -70 30 -70 0 0 -21 1 -47 3 -40 3 -56 -2 -93 -27 l-44 -30 -48 45 c-53
49 -118 83 -159 84 -47 0 -138 47 -145 74 -7 31 11 64 39 70 12 3 31 7 42 9
46 10 189 6 258 -7z m1576 -97 l32 -111 -23 -16 c-13 -9 -37 -31 -55 -49 -32
-33 -33 -33 -38 -11 -5 26 -55 280 -55 284 0 4 42 11 75 13 31 1 31 1 64 -110z
m-327 -144 c69 -121 127 -225 127 -232 2 -20 -52 -93 -69 -93 -11 0 -52 80
-138 268 -67 148 -122 272 -122 276 0 4 17 6 38 4 l37 -3 127 -220z m157 40
c33 -173 35 -230 7 -189 -7 10 -48 81 -91 158 -63 111 -76 140 -64 147 8 5 32
19 54 33 22 13 45 25 51 25 5 1 25 -76 43 -174z m-308 -106 c64 -140 115 -256
113 -258 -2 -2 -12 3 -22 12 -10 9 -34 23 -53 31 -32 13 -41 27 -92 140 -38
85 -60 148 -68 198 -6 40 -15 83 -20 96 -10 26 -3 45 14 39 7 -2 64 -118 128
-258z m774 131 c30 -59 31 -64 6 -51 -15 8 -51 85 -51 108 0 15 24 -16 45 -57z
m-2010 -58 c88 -54 166 -182 172 -281 2 -31 0 -61 -4 -67 -4 -6 -31 -14 -58
-17 -48 -5 -51 -4 -67 23 -9 16 -34 40 -56 54 -45 28 -84 97 -103 182 -11 47
-10 60 4 89 14 29 22 35 49 35 18 0 47 -8 63 -18z m1955 -37 c71 -36 127 -131
115 -194 l-7 -36 -13 39 c-31 88 -115 159 -215 180 l-65 13 45 11 c50 11 102
6 140 -13z m-2143 -44 c2 -41 14 -84 47 -162 6 -13 -1 -17 -36 -22 -24 -3 -52
-9 -61 -13 -15 -5 -17 2 -17 58 0 92 30 187 60 188 3 0 6 -22 7 -49z m551 4
c100 -47 203 -176 205 -259 1 -47 -17 -66 -65 -66 -143 0 -347 248 -271 332
22 25 68 23 131 -7z m1507 -54 c50 -23 80 -51 104 -99 23 -46 36 -124 24 -146
-7 -12 -12 -5 -22 29 -30 102 -147 186 -258 187 -50 1 -52 2 -33 15 51 36 126
41 185 14z m-1056 -141 c74 -129 105 -200 88 -200 -7 0 -68 17 -137 38 l-125
38 -6 64 c-3 36 -11 75 -18 88 -10 18 -9 22 4 22 35 0 74 30 85 66 l13 37 18
-24 c10 -13 45 -71 78 -129z m92 104 c59 -64 125 -71 173 -21 l32 34 28 -65
27 -64 -21 -15 c-52 -37 -99 -112 -100 -160 0 -17 -6 -23 -23 -23 -21 0 -35
22 -105 162 -60 118 -78 164 -69 170 20 13 32 9 58 -18z m919 -93 c63 -37 102
-115 98 -192 -3 -39 -6 -48 -11 -34 -25 62 -48 104 -71 132 -37 44 -121 83
-184 86 -29 1 -52 3 -52 4 0 6 48 27 75 34 45 10 95 0 145 -30z m-2317 -199
c80 -125 260 -273 442 -362 268 -132 558 -193 910 -194 341 0 637 63 914 195
222 106 396 242 502 393 27 38 49 64 49 57 0 -34 -70 -173 -122 -242 -321
-426 -1086 -645 -1770 -508 -141 28 -152 38 -45 39 90 0 127 10 127 34 0 36
-21 38 -325 26 l-296 -11 -87 46 c-107 57 -185 110 -284 192 -83 69 -228 219
-228 237 0 6 28 68 62 139 l62 127 31 -62 c17 -35 43 -82 58 -106z m436 117
c45 -16 38 -29 -16 -30 -27 0 -64 -6 -83 -13 -39 -14 -90 -3 -90 19 0 30 125
46 189 24z m347 -36 c-2 -2 -15 1 -29 6 -17 7 -25 16 -21 25 5 12 10 11 30 -6
13 -12 22 -23 20 -25z m1398 36 c50 -12 110 -58 131 -100 22 -42 35 -118 26
-159 -9 -46 -36 -52 -44 -10 -18 86 -109 209 -188 252 -25 13 -27 17 -12 21
31 8 43 7 87 -4z m-396 -35 c33 -26 39 -38 22 -49 -9 -5 -33 -79 -45 -138 l-6
-28 -37 30 c-21 16 -54 37 -75 47 -45 21 -48 49 -14 109 39 69 89 79 155 29z
m298 -50 c23 -13 54 -38 70 -56 36 -44 76 -131 81 -182 l5 -42 -83 -47 c-117
-66 -216 -104 -237 -90 -27 16 -73 119 -85 188 -14 82 2 157 44 208 51 61 123
69 205 21z m-1343 -16 c35 -14 34 -23 -5 -39 -60 -25 -198 -11 -198 20 0 10
43 28 80 34 32 5 87 -1 123 -15z m214 -24 c23 -4 33 -12 33 -25 0 -28 -10 -29
-82 -5 -55 17 -68 25 -68 42 0 31 7 33 47 13 20 -10 52 -22 70 -25z m-487 14
c0 -19 -128 -48 -140 -32 -19 22 23 42 93 43 31 1 47 -3 47 -11z m661 -12 c24
-8 83 -26 131 -41 l87 -25 -25 -37 c-33 -50 -40 -53 -104 -53 -69 0 -129 16
-156 42 -19 17 -20 25 -13 61 17 77 13 74 80 53z m-574 -91 c35 -15 36 -16 20
-33 -25 -25 -179 -25 -203 0 -17 16 -16 18 17 32 44 20 120 20 166 1z m377
-24 c112 -49 192 -167 184 -268 -7 -82 -15 -85 -133 -58 -55 13 -140 38 -190
56 -85 32 -91 37 -112 79 -39 76 -25 172 30 201 56 31 139 27 221 -10z m673 9
c61 -27 142 -107 169 -165 23 -49 33 -148 16 -159 -18 -11 -175 -38 -252 -43
l-86 -6 -27 37 c-62 80 -90 190 -68 259 7 20 28 50 47 67 31 27 42 30 97 30
39 0 77 -7 104 -20z m-1012 -144 l7 -48 -56 38 -55 39 47 11 c26 5 48 10 48
10 1 -1 5 -23 9 -50z m685 1 c0 -44 31 -142 60 -189 l30 -48 -54 0 c-29 0 -74
3 -100 6 -38 6 -46 10 -41 23 17 40 17 130 1 177 -9 26 -16 49 -16 51 0 2 27
3 60 3 56 0 60 -2 60 -23z"/>
<path d="M1493 1653 c-20 -7 -15 -43 13 -103 29 -62 40 -73 66 -59 25 13 23
29 -11 104 -28 61 -39 70 -68 58z"/>
<path d="M1713 1574 c-3 -9 2 -49 11 -90 14 -57 22 -75 38 -80 39 -12 48 18
28 95 -10 38 -21 74 -24 80 -11 17 -46 13 -53 -5z"/>
<path d="M1282 1558 c-18 -18 -16 -24 25 -90 43 -70 65 -85 87 -62 9 8 16 19
16 23 0 16 -86 136 -100 139 -9 1 -21 -3 -28 -10z"/>
</g>
</svg>
