<?xml version="1.0" standalone="no"?>
<!DOCTYPE svg PUBLIC "-//W3C//DTD SVG 20010904//EN"
 "http://www.w3.org/TR/2001/REC-SVG-20010904/DTD/svg10.dtd">
<svg version="1.0" xmlns="http://www.w3.org/2000/svg"
 width="277.000000pt" height="320.000000pt" viewBox="0 0 277.000000 320.000000"
 preserveAspectRatio="xMidYMid meet">

<g transform="translate(0.000000,320.000000) scale(0.100000,-0.100000)"
fill="#000000" stroke="none">
<path d="M832 3062 c-23 -2 -36 -11 -46 -30 -19 -39 -36 -147 -35 -228 1 -68
1 -68 14 39 22 176 39 207 117 207 47 0 50 -1 65 -37 20 -49 14 -144 -11 -172
-10 -11 -38 -30 -62 -42 -37 -17 -44 -25 -43 -47 1 -22 3 -23 6 -6 2 13 19 28
44 39 22 10 54 34 71 53 29 34 30 38 24 96 -4 34 -8 77 -9 96 l-2 36 -50 -1
c-27 0 -65 -1 -83 -3z"/>
<path d="M810 2845 c0 -8 4 -15 10 -15 5 0 7 7 4 15 -4 8 -8 15 -10 15 -2 0
-4 -7 -4 -15z"/>
<path d="M981 2809 c-23 -14 -32 -25 -28 -39 3 -12 -6 -28 -24 -46 -16 -15
-29 -33 -29 -40 0 -7 -5 -14 -12 -16 -12 -4 -21 -38 -9 -38 13 0 31 24 31 40
0 15 49 70 62 70 4 0 9 -8 11 -17 4 -14 5 -14 6 3 0 12 -6 28 -15 35 -15 12
-14 15 6 31 12 10 28 18 36 18 7 0 16 5 19 10 10 17 -18 11 -54 -11z"/>
<path d="M1812 2693 c-23 -5 -47 -47 -36 -64 3 -5 31 -8 62 -7 l57 1 -50 6
c-41 5 -50 9 -50 26 0 18 7 20 63 20 53 0 60 2 45 12 -17 13 -46 15 -91 6z"/>
<path d="M1965 2674 c33 -36 42 -87 21 -130 -16 -35 -4 -49 14 -15 26 50 -5
171 -44 171 -11 0 -8 -8 9 -26z"/>
<path d="M416 2657 c-17 -12 -17 -16 -1 -77 9 -35 27 -125 39 -199 l23 -136
-1 105 c0 137 21 181 129 267 l40 31 -65 -13 c-92 -20 -105 -19 -118 10 -13
28 -21 30 -46 12z"/>
<path d="M1108 2628 c18 -26 54 -66 81 -89 60 -50 66 -64 41 -89 -26 -26 -93
-26 -191 0 -93 25 -99 25 -99 0 0 -12 -12 -43 -26 -71 -14 -28 -20 -48 -15
-44 15 9 51 80 51 101 0 11 5 14 18 9 46 -18 163 -36 210 -32 64 5 98 32 89
69 -4 13 -48 62 -99 108 -86 79 -90 82 -60 38z"/>
<path d="M753 2615 c9 -18 12 -44 9 -65 l-5 -35 22 19 c27 25 26 34 -10 76
-31 35 -31 35 -16 5z"/>
<path d="M1030 2634 c0 -23 24 -80 47 -112 31 -41 43 -35 14 7 -12 16 -30 49
-41 73 -11 24 -20 38 -20 32z"/>
<path d="M593 2572 c-28 -23 -59 -59 -73 -88 -22 -42 -25 -62 -25 -144 1 -52
5 -103 10 -112 7 -11 10 19 10 95 0 99 3 117 24 157 13 25 45 64 70 87 57 53
49 56 -16 5z"/>
<path d="M858 2569 c3 -28 7 -37 13 -28 12 19 11 32 -4 53 -11 15 -12 11 -9
-25z"/>
<path d="M1956 2565 c4 -8 8 -15 10 -15 2 0 4 7 4 15 0 8 -4 15 -10 15 -5 0
-7 -7 -4 -15z"/>
<path d="M1781 2540 c0 -19 3 -40 7 -46 12 -19 68 -43 81 -35 9 6 3 10 -16 14
-43 10 -55 22 -63 63 l-8 39 -1 -35z"/>
<path d="M1975 2476 c9 -13 26 -27 38 -31 l22 -8 -22 -4 c-12 -2 -32 1 -45 8
-21 11 -22 11 -9 -4 13 -16 71 -24 84 -11 5 6 -68 74 -79 74 -3 0 3 -11 11
-24z"/>
<path d="M2030 2481 c0 -5 14 -21 31 -34 l31 -24 -36 -7 c-41 -8 -44 -16 -18
-39 23 -21 32 -21 32 -1 0 12 6 15 23 11 12 -3 63 -13 112 -23 50 -9 91 -18
93 -20 8 -6 -19 -159 -29 -165 -8 -4 -8 -12 -1 -25 5 -11 13 -44 17 -74 6 -40
10 -50 15 -35 16 43 72 365 67 380 -8 19 -43 20 -54 1 -11 -20 -231 22 -245
47 -9 18 -38 24 -38 8z"/>
<path d="M792 2415 l-1 -70 19 60 c11 32 17 61 15 63 -2 2 -7 -7 -11 -20 -8
-22 -8 -22 -15 7 -5 21 -7 9 -7 -40z"/>
<path d="M658 2450 c-4 -14 -7 -63 -7 -110 1 -81 2 -83 11 -40 5 25 17 53 26
63 15 16 15 17 -1 12 -13 -6 -16 2 -19 47 -2 41 -5 48 -10 28z"/>
<path d="M1415 2432 c32 -3 36 -6 20 -12 -18 -8 -17 -9 6 -9 14 -1 34 6 45 14
17 13 13 14 -46 13 -48 -1 -54 -3 -25 -6z"/>
<path d="M1826 2422 c-8 -13 68 -35 93 -27 34 10 24 24 -13 18 -18 -3 -43 0
-54 6 -11 6 -23 7 -26 3z"/>
<path d="M1324 2373 c-1 -27 -5 -72 -9 -101 -7 -51 6 -102 26 -102 4 0 1 12
-7 28 -18 34 -18 52 1 117 11 38 13 59 6 79 -6 14 -12 26 -13 26 -2 0 -4 -21
-4 -47z"/>
<path d="M1501 2390 c0 -14 4 -52 9 -85 6 -39 6 -73 0 -95 -9 -32 -8 -33 5
-16 8 11 15 38 15 60 -1 47 -27 174 -29 136z"/>
<path d="M1175 2393 c-11 -2 -125 -39 -254 -80 -129 -41 -240 -76 -247 -77 -7
-1 -17 -5 -20 -9 -4 -4 -13 -7 -21 -7 -7 0 -96 -29 -196 -65 -190 -68 -216
-85 -217 -137 0 -34 39 -66 165 -139 57 -32 93 -59 90 -66 -2 -8 7 -15 23 -18
106 -22 199 -71 319 -168 43 -34 103 -73 133 -86 126 -53 120 -48 120 -100 0
-26 -5 -52 -12 -59 -16 -16 -108 -15 -193 3 -87 19 -91 18 -35 -4 25 -11 118
-64 207 -119 167 -104 330 -198 395 -228 45 -21 45 -21 53 -329 10 -411 16
-485 35 -485 24 0 30 88 30 465 l0 313 43 6 c24 4 102 35 173 70 127 62 294
154 294 162 0 2 -48 -20 -107 -50 -301 -150 -374 -173 -470 -147 -31 8 -520
285 -541 306 -2 2 23 1 56 -2 78 -7 102 13 102 85 0 60 -27 89 -117 125 -56
23 -130 67 -192 116 l-24 18 23 32 c29 42 21 49 -14 12 l-28 -29 -86 48 c-48
26 -105 53 -127 60 -35 12 -37 14 -18 21 35 13 165 -35 216 -79 18 -16 24 -3
6 15 -8 8 -4 16 15 28 34 23 28 30 -9 11 -25 -13 -32 -13 -57 0 -42 22 -173
54 -195 48 -17 -5 -125 55 -209 116 -54 39 -51 86 8 116 23 12 193 74 202 74
1 0 2 -28 2 -62 1 -35 12 -101 25 -148 21 -74 24 -81 27 -50 2 19 -4 71 -13
116 -9 44 -15 93 -13 110 4 41 54 64 140 64 82 0 89 -8 112 -123 17 -79 14
-115 -12 -154 -9 -14 -10 -23 -3 -23 36 0 57 125 38 229 -7 39 -6 43 10 36 39
-16 197 -17 243 -1 l45 15 -44 -6 -45 -6 24 34 24 34 -37 -33 c-30 -25 -43
-31 -64 -26 -19 5 -24 4 -19 -5 8 -12 -4 -12 -99 6 -34 6 -67 31 -59 44 3 5
-14 9 -38 9 -35 1 3 16 197 80 253 84 313 95 360 64 16 -10 25 -12 25 -5 0 22
-101 46 -145 34z"/>
<path d="M1672 2390 c-33 -14 -89 -58 -96 -77 -9 -22 20 -63 44 -63 20 0 105
69 96 78 -3 3 -24 -12 -46 -32 -44 -39 -50 -42 -68 -24 -39 39 25 99 117 112
24 3 46 8 49 11 9 9 -72 4 -96 -5z"/>
<path d="M2022 2363 c33 -37 68 -93 68 -108 0 -3 -9 -5 -19 -5 -10 0 -29 -9
-42 -20 -13 -11 -19 -19 -12 -18 6 2 19 -6 28 -17 16 -20 16 -20 6 2 -14 29
-14 30 9 36 15 4 24 -2 35 -21 14 -26 15 -26 8 18 -8 63 -35 112 -80 145 l-38
29 37 -41z"/>
<path d="M1800 2371 c0 -5 10 -16 23 -24 22 -16 22 -16 -13 -17 -29 -1 -31 -3
-15 -10 30 -13 42 -12 59 5 13 13 17 12 36 -15 21 -29 50 -41 50 -20 0 6 -6
10 -13 10 -8 0 -22 9 -33 21 -23 25 -94 63 -94 50z"/>
<path d="M1054 2301 c8 -12 168 -102 173 -97 4 4 -51 46 -61 46 -3 0 -27 14
-53 30 -47 30 -69 38 -59 21z"/>
<path d="M1787 2273 c-4 -3 -7 -35 -7 -70 l0 -64 -107 55 c-114 60 -116 61
-111 46 2 -5 95 -56 207 -113 l204 -105 23 -63 c25 -70 57 -102 116 -121 26
-8 40 -20 49 -41 15 -36 24 -22 10 16 -7 17 -20 27 -41 32 -82 18 -139 122
-125 227 5 37 4 53 -6 59 -22 13 -7 18 95 29 71 8 101 8 111 0 23 -19 44 -73
55 -145 12 -79 22 -92 83 -116 38 -15 43 -21 49 -60 4 -23 15 -50 24 -58 9 -9
14 -10 10 -3 -11 19 2 14 49 -18 53 -37 75 -66 75 -100 0 -54 -17 -55 -44 -2
-14 28 -31 54 -37 57 -6 4 -2 -10 9 -31 23 -46 52 -139 52 -169 0 -28 -95 -76
-126 -65 -11 5 -26 5 -32 1 -7 -4 -16 -93 -25 -244 -7 -130 -16 -240 -20 -244
-4 -3 -31 1 -60 10 l-52 16 28 -24 c16 -15 41 -25 58 -25 28 0 29 -2 29 -45 0
-40 -2 -45 -22 -45 -47 0 -202 32 -266 54 -37 13 -84 27 -105 30 l-37 7 6 -68
c3 -37 11 -155 18 -260 7 -106 14 -195 17 -197 2 -2 13 -6 24 -8 19 -3 20 2
17 120 l-4 124 22 -12 c13 -7 36 -9 54 -6 17 4 39 7 48 7 32 1 33 59 0 59 -9
0 -25 -9 -37 -20 -12 -12 -35 -22 -51 -23 l-29 -2 -3 94 -3 93 25 -6 c14 -3
78 -18 143 -31 65 -14 126 -28 136 -31 16 -5 17 -25 17 -234 0 -224 0 -229 21
-235 12 -4 25 -3 29 2 5 4 14 114 20 243 6 129 13 236 14 238 13 13 191 142
196 142 3 0 4 -90 2 -199 -3 -110 -2 -208 2 -217 6 -16 8 -16 22 -2 22 22 64
590 64 876 0 182 -2 212 -15 212 -9 0 -15 -9 -15 -25 0 -19 -9 -29 -39 -44
l-38 -20 -12 41 c-9 29 -9 44 -2 51 6 6 11 32 11 58 0 42 -4 50 -39 82 -22 20
-53 43 -69 51 -22 12 -31 24 -36 54 -7 45 -16 55 -69 71 -45 15 -52 28 -68
117 -23 138 -51 165 -153 146 -35 -7 -77 -12 -94 -12 -16 0 -40 -9 -53 -20
-23 -19 -23 -21 -6 -34 15 -11 17 -22 12 -46 -4 -17 -10 -30 -13 -28 -4 2 -44
22 -89 45 -80 42 -82 43 -88 87 -4 24 -4 58 0 75 7 31 4 37 -8 24z m839 -915
c-6 -72 -10 -86 -33 -106 -14 -13 -28 -21 -30 -18 -3 3 -2 45 2 94 6 78 10 91
28 100 38 18 40 14 33 -70z m-76 -50 l-1 -93 -60 -43 c-88 -62 -86 -63 -82 10
8 146 7 144 76 183 34 19 63 35 65 35 1 0 2 -42 2 -92z m56 -165 c-3 -42 -6
-88 -6 -103 0 -22 -17 -39 -105 -103 l-105 -77 1 68 c1 139 3 142 109 221 52
38 99 70 104 70 5 1 6 -32 2 -76z"/>
<path d="M890 2250 c-30 -4 -63 -11 -72 -15 -18 -7 -33 -35 -19 -35 5 0 18 -3
28 -6 15 -5 16 -4 3 5 -13 10 -13 12 0 21 9 6 18 6 24 0 16 -16 30 -11 16 5
-11 13 -7 15 26 15 34 0 36 -1 19 -14 -13 -9 -16 -18 -10 -32 8 -18 9 -17 12
4 3 16 11 22 32 22 16 0 43 5 62 12 34 12 34 12 9 19 -31 9 -60 8 -130 -1z"/>
<path d="M1073 2243 c-18 -7 -16 -23 1 -23 8 0 21 -7 30 -15 8 -9 17 -11 21
-6 3 5 -4 16 -15 24 -11 7 -17 17 -13 20 7 8 -6 8 -24 0z"/>
<path d="M1605 2180 c3 -5 11 -10 16 -10 6 0 7 5 4 10 -3 6 -11 10 -16 10 -6
0 -7 -4 -4 -10z"/>
<path d="M2164 2119 c35 -27 52 -63 61 -124 12 -78 21 -93 72 -117 30 -15 49
-30 51 -43 11 -74 30 -93 24 -22 -5 49 -23 73 -62 82 -40 9 -48 22 -64 107
-17 86 -30 112 -63 127 -38 18 -48 13 -19 -10z"/>
<path d="M1005 2120 c4 -6 11 -8 16 -5 14 9 11 15 -7 15 -8 0 -12 -5 -9 -10z"/>
<path d="M1282 2108 c6 -18 -79 -85 -131 -103 -67 -23 -74 -21 -57 14 15 28
86 71 119 71 9 0 18 4 21 9 6 9 -53 -2 -96 -18 -27 -10 -68 -56 -68 -75 1 -26
20 -36 76 -41 240 -18 237 -18 298 4 32 11 67 28 78 37 11 10 36 18 61 18 l42
1 2 50 c1 49 1 49 -6 11 -13 -61 -64 -77 -84 -26 -4 12 -6 11 -6 -2 -1 -10 -5
-18 -11 -18 -5 0 -10 -6 -10 -13 0 -7 -21 -21 -47 -30 -55 -20 -77 -22 -47 -4
77 46 122 107 78 107 -10 0 -14 -6 -11 -14 6 -16 -34 -51 -91 -80 -50 -26 -48
-14 4 25 47 35 68 62 57 73 -11 11 -23 7 -23 -8 0 -8 -19 -30 -42 -49 -66 -53
-78 -54 -25 -3 46 45 54 65 29 74 -7 2 -12 -5 -12 -16 0 -11 -19 -35 -47 -56
-63 -49 -72 -45 -16 7 27 26 43 49 39 55 -10 16 -28 15 -24 -1 3 -14 -52 -66
-92 -87 -14 -7 -4 6 23 29 48 43 60 71 31 71 -9 0 -14 -6 -12 -12z"/>
<path d="M2110 2115 c0 -2 13 -17 29 -33 29 -28 42 -63 58 -152 7 -41 12 -47
58 -71 43 -22 51 -30 56 -63 3 -20 11 -42 18 -49 9 -9 11 -2 6 33 -10 67 -11
69 -60 90 -50 22 -59 36 -69 123 -8 61 -39 110 -76 120 -11 3 -20 4 -20 2z"/>
<path d="M839 2090 l-24 -19 37 11 c28 8 48 8 75 0 21 -6 48 -14 61 -17 12 -4
22 -10 22 -15 0 -14 -46 -42 -83 -50 l-32 -8 35 -1 c20 -1 46 6 59 15 22 16
23 15 19 -7 -2 -19 -11 -25 -38 -30 -25 -4 -30 -8 -19 -13 27 -12 69 11 69 38
0 13 3 37 6 53 5 26 3 29 -26 31 -17 1 -50 9 -73 17 -54 19 -60 19 -88 -5z"/>
<path d="M657 2044 c-4 -4 -7 -17 -7 -28 1 -19 1 -20 11 -3 11 19 8 43 -4 31z"/>
<path d="M1661 2019 c-24 -5 -45 -10 -47 -11 -1 -2 60 -3 136 -3 129 0 140 -2
170 -23 36 -27 57 -20 22 8 -44 36 -177 50 -281 29z"/>
<path d="M1525 1980 c-3 -5 -2 -10 4 -10 5 0 16 -7 25 -15 8 -8 17 -11 20 -6
7 10 -20 41 -34 41 -5 0 -12 -4 -15 -10z"/>
<path d="M1864 1973 c-9 -14 -29 -19 -96 -21 -52 -3 -94 1 -107 7 -14 8 -21 8
-21 1 0 -32 177 -37 224 -6 15 9 24 21 21 26 -8 13 -8 13 -21 -7z"/>
<path d="M1040 1946 c0 -28 119 -56 237 -56 44 0 72 -6 96 -20 31 -18 120 -50
141 -50 19 0 -9 18 -57 35 -58 22 -47 33 36 37 38 2 52 6 46 14 -5 6 -6 14 -3
17 4 3 -2 6 -12 5 -11 0 -32 2 -49 6 -22 6 -26 5 -15 -3 28 -19 -1 -25 -133
-25 -138 0 -237 15 -261 40 -18 18 -26 18 -26 0z"/>
<path d="M236 1915 c3 -16 15 -36 25 -44 16 -11 19 -27 19 -105 0 -50 3 -108
6 -129 l7 -38 23 35 c20 29 24 48 24 110 0 42 2 76 5 76 3 0 17 -7 30 -15 14
-8 36 -22 50 -30 l25 -16 -37 -40 c-21 -22 -55 -66 -76 -97 -22 -31 -41 -59
-43 -61 -2 -3 -34 11 -69 30 -51 27 -65 39 -65 57 0 20 -5 23 -27 20 -26 -3
-28 -6 -25 -48 22 -378 74 -1026 83 -1036 6 -8 15 -11 20 -8 5 3 9 99 9 215 0
115 2 209 5 209 3 0 48 -32 99 -70 l94 -71 6 -92 c3 -51 8 -158 12 -240 4 -81
10 -150 15 -153 5 -3 18 -2 29 1 19 6 20 15 20 235 0 209 1 229 18 234 21 6
290 66 297 66 4 0 5 -95 4 -211 -1 -115 1 -213 4 -215 3 -3 14 -3 24 0 18 6
21 30 38 281 11 157 23 275 28 275 6 0 8 -45 4 -117 l-5 -118 13 65 c8 36 17
92 21 124 l7 59 -62 -6 c-34 -4 -79 -16 -100 -27 -54 -27 -223 -70 -277 -70
l-44 0 0 39 0 39 68 4 c62 5 130 23 120 33 -2 2 -26 -2 -53 -10 -58 -18 -121
-19 -131 -4 -4 7 -13 113 -20 237 -8 124 -18 230 -24 236 -7 7 -17 7 -30 -2
-17 -10 -26 -9 -50 3 -17 9 -30 18 -30 22 0 12 54 99 101 162 l49 65 -101 54
c-68 37 -107 64 -120 86 l-20 31 7 -30z m16 -455 c-1 -6 -6 -40 -11 -76 -6
-36 -12 -68 -14 -70 -2 -3 -13 3 -25 13 -16 15 -22 35 -27 107 l-7 88 44 -26
c23 -14 42 -31 40 -36z m78 -30 c22 -11 43 -28 48 -38 10 -19 24 -202 15 -202
-3 0 -35 21 -70 46 l-65 47 4 72 c4 66 12 95 24 95 3 0 22 -9 44 -20z m-91
-220 c13 -66 33 -92 25 -33 -3 21 -7 46 -9 56 -2 9 -1 17 1 17 2 0 35 -23 73
-50 52 -39 70 -58 75 -82 11 -57 10 -59 -36 -42 -24 8 -53 21 -65 30 -13 8
-23 11 -23 6 0 -16 48 -54 87 -67 32 -11 38 -18 41 -45 3 -31 3 -32 -30 -25
-47 10 -100 55 -112 96 l-9 34 -6 -28 -6 -28 -22 21 c-16 14 -23 32 -23 58 0
20 -3 69 -7 107 -6 70 -6 70 14 52 12 -11 25 -42 32 -77z"/>
<path d="M1875 1929 c-16 -5 -74 -9 -128 -8 -109 2 -135 -5 -58 -16 60 -8 165
2 206 20 35 15 24 18 -20 4z"/>
<path d="M909 1911 c9 -16 6 -21 -19 -31 -17 -7 -33 -17 -36 -22 -3 -4 13 -1
36 8 l41 16 42 -42 c125 -124 131 -128 107 -66 -6 17 -17 26 -31 26 -22 0 -86
57 -75 67 3 4 19 -6 34 -20 16 -15 32 -27 37 -27 16 0 -30 42 -66 60 -19 10
-41 26 -48 34 -19 22 -34 20 -22 -3z"/>
<path d="M1609 1817 c29 -37 168 -141 220 -165 68 -31 146 -27 281 16 52 17
111 35 130 41 34 10 33 11 -15 7 -27 -3 -88 -17 -135 -32 -105 -34 -185 -36
-251 -7 -40 18 -98 55 -223 143 -20 14 -20 14 -7 -3z"/>
<path d="M880 1810 c0 -5 11 -10 24 -10 14 0 28 5 31 10 4 6 -7 10 -24 10 -17
0 -31 -4 -31 -10z"/>
<path d="M1365 1780 c4 -6 11 -8 16 -5 14 9 11 15 -7 15 -8 0 -12 -5 -9 -10z"/>
<path d="M1597 1741 c29 -48 128 -146 184 -182 96 -61 206 -89 296 -73 46 8
43 8 -49 15 -79 5 -110 13 -164 38 -77 36 -174 110 -240 184 -36 40 -42 44
-27 18z"/>
<path d="M1375 1694 c-12 -55 -14 -56 -50 -52 -43 5 -47 -7 -5 -15 45 -9 58 0
62 46 6 50 2 61 -7 21z"/>
<path d="M925 1695 l-40 -14 40 7 c22 4 87 7 145 7 106 -1 170 -18 170 -47 0
-9 3 -8 13 1 15 16 -10 36 -63 51 -50 14 -218 11 -265 -5z"/>
<path d="M1123 1663 c-7 -2 -13 -9 -13 -15 0 -6 6 -8 14 -5 7 3 20 0 27 -6 11
-10 11 -9 1 5 -10 13 -10 17 0 21 9 4 9 5 -2 5 -8 0 -21 -2 -27 -5z"/>
<path d="M860 1645 c0 -31 67 -49 185 -50 61 0 123 4 139 8 48 14 23 17 -44 6
-60 -9 -197 -3 -186 9 3 3 29 4 57 3 58 -2 89 5 89 20 0 6 -5 7 -12 3 -6 -4
-45 -7 -86 -6 -48 2 -71 -1 -67 -8 11 -18 -21 -11 -49 11 -22 17 -26 18 -26 4z"/>
<path d="M1358 1600 c-15 -4 -42 -19 -60 -32 -18 -12 -64 -37 -103 -55 -65
-30 -93 -53 -64 -53 16 0 256 128 264 140 7 11 0 11 -37 0z"/>
<path d="M1536 1516 c3 -8 12 -12 20 -9 17 6 9 23 -11 23 -8 0 -12 -6 -9 -14z"/>
<path d="M1742 1453 c5 -28 91 -52 186 -53 83 0 168 15 178 31 3 5 -5 5 -18 0
-82 -31 -281 -18 -319 20 -24 24 -31 24 -27 2z"/>
<path d="M1556 1398 c-7 -46 -12 -58 -26 -58 -10 0 -24 -2 -32 -5 -22 -8 -40
11 -48 51 l-8 39 -1 -33 c-2 -57 13 -72 70 -72 58 0 61 5 57 81 l-3 54 -9 -57z"/>
<path d="M1625 1442 c14 -14 250 -132 264 -132 6 0 11 4 11 9 0 8 -109 61
-127 61 -5 0 -27 14 -50 30 -38 28 -121 56 -98 32z"/>
<path d="M2121 1390 c-1 -85 15 -149 43 -180 31 -33 46 -63 46 -94 0 -14 5
-28 10 -31 6 -3 10 2 10 12 0 39 -23 95 -52 128 -27 31 -32 46 -40 123 -11
111 -16 123 -17 42z"/>
<path d="M1600 1403 c0 -21 35 -42 61 -36 22 4 44 -4 97 -36 72 -43 82 -47 82
-31 0 6 -33 25 -72 44 -82 38 -168 68 -168 59z"/>
<path d="M759 1259 c-19 -51 -49 -108 -67 -130 -19 -22 -29 -39 -24 -39 19 0
72 74 94 132 23 59 35 68 95 68 22 0 38 -8 52 -26 25 -32 29 -10 5 25 -13 18
-23 22 -53 19 -20 -3 -44 -8 -55 -13 -16 -7 -18 -5 -11 23 12 56 -1 34 -36
-59z"/>
<path d="M1080 1317 c0 -7 226 -140 305 -180 123 -62 176 -69 271 -37 63 21
368 170 361 176 -2 2 -58 -20 -125 -50 -66 -30 -164 -71 -217 -91 -136 -51
-159 -46 -393 84 -146 82 -202 109 -202 98z"/>
<path d="M937 1215 c-31 -8 -74 -24 -95 -35 -24 -14 -28 -18 -12 -14 103 28
130 34 168 34 90 0 152 -54 152 -133 0 -21 -16 -93 -35 -160 -19 -67 -35 -126
-35 -132 1 -11 64 147 86 214 21 66 18 111 -12 158 -47 72 -114 93 -217 68z"/>
<path d="M2028 1183 c-8 -10 -18 -27 -22 -38 -6 -16 -1 -14 23 9 27 26 35 28
78 23 44 -5 46 -4 23 9 -35 19 -84 17 -102 -3z"/>
<path d="M1895 1113 c-78 -16 -126 -68 -133 -145 -4 -40 3 -69 38 -164 24 -63
45 -113 46 -111 2 2 -10 52 -27 113 -48 170 -39 225 42 266 50 26 139 20 254
-17 19 -6 19 -6 1 5 -49 32 -177 62 -221 53z"/>
<path d="M980 1042 c0 -5 7 -53 15 -108 8 -54 15 -130 16 -169 1 -61 2 -65 10
-35 8 34 -4 250 -17 298 -6 21 -24 31 -24 14z"/>
<path d="M982 603 c2 -19 9 -29 23 -30 11 -2 34 -5 50 -9 19 -3 37 0 49 9 19
14 19 15 -8 15 -15 0 -37 9 -50 21 -12 11 -32 21 -45 21 -18 0 -22 -5 -19 -27z"/>
<path d="M1855 530 c-10 -12 -31 -20 -49 -20 -30 -1 -30 -1 -11 -16 13 -10 31
-13 50 -9 17 3 39 7 50 9 13 2 21 12 23 29 3 23 -1 27 -21 27 -13 0 -32 -9
-42 -20z"/>
</g>
</svg>
