<?xml version="1.0" standalone="no"?>
<!DOCTYPE svg PUBLIC "-//W3C//DTD SVG 20010904//EN"
 "http://www.w3.org/TR/2001/REC-SVG-20010904/DTD/svg10.dtd">
<svg version="1.0" xmlns="http://www.w3.org/2000/svg"
 width="225.000000pt" height="225.000000pt" viewBox="0 0 225.000000 225.000000"
 preserveAspectRatio="xMidYMid meet">

<g transform="translate(0.000000,225.000000) scale(0.100000,-0.100000)"
fill="#000000" stroke="none">
<path d="M1606 1904 c-3 -9 -6 -83 -6 -165 l0 -149 -84 0 c-79 0 -86 -2 -105
-26 -16 -21 -21 -41 -21 -91 0 -55 4 -67 25 -88 16 -17 35 -25 59 -25 l35 0
-6 -53 c-3 -32 -1 -62 6 -75 10 -18 8 -23 -16 -34 -14 -7 -36 -26 -47 -41 -19
-26 -21 -42 -21 -168 l0 -139 -47 0 -48 0 6 43 c9 67 -12 126 -65 178 l-46 47
17 28 c37 61 11 152 -53 186 l-34 18 -5 163 -5 162 -25 0 -25 0 -5 -163 -5
-162 -32 -20 c-18 -10 -40 -31 -49 -45 -22 -33 -22 -100 -1 -141 15 -30 15
-30 -20 -58 -50 -41 -76 -103 -71 -177 l3 -59 -32 0 c-33 0 -33 0 -33 51 0 36
6 58 20 76 30 38 27 107 -5 138 -13 14 -33 25 -44 25 -18 0 -19 3 -11 26 14
35 11 212 -3 253 -16 47 -57 74 -120 81 l-52 5 -5 160 -5 160 -25 0 -25 0 -3
-162 -2 -163 -50 0 c-43 0 -56 -5 -86 -33 -28 -26 -37 -42 -41 -78 -4 -32 -1
-48 10 -57 23 -19 47 -4 47 30 0 17 10 39 25 53 23 23 31 25 130 25 143 0 145
-2 145 -153 0 -148 1 -147 -146 -147 -60 0 -116 5 -124 10 -8 5 -20 24 -26 42
-8 25 -17 33 -35 33 -22 0 -24 -4 -23 -42 1 -38 -2 -42 -28 -47 -57 -11 -76
-118 -28 -161 15 -14 20 -31 20 -72 l0 -53 -155 0 c-152 0 -156 -1 -180 -25
-21 -21 -25 -33 -25 -88 0 -96 15 -111 119 -115 l81 -4 0 -62 c0 -72 23 -127
71 -174 65 -64 56 -63 875 -60 l739 3 41 22 c79 42 113 104 117 210 l2 58 84
5 c106 7 121 21 121 117 0 55 -4 67 -25 88 -24 25 -26 25 -202 25 l-178 0 3
132 c3 126 2 135 -20 168 -13 19 -36 41 -51 48 -24 11 -26 16 -16 34 7 13 9
43 6 75 l-6 53 35 0 c24 0 43 8 59 25 21 20 25 34 25 85 0 60 -11 97 -34 112
-6 4 -48 8 -93 8 l-83 0 0 149 c0 82 -3 156 -6 165 -3 9 -16 16 -29 16 -13 0
-26 -7 -29 -16z m204 -429 l0 -55 -175 0 -175 0 0 55 0 55 175 0 175 0 0 -55z
m-125 -140 c14 -13 25 -36 25 -50 0 -33 -42 -75 -75 -75 -33 0 -75 42 -75 75
0 14 11 37 25 50 13 14 36 25 50 25 14 0 37 -11 50 -25z m-513 -75 c24 -25 29
-36 24 -58 -14 -58 -86 -82 -126 -42 -34 34 -21 102 23 120 36 14 47 11 79
-20z m589 -129 c23 -18 24 -26 24 -129 0 -151 -1 -152 -148 -152 -149 0 -147
-2 -147 151 0 149 0 149 146 149 85 0 106 -3 125 -19z m-931 -86 l0 -25 -225
0 -225 0 0 25 0 25 225 0 225 0 0 -25z m358 11 c64 -34 99 -106 81 -171 l-10
-35 -139 0 -139 0 -7 35 c-13 70 13 131 69 165 38 23 106 26 145 6z m-408
-156 l0 -50 -180 0 -180 0 0 50 0 50 180 0 180 0 0 -50z m1410 -165 l0 -45
-266 -2 c-245 -3 -268 -4 -278 -21 -9 -15 -7 -21 8 -33 15 -11 55 -14 173 -14
l153 0 0 -58 c0 -68 -23 -117 -70 -149 l-33 -23 -752 0 -752 0 -33 22 c-54 37
-72 69 -77 142 l-6 66 630 0 c532 0 632 2 649 14 15 12 17 18 8 33 -11 17 -49
18 -748 21 l-736 2 0 45 0 45 1065 0 1065 0 0 -45z"/>
</g>
</svg>
