<?xml version="1.0" standalone="no"?>
<!DOCTYPE svg PUBLIC "-//W3C//DTD SVG 20010904//EN"
 "http://www.w3.org/TR/2001/REC-SVG-20010904/DTD/svg10.dtd">
<svg version="1.0" xmlns="http://www.w3.org/2000/svg"
 width="480.000000pt" height="240.000000pt" viewBox="0 0 480.000000 240.000000"
 preserveAspectRatio="xMidYMid meet">

<g transform="translate(0.000000,240.000000) scale(0.100000,-0.100000)"
fill="#000000" stroke="none">
<path d="M2205 2337 c-60 -20 -117 -52 -141 -79 -60 -66 -116 -193 -135 -310
-12 -73 -14 -76 -41 -80 -26 -4 -32 0 -53 41 -13 25 -53 81 -89 123 -36 43
-66 79 -66 82 0 2 8 7 18 9 9 3 5 4 -9 4 -15 -1 -54 17 -90 40 -107 69 -171
86 -334 87 -115 1 -149 -2 -190 -18 -66 -25 -81 -39 -117 -111 -24 -47 -30
-72 -30 -123 0 -59 -2 -64 -27 -74 -14 -6 -66 -29 -116 -52 l-90 -42 -65 13
c-79 16 -244 9 -312 -13 -29 -9 -60 -30 -81 -53 -29 -32 -35 -48 -41 -102 -8
-72 0 -102 41 -155 l26 -35 -22 -37 c-95 -158 -115 -298 -63 -448 77 -219 295
-413 640 -570 245 -110 608 -209 902 -245 62 -7 126 -23 183 -45 141 -55 268
-61 387 -19 31 11 110 18 265 25 551 24 1031 128 1400 304 364 174 577 392
614 627 7 41 17 96 22 122 16 68 3 194 -25 243 -16 29 -32 43 -64 54 -23 8
-42 20 -42 26 0 7 -5 14 -12 16 -14 5 -149 -17 -198 -32 -43 -12 -40 -13 -40
4 0 19 -22 26 -67 19 l-38 -6 46 45 c25 25 64 77 85 116 39 72 54 87 54 55 0
-57 -58 -162 -81 -147 -5 3 -9 -2 -9 -10 0 -24 23 -19 44 9 10 14 24 33 32 42
12 17 17 14 61 -29 27 -27 53 -48 58 -48 5 0 -14 24 -43 53 l-52 53 -4 85 c-6
150 -38 219 -118 258 -48 23 -190 43 -221 32 -13 -5 12 -10 71 -14 98 -6 148
-23 189 -66 29 -29 53 -91 53 -136 0 -54 -60 -155 -145 -244 -78 -82 -79 -83
-45 -75 19 4 51 8 70 9 l35 0 7 -70 c8 -73 -5 -200 -23 -221 -5 -6 -39 -19
-76 -28 -64 -17 -163 -62 -290 -133 -64 -35 -79 -50 -43 -40 11 3 20 1 20 -3
0 -5 33 8 73 29 39 21 83 42 97 46 14 4 50 19 80 33 40 19 74 26 125 28 l70 2
-60 -27 c-33 -15 -76 -35 -95 -44 -51 -23 -181 -77 -187 -77 -2 0 -2 4 2 9 6
10 76 44 193 93 40 17 71 32 68 35 -6 6 -124 -41 -211 -85 -64 -31 -131 -82
-109 -82 15 0 187 67 265 103 102 47 246 104 296 117 65 16 73 35 73 173 l0
120 33 -7 c88 -17 101 -161 24 -264 -42 -56 -166 -155 -268 -216 -82 -49 -231
-115 -260 -116 -9 0 -52 17 -95 39 -44 21 -95 41 -114 45 -32 6 -31 5 10 -12
143 -59 220 -129 220 -199 0 -42 -60 -108 -131 -143 -116 -59 -353 -101 -564
-100 -119 1 -162 11 -217 53 -26 20 -55 29 -114 38 -110 15 -174 58 -174 117
0 18 -4 23 -16 18 -9 -3 -19 -6 -23 -6 -4 0 -4 -33 1 -72 8 -76 2 -92 -28 -86
-14 2 -20 15 -24 51 -6 49 -21 74 -39 63 -6 -4 -2 -19 11 -42 16 -28 19 -45
14 -82 -19 -141 -127 -245 -320 -309 -71 -23 -98 -27 -211 -27 -119 -1 -137 1
-206 27 -102 38 -162 91 -205 181 -37 77 -40 99 -22 158 12 39 28 52 93 73 15
5 16 8 6 14 -8 5 -10 14 -6 22 5 8 -3 5 -16 -7 -13 -11 -43 -30 -66 -42 l-42
-21 -26 21 c-22 17 -26 27 -22 54 3 17 18 50 32 73 30 44 25 63 -16 76 -14 5
-19 14 -17 28 3 20 10 22 66 25 73 3 91 22 51 53 -22 18 -23 20 -6 33 9 7 17
18 17 23 0 17 -28 35 -41 27 -8 -5 -7 -10 5 -16 16 -9 16 -11 -1 -30 -17 -19
-17 -21 11 -43 36 -29 21 -39 -43 -30 -38 5 -52 3 -65 -10 -28 -28 -22 -44 29
-80 16 -11 18 -17 9 -32 -21 -34 -55 -44 -133 -39 -40 2 -83 1 -95 -3 -72 -28
-269 -16 -351 20 -26 12 -62 18 -92 17 -163 -5 -389 75 -484 173 -108 111 -81
190 92 268 35 16 83 32 107 36 53 9 56 22 3 17 -52 -5 -189 31 -276 72 -142
67 -255 177 -255 248 l0 29 48 -39 c95 -80 184 -126 353 -182 35 -12 87 -37
114 -55 33 -22 68 -36 103 -40 61 -8 68 -22 15 -28 -21 -2 -15 -3 12 -2 28 2
84 8 125 15 41 6 91 9 110 5 77 -13 170 -17 170 -5 0 6 -14 10 -33 8 -18 -1
-37 1 -43 5 -16 9 -10 49 9 61 23 14 48 -1 67 -42 16 -33 60 -58 85 -48 30 11
14 -21 -18 -36 -29 -14 -37 -14 -67 -2 -39 17 -202 45 -195 34 2 -4 28 -10 57
-13 68 -8 151 -36 161 -54 12 -21 50 -33 64 -21 20 16 25 -12 13 -66 -5 -25
-7 -58 -4 -71 5 -21 12 -25 44 -25 22 0 42 4 45 10 4 6 -1 7 -11 3 -12 -4 -15
-2 -12 8 7 21 37 23 45 2 13 -37 22 -42 55 -31 28 10 33 9 46 -10 14 -22 46
-30 56 -14 3 5 -5 8 -17 8 -16 -1 -23 6 -25 22 -3 17 -8 22 -20 17 -9 -3 -29
-9 -44 -12 -22 -4 -27 -1 -30 18 -4 32 -40 36 -75 9 -41 -32 -54 -12 -41 67
14 80 7 97 -32 88 -19 -4 -30 -3 -30 4 0 6 3 11 8 11 4 0 22 9 40 20 29 18 32
23 21 36 -7 9 -21 13 -33 10 -24 -6 -53 15 -85 61 -24 35 -66 52 -83 35 -5 -5
-13 -25 -17 -44 -7 -34 -26 -45 -51 -28 -13 8 -13 12 -1 32 15 24 16 23 -58
71 -52 33 -61 54 -33 77 27 22 21 45 -20 66 -41 21 -30 39 24 39 24 0 52 6 61
14 24 19 99 8 165 -26 28 -14 55 -24 58 -21 3 3 -20 18 -51 33 -31 15 -54 33
-52 39 7 21 59 18 90 -5 l30 -22 19 23 c10 12 18 37 18 55 0 67 74 88 125 35
34 -35 51 -38 60 -10 8 26 19 25 45 -2 14 -15 23 -19 28 -12 19 29 53 36 97
19 24 -9 46 -23 49 -30 3 -8 11 -15 18 -15 7 0 -4 16 -24 35 -40 37 -88 46
-129 25 -14 -8 -25 -6 -45 7 -25 16 -27 16 -44 -7 l-18 -24 -36 32 c-24 21
-47 32 -66 32 -32 0 -70 -30 -70 -55 0 -34 -56 -4 -176 96 -90 75 -144 137
-144 166 0 30 73 98 137 128 224 103 431 2 599 -292 20 -37 41 -46 23 -10 -79
149 -199 274 -316 328 -145 67 -355 12 -443 -116 l-31 -45 18 -37 c23 -51 171
-195 250 -245 34 -22 63 -44 63 -49 0 -13 -5 -12 -47 11 -21 11 -46 17 -59 14
-29 -7 -86 29 -150 98 -124 131 -152 294 -66 386 50 53 209 83 329 63 192 -34
241 -57 353 -171 107 -108 150 -174 155 -238 3 -45 1 -52 -15 -52 -36 0 -30
-60 7 -74 18 -7 16 5 -4 19 -20 15 -10 50 12 41 21 -8 31 20 14 40 -11 14 -10
19 10 35 42 34 111 17 137 -34 15 -28 16 -28 36 -10 19 17 20 17 39 -6 21 -25
25 -21 9 10 -7 11 -21 19 -38 19 -24 1 -72 30 -72 44 0 3 8 14 18 25 9 10 33
47 52 81 39 69 172 217 226 251 29 18 40 20 60 10 27 -12 32 0 9 19 -13 11
-22 10 -49 -2 -43 -21 -142 -113 -196 -183 -24 -31 -45 -54 -47 -51 -13 13 86
166 131 202 25 20 121 62 146 64 3 0 22 -15 43 -33 36 -31 39 -38 46 -108 5
-40 9 -60 10 -42 1 34 46 97 63 87 5 -3 13 -16 17 -27 5 -12 17 -22 27 -22 28
0 57 -69 60 -144 4 -86 14 -91 14 -5 0 82 -31 157 -67 162 -11 2 -23 12 -26
23 -3 10 -15 23 -27 27 -11 4 -26 18 -33 31 -8 15 -28 29 -55 37 -23 6 -49 17
-57 24 -11 9 -21 8 -47 -3 -18 -8 -45 -18 -61 -21 -57 -13 -164 -151 -202
-261 -12 -33 -27 -69 -33 -80 -18 -32 -15 71 4 120 9 22 20 57 25 78 43 175
215 247 408 171 152 -59 218 -154 229 -328 l5 -89 -34 7 c-145 31 -191 30
-309 -6 -166 -51 -320 -175 -320 -258 0 -11 5 -20 11 -20 5 0 8 4 4 10 -23 38
94 159 205 213 177 84 325 89 477 15 119 -58 191 -176 152 -250 -8 -16 -8 -19
2 -16 26 9 32 57 15 112 -19 60 -67 113 -141 155 l-47 27 -3 75 c-1 41 -12
109 -25 152 -21 70 -29 83 -80 131 -98 90 -278 144 -375 113z m243 -117 c10
-16 10 -25 1 -42 -12 -22 -12 -22 -19 -3 -18 49 -20 74 -7 70 7 -3 18 -14 25
-25z m-436 -113 c-20 -45 -27 -79 -37 -170 -5 -51 -11 -67 -25 -67 -18 0 -18
34 1 107 19 77 67 189 76 179 3 -2 -4 -24 -15 -49z m-1049 -175 c3 -16 29 -63
57 -105 39 -56 67 -86 111 -114 32 -21 59 -41 59 -45 0 -16 -30 -7 -79 23 -59
37 -124 124 -151 205 -23 66 -23 64 -11 64 5 0 11 -13 14 -28z m-7 -69 c14
-32 35 -70 46 -86 23 -32 19 -44 -10 -28 -30 16 -200 71 -220 71 -45 0 -28 18
55 57 48 23 91 42 95 42 4 1 19 -25 34 -56z m341 -131 c18 -8 34 -21 37 -28
12 -31 -165 97 -224 162 -14 15 15 -6 65 -46 49 -40 104 -79 122 -88z m-624
93 c141 -23 286 -69 402 -128 39 -19 39 -20 17 -30 -15 -7 -29 -7 -45 1 -84
41 -128 56 -182 58 -33 1 -82 9 -109 18 -54 17 -343 34 -389 22 -16 -4 -27
-13 -27 -23 0 -9 -7 -24 -15 -33 -15 -16 -12 -21 31 -59 29 -25 65 -46 92 -53
24 -6 57 -22 73 -35 16 -14 44 -27 61 -30 54 -8 147 -50 183 -82 33 -29 101
-53 180 -65 22 -3 56 -9 77 -12 20 -3 39 -1 42 4 3 5 -26 12 -64 15 -91 8
-176 34 -222 70 -40 30 -131 70 -188 82 -19 4 -47 18 -62 31 -15 12 -52 29
-81 38 -29 8 -64 27 -77 41 -28 29 -19 33 18 6 33 -22 117 -51 150 -51 14 0
53 -16 88 -35 34 -19 76 -35 92 -35 17 0 44 -12 67 -30 48 -38 134 -70 192
-70 41 0 123 -33 123 -50 0 -3 -9 -16 -20 -28 -17 -18 -32 -22 -88 -22 -107 0
-186 17 -235 50 -24 16 -68 36 -98 44 -173 46 -356 143 -418 222 -51 65 5 152
111 173 70 14 222 12 321 -4z m-23 -80 c52 -4 110 -13 129 -21 19 -8 51 -14
70 -13 56 3 211 -49 211 -70 0 -4 -21 -7 -47 -7 -41 1 -48 -2 -51 -19 -2 -14
7 -26 28 -38 35 -21 38 -32 10 -47 -24 -13 -26 -37 -3 -62 15 -17 14 -18 -19
-18 -43 0 -146 40 -191 74 -19 14 -46 26 -60 26 -15 0 -57 16 -94 37 -42 22
-90 39 -123 43 -63 8 -153 57 -159 85 -8 44 27 47 299 30z m3783 -280 c10
-100 -2 -222 -22 -231 -9 -3 -61 -18 -116 -34 -55 -15 -109 -31 -120 -35 -17
-8 -16 -4 6 23 30 35 44 121 37 233 l-3 63 45 14 c49 15 112 29 146 31 19 1
22 -6 27 -64z m-4112 -24 c68 -53 230 -127 324 -146 28 -6 27 -8 -44 -45 -131
-69 -151 -99 -151 -228 0 -80 3 -92 29 -134 73 -115 261 -186 511 -192 92 -2
126 -7 170 -25 116 -48 157 -55 250 -41 107 16 120 16 205 -4 104 -24 99 -20
70 -69 -30 -52 -34 -145 -10 -204 8 -19 15 -37 15 -40 0 -16 -385 66 -555 119
-621 190 -979 529 -910 859 14 71 52 169 65 169 4 0 18 -8 31 -19z m4259 -193
c-1 -67 -92 -179 -193 -237 -30 -17 -65 -46 -77 -64 -29 -42 -89 -81 -165
-107 -71 -24 -112 -25 -137 -3 -26 24 -23 30 30 49 103 37 210 89 277 134 90
61 193 157 225 209 28 46 40 51 40 19z m-414 -57 c-3 -4 -27 -14 -53 -21 -54
-15 -212 -78 -229 -91 -14 -12 -84 -40 -84 -35 0 4 66 40 161 87 42 21 178 68
197 69 7 0 11 -4 8 -9z m-3896 -249 c51 -79 108 -142 190 -207 259 -206 692
-369 1183 -445 57 -9 72 -16 97 -43 15 -17 27 -33 25 -35 -2 -2 -73 8 -157 22
-562 95 -1002 285 -1241 535 -92 97 -157 207 -176 299 -18 87 -12 92 14 11 14
-41 43 -103 65 -137z m4261 82 c-76 -215 -314 -424 -651 -571 -352 -154 -765
-244 -1260 -273 -205 -12 -210 -12 -210 0 0 6 6 10 13 10 7 0 29 11 49 25 30
20 49 25 100 25 87 0 280 17 418 36 158 21 383 64 395 75 5 6 4 9 -3 9 -7 0
-12 5 -12 10 0 6 30 10 71 10 190 0 329 43 475 148 73 52 101 101 116 200 8
57 13 68 30 69 77 6 212 77 262 137 19 24 55 53 78 65 24 11 53 28 66 37 62
45 -22 -90 -119 -191 -79 -83 -172 -153 -281 -214 -49 -28 -76 -56 -65 -67 6
-6 190 107 252 155 135 104 236 233 273 351 11 36 18 48 20 34 2 -12 -6 -48
-17 -80z m-4051 -4 c0 -5 16 -28 36 -50 56 -62 184 -126 316 -160 132 -33 132
-33 138 -30 23 9 79 4 150 -13 87 -21 169 -24 431 -15 l107 3 -5 -35 c-8 -50
-26 -60 -102 -58 -37 1 -76 -4 -88 -10 -31 -17 -163 -15 -214 3 -24 9 -64 25
-89 37 -38 19 -71 23 -210 29 -177 8 -250 24 -340 76 -61 35 -128 101 -134
132 -15 82 -16 101 -6 101 5 0 10 -4 10 -10z m2415 -410 c17 -7 58 -16 92 -21
39 -6 79 -19 108 -38 70 -44 128 -55 269 -47 178 10 279 24 394 56 130 37 168
54 215 99 43 41 45 37 16 -24 -37 -78 -140 -148 -286 -194 -103 -33 -170 -41
-353 -43 -186 -3 -224 4 -275 52 -11 11 -65 31 -119 45 -109 28 -151 47 -160
70 -3 9 -6 42 -6 73 l0 56 38 -36 c20 -20 51 -42 67 -48z m-1205 30 l35 -19
-35 5 c-52 8 -62 13 -55 24 8 13 14 12 55 -10z m1111 -104 c34 -39 108 -66
181 -66 33 0 50 -6 64 -21 34 -38 102 -61 196 -67 143 -8 118 -20 -132 -61
-159 -27 -545 -65 -558 -55 -2 1 19 24 47 52 53 53 105 145 116 205 6 32 16
41 48 46 4 0 21 -15 38 -33z m-1060 -105 c23 -54 94 -127 152 -156 140 -72
355 -84 502 -30 41 15 161 75 183 91 12 9 22 12 22 6 0 -10 -131 -112 -143
-112 -3 0 -29 -14 -58 -30 -28 -17 -56 -29 -63 -27 -6 2 -16 -2 -21 -10 -13
-18 -111 -43 -182 -47 -114 -6 -280 48 -357 115 -63 56 -101 137 -100 214 0
33 7 74 14 90 l13 30 8 -42 c4 -22 18 -64 30 -92z"/>
<path d="M475 1800 c3 -5 8 -10 11 -10 2 0 4 5 4 10 0 6 -5 10 -11 10 -5 0 -7
-4 -4 -10z"/>
<path d="M4370 1460 c-8 -5 -11 -12 -8 -16 10 -9 38 3 38 16 0 12 -10 13 -30
0z"/>
<path d="M4267 1409 c-21 -12 -22 -29 -1 -29 8 0 13 4 9 9 -3 5 3 11 12 13 10
2 13 6 8 10 -6 3 -18 2 -28 -3z"/>
<path d="M4306 1334 c-16 -16 -21 -34 -10 -34 4 0 13 8 20 17 7 10 16 14 20
10 5 -4 2 -12 -6 -17 -9 -6 -10 -10 -3 -10 14 0 43 27 43 41 0 15 -47 10 -64
-7z"/>
<path d="M4220 919 c0 -5 5 -7 10 -4 6 3 10 8 10 11 0 2 -4 4 -10 4 -5 0 -10
-5 -10 -11z"/>
<path d="M1340 711 c0 -5 5 -13 10 -16 6 -3 10 -2 10 4 0 5 -4 13 -10 16 -5 3
-10 2 -10 -4z"/>
<path d="M3650 500 c0 -5 5 -10 10 -10 6 0 10 5 10 10 0 6 -4 10 -10 10 -5 0
-10 -4 -10 -10z"/>
<path d="M2121 164 c0 -11 3 -14 6 -6 3 7 2 16 -1 19 -3 4 -6 -2 -5 -13z"/>
<path d="M2125 2230 c-3 -5 -1 -10 4 -10 6 0 11 5 11 10 0 6 -2 10 -4 10 -3 0
-8 -4 -11 -10z"/>
<path d="M2508 2213 c7 -3 16 -2 19 1 4 3 -2 6 -13 5 -11 0 -14 -3 -6 -6z"/>
<path d="M3264 2210 c-92 -10 -237 -84 -369 -188 -53 -42 -156 -145 -150 -150
3 -3 38 26 78 65 61 60 129 109 270 197 34 21 170 56 217 55 19 0 55 -10 80
-22 38 -19 48 -29 63 -72 20 -58 17 -143 -8 -217 -18 -50 -91 -142 -106 -132
-5 3 -23 -2 -41 -10 -39 -20 -48 -20 -48 0 0 9 -9 18 -20 21 -28 7 -25 32 5
38 14 3 35 7 48 10 38 8 85 43 112 83 72 109 -1 234 -133 231 l-47 -1 51 -8
c62 -9 84 -21 118 -61 53 -62 17 -168 -72 -210 -24 -12 -45 -19 -47 -17 -2 2
3 24 12 49 16 45 16 47 -8 95 -19 38 -35 54 -73 73 -41 21 -46 26 -32 36 30
22 16 27 -18 6 -18 -12 -49 -21 -67 -21 -56 0 -132 -42 -173 -95 -20 -27 -36
-54 -36 -62 0 -7 -11 -18 -24 -24 -13 -6 -29 -22 -35 -36 -18 -39 -13 -40 19
-3 l30 35 23 -26 c29 -32 46 -25 82 31 65 103 179 86 151 -22 -13 -49 3 -69
50 -61 33 5 34 4 34 -26 0 -25 4 -31 21 -31 18 0 20 -4 15 -25 -8 -30 0 -31
39 -5 60 40 98 15 88 -56 l-5 -32 -81 -5 c-79 -4 -192 -25 -184 -33 2 -2 38 3
81 11 148 28 275 12 284 -36 5 -28 -52 -58 -138 -76 -44 -9 -79 -18 -76 -20 8
-8 131 19 174 37 55 24 60 1 5 -25 -67 -32 -136 -45 -238 -44 -60 1 -88 4 -70
8 25 6 20 8 -33 14 -76 8 -82 11 -82 43 0 17 12 33 42 54 48 35 34 40 -23 8
-35 -20 -39 -25 -39 -62 0 -55 6 -61 69 -76 108 -25 339 2 401 48 29 22 34 41
26 86 -6 33 -47 66 -83 66 -15 0 -18 8 -17 58 0 47 6 66 26 93 64 85 95 197
79 282 -4 26 -7 47 -5 47 2 0 11 -14 20 -32 12 -24 15 -49 12 -103 -5 -80 -31
-142 -86 -206 -52 -60 -19 -46 46 20 70 71 210 164 300 199 36 14 61 27 55 29
-20 7 -136 -48 -223 -106 -47 -31 -88 -57 -91 -59 -4 -2 2 23 12 54 24 71 17
142 -18 195 -26 40 -118 119 -139 119 -7 0 -18 2 -26 4 -7 2 -41 0 -74 -4z
m-101 -171 c36 -19 77 -61 77 -80 0 -10 5 -21 12 -25 7 -5 8 -3 3 6 -5 9 -4
11 3 6 25 -15 -3 -126 -32 -126 -4 0 -1 11 8 25 9 13 16 37 15 52 -1 27 -1 26
-9 -6 -11 -45 -38 -70 -80 -73 -33 -3 -35 -2 -32 27 2 17 13 38 25 48 l22 19
-22 -5 c-17 -4 -24 1 -32 24 -14 42 -50 47 -105 15 -24 -14 -46 -33 -50 -42
-3 -9 -13 -14 -21 -10 -8 3 -17 1 -20 -4 -4 -6 1 -10 9 -10 22 0 20 -13 -5
-28 -18 -11 -23 -11 -35 5 -18 25 -17 40 6 78 53 85 192 140 263 104z"/>
<path d="M3080 2010 c0 -5 5 -10 11 -10 5 0 7 5 4 10 -3 6 -8 10 -11 10 -2 0
-4 -4 -4 -10z"/>
<path d="M2996 1991 c-4 -7 -5 -15 -2 -18 9 -9 19 4 14 18 -4 11 -6 11 -12 0z"/>
<path d="M3125 1970 c-8 -12 20 -24 35 -15 6 3 8 11 5 16 -8 12 -32 12 -40 -1z"/>
<path d="M3200 1950 c0 -5 5 -10 11 -10 5 0 7 5 4 10 -3 6 -8 10 -11 10 -2 0
-4 -4 -4 -10z"/>
<path d="M2925 1939 c-4 -6 -5 -13 -2 -16 7 -7 27 6 27 18 0 12 -17 12 -25 -2z"/>
<path d="M3175 1871 c-7 -12 12 -24 25 -16 11 7 4 25 -10 25 -5 0 -11 -4 -15
-9z"/>
<path d="M1110 2190 c0 -5 5 -10 10 -10 6 0 10 5 10 10 0 6 -4 10 -10 10 -5 0
-10 -4 -10 -10z"/>
<path d="M2565 2170 c3 -5 11 -10 16 -10 6 0 7 5 4 10 -3 6 -11 10 -16 10 -6
0 -7 -4 -4 -10z"/>
<path d="M1040 2152 c0 -5 7 -13 16 -16 10 -4 14 -1 12 6 -5 15 -28 23 -28 10z"/>
<path d="M1908 2153 c12 -2 30 -2 40 0 9 3 -1 5 -23 4 -22 0 -30 -2 -17 -4z"/>
<path d="M1798 2143 c12 -2 30 -2 40 0 9 3 -1 5 -23 4 -22 0 -30 -2 -17 -4z"/>
<path d="M1275 2119 c-37 -10 -89 -64 -102 -104 -13 -42 -1 -107 26 -147 28
-40 88 -88 110 -88 10 0 4 8 -14 19 -16 10 -41 31 -55 46 -24 27 -24 27 -2 16
13 -7 22 -8 22 -2 0 5 -9 13 -21 16 -12 4 -30 26 -41 52 -25 56 -15 103 32
148 26 24 40 30 93 33 53 3 72 0 114 -22 58 -29 106 -84 121 -139 14 -50 2
-81 -40 -107 -25 -15 -28 -20 -14 -20 11 0 30 10 43 22 20 19 23 19 23 4 0 -9
-6 -19 -12 -21 -55 -19 -71 -28 -60 -32 20 -7 71 17 83 39 16 30 1 109 -32
166 -59 103 -169 152 -274 121z"/>
<path d="M1285 2066 c-17 -12 -18 -15 -3 -30 21 -21 35 -21 17 0 -10 13 -10
17 2 25 18 11 32 11 63 -1 25 -9 37 -40 16 -40 -5 0 -10 -5 -10 -11 0 -8 5 -8
15 1 8 7 15 23 15 35 0 17 -7 24 -31 29 -47 9 -63 8 -84 -8z"/>
<path d="M3215 2060 c-3 -5 1 -10 9 -10 9 0 16 5 16 10 0 6 -4 10 -9 10 -6 0
-13 -4 -16 -10z"/>
<path d="M3300 2060 c0 -5 5 -10 11 -10 5 0 7 5 4 10 -3 6 -8 10 -11 10 -2 0
-4 -4 -4 -10z"/>
<path d="M2396 2002 c-28 -88 -28 -91 -1 -34 15 29 25 62 23 73 -2 11 -11 -5
-22 -39z"/>
<path d="M1460 2033 c0 -6 7 -16 15 -23 9 -8 13 -21 9 -33 -4 -14 -2 -18 7
-15 8 3 13 14 11 24 -4 21 -42 65 -42 47z"/>
<path d="M3888 2023 c6 -2 18 -2 25 0 6 3 1 5 -13 5 -14 0 -19 -2 -12 -5z"/>
<path d="M1223 2013 c-7 -3 -13 -12 -13 -21 0 -14 2 -14 9 -3 5 8 18 12 30 8
12 -3 21 -2 21 3 0 10 -31 18 -47 13z"/>
<path d="M1331 2004 c13 -16 29 -19 29 -5 0 5 -9 11 -21 14 -16 4 -18 3 -8 -9z"/>
<path d="M3275 2010 c3 -5 8 -10 11 -10 2 0 4 5 4 10 0 6 -5 10 -11 10 -5 0
-7 -4 -4 -10z"/>
<path d="M3848 2013 c7 -3 16 -2 19 1 4 3 -2 6 -13 5 -11 0 -14 -3 -6 -6z"/>
<path d="M1425 1980 c27 -12 43 -12 25 0 -8 5 -22 9 -30 9 -10 0 -8 -3 5 -9z"/>
<path d="M1310 1965 c-14 -16 -3 -20 19 -6 8 5 9 11 3 15 -5 3 -15 -1 -22 -9z"/>
<path d="M3305 1970 c3 -5 15 -10 26 -10 11 0 17 5 14 10 -3 6 -15 10 -26 10
-11 0 -17 -4 -14 -10z"/>
<path d="M1210 1943 c0 -12 5 -25 11 -28 16 -11 17 -2 2 25 -12 24 -13 24 -13
3z"/>
<path d="M1321 1929 c-30 -24 -32 -30 -21 -44 31 -37 100 -58 100 -30 0 9 -6
12 -15 9 -20 -8 -75 15 -75 31 0 8 12 22 27 33 16 11 26 23 23 25 -3 3 -20 -8
-39 -24z"/>
<path d="M1401 1940 c0 -8 4 -22 9 -30 12 -18 12 -2 0 25 -6 13 -9 15 -9 5z"/>
<path d="M1455 1940 c-3 -5 1 -10 10 -10 9 0 13 5 10 10 -3 6 -8 10 -10 10 -2
0 -7 -4 -10 -10z"/>
<path d="M3360 1940 c0 -5 5 -10 10 -10 6 0 10 5 10 10 0 6 -4 10 -10 10 -5 0
-10 -4 -10 -10z"/>
<path d="M4058 1930 c-49 -15 -59 -16 -69 -4 -25 30 -158 9 -253 -41 -27 -14
-56 -25 -63 -25 -20 0 -72 -28 -116 -63 -39 -30 -93 -104 -83 -114 2 -3 11 8
20 25 26 50 108 111 187 137 40 14 74 25 76 25 10 0 0 -36 -17 -60 -11 -15
-33 -56 -49 -90 -16 -34 -37 -70 -47 -81 -14 -16 -15 -19 -2 -19 23 0 41 26
93 129 31 62 45 101 41 116 -7 26 14 39 84 55 72 15 110 13 109 -7 0 -10 -40
-97 -88 -193 -59 -118 -94 -178 -109 -185 -26 -11 -29 -25 -6 -25 34 0 81 70
151 226 l72 159 48 17 c26 9 67 17 91 18 41 0 42 -1 42 -32 0 -39 -75 -208
-125 -283 -38 -58 -76 -78 -167 -90 -44 -6 -59 -17 -40 -29 7 -4 78 11 153 33
19 6 47 23 61 38 39 41 97 156 128 256 28 87 28 89 9 105 -26 22 -62 22 -131
2z m82 -189 c-23 -46 -35 -55 -20 -15 16 40 31 66 37 61 2 -3 -5 -23 -17 -46z
m-67 -126 c-3 -9 -8 -14 -10 -11 -3 3 -2 9 2 15 9 16 15 13 8 -4z"/>
<path d="M1250 1930 c0 -5 7 -7 15 -4 8 4 15 8 15 10 0 2 -7 4 -15 4 -8 0 -15
-4 -15 -10z"/>
<path d="M1506 1912 c3 -10 -1 -23 -8 -29 -19 -14 -58 -23 -58 -12 0 5 -5 9
-11 9 -8 0 -8 -5 1 -15 17 -20 54 -19 72 3 26 29 28 39 14 51 -12 10 -13 9
-10 -7z"/>
<path d="M3300 1869 c0 -5 5 -7 10 -4 6 3 10 8 10 11 0 2 -4 4 -10 4 -5 0 -10
-5 -10 -11z"/>
<path d="M2380 1856 c-25 -7 -69 -25 -98 -40 -55 -28 -142 -101 -142 -119 0
-5 23 11 50 37 64 60 153 101 254 117 72 12 82 12 137 -7 60 -22 81 -18 32 6
-39 18 -179 22 -233 6z"/>
<path d="M1290 1820 c8 -5 26 -10 39 -10 32 0 24 6 -19 14 -25 4 -31 3 -20 -4z"/>
<path d="M2400 1813 c-66 -22 -160 -91 -160 -116 0 -6 17 5 38 25 45 44 111
78 158 82 19 2 37 6 41 10 7 7 -55 7 -77 -1z"/>
<path d="M2700 1794 c0 -6 13 -23 29 -38 16 -16 35 -41 41 -57 7 -16 16 -29
21 -29 13 0 11 7 -15 48 -26 41 -76 91 -76 76z"/>
<path d="M2519 1777 c6 -8 7 -17 3 -21 -4 -4 -8 -22 -9 -39 -1 -18 -4 -44 -8
-59 -5 -20 -2 -36 11 -55 10 -16 19 -35 20 -43 1 -8 5 -23 9 -32 5 -12 1 -20
-11 -25 -22 -8 -54 29 -47 57 9 34 -5 68 -29 72 -15 2 -25 13 -32 36 -6 21
-15 32 -27 32 -10 0 -21 5 -24 10 -12 20 -23 9 -33 -32 -8 -31 -8 -46 1 -58 6
-8 0 -5 -14 7 -21 19 -34 22 -77 19 -28 -3 -54 0 -57 5 -11 17 -51 9 -74 -15
-13 -14 -29 -22 -37 -19 -25 9 -15 -13 11 -25 13 -6 27 -22 30 -35 4 -14 18
-28 37 -35 21 -8 29 -16 25 -26 -4 -9 -2 -18 3 -21 6 -4 10 -15 10 -27 0 -18
4 -19 38 -14 l37 7 -23 -18 -23 -19 21 -22 c11 -12 29 -22 40 -22 10 0 22 -4
25 -10 9 -15 18 -13 59 15 21 14 42 23 47 19 6 -3 19 2 30 12 18 16 19 16 19
0 0 -18 22 -16 60 5 32 17 -30 27 -108 17 -21 -3 -41 -14 -55 -31 l-22 -28
-42 17 c-47 19 -52 28 -25 43 22 12 4 33 -30 35 -16 1 -24 8 -26 25 -2 14 -24
44 -48 67 -48 47 -59 80 -22 69 17 -6 20 -4 15 9 -8 21 11 21 35 0 12 -12 21
-14 30 -6 23 18 78 9 97 -17 13 -16 24 -22 36 -17 16 6 16 8 1 31 -13 19 -14
30 -6 45 13 25 39 26 46 3 10 -33 21 -48 35 -48 29 -1 36 -15 34 -72 -3 -51 0
-60 26 -86 16 -15 34 -25 40 -21 8 4 7 9 -2 16 -11 7 -11 11 -1 15 6 2 12 11
12 19 0 11 7 13 28 8 l27 -7 -27 30 c-22 23 -25 32 -15 42 10 10 7 16 -15 33
-21 15 -28 28 -28 53 0 19 5 37 10 40 6 3 10 20 10 36 0 29 2 30 30 24 17 -4
42 -18 55 -31 13 -13 35 -24 49 -24 l26 0 -17 -35 c-13 -28 -14 -37 -3 -50 7
-8 19 -15 26 -15 8 0 14 -4 14 -10 0 -5 -7 -10 -15 -10 -22 0 -83 -62 -78 -77
6 -16 23 -17 23 -2 0 15 44 56 70 64 27 9 25 31 -5 51 -23 15 -24 18 -10 37
27 38 19 64 -20 71 -19 4 -42 17 -52 30 -10 12 -24 21 -31 18 -7 -2 -28 3 -46
12 -41 20 -52 20 -37 3z"/>
<path d="M2981 1743 c-17 -25 -31 -54 -31 -62 0 -9 14 9 30 39 17 30 36 58 43
62 8 5 9 8 0 8 -6 0 -25 -21 -42 -47z"/>
<path d="M1940 1763 c0 -5 9 -18 20 -28 11 -10 20 -14 20 -8 0 5 -9 18 -20 28
-11 10 -20 14 -20 8z"/>
<path d="M3018 1691 c-18 -16 -30 -32 -27 -35 3 -3 21 10 39 29 41 42 33 46
-12 6z"/>
<path d="M1920 1706 c0 -2 11 -11 25 -20 25 -17 25 -16 13 4 -11 17 -38 29
-38 16z"/>
<path d="M1635 1661 c-46 -12 -76 -30 -118 -69 -41 -40 -71 -121 -82 -222 -6
-49 -4 -60 23 -101 32 -49 128 -125 210 -164 26 -13 75 -26 107 -30 90 -10 98
-12 130 -29 33 -18 100 -22 90 -6 -3 6 -20 10 -36 10 -16 0 -40 7 -52 15 -12
8 -60 19 -105 24 -182 20 -352 150 -352 269 0 75 6 76 78 3 84 -84 189 -140
320 -170 52 -12 103 -28 115 -36 24 -17 87 -20 87 -5 0 6 -11 10 -25 10 -15 0
-39 7 -55 15 -17 9 -65 23 -107 31 -189 39 -383 175 -383 269 0 52 27 93 84
130 64 41 71 43 52 13 -22 -34 -27 -136 -6 -123 5 3 7 0 4 -9 -14 -37 65 -124
171 -188 92 -55 186 -83 280 -83 76 0 143 17 146 36 1 5 3 14 4 19 1 6 3 22 4
37 1 25 1 26 21 8 11 -10 20 -23 20 -30 0 -16 -58 -68 -110 -98 -76 -43 -111
-87 -118 -148 -7 -48 -10 -53 -42 -65 l-35 -13 43 6 c35 5 42 3 42 -11 0 -9 9
-24 20 -33 27 -24 25 -33 -9 -33 -29 0 -90 -17 -104 -30 -5 -4 11 -4 35 1 59
11 98 11 98 -1 0 -5 -8 -10 -17 -10 -10 0 -36 -9 -58 -20 -44 -22 -33 -22 67
1 48 11 61 11 83 -1 l25 -14 -32 -35 -33 -35 37 27 c55 41 69 32 20 -13 -53
-49 -48 -51 15 -6 37 25 53 32 68 25 11 -5 46 -16 78 -25 l58 -16 -16 -25 c-9
-13 -14 -27 -11 -30 3 -3 8 2 12 11 3 9 10 16 16 16 5 0 6 -4 3 -10 -11 -19 7
-10 24 11 13 17 31 22 86 25 39 2 83 5 100 6 22 2 30 -2 33 -16 6 -26 -13 -42
-32 -27 -17 14 -36 7 -36 -14 0 -19 -27 -26 -40 -9 -20 24 -39 16 -57 -23 -14
-29 -25 -39 -47 -41 -16 -2 -33 1 -39 7 -20 20 -30 11 -12 -9 10 -11 26 -20
36 -20 22 0 79 47 79 66 0 16 26 19 35 4 4 -6 14 -9 23 -8 11 2 18 -5 20 -19
4 -30 -65 -99 -148 -147 -70 -41 -199 -75 -286 -76 -111 0 -209 55 -216 122
-2 26 -5 29 -15 17 -17 -21 12 -77 55 -106 71 -47 140 -65 232 -61 73 4 97 10
170 45 54 26 108 61 148 97 65 60 77 59 41 -3 -23 -40 -102 -107 -173 -147
-61 -34 -208 -74 -271 -74 -92 1 -211 63 -245 129 -24 49 -9 109 39 148 8 7
11 16 7 20 -12 12 -55 -47 -67 -90 -6 -21 -7 -51 -4 -67 9 -43 63 -95 135
-132 57 -29 77 -33 155 -36 145 -6 245 33 363 143 79 73 101 120 97 206 l-2
67 31 -2 c26 -1 32 4 41 29 9 27 15 31 54 34 95 6 173 52 222 129 49 77 50
158 3 227 -13 20 -24 48 -24 63 0 26 0 26 -18 -8 -22 -45 -106 -101 -194 -130
-58 -19 -83 -22 -171 -18 -186 9 -297 67 -297 157 0 68 81 153 160 167 l35 7
-22 -24 c-27 -30 -43 -71 -43 -110 0 -37 53 -96 95 -104 26 -6 25 -4 -10 13
-40 19 -76 52 -57 52 5 0 15 -7 22 -15 7 -8 20 -15 29 -14 12 0 11 2 -4 8 -35
15 -59 50 -59 87 0 52 46 93 131 115 l68 18 -70 -5 c-78 -6 -199 -39 -216 -60
-8 -10 -20 -1 -58 44 -104 124 -196 209 -258 241 -34 17 -67 31 -73 31 -6 0
-30 9 -53 21 -46 23 -160 34 -212 20z m170 -21 c15 -6 11 -8 -19 -14 -83 -16
-108 -64 -71 -135 30 -60 136 -130 233 -156 64 -16 166 -4 196 24 12 12 26 21
30 21 11 0 36 -67 30 -83 -12 -31 -160 -49 -230 -28 -16 5 -48 14 -72 22 -28
8 -41 17 -38 25 3 8 1 16 -4 19 -4 3 -10 -1 -12 -7 -11 -33 -174 95 -208 163
-59 116 31 197 165 149z m173 -69 c57 -29 122 -89 146 -136 18 -32 18 -37 4
-51 -57 -57 -266 10 -362 116 -48 55 -54 71 -33 89 42 34 160 26 245 -18z
m-142 -149 c41 -28 126 -59 194 -71 l55 -10 -70 2 c-93 3 -186 46 -255 117
-64 65 -66 89 -2 29 26 -25 61 -55 78 -67z m-115 -42 c124 -98 229 -134 375
-128 81 2 91 1 67 -9 -40 -17 -144 -16 -217 3 -33 9 -92 32 -131 52 -78 41
-185 138 -185 167 0 16 4 13 19 -12 11 -17 43 -50 72 -73z m509 -316 c67 -73
250 -117 404 -96 92 12 196 55 236 97 31 33 19 44 -13 11 -38 -38 -94 -62
-205 -87 -103 -22 -104 -23 -195 -5 -51 10 -111 27 -135 38 -52 24 -102 65
-102 82 0 7 18 -4 39 -24 66 -63 242 -101 372 -81 77 12 188 58 226 93 12 11
26 17 31 14 6 -3 12 -1 14 6 6 17 48 -56 55 -95 4 -29 0 -37 -33 -67 -21 -18
-68 -47 -104 -64 -53 -25 -76 -30 -125 -28 -117 4 -141 4 -197 -3 -46 -6 -74
-2 -150 19 -154 45 -257 113 -278 186 -11 40 6 64 80 112 l45 29 5 -55 c4 -39
12 -62 30 -82z m-138 -69 c51 -58 140 -106 253 -138 137 -38 163 -41 207 -21
33 15 45 16 91 5 43 -10 64 -10 127 4 41 9 92 27 113 41 20 13 37 19 37 13 0
-23 -43 -70 -87 -95 -40 -24 -60 -28 -186 -36 -173 -11 -253 -5 -354 27 -93
29 -161 70 -193 116 -13 19 -28 37 -33 40 -10 7 -28 89 -19 89 2 0 22 -20 44
-45z m183 -585 c-3 -5 -10 -10 -16 -10 -5 0 -9 5 -9 10 0 6 7 10 16 10 8 0 12
-4 9 -10z m160 -26 c-16 -14 -62 -41 -102 -61 -58 -28 -85 -35 -150 -38 -68
-4 -71 -3 -27 4 79 13 205 59 249 91 50 35 71 38 30 4z m-202 9 c-7 -2 -21 -2
-30 0 -10 3 -4 5 12 5 17 0 24 -2 18 -5z"/>
<path d="M1670 1481 c0 -6 5 -13 10 -16 6 -3 10 1 10 9 0 9 -4 16 -10 16 -5 0
-10 -4 -10 -9z"/>
<path d="M2145 1311 c-3 -5 -1 -12 4 -15 5 -3 11 1 15 9 6 16 -9 21 -19 6z"/>
<path d="M2100 1290 c0 -5 5 -10 10 -10 6 0 10 5 10 10 0 6 -4 10 -10 10 -5 0
-10 -4 -10 -10z"/>
<path d="M1856 1561 c-7 -10 22 -37 30 -28 9 8 -3 37 -15 37 -5 0 -12 -4 -15
-9z"/>
<path d="M1915 1560 c3 -5 8 -10 11 -10 2 0 4 5 4 10 0 6 -5 10 -11 10 -5 0
-7 -4 -4 -10z"/>
<path d="M1927 1516 c-3 -8 -2 -18 4 -22 16 -9 22 2 11 21 -8 15 -10 16 -15 1z"/>
<path d="M1886 1485 c4 -8 12 -15 20 -15 8 0 11 6 8 15 -4 8 -12 15 -20 15 -8
0 -11 -6 -8 -15z"/>
<path d="M2140 1030 c0 -5 5 -10 11 -10 5 0 7 5 4 10 -3 6 -8 10 -11 10 -2 0
-4 -4 -4 -10z"/>
<path d="M2680 930 c0 -5 5 -10 10 -10 6 0 10 5 10 10 0 6 -4 10 -10 10 -5 0
-10 -4 -10 -10z"/>
<path d="M2348 923 c7 -3 16 -2 19 1 4 3 -2 6 -13 5 -11 0 -14 -3 -6 -6z"/>
<path d="M2590 1654 c8 -8 17 -32 21 -52 5 -30 7 -32 8 -10 1 35 -15 78 -30
78 -8 0 -8 -5 1 -16z"/>
<path d="M3049 1650 c-13 -10 -19 -19 -13 -20 6 0 19 9 29 20 23 26 14 26 -16
0z"/>
<path d="M3583 1582 c41 -42 46 -67 19 -111 -23 -37 -52 -61 -117 -93 -47 -24
-182 -62 -250 -71 -22 -3 -18 -4 15 -6 26 0 87 12 147 31 110 34 180 78 221
138 l23 35 -3 -39 c-3 -35 -9 -43 -58 -76 -70 -47 -154 -77 -256 -91 -113 -16
-167 -30 -89 -23 161 14 302 59 373 119 46 39 55 65 37 115 -12 35 -12 42 0
46 19 8 32 -2 50 -36 8 -15 28 -42 45 -58 16 -17 30 -41 30 -53 0 -56 -94
-135 -190 -159 -25 -6 -76 -23 -115 -37 -63 -23 -80 -25 -172 -19 -77 4 -112
2 -144 -9 -53 -19 -170 -6 -200 21 -10 9 -19 13 -19 7 0 -42 141 -72 219 -46
25 8 58 12 75 9 92 -18 170 -9 300 35 112 39 177 71 211 105 33 33 41 26 21
-18 -24 -50 -96 -105 -194 -148 -107 -46 -170 -60 -271 -60 -44 0 -97 -7 -121
-15 -54 -19 -117 -19 -154 0 -32 17 -46 19 -46 6 0 -26 116 -41 193 -25 34 7
93 13 130 14 127 0 298 58 404 137 64 47 83 83 83 161 0 60 0 61 35 72 50 17
81 10 77 -17 -4 -31 8 -34 53 -12 38 19 85 19 85 0 0 -5 -12 -12 -27 -16 -52
-12 -75 -34 -68 -62 3 -14 1 -40 -5 -59 -10 -28 -15 -33 -34 -28 -27 6 -37 -4
-74 -77 -21 -43 -31 -53 -47 -50 -88 17 -155 -10 -165 -65 -5 -25 -10 -29 -39
-30 -36 0 -46 -10 -56 -56 -12 -58 -90 -124 -165 -139 -35 -7 -35 -7 -5 -8 70
-2 169 79 184 151 6 29 11 34 46 38 33 4 40 10 50 40 13 40 44 60 94 60 33 0
34 -1 15 -15 -18 -15 -17 -16 16 -9 44 8 56 19 90 85 27 53 50 74 50 45 0 -9
-4 -16 -10 -16 -5 0 -10 -5 -10 -12 0 -7 15 3 34 21 34 33 50 74 47 122 -2 21
4 29 29 39 43 18 49 5 14 -33 l-29 -32 37 34 c44 41 55 66 37 88 -13 15 -47
14 -109 -3 -38 -10 -14 9 55 46 61 32 39 32 -25 0 -25 -13 -49 -16 -86 -13
-28 3 -60 0 -72 -6 -17 -9 -25 -6 -49 18 -16 15 -34 40 -40 54 -14 30 -57 62
-73 52 -5 -3 -25 5 -43 19 -50 38 -57 32 -14 -12z"/>
<path d="M2275 1535 c17 -14 44 -29 60 -34 25 -8 27 -8 11 2 -10 7 -34 22 -53
35 -45 29 -56 28 -18 -3z"/>
<path d="M1375 1530 c27 -12 43 -12 25 0 -8 5 -22 9 -30 9 -10 0 -8 -3 5 -9z"/>
<path d="M3565 1520 c3 -5 8 -10 11 -10 2 0 4 5 4 10 0 6 -5 10 -11 10 -5 0
-7 -4 -4 -10z"/>
<path d="M2410 1508 c0 -9 5 -20 10 -23 13 -8 13 5 0 25 -8 13 -10 13 -10 -2z"/>
<path d="M2903 1499 c-30 -19 -43 -39 -25 -39 11 1 78 59 67 60 -5 0 -25 -10
-42 -21z"/>
<path d="M3520 1470 c-13 -8 -12 -10 3 -10 9 0 17 5 17 10 0 12 -1 12 -20 0z"/>
<path d="M2347 1463 c-4 -3 -7 -11 -7 -17 0 -6 5 -5 12 2 6 6 9 14 7 17 -3 3
-9 2 -12 -2z"/>
<path d="M1233 1453 c-28 -11 -11 -21 18 -11 16 6 49 8 72 4 30 -4 38 -3 27 4
-15 10 -95 12 -117 3z"/>
<path d="M2616 1445 c4 -8 8 -15 10 -15 2 0 4 7 4 15 0 8 -4 15 -10 15 -5 0
-7 -7 -4 -15z"/>
<path d="M3178 1453 c12 -2 30 -2 40 0 9 3 -1 5 -23 4 -22 0 -30 -2 -17 -4z"/>
<path d="M2785 1440 c-11 -5 -46 -9 -77 -9 -31 -1 -59 -5 -63 -10 -5 -10 -15
-11 -69 -12 -25 -1 -27 -3 -13 -16 10 -10 22 -13 34 -8 10 4 43 8 73 10 78 3
160 24 160 41 0 16 -15 17 -45 4z"/>
<path d="M1570 1420 c0 -5 5 -10 10 -10 6 0 10 5 10 10 0 6 -4 10 -10 10 -5 0
-10 -4 -10 -10z"/>
<path d="M2956 1381 c-14 -5 -16 -10 -7 -15 15 -9 41 -1 41 14 0 11 -7 12 -34
1z"/>
<path d="M3323 1383 c-20 -7 -15 -23 7 -23 11 0 20 4 20 9 0 13 -12 19 -27 14z"/>
<path d="M3080 1359 c0 -5 5 -7 10 -4 6 3 10 8 10 11 0 2 -4 4 -10 4 -5 0 -10
-5 -10 -11z"/>
<path d="M3175 1360 c-3 -5 1 -10 9 -10 9 0 16 5 16 10 0 6 -4 10 -9 10 -6 0
-13 -4 -16 -10z"/>
<path d="M2608 1353 c6 -2 18 -2 25 0 6 3 1 5 -13 5 -14 0 -19 -2 -12 -5z"/>
<path d="M2843 1339 c-1 -12 1 -19 4 -15 11 11 63 -28 64 -49 1 -18 2 -18 6
-2 4 15 12 17 41 13 110 -16 142 -17 142 -4 0 9 3 9 8 2 10 -15 51 -24 58 -13
3 5 -7 9 -23 10 l-28 1 25 8 c18 6 5 8 -45 9 -73 1 -168 21 -219 47 -16 7 -30
14 -30 14 -1 0 -2 -10 -3 -21z"/>
<path d="M2682 1336 c57 -22 128 -75 128 -94 0 -25 -27 -60 -58 -76 -36 -18
-145 -46 -190 -48 -33 -1 -32 -2 13 -8 l50 -7 -70 -3 c-52 -3 -60 -4 -30 -7
22 -3 65 -1 95 3 47 6 51 8 30 15 -21 7 -20 8 10 5 41 -4 121 32 144 66 9 12
16 39 16 59 0 35 -4 40 -54 68 -29 17 -69 33 -87 36 l-34 5 37 -14z"/>
<path d="M4043 1310 c-37 -22 -39 -27 -17 -55 16 -20 16 -20 10 2 -6 18 -1 25
25 38 29 16 31 16 26 1 -6 -14 -3 -15 13 -6 11 6 20 17 20 25 0 21 -39 19 -77
-5z"/>
<path d="M973 1303 c15 -2 39 -2 55 0 15 2 2 4 -28 4 -30 0 -43 -2 -27 -4z"/>
<path d="M2570 1300 c0 -5 7 -10 16 -10 8 0 12 5 9 10 -3 6 -10 10 -16 10 -5
0 -9 -4 -9 -10z"/>
<path d="M2508 1283 c7 -3 16 -2 19 1 4 3 -2 6 -13 5 -11 0 -14 -3 -6 -6z"/>
<path d="M2645 1280 c3 -5 10 -10 16 -10 5 0 9 5 9 10 0 6 -7 10 -16 10 -8 0
-12 -4 -9 -10z"/>
<path d="M3420 1280 c0 -5 5 -10 10 -10 6 0 10 5 10 10 0 6 -4 10 -10 10 -5 0
-10 -4 -10 -10z"/>
<path d="M2569 1258 c15 -20 41 -24 41 -7 0 5 -5 7 -10 4 -6 -4 -19 -1 -28 7
-15 12 -16 11 -3 -4z"/>
<path d="M2840 1267 c0 -2 15 -16 33 -33 l32 -29 -29 33 c-28 30 -36 37 -36
29z"/>
<path d="M2630 1240 c0 -5 5 -10 11 -10 5 0 7 5 4 10 -3 6 -8 10 -11 10 -2 0
-4 -4 -4 -10z"/>
<path d="M3330 1230 c0 -5 4 -10 9 -10 6 0 13 5 16 10 3 6 -1 10 -9 10 -9 0
-16 -4 -16 -10z"/>
<path d="M740 1213 c-102 -35 -117 -50 -106 -109 11 -58 91 -131 200 -183 91
-43 207 -81 266 -87 29 -3 27 -1 -15 12 -144 43 -186 58 -254 92 -129 65 -207
154 -182 208 15 33 28 30 23 -5 -15 -102 179 -228 423 -276 106 -21 121 -27
80 -36 l-30 -7 31 -1 c74 -3 43 30 -46 47 -177 36 -320 100 -397 179 -96 98
-65 143 122 171 l60 9 -65 1 c-36 0 -85 -6 -110 -15z"/>
<path d="M2300 1219 c0 -5 5 -7 10 -4 6 3 10 8 10 11 0 2 -4 4 -10 4 -5 0 -10
-5 -10 -11z"/>
<path d="M948 1213 c7 -3 16 -2 19 1 4 3 -2 6 -13 5 -11 0 -14 -3 -6 -6z"/>
<path d="M997 1199 c7 -7 15 -10 18 -7 3 3 -2 9 -12 12 -14 6 -15 5 -6 -5z"/>
<path d="M1048 1196 c-22 -16 -16 -92 12 -147 25 -48 111 -118 204 -164 l69
-35 -46 0 c-25 0 -49 -4 -52 -10 -7 -12 88 -12 125 0 l25 8 -25 8 c-81 25
-242 130 -275 180 -23 36 -7 29 39 -17 23 -22 59 -51 81 -64 55 -33 180 -95
194 -95 6 0 8 -7 4 -17 -4 -11 -3 -14 6 -9 6 4 17 3 24 -2 16 -13 130 -26 156
-17 35 11 23 20 -21 17 -146 -12 -489 193 -512 304 -9 43 12 58 93 65 l66 6
-75 1 c-48 1 -81 -3 -92 -12z"/>
<path d="M3048 1203 c7 -3 16 -2 19 1 4 3 -2 6 -13 5 -11 0 -14 -3 -6 -6z"/>
<path d="M1238 1193 c7 -3 16 -2 19 1 4 3 -2 6 -13 5 -11 0 -14 -3 -6 -6z"/>
<path d="M1286 1175 c10 -8 24 -14 29 -14 6 0 1 6 -9 14 -11 8 -24 15 -30 15
-5 0 -1 -7 10 -15z"/>
<path d="M2276 1172 c-3 -6 -1 -14 5 -17 15 -10 25 3 12 16 -7 7 -13 7 -17 1z"/>
<path d="M3220 1161 c0 -5 5 -13 10 -16 6 -3 10 -2 10 4 0 5 -4 13 -10 16 -5
3 -10 2 -10 -4z"/>
<path d="M1430 1140 c0 -5 11 -10 24 -10 14 0 28 5 31 10 4 6 -7 10 -24 10
-17 0 -31 -4 -31 -10z"/>
<path d="M2468 1133 c7 -3 16 -2 19 1 4 3 -2 6 -13 5 -11 0 -14 -3 -6 -6z"/>
<path d="M770 1110 c0 -5 5 -10 10 -10 6 0 10 5 10 10 0 6 -4 10 -10 10 -5 0
-10 -4 -10 -10z"/>
<path d="M1540 1100 c0 -13 11 -13 30 0 12 8 11 10 -7 10 -13 0 -23 -4 -23
-10z"/>
<path d="M1191 1076 c-11 -13 -5 -26 11 -26 5 0 6 5 3 10 -3 6 -1 10 4 10 6 0
11 -4 11 -10 0 -5 5 -10 10 -10 16 0 11 14 -9 27 -15 10 -22 9 -30 -1z"/>
<path d="M1610 1080 c0 -13 11 -13 30 0 12 8 11 10 -7 10 -13 0 -23 -4 -23
-10z"/>
<path d="M2620 1050 c0 -5 4 -10 9 -10 6 0 13 5 16 10 3 6 -1 10 -9 10 -9 0
-16 -4 -16 -10z"/>
<path d="M1640 1038 c0 -6 3 -8 7 -5 3 4 14 0 24 -9 13 -12 22 -13 36 -5 17
10 16 10 -4 11 -12 0 -25 5 -28 10 -9 14 -35 13 -35 -2z"/>
<path d="M3382 1033 c-25 -10 -2 -18 42 -15 25 2 43 8 40 13 -5 9 -60 11 -82
2z"/>
<path d="M1300 1010 c0 -5 5 -10 11 -10 5 0 7 5 4 10 -3 6 -8 10 -11 10 -2 0
-4 -4 -4 -10z"/>
<path d="M3185 1000 c-4 -6 7 -10 25 -10 17 0 40 -5 51 -10 10 -6 19 -8 19 -5
0 7 -64 35 -79 35 -5 0 -13 -4 -16 -10z"/>
<path d="M4046 1001 c-4 -5 -2 -12 3 -15 5 -4 12 -2 15 3 4 5 2 12 -3 15 -5 4
-12 2 -15 -3z"/>
<path d="M1805 990 c-3 -6 5 -10 19 -10 14 0 28 5 31 10 3 6 -5 10 -19 10 -14
0 -28 -4 -31 -10z"/>
<path d="M3583 994 c3 -4 38 -8 78 -9 45 -2 67 0 58 6 -16 10 -146 13 -136 3z"/>
<path d="M3060 972 c0 -4 21 -8 48 -9 34 -1 41 1 27 7 -26 11 -75 12 -75 2z"/>
<path d="M3330 971 c0 -5 16 -9 36 -9 25 0 33 3 23 9 -18 11 -59 12 -59 0z"/>
<path d="M1465 960 c-3 -6 1 -13 10 -16 19 -8 30 0 20 15 -8 14 -22 14 -30 1z"/>
<path d="M1815 930 c-3 -5 3 -10 14 -10 11 0 23 5 26 10 3 6 -3 10 -14 10 -11
0 -23 -4 -26 -10z"/>
<path d="M3162 914 c-9 -15 -13 -16 -26 -5 -13 11 -22 11 -45 1 -16 -6 -40 -9
-53 -5 -22 7 -22 6 -6 -11 16 -16 22 -17 54 -5 31 11 37 11 48 -5 12 -16 15
-16 31 10 10 14 15 29 12 32 -3 3 -10 -2 -15 -12z"/>
<path d="M3204 903 c9 -10 28 -33 42 -50 16 -21 34 -33 47 -32 21 1 21 2 2 6
-19 5 -40 28 -60 68 -6 11 -19 21 -29 23 -17 4 -17 3 -2 -15z"/>
<path d="M3558 913 c12 -2 32 -2 45 0 12 2 2 4 -23 4 -25 0 -35 -2 -22 -4z"/>
<path d="M3823 852 c64 -26 84 -42 52 -42 -22 0 -226 -107 -312 -163 l-71 -47
-92 30 c-115 38 -298 80 -414 94 -84 10 -87 12 -70 28 11 9 32 22 48 28 16 6
26 13 23 16 -7 7 -67 -23 -94 -49 -32 -29 -13 -47 47 -47 75 0 374 -63 508
-107 l73 -24 67 49 c75 54 226 140 287 164 69 27 58 43 -54 83 -72 25 -71 16
2 -13z m-154 -166 c-10 -9 -69 -36 -69 -32 0 7 52 35 64 36 5 0 7 -2 5 -4z
m-80 -49 c-2 -2 -20 -14 -39 -26 l-35 -23 30 26 c17 14 34 26 39 26 5 0 7 -1
5 -3z"/>
<path d="M3548 850 c-41 -22 -47 -40 -23 -60 13 -11 14 -10 10 2 -16 42 141
74 170 35 9 -13 15 -15 20 -7 26 43 -112 66 -177 30z"/>
<path d="M1770 850 c-26 -16 -3 -22 27 -6 23 13 24 15 8 15 -11 1 -27 -3 -35
-9z"/>
<path d="M3117 800 c-46 -8 -66 -25 -50 -41 9 -9 16 -8 28 5 18 18 70 23 59 5
-4 -7 1 -10 12 -7 25 4 30 34 7 40 -10 2 -35 1 -56 -2z"/>
<path d="M1733 770 c-13 -5 -23 -14 -23 -20 0 -11 13 -5 50 20 18 12 3 12 -27
0z"/>
<path d="M3337 773 c-29 -7 -10 -20 22 -15 17 2 28 8 25 13 -5 9 -17 10 -47 2z"/>
<path d="M3906 741 c-4 -7 -5 -15 -2 -18 9 -9 19 4 14 18 -4 11 -6 11 -12 0z"/>
<path d="M1861 731 c-8 -5 -9 -10 -2 -12 7 -3 6 -16 -4 -44 -12 -34 -12 -42 1
-55 11 -11 16 -11 26 -2 9 9 8 12 -5 12 -20 0 -22 13 -6 42 13 23 19 68 10 68
-3 0 -12 -4 -20 -9z"/>
<path d="M3407 715 c-31 -18 -28 -42 3 -25 24 13 57 13 62 0 2 -7 11 -5 23 4
11 8 17 17 14 21 -15 14 -76 14 -102 0z"/>
<path d="M3825 669 c-11 -17 1 -21 15 -4 8 9 8 15 2 15 -6 0 -14 -5 -17 -11z"/>
<path d="M2010 660 c-8 -5 -11 -12 -7 -16 4 -4 15 0 24 9 18 18 8 23 -17 7z"/>
<path d="M2225 655 c-19 -14 -19 -15 8 -5 43 15 49 13 47 -22 -1 -18 -2 -39
-1 -45 2 -21 36 -15 57 10 19 22 19 22 -2 5 -34 -29 -46 -23 -42 25 3 38 1 42
-22 45 -14 2 -34 -4 -45 -13z"/>
<path d="M1910 631 c0 -6 5 -11 10 -11 6 0 10 -11 10 -25 0 -21 4 -25 28 -24
22 1 23 2 5 6 -15 3 -23 13 -25 30 -3 25 -28 46 -28 24z"/>
<path d="M2046 625 c-11 -8 -17 -17 -14 -20 2 -3 13 4 23 15 21 23 18 25 -9 5z"/>
<path d="M2163 628 c-13 -6 -23 -15 -23 -20 0 -7 31 8 59 29 10 7 -16 1 -36
-9z"/>
<path d="M1994 558 c1 -48 18 -59 51 -33 19 16 19 16 -4 5 -30 -15 -47 0 -32
28 15 28 14 42 -2 42 -10 0 -14 -13 -13 -42z"/>
<path d="M3235 581 c-3 -5 -1 -12 5 -16 5 -3 10 1 10 9 0 18 -6 21 -15 7z"/>
<path d="M2079 553 c-13 -16 -12 -17 4 -4 16 13 21 21 13 21 -2 0 -10 -8 -17
-17z"/>
<path d="M2190 560 c0 -5 4 -10 9 -10 6 0 13 5 16 10 3 6 -1 10 -9 10 -9 0
-16 -4 -16 -10z"/>
<path d="M2290 504 c0 -8 5 -12 10 -9 6 3 10 10 10 16 0 5 -4 9 -10 9 -5 0
-10 -7 -10 -16z"/>
<path d="M2110 500 c0 -5 -8 -7 -17 -4 -17 5 -17 5 0 -6 18 -11 37 -6 37 11 0
5 -4 9 -10 9 -5 0 -10 -4 -10 -10z"/>
</g>
</svg>
