<?xml version="1.0" standalone="no"?>
<!DOCTYPE svg PUBLIC "-//W3C//DTD SVG 20010904//EN"
 "http://www.w3.org/TR/2001/REC-SVG-20010904/DTD/svg10.dtd">
<svg version="1.0" xmlns="http://www.w3.org/2000/svg"
 width="512.000000pt" height="512.000000pt" viewBox="0 0 512.000000 512.000000"
 preserveAspectRatio="xMidYMid meet">

<g transform="translate(0.000000,512.000000) scale(0.100000,-0.100000)"
fill="#000000" stroke="none">
<path d="M661 4679 c-326 -64 -584 -325 -646 -652 -22 -117 -22 -1317 0 -1434
58 -304 271 -539 575 -635 l75 -23 700 0 c618 0 707 2 757 16 l57 17 3 -407 4
-406 28 -90 c89 -292 292 -501 579 -599 l92 -31 765 0 765 0 92 31 c301 103
512 330 589 634 18 70 19 122 19 825 l0 750 -28 90 c-103 329 -348 554 -673
620 -69 14 -171 15 -799 13 -711 -4 -721 -4 -792 -26 -40 -12 -77 -22 -83 -22
-6 0 -10 108 -10 310 0 342 -7 401 -60 530 -81 195 -257 369 -452 446 -135 53
-155 54 -860 53 -359 -1 -673 -5 -697 -10z m1394 -164 c184 -38 361 -176 444
-345 94 -193 94 -387 0 -580 -59 -119 -170 -230 -289 -289 -144 -70 -147 -71
-845 -71 -697 0 -703 1 -841 70 -412 208 -483 761 -138 1068 70 62 197 128
284 147 98 20 1285 21 1385 0z m-1721 -1289 c117 -83 252 -138 375 -152 l61
-7 0 -488 c0 -385 -3 -489 -12 -489 -46 1 -163 36 -232 69 -190 92 -325 281
-355 495 -6 43 -11 226 -11 408 l0 331 56 -62 c31 -34 84 -81 118 -105z m2214
16 c-47 -33 -162 -149 -204 -208 -57 -80 -108 -190 -135 -289 -19 -70 -22
-114 -27 -342 l-4 -263 -67 -22 c-65 -22 -77 -23 -623 -26 l-558 -3 0 490 0
490 573 3 c549 4 575 5 638 25 150 47 268 121 369 229 l55 59 3 -64 c3 -57 1
-65 -20 -79z m1840 -18 c97 -19 240 -88 312 -150 168 -144 253 -327 253 -544
0 -277 -149 -514 -398 -635 -154 -75 -156 -75 -905 -75 -752 0 -750 0 -910 77
-81 39 -108 59 -185 137 -73 73 -99 107 -133 176 -54 111 -75 201 -75 325 0
272 150 510 398 630 152 74 145 73 898 74 568 1 679 -1 745 -15z m-1818 -1419
c80 -50 180 -96 259 -118 72 -20 103 -22 606 -27 l530 -5 3 -532 2 -533 -497
0 c-567 0 -583 2 -728 74 -190 95 -316 244 -376 448 -21 69 -23 97 -27 491
l-4 417 94 -93 c51 -52 113 -107 138 -122z m2387 -245 c-4 -352 -5 -380 -26
-450 -72 -241 -249 -420 -491 -495 -34 -10 -105 -19 -182 -22 l-128 -6 0 537
0 536 108 0 c176 1 336 46 477 135 33 21 101 79 150 129 l90 91 3 -40 c2 -22
2 -209 -1 -415z"/>
<path d="M945 4236 c-113 -28 -198 -99 -249 -206 -27 -57 -31 -76 -31 -150 0
-74 4 -93 31 -150 53 -111 144 -184 262 -209 67 -14 738 -15 812 -1 114 22
219 103 268 207 23 50 27 71 27 153 0 82 -4 103 -27 153 -49 104 -154 185
-268 207 -78 15 -762 11 -825 -4z m855 -176 c24 -14 58 -45 75 -68 26 -38 30
-52 30 -112 0 -60 -4 -74 -30 -112 -17 -23 -51 -54 -75 -68 l-45 -25 -353 -3
c-233 -2 -370 0 -406 8 -59 12 -115 49 -141 93 l-16 27 421 0 421 0 24 25 c33
32 33 78 0 110 l-24 25 -421 0 -421 0 17 28 c9 15 30 38 46 51 58 47 96 50
488 48 l365 -2 45 -25z"/>
<path d="M3170 2901 c-316 -102 -371 -522 -92 -699 94 -60 114 -62 572 -62
451 0 474 2 567 57 91 53 164 164 183 277 27 167 -79 354 -238 418 -56 23 -62
23 -497 25 -399 2 -445 1 -495 -16z m60 -296 c-104 -104 -157 -150 -162 -142
-13 21 -9 116 8 155 26 62 82 111 154 133 14 4 54 8 90 8 l65 1 -155 -155z
m525 -75 l-230 -230 -125 0 c-116 0 -193 9 -208 24 -3 4 90 103 208 221 l215
215 185 0 185 0 -230 -230z m433 147 c72 -76 69 -222 -6 -300 -59 -62 -92 -71
-267 -75 l-160 -3 200 200 c110 111 202 201 206 201 3 0 15 -10 27 -23z"/>
</g>
</svg>
