<?xml version="1.0" standalone="no"?>
<!DOCTYPE svg PUBLIC "-//W3C//DTD SVG 20010904//EN"
 "http://www.w3.org/TR/2001/REC-SVG-20010904/DTD/svg10.dtd">
<svg version="1.0" xmlns="http://www.w3.org/2000/svg"
 width="249.000000pt" height="320.000000pt" viewBox="0 0 249.000000 320.000000"
 preserveAspectRatio="xMidYMid meet">

<g transform="translate(0.000000,320.000000) scale(0.100000,-0.100000)"
fill="#000000" stroke="none">
<path d="M2096 3062 c-93 -75 -177 -148 -187 -162 -10 -14 -39 -95 -65 -180
-25 -85 -51 -158 -56 -161 -5 -3 -44 -9 -86 -12 -140 -11 -327 -80 -353 -130
-13 -23 -10 -52 24 -217 39 -190 93 -600 80 -600 -2 0 -30 18 -62 40 -141 97
-255 124 -484 118 -143 -4 -171 -8 -242 -32 -107 -36 -217 -100 -269 -156 -52
-56 -86 -140 -86 -215 0 -58 0 -58 -69 -112 -64 -51 -101 -171 -66 -217 13
-17 10 -23 -32 -70 -65 -72 -101 -131 -123 -205 -25 -79 -25 -123 -1 -192 33
-96 62 -142 135 -214 161 -157 436 -273 766 -322 160 -24 493 -24 650 1 351
53 632 175 787 339 178 188 174 387 -12 596 -36 41 -65 78 -65 83 0 5 16 32
35 61 19 28 35 59 35 68 0 28 -32 110 -45 115 -21 8 -73 -24 -89 -54 l-15 -27
-1 26 c-1 114 112 1085 130 1103 34 34 -15 118 -92 157 -54 27 -167 55 -260
64 -43 4 -78 10 -78 13 0 17 82 251 93 264 7 9 84 69 173 135 190 143 194 146
187 174 -6 20 -57 59 -78 59 -5 0 -86 -62 -179 -138z m222 102 c22 -15 29 -39
13 -48 -12 -8 -38 16 -46 42 -8 26 2 28 33 6z m-58 -28 c0 -8 10 -22 22 -30
12 -9 20 -17 17 -19 -2 -1 -24 -19 -49 -38 -25 -19 -93 -70 -153 -113 -90 -65
-110 -76 -122 -66 -13 11 -14 10 -8 -5 5 -15 3 -17 -12 -12 -15 6 -16 5 -5 -8
10 -12 9 -15 -6 -16 -16 -1 -16 -2 3 -7 21 -7 20 -12 -50 -211 -70 -200 -92
-240 -117 -215 -9 9 8 75 60 245 40 129 75 239 79 245 8 15 323 264 334 264 4
0 7 -6 7 -14z m-476 -620 c-3 -9 -32 -15 -92 -19 -48 -3 -107 -12 -132 -21
-30 -10 -35 -14 -15 -11 72 11 225 17 225 9 0 -22 -13 -54 -22 -54 -5 0 -6 10
-2 22 6 20 5 21 -10 9 -44 -36 5 -88 74 -76 47 8 55 18 51 62 -4 46 23 58 102
44 34 -6 77 -15 95 -20 17 -5 32 -8 32 -6 0 12 -67 36 -129 46 -39 7 -71 16
-71 20 0 16 113 9 198 -11 121 -29 222 -85 196 -109 -5 -5 -61 -21 -124 -36
-112 -26 -122 -27 -335 -22 -174 4 -238 9 -307 25 -48 12 -97 26 -109 32 -19
11 -20 13 -4 30 20 22 98 57 180 81 75 22 207 26 199 5z m-324 -171 c26 -28
41 -31 70 -13 16 10 23 9 42 -9 29 -27 47 -30 76 -15 23 13 62 2 62 -18 0 -16
47 -11 54 5 8 22 53 19 66 -5 6 -11 19 -20 30 -20 11 0 24 9 30 20 6 11 21 20
33 20 12 0 28 -9 35 -20 16 -26 25 -25 58 5 31 28 59 32 72 10 8 -16 42 -11
42 6 0 19 39 30 60 17 17 -11 22 -10 35 10 19 27 45 29 45 3 0 -20 -75 -46
-220 -77 -130 -28 -442 -2 -627 51 -58 17 -64 25 -30 41 34 17 42 16 67 -11z
m836 -77 c-3 -18 -19 -134 -37 -258 -17 -124 -36 -228 -41 -231 -28 -18 -194
-41 -288 -41 -87 0 -119 4 -179 25 -119 42 -219 118 -289 219 -25 37 -34 65
-46 144 -8 55 -18 114 -22 133 -6 31 -5 34 12 27 10 -4 84 -19 164 -33 195
-35 398 -36 549 -4 57 12 117 28 135 36 45 20 49 18 42 -17z m-796 -383 c30
-37 134 -108 207 -143 l78 -37 145 1 c99 1 167 6 214 18 38 9 71 14 73 12 3
-2 -5 -116 -16 -253 -20 -231 -23 -249 -44 -267 l-22 -18 -8 43 c-17 88 -33
107 -83 95 -16 -4 -30 -19 -38 -38 -12 -28 -14 -29 -20 -11 -17 52 -119 122
-178 123 -23 0 -28 -4 -28 -24 0 -20 -6 -24 -41 -29 -48 -6 -61 -21 -53 -59 5
-26 3 -28 -23 -27 -15 1 -41 4 -57 8 -27 6 -29 9 -32 67 -3 68 -20 115 -66
187 -29 45 -32 59 -44 195 -18 200 -18 195 4 183 10 -5 25 -17 32 -26z m-405
-155 c150 -22 254 -72 357 -172 89 -86 124 -189 98 -283 -15 -54 -75 -126
-133 -160 -96 -55 -327 -95 -555 -95 -126 0 -165 4 -247 25 -211 53 -298 150
-280 309 13 113 63 193 168 267 139 98 371 140 592 109z m795 -365 c67 -43
100 -94 100 -156 l0 -30 -32 23 c-18 13 -42 28 -52 34 -11 6 -23 23 -27 38 -4
14 -21 42 -38 62 -58 65 -32 80 49 29z m-101 -30 c2 -2 6 -25 9 -51 l5 -47
-44 24 c-46 25 -64 63 -37 80 11 8 57 4 67 -6z m69 -48 c10 -35 1 -53 -21 -44
-14 5 -39 82 -29 91 11 12 42 -17 50 -47z m232 23 c20 -13 21 -169 1 -193 -20
-25 -39 -21 -62 16 -16 25 -19 45 -17 93 5 83 33 113 78 84z m193 -77 c-30
-72 -132 -271 -143 -278 -16 -10 -12 7 30 124 46 131 64 166 87 180 36 21 43
13 26 -26z m-1959 -20 c11 -25 33 -61 49 -80 16 -18 28 -35 26 -36 -9 -5 -166
-59 -186 -64 -21 -5 -23 -2 -23 43 0 57 30 124 72 159 16 14 33 25 36 25 4 0
16 -21 26 -47z m1346 37 c93 -21 93 -21 82 -32 -16 -16 -192 14 -192 33 0 12
53 11 110 -1z m657 -52 c4 -29 0 -44 -25 -80 -31 -45 -103 -121 -109 -115 -7
8 112 245 120 238 4 -4 10 -24 14 -43z m-654 11 c31 -7 57 -15 57 -18 -1 -3
-19 -26 -41 -50 -28 -31 -43 -41 -50 -34 -8 8 -5 13 10 18 20 6 40 50 27 62
-3 4 -27 1 -54 -5 -54 -12 -80 0 -48 24 24 17 27 17 99 3z m312 -63 c118 -123
158 -244 100 -301 -35 -36 -46 -32 -39 13 3 20 1 49 -4 63 -15 39 -106 144
-165 190 -60 47 -85 90 -59 101 10 4 35 7 57 7 37 1 45 -4 110 -73z m-195 4
c0 -52 -20 -130 -33 -130 -3 0 -21 7 -41 15 -43 18 -60 12 -53 -21 4 -25 -4
-28 -36 -16 -14 6 -5 23 64 110 44 56 84 102 90 102 5 0 9 -27 9 -60z m-183
13 l58 7 -24 -20 c-13 -11 -30 -20 -38 -20 -12 0 -13 -3 -3 -14 6 -8 10 -25 8
-38 -2 -19 -11 -24 -48 -29 -45 -6 -58 -3 -94 25 -18 14 -17 17 18 57 20 24
36 47 36 53 0 6 7 2 15 -8 12 -16 23 -18 72 -13z m563 -5 c0 -16 -3 -19 -11
-11 -6 6 -8 16 -5 22 11 17 16 13 16 -11z m-23 -67 c-3 -20 -10 -49 -17 -66
l-11 -29 -24 42 -24 43 32 29 c39 34 51 29 44 -19z m-288 -29 c32 -62 31 -75
-7 -83 -24 -5 -38 -2 -55 11 l-22 19 25 45 c13 25 28 46 32 46 4 0 16 -17 27
-38z m-1233 -47 c39 -9 102 -19 140 -23 66 -7 69 -8 66 -32 -5 -32 -32 -80
-54 -93 -12 -8 -23 -8 -40 0 -13 7 -41 17 -63 24 -22 7 -50 23 -63 36 -34 35
-112 26 -112 -13 0 -8 -7 -14 -16 -12 -11 2 -21 -9 -29 -32 l-13 -35 -3 30
c-3 25 -8 30 -32 30 -24 -1 -28 3 -26 25 3 52 -2 69 -26 99 l-26 30 38 10 c68
17 77 17 133 -6 30 -12 87 -30 126 -38z m804 35 c0 -42 -20 -130 -37 -163 -16
-31 -82 -66 -123 -67 -33 0 -89 58 -125 129 -30 60 -25 70 30 71 17 1 77 14
135 29 58 16 108 29 113 30 4 0 7 -12 7 -29z m589 -133 c13 -26 17 -46 12 -61
-13 -34 -35 -24 -49 21 -8 23 -28 55 -45 70 -18 16 -31 35 -29 43 1 8 -7 33
-18 55 -20 38 -18 38 45 -25 36 -36 74 -82 84 -103z m-1749 96 c-76 -58 -167
-159 -195 -218 -26 -52 -30 -72 -30 -145 0 -77 3 -92 34 -153 105 -215 426
-381 853 -442 138 -20 479 -19 618 0 364 52 669 189 799 359 73 96 86 130 86
232 0 89 -1 94 -43 174 -24 46 -53 91 -65 101 -12 9 -18 21 -14 26 12 11 80
-71 114 -137 25 -49 28 -65 28 -155 0 -90 -3 -106 -28 -156 -122 -240 -500
-422 -971 -468 -358 -35 -750 23 -1032 153 -166 77 -311 206 -368 326 -26 55
-31 77 -31 145 0 71 4 88 33 147 38 79 106 157 176 204 60 40 87 45 36 7z
m1199 20 c0 -5 -7 -24 -14 -43 -13 -33 -14 -34 -14 -8 -1 32 8 58 20 58 5 0 9
-3 8 -7z m104 -15 c9 0 15 -3 12 -9 -9 -14 -29 -11 -51 7 -19 15 -19 16 1 8
11 -3 28 -6 38 -6z m213 -50 c45 -41 64 -85 64 -145 0 -18 -3 -33 -7 -33 -18
1 -93 79 -93 96 -1 11 -14 43 -30 73 -46 85 -20 89 66 9z m-1479 18 c-3 -7
-22 -16 -41 -20 -38 -7 -44 -22 -27 -68 28 -77 29 -75 -64 -117 -47 -22 -85
-42 -85 -45 0 -3 32 -27 71 -53 l70 -47 -33 -25 c-18 -14 -49 -41 -68 -59
l-35 -34 60 33 c116 63 135 74 135 81 0 4 -27 28 -61 54 l-61 48 61 30 c33 17
64 27 68 23 4 -4 8 -45 9 -90 3 -100 23 -152 88 -224 141 -157 440 -258 810
-276 46 -2 50 -4 58 -33 21 -83 116 -104 288 -63 52 12 117 23 145 25 47 1 53
5 100 58 l50 56 108 0 107 0 0 34 c0 31 3 35 42 48 34 10 44 19 51 45 8 27 16
33 56 41 l46 10 -47 1 c-34 1 -48 5 -48 15 0 7 -7 19 -15 26 -8 7 -15 24 -15
39 0 27 35 169 43 178 3 3 48 -20 99 -51 98 -58 146 -74 93 -31 -16 14 -36 23
-43 20 -7 -3 -11 -1 -8 4 3 5 -17 24 -45 41 l-50 33 21 22 c12 13 42 34 66 47
33 17 47 31 51 52 l6 29 18 -24 c56 -75 63 -214 15 -312 -97 -199 -368 -350
-766 -429 -102 -20 -145 -23 -385 -23 -217 0 -290 4 -370 18 -316 57 -548 159
-691 301 -99 99 -129 164 -129 276 0 69 5 93 24 130 40 77 97 145 162 195 58
43 79 47 66 11z m1982 -3 c13 -47 6 -54 -101 -111 -79 -42 -89 -43 -63 -8 8
11 15 32 15 47 0 22 11 35 61 68 34 23 65 41 70 41 4 0 13 -17 18 -37z m-1163
-28 c13 -31 24 -61 24 -67 0 -11 -67 -6 -102 7 -12 5 -14 1 -11 -19 5 -25 3
-26 -36 -26 -39 0 -41 -2 -41 -29 0 -17 -5 -33 -10 -36 -9 -6 -22 17 -44 79
-6 18 -9 17 -36 -9 -16 -16 -33 -25 -37 -22 -6 6 12 121 24 154 3 8 40 13 116
16 62 1 116 4 120 5 4 1 19 -23 33 -53z m-778 33 c14 -14 16 -77 3 -97 -16
-26 -31 0 -31 55 0 55 6 64 28 42z m1187 0 c18 -8 25 -19 25 -40 0 -31 -2 -33
-33 -17 -27 14 -37 28 -37 52 0 20 10 21 45 5z m109 -8 c22 -8 26 -16 26 -49
0 -49 -10 -57 -44 -30 -33 26 -48 53 -40 73 7 18 22 20 58 6z m-1361 -32 l-22
-10 19 -49 c11 -27 17 -55 14 -64 -4 -8 -38 -32 -77 -52 l-70 -37 34 -26 c18
-14 47 -37 63 -51 l30 -26 -42 -27 c-55 -34 -65 -33 -22 3 19 16 33 31 30 33
-3 3 -33 24 -67 47 -35 23 -63 44 -63 46 0 3 36 21 80 41 44 20 80 42 80 48 0
6 -7 33 -15 60 -19 62 -19 64 3 69 32 9 47 6 25 -5z m1437 -7 c13 -26 13 -68
-1 -77 -16 -10 -27 7 -35 54 -5 35 -4 42 9 42 9 0 21 -9 27 -19z m193 0 c4 -4
-3 -12 -17 -19 -18 -8 -28 -7 -45 4 -12 9 -19 20 -15 25 6 10 63 3 77 -10z
m-423 -9 c11 -10 42 -26 70 -36 61 -22 68 -31 37 -51 -22 -14 -28 -14 -70 4
-47 20 -67 44 -67 80 0 26 5 26 30 3z m-1180 -22 c0 -16 -4 -30 -10 -30 -5 0
-10 3 -10 8 0 4 -3 17 -6 30 -5 16 -2 22 10 22 11 0 16 -9 16 -30z m279 0 c4
0 13 -12 20 -26 9 -20 15 -23 24 -15 10 8 19 6 36 -5 12 -9 28 -13 36 -10 7 2
19 -1 25 -9 7 -9 23 -12 46 -8 56 9 40 -14 -38 -53 -40 -20 -85 -45 -100 -55
l-26 -19 -7 41 c-9 53 -27 96 -54 131 -21 27 -13 42 17 32 8 -2 17 -4 21 -4z
m1369 -12 c16 -16 15 -84 -3 -143 -22 -76 -53 -86 -80 -26 -14 33 -15 47 -6
91 6 28 16 60 21 71 12 21 50 25 68 7z m-1397 -73 c21 -44 25 -85 9 -85 -19 0
-111 51 -116 64 -3 7 0 26 6 41 8 22 13 26 19 16 7 -11 11 -9 21 8 10 19 14
20 27 9 9 -7 24 -31 34 -53z m884 55 c3 -6 -5 -14 -18 -19 -15 -6 -30 -25 -41
-55 -14 -36 -26 -49 -60 -65 -52 -26 -155 -28 -241 -5 -80 20 -105 38 -105 72
0 26 3 28 31 24 24 -4 36 0 48 17 14 18 23 20 64 15 30 -4 61 -17 84 -35 23
-19 47 -29 70 -29 43 0 108 33 129 65 17 27 29 31 39 15z m893 -2 c-4 -11
-129 -68 -150 -68 -4 0 -8 8 -8 19 0 13 15 24 53 39 59 24 111 28 105 10z
m-1915 -34 c-3 -15 -27 -14 -48 2 -17 13 -18 16 -5 24 16 10 57 -10 53 -26z
m-23 -40 c41 -31 100 -69 131 -85 32 -16 60 -37 64 -49 7 -22 25 -26 41 -10 6
6 37 15 69 20 32 5 92 26 135 45 75 36 77 36 116 21 77 -30 170 -48 250 -50
l82 -1 -20 -38 c-13 -26 -17 -48 -13 -68 5 -23 3 -29 -11 -29 -10 0 -28 -9
-40 -21 -26 -25 -172 -57 -301 -66 -120 -8 -195 7 -308 62 -126 61 -215 139
-264 230 -21 40 -28 95 -13 95 5 0 42 -25 82 -56z m1081 36 c10 -6 19 -19 19
-29 0 -23 -61 -71 -89 -71 -25 0 -25 -2 -5 46 27 65 38 73 75 54z m160 -62
c-10 -61 -58 -140 -94 -152 -21 -8 -37 -5 -73 13 -26 12 -45 23 -43 25 2 2 49
45 104 95 107 98 118 100 106 19z m699 47 c0 -27 -37 -56 -99 -76 -32 -11 -50
-3 -51 23 0 7 127 77 143 78 4 0 7 -11 7 -25z m-1438 -19 c2 -13 -8 -27 -31
-43 -35 -24 -138 -59 -147 -50 -3 3 22 20 56 38 34 18 71 45 83 60 23 28 33
27 39 -5z m914 -28 c63 -85 107 -180 112 -244 4 -49 2 -56 -26 -84 -34 -34
-69 -42 -57 -12 29 65 1 140 -93 255 -113 139 -115 147 -37 147 l55 0 46 -62z
m329 15 c-47 -74 -179 -253 -186 -253 -14 0 -11 7 47 113 75 137 99 167 131
167 25 0 25 0 8 -27z m-1320 7 c-4 -6 -30 -22 -58 -37 -29 -14 -71 -39 -95
-55 -24 -17 -46 -27 -50 -24 -10 10 18 33 103 81 77 43 113 56 100 35z m1189
-19 c15 -17 15 -19 1 -25 -28 -10 -35 -7 -35 19 0 30 11 32 34 6z m56 10 c0
-14 -18 -23 -31 -15 -8 4 -7 9 2 15 18 11 29 11 29 0z m-550 -16 c-7 -9 -27
-25 -44 -36 -28 -19 -28 -18 6 15 38 36 61 49 38 21z m660 -41 c0 -25 -11 -42
-57 -86 -54 -51 -100 -84 -108 -76 -2 2 31 52 72 112 78 112 93 120 93 50z
m-477 -64 c8 -25 13 -48 10 -52 -6 -11 -95 -10 -113 2 -15 9 -13 14 49 83 29
31 34 28 54 -33z m519 48 c-20 -20 -14 -32 33 -61 25 -16 45 -31 45 -33 0 -7
-54 26 -86 51 -25 20 -25 22 -10 38 10 9 20 17 24 17 3 0 1 -5 -6 -12z m-1849
-170 c80 -137 310 -251 592 -293 55 -8 119 -15 141 -15 56 0 104 -10 104 -22
0 -7 -32 -8 -87 -4 -215 17 -403 65 -547 139 -90 46 -197 141 -227 199 -24 46
-41 131 -32 155 5 11 11 -6 18 -47 5 -36 22 -86 38 -112z m1040 165 c3 -5 2
-16 -2 -26 -6 -16 -8 -16 -30 -1 -18 13 -20 18 -10 25 17 11 36 11 42 2z m577
-26 c-1 -24 -49 -120 -50 -99 0 8 -8 30 -17 49 -14 30 -14 37 -2 43 8 5 23 15
34 23 24 18 35 13 35 -16z m-174 -124 c28 -47 34 -94 14 -118 -12 -14 -16 -13
-42 12 -23 22 -27 33 -22 56 4 18 0 37 -12 55 -9 14 -18 38 -19 52 -1 14 -5
39 -9 55 -7 26 -4 24 29 -20 20 -27 48 -69 61 -92z m-1451 75 c9 -55 77 -150
138 -192 28 -19 79 -45 112 -56 90 -32 246 -60 331 -60 55 0 80 -4 91 -16 13
-13 29 -14 88 -9 67 7 74 5 84 -13 23 -43 17 -45 -101 -39 -408 21 -761 209
-757 403 1 43 4 38 14 -18z m1096 -17 c74 -38 150 -74 170 -80 36 -12 87 -56
77 -66 -8 -8 -309 111 -349 138 -22 15 -35 32 -37 50 -2 15 -1 27 1 27 2 0 65
-31 138 -69z m-1059 24 c27 -35 186 -139 255 -166 52 -22 73 -24 208 -24 134
1 251 13 302 32 30 11 -5 -26 -52 -55 -22 -13 -52 -36 -67 -50 -25 -23 -35
-25 -109 -24 -294 4 -509 114 -563 290 -10 29 1 28 26 -3z m1033 -94 c50 -21
142 -55 206 -75 91 -28 122 -43 147 -69 37 -38 35 -43 -36 -71 l-43 -16 -87
53 c-48 30 -131 78 -186 107 -137 74 -151 89 -147 153 1 14 6 11 29 -13 16
-18 64 -46 117 -69z m702 48 c-12 -29 -16 -31 -22 -16 -5 11 -1 25 10 37 25
27 29 19 12 -21z m-416 -29 c16 -9 29 -60 15 -60 -2 0 -30 16 -62 35 l-58 35
43 0 c23 0 51 -5 62 -10z m385 -14 c14 -58 5 -69 -91 -103 -109 -39 -114 -39
-87 -10 12 13 22 35 22 49 0 21 10 30 68 56 37 18 70 32 74 32 4 0 10 -11 14
-24z m-801 -47 c4 -11 5 -22 3 -23 -1 -1 -20 -12 -41 -24 -42 -24 -62 -27 -72
-12 -8 13 30 76 53 89 21 12 49 -2 57 -30z m97 -35 c39 -20 28 -28 -72 -49
-111 -23 -119 -17 -38 33 61 37 68 38 110 16z m734 -38 c16 -12 16 -15 4 -19
-8 -2 -69 -19 -135 -37 -135 -37 -188 -47 -166 -32 9 7 10 12 2 16 -22 14 -10
25 42 36 77 17 221 48 228 49 3 1 14 -5 25 -13z m-644 -17 c22 -11 36 -24 32
-29 -16 -14 -147 -51 -206 -57 -54 -5 -58 -4 -67 18 -11 30 -6 39 22 40 16 0
148 36 175 48 1 0 21 -8 44 -20z m-282 -18 c0 -16 3 -36 6 -44 7 -18 -8 -23
-93 -32 -58 -6 -63 -5 -63 13 0 45 60 88 128 91 18 1 22 -4 22 -28z m930 -18
c0 -36 -21 -46 -141 -74 -68 -16 -128 -29 -132 -29 -5 0 -7 10 -5 22 3 18 22
27 133 59 155 45 145 43 145 22z m-555 -15 c36 -16 14 -28 -55 -28 l-55 0 35
19 c44 23 44 23 75 9z m225 -52 c0 -17 -112 -65 -220 -96 -89 -25 -291 -61
-302 -54 -4 3 -8 13 -8 23 0 14 15 20 73 29 39 7 155 34 257 61 220 58 200 54
200 37z m-330 -3 l115 -7 -60 -18 c-87 -27 -257 -68 -280 -68 -17 0 -20 7 -22
50 l-2 50 67 0 c37 0 119 -3 182 -7z m570 -38 c0 -25 -1 -25 -79 -25 -44 0
-83 4 -86 10 -4 6 17 9 56 8 48 -1 63 2 71 15 14 26 38 21 38 -8z m-220 10 c0
-3 -7 -21 -15 -41 -18 -44 -81 -74 -241 -115 -129 -32 -210 -37 -255 -14 -36
19 -29 35 16 35 48 0 243 52 370 98 115 43 125 45 125 37z m163 -2 c-7 -2 -21
-2 -30 0 -10 3 -4 5 12 5 17 0 24 -2 18 -5z m-238 -133 c-3 -5 -14 -10 -23
-10 -15 0 -15 2 -2 10 20 13 33 13 25 0z"/>
<path d="M720 1700 c-12 -8 -12 -10 2 -15 20 -8 41 2 33 16 -8 11 -16 11 -35
-1z"/>
<path d="M892 1698 c-7 -7 -12 -16 -12 -20 0 -12 28 -10 36 3 10 17 -10 31
-24 17z"/>
<path d="M994 1695 c-7 -17 4 -37 17 -30 12 8 12 45 -1 45 -6 0 -13 -7 -16
-15z"/>
<path d="M1102 1688 c-16 -16 -15 -28 2 -28 7 0 16 9 19 20 6 23 -3 26 -21 8z"/>
<path d="M660 1665 c0 -14 5 -25 10 -25 6 0 10 11 10 25 0 14 -4 25 -10 25 -5
0 -10 -11 -10 -25z"/>
<path d="M582 1648 c-16 -16 -15 -28 2 -28 16 0 29 27 17 34 -4 3 -13 0 -19
-6z"/>
<path d="M805 1641 c-3 -5 -1 -12 4 -15 12 -8 41 3 41 15 0 12 -37 12 -45 0z"/>
<path d="M1166 1635 c-4 -12 -1 -16 14 -13 24 3 28 22 7 26 -8 2 -17 -4 -21
-13z"/>
<path d="M1291 1617 c-6 -8 -8 -17 -4 -20 7 -8 33 11 33 24 0 13 -16 11 -29
-4z"/>
<path d="M1097 1603 c-11 -10 -8 -43 3 -43 6 0 10 11 10 25 0 26 -2 29 -13 18z"/>
<path d="M707 1583 c-10 -10 -8 -33 3 -33 5 0 14 9 20 20 8 15 8 20 -3 20 -8
0 -17 -3 -20 -7z"/>
<path d="M515 1570 c-8 -12 20 -24 35 -15 6 3 8 11 5 16 -8 12 -32 12 -40 -1z"/>
<path d="M927 1573 c-10 -9 -8 -51 2 -57 14 -9 31 18 24 42 -5 22 -14 27 -26
15z"/>
<path d="M1022 1538 c-16 -16 -15 -28 3 -28 8 0 15 9 15 20 0 23 -2 24 -18 8z"/>
<path d="M1196 1535 c4 -8 10 -15 15 -15 5 0 9 7 9 15 0 8 -7 15 -15 15 -9 0
-12 -6 -9 -15z"/>
<path d="M1375 1518 c5 -18 4 -19 -4 -8 -8 12 -11 12 -17 -3 -8 -22 0 -31 21
-24 17 7 21 57 4 57 -6 0 -8 -9 -4 -22z"/>
<path d="M1264 1494 c3 -9 6 -18 6 -20 0 -2 7 -4 15 -4 18 0 19 12 3 28 -17
17 -31 15 -24 -4z"/>
<path d="M1468 1475 c-8 -18 -8 -29 -1 -36 16 -16 33 -2 33 26 0 34 -18 40
-32 10z m22 -15 c0 -5 -5 -10 -11 -10 -5 0 -7 5 -4 10 3 6 8 10 11 10 2 0 4
-4 4 -10z"/>
<path d="M855 1459 c-7 -11 22 -49 37 -49 4 0 8 9 8 20 0 23 -35 46 -45 29z
m30 -19 c3 -5 1 -10 -4 -10 -6 0 -11 5 -11 10 0 6 2 10 4 10 3 0 8 -4 11 -10z"/>
<path d="M1142 1458 c-16 -16 -15 -28 3 -28 8 0 15 9 15 20 0 23 -2 24 -18 8z"/>
<path d="M512 1435 c11 -25 32 -33 43 -16 7 12 -22 41 -40 41 -12 0 -12 -5 -3
-25z m28 -5 c0 -5 -2 -10 -4 -10 -3 0 -8 5 -11 10 -3 6 -1 10 4 10 6 0 11 -4
11 -10z"/>
<path d="M697 1408 c-9 -5 -17 -14 -17 -19 0 -14 52 -7 57 7 5 16 -20 24 -40
12z"/>
<path d="M1002 1373 c2 -10 11 -19 21 -21 24 -5 21 15 -4 28 -18 10 -20 9 -17
-7z"/>
<path d="M1292 1345 c11 -25 32 -33 43 -16 7 12 -22 41 -40 41 -12 0 -12 -5
-3 -25z"/>
<path d="M1490 1351 c-13 -26 -13 -31 3 -31 18 0 49 34 40 43 -12 13 -32 7
-43 -12z"/>
<path d="M534 1326 c-15 -12 -16 -17 -7 -27 10 -10 15 -9 28 1 16 13 21 40 7
40 -5 0 -17 -6 -28 -14z m16 -16 c0 -5 -5 -10 -11 -10 -5 0 -7 5 -4 10 3 6 8
10 11 10 2 0 4 -4 4 -10z"/>
<path d="M1030 1275 c-10 -12 -10 -19 -2 -27 13 -13 42 6 42 28 0 19 -24 18
-40 -1z"/>
<path d="M778 1259 c-27 -15 -21 -29 13 -29 23 0 30 4 27 17 -4 21 -18 25 -40
12z"/>
<path d="M1405 1230 c-9 -15 4 -30 25 -30 24 0 36 20 19 31 -19 12 -36 11 -44
-1z m30 -10 c3 -5 1 -10 -4 -10 -6 0 -11 5 -11 10 0 6 2 10 4 10 3 0 8 -4 11
-10z"/>
<path d="M580 1209 c-16 -29 -5 -56 15 -39 17 14 20 46 6 55 -6 3 -15 -4 -21
-16z"/>
<path d="M1111 1166 c15 -33 42 -35 37 -3 -2 14 -11 23 -26 25 -20 3 -21 1
-11 -22z m24 4 c3 -5 1 -10 -4 -10 -6 0 -11 5 -11 10 0 6 2 10 4 10 3 0 8 -4
11 -10z"/>
<path d="M1265 1140 c-18 -20 -17 -20 12 -20 36 0 47 9 32 27 -15 18 -23 17
-44 -7z"/>
<path d="M444 1005 c-24 -37 -12 -40 15 -5 12 17 17 30 12 30 -6 0 -18 -11
-27 -25z"/>
<path d="M721 963 c-1 -12 -8 -26 -16 -31 -11 -5 -5 -8 20 -8 30 0 33 2 21 16
-7 8 -16 22 -19 30 -4 10 -6 8 -6 -7z"/>
<path d="M417 953 c-4 -3 -7 -11 -7 -17 0 -6 5 -5 12 2 6 6 9 14 7 17 -3 3 -9
2 -12 -2z"/>
<path d="M330 411 c-33 -7 -31 -8 27 -15 l61 -8 19 -76 19 -77 107 -3 107 -3
40 -59 c22 -32 43 -61 47 -63 5 -3 48 11 96 29 49 19 94 31 100 27 7 -3 38
-26 70 -51 32 -24 60 -42 62 -40 3 2 -23 35 -58 72 l-62 68 -83 -26 c-46 -14
-89 -26 -97 -26 -8 0 -33 25 -56 55 l-41 55 -98 0 -97 0 -31 73 c-28 68 -32
72 -63 73 -19 1 -50 -1 -69 -5z m173 -155 c12 -3 59 -6 104 -6 l82 0 43 -55
c34 -44 47 -54 63 -48 108 35 164 50 171 44 5 -3 23 -22 39 -40 l30 -34 -42
33 -42 33 -87 -32 c-47 -17 -91 -31 -98 -31 -6 0 -28 27 -50 60 l-38 60 -97 0
c-53 0 -101 4 -108 8 -7 4 -17 28 -22 52 -16 67 -12 71 11 13 13 -34 27 -53
41 -57z"/>
<path d="M950 959 c0 -7 -8 -21 -17 -31 -15 -16 -15 -20 -1 -31 9 -6 18 -19
21 -27 4 -11 6 -10 6 4 1 15 6 17 29 12 25 -6 26 -5 8 9 -14 10 -23 12 -32 4
-20 -17 -28 9 -10 36 10 15 12 26 6 30 -6 3 -10 1 -10 -6z"/>
<path d="M1100 648 c-36 -5 -135 -6 -221 -3 -149 5 -189 2 -189 -15 0 -12 141
-30 231 -30 82 0 269 36 269 52 0 9 0 9 -90 -4z m-28 -23 c-22 -13 -312 -12
-335 1 -13 8 34 10 166 10 128 -1 180 -4 169 -11z"/>
</g>
</svg>
