<?xml version="1.0" standalone="no"?>
<!DOCTYPE svg PUBLIC "-//W3C//DTD SVG 20010904//EN"
 "http://www.w3.org/TR/2001/REC-SVG-20010904/DTD/svg10.dtd">
<svg version="1.0" xmlns="http://www.w3.org/2000/svg"
 width="463.000000pt" height="320.000000pt" viewBox="0 0 463.000000 320.000000"
 preserveAspectRatio="xMidYMid meet">

<g transform="translate(0.000000,320.000000) scale(0.100000,-0.100000)"
fill="#000000" stroke="none">
<path d="M2484 3175 c-25 -25 -26 -30 -21 -98 22 -256 22 -241 1 -235 -10 3
-86 20 -167 38 -147 33 -148 34 -162 67 -8 18 -25 37 -39 43 -29 11 52 33
-1061 -294 -688 -203 -803 -239 -822 -261 -26 -29 -27 -41 -10 -72 7 -11 246
-259 531 -550 850 -864 777 -793 814 -793 18 0 40 8 50 18 10 10 46 123 87
270 39 138 72 252 75 252 3 0 52 -129 109 -288 58 -158 113 -304 123 -324 19
-39 45 -53 82 -44 14 3 121 118 266 283 134 153 247 280 251 281 5 2 9 -9 9
-25 0 -15 9 -125 20 -243 17 -196 20 -216 40 -232 45 -36 61 -28 384 216 171
128 534 401 806 606 272 204 501 379 508 388 18 23 15 76 -5 94 -26 22 -1791
920 -1819 926 -15 3 -31 -4 -50 -23z m441 -330 c165 -85 295 -155 290 -155 -6
0 -138 29 -293 65 -156 36 -285 65 -287 65 -2 0 -6 19 -9 43 -11 87 -13 137
-7 137 3 -1 141 -70 306 -155z m-1180 -801 c-119 -417 -219 -772 -222 -787 -3
-15 -9 -26 -12 -25 -11 5 -1109 1123 -1106 1126 1 2 76 25 165 51 l162 49 -9
-27 c-4 -14 -8 -49 -8 -78 0 -42 5 -58 31 -90 77 -97 200 -98 277 -2 54 69 43
177 -25 234 -17 14 -29 27 -27 29 10 10 984 292 987 286 1 -4 -95 -349 -213
-766z m655 666 c146 -34 271 -63 278 -65 9 -3 5 -17 -15 -46 -22 -34 -28 -56
-31 -114 -3 -61 0 -79 21 -121 30 -60 58 -86 117 -113 89 -41 199 -21 268 49
54 53 66 86 67 173 0 47 4 76 10 73 6 -2 47 -11 93 -21 45 -10 81 -21 80 -26
-2 -4 -149 -175 -328 -380 -179 -206 -449 -516 -600 -690 -158 -182 -278 -312
-281 -305 -4 6 -62 161 -129 343 l-122 333 138 485 c107 376 141 485 153 485
9 0 135 -27 281 -60z m519 -154 c30 -16 51 -53 51 -92 0 -35 -59 -94 -94 -94
-82 0 -137 96 -88 156 36 44 82 55 131 30z m661 -45 c47 -25 51 -29 33 -35
-34 -11 -91 -81 -103 -126 -19 -69 4 -135 64 -188 114 -100 300 -11 300 144
l0 52 143 -71 c79 -40 143 -75 143 -78 0 -7 -425 -329 -434 -329 -3 0 -6 11
-6 25 0 14 -7 42 -16 63 -51 123 -204 175 -317 109 -55 -33 -102 -99 -112
-158 -16 -91 44 -201 128 -239 l39 -18 -333 -250 c-214 -161 -336 -247 -340
-239 -3 7 -14 112 -24 234 l-18 222 55 63 c506 578 712 816 716 831 6 23 17
21 82 -12z m-2666 -138 c7 -18 -10 -43 -30 -43 -23 0 -36 36 -19 54 18 17 41
12 49 -11z m2806 -37 c28 -35 -11 -93 -47 -70 -36 22 -23 84 17 84 10 0 23 -7
30 -14z m-161 -402 c24 -30 26 -52 10 -87 -21 -47 -80 -60 -123 -26 -33 26
-37 88 -6 119 31 31 93 27 119 -6z"/>
<path d="M1110 2244 c-77 -33 -120 -101 -120 -189 0 -121 85 -205 205 -205
120 0 205 84 205 205 0 121 -86 206 -207 205 -26 -1 -64 -8 -83 -16z m130
-144 c11 -11 20 -31 20 -45 0 -14 -9 -34 -20 -45 -11 -11 -31 -20 -45 -20 -14
0 -34 9 -45 20 -11 11 -20 31 -20 45 0 14 9 34 20 45 11 11 31 20 45 20 14 0
34 -9 45 -20z"/>
<path d="M2296 2486 c-136 -51 -170 -219 -63 -313 87 -77 200 -63 273 33 25
33 29 46 29 105 0 60 -3 71 -31 106 -57 70 -134 96 -208 69z m96 -161 c8 -19
8 -28 -2 -40 -25 -30 -80 -12 -80 25 0 44 63 55 82 15z"/>
<path d="M62 849 c-24 -7 -37 -19 -48 -44 -35 -85 38 -141 435 -339 113 -56
259 -127 325 -157 l119 -54 76 -110 c42 -60 84 -118 93 -127 17 -17 88 -18
1242 -18 673 0 1231 3 1240 6 9 3 56 59 105 123 49 64 95 122 102 127 8 6 122
62 254 123 364 171 564 283 605 341 36 50 21 102 -35 126 -44 18 -220 19 -255
1 -49 -25 -49 -111 0 -124 11 -3 20 -9 20 -13 0 -9 -361 -189 -538 -269 l-114
-51 -157 0 c-180 0 -201 -7 -201 -66 0 -60 25 -74 135 -74 l96 0 -42 -55 -41
-55 -1164 0 -1163 0 -36 46 c-19 26 -35 51 -35 55 0 5 428 9 950 9 l951 0 24
25 c30 30 31 54 4 89 l-20 26 -1024 0 c-1010 0 -1024 0 -1072 21 -26 11 -174
82 -327 157 l-279 137 1872 5 1873 5 19 24 c24 30 24 62 0 92 l-19 24 -1969 2
c-1233 1 -1980 -2 -2001 -8z"/>
</g>
</svg>
