<?xml version="1.0" standalone="no"?>
<!DOCTYPE svg PUBLIC "-//W3C//DTD SVG 20010904//EN"
 "http://www.w3.org/TR/2001/REC-SVG-20010904/DTD/svg10.dtd">
<svg version="1.0" xmlns="http://www.w3.org/2000/svg"
 width="900.000000pt" height="520.000000pt" viewBox="0 0 900.000000 520.000000"
 preserveAspectRatio="xMidYMid meet">

<g transform="translate(0.000000,520.000000) scale(0.100000,-0.100000)"
fill="#000000" stroke="none">
<path d="M4120 4730 c-11 -11 -20 -26 -20 -33 0 -8 104 -177 230 -377 127
-199 229 -364 228 -366 -2 -2 -64 -8 -138 -14 -341 -27 -655 -95 -954 -206
-66 -24 -122 -40 -125 -35 -3 4 -114 178 -245 385 -248 390 -258 402 -305 376
-46 -24 -31 -54 214 -439 129 -203 235 -372 235 -375 0 -3 -37 -24 -82 -47
-46 -23 -125 -68 -177 -101 -399 -251 -644 -550 -733 -893 -16 -63 -21 -115
-23 -245 l-2 -165 -142 -291 c-77 -161 -141 -299 -141 -307 0 -38 213 -275
368 -410 196 -170 369 -287 582 -393 l114 -56 170 4 171 4 94 -33 c199 -71
485 -135 741 -164 172 -20 629 -17 805 5 444 56 822 169 1150 344 217 116 372
229 535 392 172 172 298 381 356 595 28 99 28 104 28 405 1 353 -5 394 -91
597 l-35 82 16 163 c9 90 16 195 16 233 l0 71 -52 50 c-144 137 -359 271 -593
369 -137 57 -354 127 -461 149 l-81 17 -234 -57 -234 -56 -85 11 c-140 18
-308 31 -420 31 l-105 0 -235 372 c-129 204 -246 384 -258 400 -28 33 -54 36
-82 8z m1734 -840 c341 -79 691 -246 936 -445 l62 -50 -7 -125 c-4 -69 -10
-130 -14 -137 -4 -8 -31 16 -74 67 -75 89 -211 206 -344 296 -186 125 -488
260 -742 329 -57 16 -97 31 -90 34 8 2 52 15 99 27 47 12 86 23 87 23 1 1 40
-8 87 -19z m-1167 -131 l49 -80 -66 -68 c-66 -66 -118 -148 -141 -219 -6 -21
-14 -40 -18 -44 -4 -4 -66 64 -139 151 -154 186 -190 211 -299 211 -74 0 -115
-15 -168 -61 -80 -71 -109 -201 -65 -298 l20 -43 -22 6 c-13 4 -87 23 -164 44
l-142 37 -62 98 c-34 55 -60 100 -58 102 10 9 218 81 317 110 261 75 599 129
842 134 l66 1 50 -81z m467 56 c721 -85 1341 -398 1622 -820 207 -312 226
-654 53 -986 -100 -192 -327 -427 -544 -563 -16 -11 -40 -25 -51 -33 -12 -8
15 24 60 69 306 310 404 690 271 1043 -50 133 -120 239 -236 360 l-78 80 -41
130 c-54 174 -59 184 -86 191 -13 3 -75 -10 -150 -34 l-128 -39 -55 25 c-72
32 -73 33 -88 94 -53 208 -223 380 -438 444 -95 29 -249 24 -349 -10 -87 -30
-89 -29 -125 35 l-24 42 129 -6 c71 -4 187 -14 258 -22z m68 -144 c235 -60
395 -266 386 -496 l-3 -76 -155 -74 -154 -73 -156 -1 -155 -1 -43 -30 c-23
-17 -45 -30 -47 -30 -2 0 -23 32 -46 72 -44 75 -122 160 -179 193 -18 11 -42
32 -52 46 -18 24 -18 29 -4 92 19 82 51 147 104 210 75 91 72 92 145 -21 39
-60 73 -101 86 -105 23 -6 71 26 71 47 0 6 -27 56 -60 109 -33 54 -60 102 -60
106 0 7 75 30 145 45 47 9 107 5 177 -13z m-1066 -92 c18 -14 343 -402 358
-427 5 -8 -2 -22 -18 -39 -14 -14 -26 -30 -26 -35 0 -6 -28 19 -62 54 -35 36
-84 74 -109 86 -48 23 -118 29 -149 12 -12 -7 -33 -4 -69 8 -41 14 -58 27 -82
62 -73 108 -85 165 -51 228 28 53 68 74 134 69 31 -2 64 -10 74 -18z m-776
-154 c0 -3 -17 -5 -37 -6 -86 -1 -177 -60 -216 -140 -34 -68 -37 -165 -7 -224
11 -21 19 -40 17 -41 -1 -1 -55 -9 -119 -18 -123 -16 -165 -31 -205 -74 -67
-72 -72 -194 -10 -260 l21 -23 -46 -92 c-86 -172 -118 -336 -99 -510 5 -51 9
-108 9 -128 0 -26 11 -52 36 -89 20 -29 36 -58 36 -64 0 -7 22 -49 49 -94 28
-45 59 -101 69 -125 11 -25 32 -53 47 -63 82 -58 231 -184 217 -184 -5 0 -56
28 -113 63 -314 189 -524 409 -626 657 -58 139 -67 191 -67 355 1 133 4 160
27 240 106 356 400 667 846 897 l95 48 38 -59 c21 -33 38 -63 38 -66z m29
-122 l54 -6 63 -97 c63 -98 82 -114 122 -99 37 14 38 53 4 106 -17 26 -30 48
-29 50 3 2 192 -52 335 -97 102 -32 104 -33 97 -59 -4 -14 -6 -56 -6 -93 1
-38 -2 -68 -5 -68 -3 0 -26 18 -52 39 -144 121 -290 129 -344 20 -9 -19 -19
-41 -22 -51 -4 -15 -11 -14 -78 7 -40 12 -107 28 -148 36 -131 22 -197 90
-188 191 6 54 33 92 83 114 35 15 42 16 114 7z m2752 -420 c49 -153 89 -283
89 -290 0 -8 -25 -12 -79 -12 l-78 0 -78 262 c-43 144 -78 266 -79 271 -1 9
126 56 133 50 2 -2 44 -129 92 -281z m-1883 217 c152 -110 293 -454 268 -654
-9 -72 -31 -100 -70 -90 -40 10 -149 121 -172 175 -10 24 -38 81 -61 127 -51
100 -71 163 -83 268 -9 81 0 165 21 191 18 21 53 15 97 -17z m1561 -52 c6 -17
9 -33 7 -35 -2 -3 -51 -11 -109 -18 -102 -14 -109 -16 -239 -90 -132 -74 -164
-87 -156 -63 4 10 457 234 480 237 3 1 11 -13 17 -31z m-1155 -45 c57 -58 125
-190 162 -318 23 -77 27 -110 28 -225 1 -111 -2 -141 -16 -167 -10 -17 -23
-35 -28 -38 -30 -19 -94 28 -147 106 -21 32 -24 50 -28 150 -4 130 -27 229
-81 355 -33 77 -35 87 -24 121 17 52 28 63 60 63 19 0 41 -14 74 -47z m-857
-48 c174 -73 403 -420 403 -612 0 -60 -14 -83 -51 -83 -92 0 -256 157 -357
343 -77 140 -111 291 -78 342 19 29 33 31 83 10z m-518 -65 c105 -11 191 -31
267 -61 51 -20 52 -21 69 -85 10 -36 35 -101 56 -145 22 -44 39 -82 39 -83 0
-1 -26 2 -57 7 -75 12 -126 -2 -193 -52 l-52 -39 -68 68 c-83 82 -189 140
-257 140 -54 0 -207 63 -228 94 -34 48 -2 127 57 141 90 22 242 28 367 15z
m2622 -151 c65 -220 63 -206 38 -214 -12 -4 -52 -38 -89 -75 l-68 -67 -47 244
c-26 134 -45 246 -42 249 8 8 98 22 131 21 29 -2 30 -4 77 -158z m-509 -265
l208 -366 -29 -37 c-15 -20 -36 -51 -45 -68 -13 -26 -23 -33 -45 -33 -28 0
-33 10 -221 423 -106 232 -194 428 -197 435 -4 9 12 12 58 12 l64 -1 207 -365z
m248 64 c27 -146 50 -270 50 -275 0 -5 -6 -17 -13 -27 -12 -17 -29 8 -156 234
-79 138 -139 255 -135 260 5 4 50 31 99 59 79 45 91 49 97 33 4 -9 30 -137 58
-284z m-471 -213 c88 -192 158 -351 157 -353 -2 -2 -21 9 -41 23 -21 14 -60
33 -86 42 l-48 17 -94 211 c-81 181 -96 222 -106 296 -6 47 -20 115 -30 152
-18 66 -18 66 3 81 25 17 12 43 245 -469z m1221 254 c23 -44 40 -83 37 -86 -6
-6 -77 45 -77 56 0 3 -11 42 -25 86 l-24 80 23 -28 c13 -16 42 -64 66 -108z
m-3244 -69 c151 -74 304 -318 304 -486 0 -80 -9 -90 -93 -102 -40 -6 -81 -14
-89 -17 -11 -4 -17 2 -21 23 -8 41 -49 86 -101 110 -24 12 -54 35 -66 51 -38
54 -88 174 -100 241 -30 165 40 241 166 180z m3139 -69 c66 -31 131 -95 165
-161 24 -47 36 -133 25 -177 -7 -27 -8 -26 -27 27 -27 72 -87 160 -137 199
-64 51 -160 91 -235 98 -36 3 -64 9 -60 12 16 16 76 30 139 30 57 1 81 -4 130
-28z m-3394 -206 c12 -38 30 -87 41 -108 11 -22 18 -40 16 -41 -2 -2 -34 -8
-73 -14 -38 -6 -80 -14 -92 -17 -19 -6 -23 -2 -29 30 -8 47 11 196 36 278 14
45 26 67 42 74 22 10 23 8 30 -61 4 -39 17 -102 29 -141z m801 164 c160 -53
323 -218 372 -374 23 -72 16 -122 -20 -154 -40 -34 -111 -26 -212 24 -103 52
-233 180 -281 278 -71 147 -49 237 62 246 10 0 45 -8 79 -20z m2483 -114 c62
-32 123 -92 154 -153 28 -55 45 -158 36 -218 l-7 -49 -22 61 c-31 83 -66 140
-122 197 -83 84 -227 136 -336 124 -27 -4 -48 -4 -48 -2 0 8 74 48 113 61 66
22 166 12 232 -21z m-1767 -117 c128 -212 234 -428 209 -428 -7 0 -106 29
-222 64 l-210 64 3 63 c2 47 -4 82 -22 134 -25 73 -23 85 17 85 50 0 108 61
122 128 4 18 10 30 15 27 4 -2 44 -64 88 -137z m208 63 c104 -116 231 -120
297 -11 l23 39 49 -106 49 -106 -24 -16 c-85 -55 -152 -155 -168 -251 l-8 -45
-44 0 -44 0 -31 80 c-37 94 -107 233 -170 340 -25 42 -45 80 -45 83 0 8 50 40
63 41 5 1 29 -21 53 -48z m1434 -127 c134 -61 219 -226 195 -381 l-7 -48 -25
74 c-38 119 -124 225 -222 276 -56 29 -91 37 -181 44 l-85 6 42 23 c91 48 186
50 283 6z m-3777 -143 c92 -229 293 -456 564 -639 144 -98 412 -223 625 -292
592 -194 1360 -211 1998 -44 626 164 1114 474 1384 878 52 78 55 77 25 -15
-50 -156 -155 -321 -293 -467 -598 -626 -1779 -896 -2846 -649 l-95 22 65 6
c36 4 102 7 147 8 123 2 165 31 128 88 l-17 26 -162 -6 c-88 -4 -303 -12 -476
-18 l-315 -11 -67 30 c-285 129 -660 423 -871 683 l-37 46 103 211 c56 117
104 212 107 212 3 0 18 -31 33 -69z m813 -17 c65 -33 55 -44 -38 -44 -55 -1
-102 -7 -138 -20 -54 -18 -56 -18 -97 0 -46 20 -52 30 -28 50 51 42 227 50
301 14z m519 -25 c27 -28 33 -39 20 -34 -11 4 -32 12 -47 17 -20 7 -28 17 -28
34 0 33 10 30 55 -17z m2302 20 c111 -42 193 -148 214 -280 14 -84 -3 -172
-35 -187 -20 -9 -23 -6 -34 42 -38 159 -160 325 -300 408 -23 13 -39 28 -35
31 15 16 134 6 190 -14z m-715 -15 c15 -8 43 -28 63 -45 l34 -30 -29 -52 c-34
-63 -60 -147 -60 -198 0 -43 -12 -56 -31 -33 -19 23 -114 86 -176 118 -50 25
-52 28 -47 59 15 80 77 175 129 198 24 10 79 2 117 -17z m484 -88 c123 -57
232 -202 269 -359 23 -98 23 -100 -48 -145 -135 -85 -413 -210 -443 -198 -40
15 -128 214 -145 329 -23 157 36 322 136 375 73 38 145 37 231 -2z m-2118 -46
c23 -11 42 -26 42 -34 0 -47 -235 -71 -314 -31 -51 26 -55 40 -15 60 72 38
206 40 287 5z m348 -41 l52 -12 -5 -36 c-3 -20 -7 -37 -8 -38 -1 -2 -29 8 -63
22 -34 14 -84 30 -111 36 -44 9 -49 13 -54 42 -8 54 7 59 76 27 33 -16 84 -35
113 -41z m-778 19 c-3 -20 -11 -24 -64 -30 -34 -3 -78 -14 -99 -22 -35 -15
-40 -15 -63 0 -21 14 -23 18 -10 31 26 25 91 42 166 43 70 0 73 -1 70 -22z
m1196 -58 c110 -33 202 -62 204 -65 3 -3 -6 -18 -20 -33 -14 -15 -33 -42 -42
-59 -20 -40 -46 -48 -156 -47 -100 1 -193 25 -234 61 l-29 25 13 81 c13 81 21
97 50 97 8 0 105 -27 214 -60z m-1045 -105 c19 -11 35 -24 35 -30 1 -5 -17
-19 -39 -30 -55 -27 -186 -33 -254 -10 -85 28 -86 51 -4 81 57 21 218 14 262
-11z m512 -5 c114 -35 240 -124 307 -218 37 -52 72 -155 72 -211 0 -36 -22
-125 -37 -147 -15 -23 -283 40 -476 110 -164 60 -155 55 -189 124 -44 89 -50
197 -16 262 51 93 190 127 339 80z m1096 5 c82 -24 143 -64 224 -144 109 -110
157 -229 140 -351 -6 -41 -8 -45 -47 -56 -65 -19 -290 -54 -397 -62 l-99 -8
-35 41 c-139 161 -177 393 -83 512 24 31 77 68 105 76 42 10 144 6 192 -8z
m-1567 -208 c0 -23 4 -58 10 -76 5 -19 8 -36 7 -38 -4 -4 -164 104 -172 117
-4 6 7 10 27 11 18 0 51 6 73 14 22 7 43 13 48 14 4 1 7 -18 7 -42z m1104 -65
c10 -91 50 -209 96 -281 22 -34 40 -64 40 -66 0 -7 -174 -6 -252 1 l-66 7 14
41 c34 95 26 233 -17 318 -10 20 -19 39 -19 40 0 2 44 3 99 3 l99 0 6 -63z"/>
<path d="M4316 2714 c-23 -22 -20 -38 28 -144 47 -104 71 -126 113 -107 40 18
38 46 -16 160 -47 101 -51 107 -80 107 -16 0 -37 -7 -45 -16z"/>
<path d="M4679 2596 c-17 -37 37 -243 69 -264 28 -18 67 -5 77 27 6 19 -37
208 -56 243 -15 29 -76 25 -90 -6z"/>
<path d="M3998 2579 c-10 -5 -18 -22 -18 -37 0 -35 107 -211 136 -224 30 -14
74 13 74 45 0 12 -28 67 -63 122 -65 104 -87 120 -129 94z"/>
</g>
</svg>
