<?xml version="1.0" standalone="no"?>
<!DOCTYPE svg PUBLIC "-//W3C//DTD SVG 20010904//EN"
 "http://www.w3.org/TR/2001/REC-SVG-20010904/DTD/svg10.dtd">
<svg version="1.0" xmlns="http://www.w3.org/2000/svg"
 width="920.000000pt" height="512.000000pt" viewBox="0 0 920.000000 512.000000"
 preserveAspectRatio="xMidYMid meet">

<g transform="translate(0.000000,512.000000) scale(0.100000,-0.100000)"
fill="#000000" stroke="none">
<path d="M3750 4862 c-17 -18 -30 -44 -35 -72 -4 -24 -24 -75 -44 -113 -33
-65 -36 -76 -36 -157 0 -81 3 -92 38 -161 47 -93 47 -127 3 -212 -56 -107 -59
-191 -9 -241 57 -57 155 -20 168 63 3 20 23 70 43 111 35 70 37 80 37 170 0
90 -2 99 -37 168 -21 39 -38 85 -38 102 0 16 17 61 37 100 42 80 56 173 32
217 -31 57 -113 70 -159 25z"/>
<path d="M4380 4862 c-17 -17 -31 -45 -35 -68 -4 -21 -23 -72 -43 -113 -34
-68 -37 -81 -37 -160 0 -79 3 -93 38 -165 20 -43 37 -92 37 -108 0 -17 -16
-63 -36 -103 -37 -75 -52 -144 -40 -190 18 -72 117 -101 169 -49 15 15 28 43
32 67 4 23 24 74 44 112 34 66 36 75 36 165 0 90 -2 99 -38 167 -20 40 -37 86
-37 103 0 17 16 61 36 98 60 116 57 224 -7 257 -45 24 -87 19 -119 -13z"/>
<path d="M5012 4865 c-21 -18 -32 -38 -37 -68 -4 -23 -23 -73 -43 -112 -35
-66 -37 -75 -37 -165 0 -90 2 -99 38 -168 20 -39 37 -86 37 -102 0 -17 -16
-63 -36 -103 -28 -54 -38 -88 -42 -138 -4 -63 -3 -66 28 -97 63 -63 161 -29
175 61 4 23 23 76 44 116 33 69 36 82 36 161 0 80 -3 92 -38 161 -20 41 -37
88 -37 105 0 18 16 67 37 109 58 123 55 218 -8 250 -42 22 -83 18 -117 -10z"/>
<path d="M6407 4430 c-96 -24 -166 -81 -209 -168 -29 -58 -33 -77 -33 -142 1
-60 6 -85 27 -126 l26 -51 -92 -92 c-81 -80 -95 -91 -127 -91 -91 0 -211 -55
-306 -141 -83 -76 -138 -113 -208 -145 l-55 -24 -75 30 c-317 126 -769 145
-1192 51 -559 -125 -1075 -414 -1411 -791 -190 -213 -316 -454 -368 -702 -24
-117 -24 -314 0 -392 23 -79 70 -171 112 -223 l34 -42 -215 -3 -215 -3 -27
-28 c-26 -25 -28 -34 -27 -100 1 -185 118 -377 288 -472 71 -40 196 -75 266
-75 117 0 202 -54 273 -173 57 -97 146 -184 233 -230 134 -69 84 -67 1240 -67
1006 0 1043 1 1118 20 43 11 103 34 135 52 75 43 177 147 226 232 65 112 149
166 260 166 197 0 406 128 498 306 58 112 84 257 56 317 -22 48 -41 52 -262
57 l-207 5 36 50 c116 160 144 323 109 645 -21 204 -64 388 -126 547 -20 50
-20 54 -5 101 23 69 77 154 144 229 31 35 70 83 85 106 34 52 67 155 67 210 0
39 6 47 91 133 l91 92 51 -27 c43 -22 64 -26 132 -26 67 0 89 4 137 28 172 84
227 293 121 455 -60 90 -153 156 -243 171 -31 6 -35 10 -42 48 -16 95 -112
213 -210 258 -61 28 -146 38 -201 25z m111 -214 c36 -19 78 -64 91 -97 12 -33
5 -63 -26 -109 -33 -50 -31 -103 6 -141 38 -38 91 -39 143 -4 25 17 51 25 78
25 35 0 48 -7 88 -44 43 -41 47 -49 47 -91 0 -40 -5 -51 -33 -76 -49 -44 -88
-40 -152 15 -91 78 -117 72 -244 -51 l-96 -92 -73 73 -74 74 83 83 c128 128
138 167 63 252 -63 72 -62 137 3 177 39 24 60 25 96 6z m-393 -685 c90 -41
145 -126 145 -226 0 -77 -23 -127 -92 -202 -145 -157 -214 -310 -244 -535 -19
-147 -42 -224 -92 -306 -172 -285 -524 -388 -822 -241 -205 102 -350 332 -350
559 0 145 69 315 172 425 116 124 247 186 437 205 223 23 358 84 545 244 49
42 103 80 120 85 53 16 138 12 181 -8z m-1172 -160 c41 -1 33 -15 -25 -42 -83
-38 -202 -132 -267 -211 -74 -88 -144 -225 -172 -333 -30 -112 -29 -298 0
-410 81 -307 327 -543 634 -612 105 -23 281 -20 382 6 242 64 460 241 553 450
18 38 20 40 25 19 20 -84 31 -206 31 -353 1 -156 -1 -175 -22 -228 -45 -109
-139 -203 -252 -249 l-55 -23 -1425 0 c-1211 0 -1432 2 -1475 14 -142 42 -254
154 -296 296 -36 125 -6 347 71 526 48 112 74 156 164 276 338 451 1001 803
1646 872 140 15 213 17 345 9 61 -3 122 -7 138 -7z m1465 -2228 c-61 -139
-171 -216 -335 -233 -48 -5 -453 -10 -900 -10 l-811 0 -30 -25 c-16 -14 -33
-37 -36 -51 -10 -37 10 -89 42 -111 25 -17 66 -18 675 -21 356 -1 647 -6 647
-10 -1 -23 -93 -138 -139 -172 -99 -74 -34 -71 -1207 -68 l-1049 3 -55 28
c-71 37 -133 97 -175 172 -45 81 -94 136 -160 179 -75 50 -150 74 -266 85
-114 11 -183 38 -249 97 -41 37 -100 126 -100 152 0 9 423 12 2080 12 l2080 0
-12 -27z"/>
<path d="M5563 2648 c-23 -11 -53 -64 -53 -95 -1 -62 -79 -153 -147 -172 -75
-21 -122 -10 -207 48 -25 17 -56 31 -71 31 -59 0 -104 -45 -105 -102 0 -51 52
-108 134 -148 250 -123 541 18 598 292 14 65 6 102 -29 134 -28 26 -80 31
-120 12z"/>
<path d="M3840 2992 c-20 -11 -43 -34 -54 -56 -16 -33 -17 -41 -4 -74 9 -25
26 -44 50 -56 31 -18 40 -18 77 -7 101 30 135 118 72 182 -35 35 -87 39 -141
11z"/>
<path d="M3445 2784 c-56 -29 -214 -156 -302 -243 -224 -220 -353 -470 -357
-694 -1 -77 0 -79 32 -108 34 -31 73 -37 115 -18 35 16 54 55 61 129 11 99 25
147 69 239 78 161 215 315 409 459 120 90 133 104 133 154 0 33 -6 45 -33 69
-37 33 -80 38 -127 13z"/>
<path d="M3689 871 c-23 -24 -29 -38 -29 -73 0 -36 6 -50 31 -74 l30 -29 130
0 131 0 29 33 c42 46 41 103 -2 143 -31 29 -31 29 -161 29 l-130 0 -29 -29z"/>
</g>
</svg>
