<?xml version="1.0" standalone="no"?>
<!DOCTYPE svg PUBLIC "-//W3C//DTD SVG 20010904//EN"
 "http://www.w3.org/TR/2001/REC-SVG-20010904/DTD/svg10.dtd">
<svg version="1.0" xmlns="http://www.w3.org/2000/svg"
 width="301.000000pt" height="167.000000pt" viewBox="0 0 301.000000 167.000000"
 preserveAspectRatio="xMidYMid meet">

<g transform="translate(0.000000,167.000000) scale(0.100000,-0.100000)"
fill="#000000" stroke="none">
<path d="M1681 1636 c-10 -12 -9 -20 2 -38 8 -13 18 -38 22 -57 7 -30 5 -33
-11 -27 -11 4 -41 13 -69 18 -151 33 -294 -102 -283 -267 l3 -47 -315 -266
c-173 -147 -325 -282 -337 -301 -23 -33 -23 -39 -23 -317 0 -247 2 -285 16
-299 11 -10 26 -14 43 -11 14 3 294 51 621 106 327 55 678 114 780 131 128 22
189 36 198 47 9 12 12 87 12 297 0 330 4 314 -115 418 -97 84 -199 148 -307
192 l-83 34 -6 59 c-3 36 -16 77 -32 107 -15 26 -27 49 -27 51 0 12 60 31 83
27 22 -4 27 -2 27 15 0 38 -44 49 -103 27 -10 -5 -16 4 -20 31 -6 33 -40 84
-58 84 -3 0 -12 -6 -18 -14z m-18 -170 c57 -23 117 -111 117 -171 0 -32 -25
-90 -52 -121 -55 -63 -119 -82 -196 -59 -160 48 -180 267 -32 346 41 22 117
25 163 5z m307 -334 c125 -62 302 -204 269 -217 -25 -9 -1413 -236 -1427 -233
-7 2 115 112 273 245 l286 241 44 -43 c112 -112 310 -88 381 47 14 27 14 27
57 12 23 -8 76 -31 117 -52z m316 -296 c11 -45 0 -474 -13 -487 -7 -7 -353
-69 -770 -140 -701 -118 -759 -126 -771 -111 -10 13 -11 68 -6 257 3 132 10
244 14 248 4 5 291 56 636 113 346 57 679 113 739 123 154 26 163 26 171 -3z"/>
<path d="M1801 1074 c-49 -41 -40 -108 19 -139 86 -44 196 19 176 100 -16 63
-138 88 -195 39z m127 -40 c49 -34 -32 -83 -83 -50 -29 19 -32 41 -7 55 25 15
64 13 90 -5z"/>
<path d="M1489 1015 c-38 -21 -55 -67 -39 -105 18 -43 62 -63 122 -58 64 7 98
37 98 89 0 53 -44 89 -108 89 -26 -1 -59 -7 -73 -15z m112 -45 c29 -16 23 -46
-12 -60 -38 -16 -82 -3 -87 25 -8 36 54 58 99 35z"/>
<path d="M1213 973 c-38 -7 -73 -49 -73 -86 0 -92 148 -128 209 -50 38 47 18
103 -45 129 -33 14 -49 15 -91 7z m91 -68 c19 -20 10 -44 -19 -51 -60 -15
-114 16 -86 50 17 21 85 21 105 1z"/>
<path d="M1910 729 c-13 -5 -50 -34 -81 -64 -32 -30 -64 -55 -72 -55 -8 0 -34
9 -58 20 -83 37 -137 27 -217 -42 -40 -34 -67 -35 -123 -3 -76 43 -131 31
-204 -44 -22 -24 -48 -41 -61 -41 -12 0 -51 13 -86 30 -34 16 -73 30 -86 30
-77 0 -193 -125 -136 -147 11 -4 29 9 56 41 49 57 78 60 170 16 34 -16 73 -30
85 -30 13 0 49 24 84 55 34 31 72 58 84 61 15 4 45 -6 84 -26 73 -38 99 -35
174 21 69 52 89 56 151 30 89 -37 120 -28 204 57 50 51 75 53 157 16 67 -31
104 -28 171 11 29 17 44 33 44 46 0 31 -24 33 -65 5 -48 -33 -88 -33 -157 -1
-57 27 -79 29 -118 14z"/>
<path d="M1925 524 c-21 -7 -61 -35 -89 -63 -29 -28 -59 -51 -68 -51 -9 0 -37
9 -63 20 -66 28 -112 26 -167 -9 -25 -16 -49 -34 -53 -41 -4 -6 -18 -16 -32
-21 -20 -7 -35 -4 -78 21 -83 47 -121 40 -209 -39 -61 -56 -59 -55 -147 -11
-54 28 -119 28 -163 0 -40 -24 -81 -84 -72 -105 8 -22 44 -18 51 5 10 30 63
70 95 70 15 0 57 -13 92 -30 92 -44 109 -40 188 35 63 60 78 62 147 24 73 -40
108 -36 177 21 63 52 85 57 144 32 91 -39 117 -34 196 38 42 38 75 60 90 60
13 0 49 -12 81 -26 45 -21 65 -25 98 -20 52 9 117 50 117 75 0 28 -25 33 -54
10 -46 -36 -84 -41 -135 -18 -71 33 -104 38 -146 23z"/>
</g>
</svg>
