<?xml version="1.0" standalone="no"?>
<!DOCTYPE svg PUBLIC "-//W3C//DTD SVG 20010904//EN"
 "http://www.w3.org/TR/2001/REC-SVG-20010904/DTD/svg10.dtd">
<svg version="1.0" xmlns="http://www.w3.org/2000/svg"
 width="225.000000pt" height="225.000000pt" viewBox="0 0 225.000000 225.000000"
 preserveAspectRatio="xMidYMid meet">

<g transform="translate(0.000000,225.000000) scale(0.100000,-0.100000)"
fill="#000000" stroke="none">
<path d="M866 1939 c-59 -31 -134 -112 -163 -176 -31 -68 -41 -172 -23 -237
12 -42 11 -46 -15 -80 l-27 -36 -46 40 c-75 67 -205 89 -320 55 -98 -29 -104
-97 -15 -175 77 -67 145 -95 235 -95 l77 0 -1 -100 c-2 -116 15 -186 68 -283
l34 -62 -37 -48 c-50 -65 -66 -107 -67 -177 -3 -163 166 -314 403 -361 101
-20 272 -15 365 11 211 58 351 198 349 349 -1 70 -17 114 -67 180 l-36 46 34
62 c53 97 70 167 68 283 l-1 100 77 0 c65 0 86 5 137 29 69 34 149 109 159
150 10 42 -15 72 -76 91 -115 34 -245 12 -320 -55 l-46 -40 -27 36 c-26 34
-27 38 -15 80 18 65 8 169 -23 237 -30 65 -105 146 -165 176 -58 30 -65 26
-42 -19 31 -60 42 -136 30 -195 -17 -80 -18 -81 -92 -60 -40 12 -95 19 -153
19 -58 0 -113 -7 -153 -19 -74 -21 -75 -20 -92 60 -12 59 -1 135 30 195 24 46
15 50 -44 19z m363 -455 c196 -54 313 -268 255 -464 -16 -55 -58 -130 -73
-130 -4 0 -43 9 -87 21 -110 29 -288 29 -398 0 -44 -12 -83 -21 -87 -21 -15 0
-57 75 -73 130 -83 281 179 544 463 464z m82 -757 c115 -37 189 -100 189 -161
0 -107 -163 -189 -375 -189 -213 0 -375 82 -375 191 0 68 105 142 245 172 58
13 262 4 316 -13z"/>
<path d="M881 1194 c-26 -21 -31 -33 -31 -69 0 -36 5 -48 31 -69 35 -30 58
-32 99 -11 68 35 68 125 0 160 -41 21 -64 19 -99 -11z"/>
<path d="M1268 1204 c-66 -35 -65 -124 2 -159 41 -21 64 -19 99 11 26 21 31
33 31 69 0 36 -5 48 -31 69 -34 29 -61 32 -101 10z"/>
<path d="M952 548 c-15 -15 -15 -51 0 -66 15 -15 51 -15 66 0 28 28 7 78 -33
78 -12 0 -26 -5 -33 -12z"/>
<path d="M1232 548 c-15 -15 -15 -51 0 -66 28 -28 78 -7 78 33 0 27 -18 45
-45 45 -12 0 -26 -5 -33 -12z"/>
</g>
</svg>
