<?xml version="1.0" standalone="no"?>
<!DOCTYPE svg PUBLIC "-//W3C//DTD SVG 20010904//EN"
 "http://www.w3.org/TR/2001/REC-SVG-20010904/DTD/svg10.dtd">
<svg version="1.0" xmlns="http://www.w3.org/2000/svg"
 width="225.000000pt" height="225.000000pt" viewBox="0 0 225.000000 225.000000"
 preserveAspectRatio="xMidYMid meet">

<g transform="translate(0.000000,225.000000) scale(0.100000,-0.100000)"
fill="#000000" stroke="none">
<path d="M1654 2236 c-18 -8 -40 -28 -50 -45 -16 -27 -24 -31 -59 -31 -49 0
-99 -29 -120 -69 -33 -64 -8 -153 54 -188 l28 -17 -68 -149 c-85 -186 -110
-229 -172 -295 -105 -110 -232 -144 -473 -123 -278 23 -515 107 -638 226 -54
51 -56 52 -56 27 0 -64 60 -222 111 -294 12 -16 35 -38 51 -48 l29 -17 -47
-12 c-70 -18 -136 -71 -89 -71 21 0 88 -35 104 -54 11 -13 7 -17 -26 -31 -37
-15 -93 -61 -93 -76 0 -4 11 -10 25 -13 42 -11 89 -61 168 -180 150 -224 286
-305 510 -306 263 0 459 136 539 375 l27 80 0 -65 c2 -220 -113 -419 -291
-503 -90 -44 -135 -56 -263 -71 l-100 -12 60 -23 c62 -23 140 -44 210 -56 l40
-7 -24 -19 c-13 -10 -29 -19 -36 -19 -7 0 -24 -9 -39 -21 -40 -31 -37 -83 7
-109 37 -24 67 -20 112 14 94 72 151 74 249 11 74 -48 90 -52 131 -33 45 21
46 92 1 121 -13 9 -60 26 -103 38 -43 12 -85 24 -93 26 -8 2 25 17 73 33 171
58 295 135 423 264 107 108 164 210 191 341 20 100 9 219 -37 375 -48 166 -54
222 -31 273 10 23 41 64 69 91 l50 49 59 -5 c32 -3 65 -8 75 -12 14 -7 15 -3
7 34 -12 54 -31 89 -63 119 -14 14 -26 34 -26 46 0 40 -31 113 -65 152 -31 37
-33 43 -23 70 15 39 4 79 -30 110 -23 21 -34 24 -73 21 -42 -4 -47 -3 -56 23
-20 53 -101 81 -159 55z m223 -387 c13 -26 2 -53 -30 -73 -23 -15 -65 8 -73
40 -6 22 -2 32 20 50 31 27 64 21 83 -17z"/>
</g>
</svg>
