<?xml version="1.0" standalone="no"?>
<!DOCTYPE svg PUBLIC "-//W3C//DTD SVG 20010904//EN"
 "http://www.w3.org/TR/2001/REC-SVG-20010904/DTD/svg10.dtd">
<svg version="1.0" xmlns="http://www.w3.org/2000/svg"
 width="273.000000pt" height="185.000000pt" viewBox="0 0 273.000000 185.000000"
 preserveAspectRatio="xMidYMid meet">

<g transform="translate(0.000000,185.000000) scale(0.100000,-0.100000)"
fill="#000000" stroke="none">
<path d="M1665 1548 c-49 -27 -62 -48 -64 -100 0 -28 -2 -53 -5 -55 -2 -2 -20
-7 -40 -10 l-36 -6 0 42 c0 52 -30 84 -95 100 -60 15 -93 14 -148 -5 -58 -20
-77 -45 -77 -105 0 -50 -10 -59 -72 -59 -24 0 -28 4 -28 28 0 49 -73 102 -141
102 -39 0 -115 -37 -139 -68 -11 -13 -20 -35 -20 -48 0 -24 -2 -24 -98 -24
-86 0 -99 2 -110 20 -7 11 -19 20 -28 20 -12 0 -9 -6 10 -21 14 -11 26 -26 26
-33 0 -6 9 -29 20 -51 25 -49 25 -55 -1 -55 -13 0 -18 4 -13 11 5 9 -1 10 -19
5 -37 -9 -108 4 -100 18 5 8 3 8 -8 0 -16 -13 -209 -26 -209 -14 0 4 15 30 32
56 56 83 116 110 185 83 l28 -11 -25 -16 c-14 -9 -45 -37 -70 -61 l-45 -44 46
41 c26 22 60 47 77 56 30 16 31 15 51 -13 12 -16 25 -39 30 -52 9 -21 10 -22
10 -4 0 11 -13 38 -29 59 -16 21 -27 42 -25 46 8 13 -191 33 -270 28 -46 -3
-84 -11 -100 -22 -22 -15 -34 -15 -87 -6 -36 7 -64 8 -70 2 -13 -13 26 -182
78 -341 49 -149 110 -283 201 -441 82 -142 112 -203 139 -280 19 -53 28 -66
51 -74 15 -5 199 -9 408 -10 397 -1 547 9 870 55 270 38 621 143 850 252 l129
63 -127 93 -127 93 -1 47 c-1 25 -4 37 -6 25 -2 -12 -18 -35 -36 -52 -27 -25
-43 -31 -97 -37 -59 -6 -68 -4 -100 19 -55 39 -140 85 -140 75 0 -5 19 -18 41
-30 23 -11 60 -34 83 -51 39 -29 44 -30 111 -23 60 5 75 11 102 37 l32 31 0
-112 c0 -105 -1 -114 -23 -136 -53 -53 -179 -54 -282 -3 -59 29 -63 44 -67
214 -2 95 1 125 13 139 26 31 91 54 160 56 36 1 53 4 38 6 -25 4 -28 8 -29 46
0 23 -3 35 -6 27 -12 -33 -58 -71 -95 -76 -21 -4 -38 -10 -38 -15 0 -12 -61
11 -95 36 -16 12 -49 32 -72 45 -48 26 -58 43 -41 69 19 31 65 52 131 60 l62
8 -49 2 -49 1 29 23 c16 12 31 21 34 20 3 -1 7 7 7 18 1 15 -5 12 -31 -16 -24
-26 -42 -35 -67 -36 l-34 -2 35 -7 c20 -4 26 -8 14 -9 -35 -2 -106 -59 -104
-84 1 -12 2 -37 1 -55 -1 -30 -3 -32 -28 -26 -16 3 -35 15 -43 26 -8 11 -25
32 -38 45 -21 22 -24 38 -27 124 -4 88 -2 100 18 126 l21 28 -22 -19 c-26 -22
-55 -76 -41 -76 5 0 9 -16 9 -35 0 -38 -8 -42 -59 -24 -37 13 -41 41 -8 57 21
11 20 11 -5 6 -20 -4 -28 -2 -28 8 0 14 -67 48 -98 49 -12 0 -11 3 6 10 13 5
28 7 33 3 5 -3 9 20 9 50 l0 55 38 -22 c20 -12 52 -32 71 -44 19 -13 43 -23
55 -23 15 1 10 5 -14 14 -31 11 -76 37 -134 79 -45 31 17 79 114 88 l65 6 -60
1 c-33 1 -69 -4 -80 -10z m-238 -43 c92 -27 107 -77 33 -115 -49 -25 -166 -28
-210 -5 -67 35 -42 98 49 126 40 12 73 10 128 -6z m-404 -49 c45 -19 69 -49
65 -82 -2 -23 -14 -34 -61 -58 -73 -37 -142 -41 -184 -10 -55 41 -38 105 39
142 50 25 96 27 141 8z m496 -93 c1 -8 -11 -13 -27 -13 -44 0 -121 -30 -137
-53 -10 -14 -15 -46 -15 -94 0 -55 -3 -73 -14 -73 -27 0 -76 22 -76 35 0 7 -9
24 -20 38 -22 28 -28 97 -7 98 10 0 10 2 0 6 -25 9 -13 23 15 17 l27 -6 -25
14 c-16 9 -26 24 -28 42 l-4 29 26 -21 c53 -41 177 -40 238 2 29 19 34 20 40
7 4 -9 7 -22 7 -28z m-1221 10 c-33 -36 -54 -79 -63 -128 -9 -50 -41 -83 -64
-68 -23 15 -16 106 12 163 23 46 41 56 111 59 l30 1 -26 -27z m44 -18 c-30
-27 -58 -64 -71 -95 -26 -59 -36 -64 -26 -13 15 82 72 153 122 153 23 0 21 -4
-25 -45z m-177 -26 c-8 -23 -15 -52 -15 -65 0 -13 -5 -24 -11 -24 -18 0 -4 87
16 110 25 28 26 26 10 -21z m-65 11 c11 0 15 -13 15 -53 1 -60 20 -113 45
-127 13 -7 19 -27 22 -81 6 -80 27 -118 74 -134 27 -9 28 -12 20 -45 -12 -48
9 -143 40 -179 13 -16 36 -32 51 -36 16 -3 45 -14 66 -23 28 -12 36 -20 30
-32 -4 -8 -8 -42 -8 -75 1 -102 40 -169 104 -181 20 -4 45 -13 56 -20 12 -9
47 -14 89 -14 39 0 106 -5 150 -12 76 -10 84 -10 121 10 29 15 34 21 20 22
-12 0 -26 -5 -32 -11 -12 -12 -28 -13 -206 -1 -140 9 -177 23 -108 42 71 19
192 29 246 20 111 -19 158 -32 144 -41 -11 -7 -11 -9 2 -9 9 0 19 3 23 7 4 4
25 9 47 10 87 6 101 44 48 128 -17 27 -35 58 -39 70 -8 21 -7 21 33 12 23 -5
48 -11 55 -13 8 -2 12 -28 12 -86 0 -46 6 -94 13 -108 25 -50 175 -76 270 -48
56 17 111 71 103 100 -3 13 -9 51 -13 86 l-6 63 -21 -19 c-12 -11 -34 -24 -51
-30 -18 -6 -23 -11 -12 -11 10 -1 31 6 47 14 26 14 30 14 30 1 0 -17 -30 -36
-75 -47 -27 -6 -28 -7 -5 -8 14 0 37 6 52 13 27 14 27 14 34 -20 11 -61 -1
-83 -62 -111 -49 -22 -66 -25 -138 -21 -49 3 -94 11 -113 21 -33 17 -33 18
-33 93 0 69 2 75 18 69 9 -4 31 -9 47 -11 30 -3 30 -3 -2 5 -39 10 -63 28 -63
47 0 11 9 9 37 -6 69 -37 191 -18 275 41 15 11 32 18 37 15 5 -3 9 6 10 19 3
50 5 55 21 55 14 0 18 -16 23 -107 8 -116 16 -135 72 -158 87 -37 223 -22 293
32 l35 26 -7 147 -6 147 24 -4 c26 -5 29 -12 41 -108 9 -65 34 -91 113 -115
86 -27 167 -26 212 1 53 32 59 47 60 128 0 70 1 73 19 60 10 -8 56 -40 102
-71 l83 -57 -65 -30 c-87 -39 -290 -112 -433 -156 -348 -105 -1046 -172 -1545
-148 l-163 8 -17 55 c-23 71 -59 142 -134 260 -104 163 -182 350 -258 619 -36
128 -36 135 -6 127 12 -3 29 -6 37 -6z m1477 -15 c64 -19 79 -38 81 -103 1
-28 3 -57 5 -64 1 -7 -16 -15 -44 -19 -105 -16 -139 -53 -131 -141 l5 -61 -37
6 c-42 7 -91 42 -100 72 -3 11 -6 39 -6 62 0 36 3 42 18 37 16 -5 16 -5 0 6
-10 6 -18 15 -18 20 0 5 8 7 18 4 16 -5 16 -5 0 6 -10 6 -18 22 -18 35 l0 24
47 -21 c37 -16 60 -20 118 -16 68 5 135 30 135 51 0 5 -16 -1 -35 -13 -21 -13
-59 -24 -93 -27 -172 -16 -237 101 -81 145 49 15 79 14 136 -3z m-377 -47 c0
-44 -2 -49 -15 -38 -9 7 -39 19 -68 26 -29 7 -46 13 -39 13 6 1 12 6 12 12 0
6 -12 1 -26 -10 -15 -12 -35 -21 -46 -21 -11 0 -17 -4 -13 -9 3 -5 -3 -12 -14
-16 -30 -9 -81 -73 -81 -100 0 -22 -2 -23 -31 -15 -50 15 -59 28 -59 87 0 52
1 54 23 48 l22 -7 -22 17 c-33 24 -28 38 7 20 45 -23 109 -19 171 13 40 20 70
27 117 29 l62 1 0 -50z m-396 10 c3 -13 6 -51 6 -85 0 -69 12 -84 78 -98 l32
-7 0 -93 c0 -111 11 -129 87 -147 48 -11 51 -15 57 -48 3 -19 6 -57 6 -84 0
-42 -2 -47 -17 -40 -10 4 -34 9 -54 12 -32 3 -35 7 -31 28 3 16 -7 44 -30 82
-19 31 -43 76 -53 100 -10 24 -29 52 -42 62 -24 19 -44 50 -107 172 -20 36
-44 69 -54 72 -16 5 -62 72 -62 90 0 3 40 6 89 6 84 0 89 -1 95 -22z m374 -55
c85 -45 80 -103 -15 -149 -110 -54 -224 -32 -231 45 -5 45 18 74 80 106 60 30
104 29 166 -2z m-698 -11 c0 -4 19 -6 43 -4 47 4 102 -13 92 -28 -3 -5 0 -7 7
-5 8 3 24 -8 37 -26 19 -26 21 -33 10 -41 -11 -8 -11 -9 1 -5 8 2 21 -5 28
-17 12 -20 13 -20 6 4 -6 25 -49 89 -68 102 -6 5 -2 8 10 8 11 0 28 -6 37 -12
20 -16 112 -196 104 -204 -3 -4 -35 -1 -70 5 -35 6 -90 11 -123 11 l-59 1 50
46 c28 25 41 41 30 35 -11 -6 -36 -26 -54 -46 -26 -27 -43 -36 -68 -36 -18 0
-33 2 -33 5 0 20 37 70 87 115 32 29 48 48 37 42 -34 -18 -111 -101 -124 -133
-7 -16 -20 -29 -29 -29 -9 -1 -33 -7 -54 -14 l-38 -14 7 31 c12 56 47 120 88
162 24 23 30 33 16 24 -42 -27 -88 -96 -109 -162 -18 -57 -20 -59 -20 -26 -1
55 27 136 62 177 29 34 29 35 3 12 -42 -37 -67 -95 -74 -169 -7 -61 -9 -66
-33 -69 -15 -2 -32 5 -43 17 -16 17 -17 27 -7 91 12 76 33 128 56 136 39 15
195 28 195 16z m1283 -29 c4 -2 7 -19 7 -37 l0 -33 -45 10 c-32 7 -45 15 -45
28 0 9 -3 25 -7 34 -5 15 -1 16 38 10 24 -4 47 -9 52 -12z m-1529 -40 c-7 -21
-14 -49 -14 -63 -1 -14 -5 -34 -10 -45 -6 -14 -9 -4 -9 36 -1 43 4 63 20 83
27 35 29 33 13 -11z m1062 -34 l44 -11 0 -49 c0 -48 0 -48 -26 -39 -14 6 -36
10 -50 10 -22 0 -24 4 -24 50 0 28 3 50 6 50 3 0 25 -5 50 -11z m438 -3 c83
-25 107 -63 64 -104 -35 -32 -76 -44 -156 -44 -90 1 -135 22 -140 68 -7 71
118 114 232 80z m-506 -38 c-2 -14 -16 -30 -38 -40 -19 -10 -28 -18 -20 -18 8
0 -4 -10 -28 -21 -54 -27 -82 -63 -82 -106 0 -34 -1 -34 -32 -28 -82 18 -98
38 -98 122 0 39 2 44 18 38 9 -4 28 -9 42 -11 16 -3 14 0 -7 6 -18 6 -37 19
-43 30 -13 24 -7 25 27 3 43 -28 118 -23 188 13 75 39 77 39 73 12z m798 -66
c38 -23 78 -42 88 -42 16 0 15 -4 -8 -26 -23 -24 -26 -34 -26 -96 0 -60 -2
-69 -16 -64 -9 3 -19 6 -24 6 -4 0 -13 14 -20 30 -11 27 -11 33 6 46 18 15 18
15 -1 9 -36 -13 -50 -10 -49 8 2 20 -12 23 -19 5 -12 -33 -27 16 -33 102 -7
92 -6 95 12 79 10 -8 51 -34 90 -57z m-806 18 c-24 -15 -36 -11 -14 4 10 8 21
12 24 10 2 -3 -2 -9 -10 -14z m1050 -10 c0 -14 -7 -20 -22 -20 -20 0 -21 1 -3
20 10 11 20 20 22 20 1 0 3 -9 3 -20z m-356 -58 c10 -70 10 -69 -31 -63 l-38
6 -3 62 -3 61 34 -10 c31 -10 35 -15 41 -56z m-596 45 c45 -17 92 -64 92 -93
0 -44 -56 -83 -155 -108 -48 -13 -61 -13 -105 0 -113 34 -107 129 12 188 56
28 103 32 156 13z m512 -42 c0 -52 -2 -55 -27 -60 -116 -24 -166 -61 -162
-118 4 -61 0 -77 -20 -77 -10 0 -25 10 -34 23 -8 12 -31 31 -51 42 -36 19 -36
20 -36 87 l0 68 26 -10 c14 -6 37 -10 52 -9 19 1 15 4 -16 10 -57 11 -62 15
-62 50 l0 30 31 -23 c27 -20 42 -23 117 -23 88 1 132 14 161 49 8 9 15 16 17
16 2 0 4 -25 4 -55z m-1338 -9 c-46 -50 -72 -122 -72 -198 0 -48 0 -48 -33
-48 -54 0 -66 22 -56 106 8 77 27 131 52 152 9 8 37 17 64 22 89 14 89 14 45
-34z m118 36 c0 -4 19 -6 43 -4 24 2 58 -3 77 -10 l35 -14 -30 -19 c-53 -33
-126 -109 -151 -157 -15 -29 -31 -48 -42 -48 -9 0 -34 -3 -55 -7 -38 -6 -38
-6 -31 23 12 55 52 131 90 175 l38 44 -42 -40 c-45 -42 -76 -96 -98 -173 l-14
-47 5 67 c7 115 76 218 145 218 17 0 30 -3 30 -8z m228 -36 c7 -7 35 -57 62
-111 62 -125 59 -139 -33 -129 -34 3 -91 13 -127 21 -36 8 -86 14 -112 13 -27
-1 -48 2 -48 5 0 38 99 150 164 185 27 14 29 13 58 -19 24 -26 27 -35 17 -42
-11 -7 -11 -9 2 -9 9 0 21 -10 27 -22 10 -21 11 -20 5 7 -5 29 -35 76 -70 111
-17 17 -16 17 12 10 17 -4 36 -13 43 -20z m-503 -47 c-8 -23 -15 -53 -16 -68
0 -14 -4 -35 -9 -46 -6 -14 -9 -2 -9 41 -1 48 4 67 20 88 28 36 31 33 14 -15z
m1144 5 c2 -2 6 -29 9 -59 l4 -54 -38 6 c-22 3 -41 7 -43 9 -2 2 0 28 4 59 6
55 7 57 33 50 15 -4 29 -9 31 -11z m478 -55 c57 -28 67 -58 32 -95 -38 -41
-99 -57 -189 -52 -94 6 -133 27 -138 74 -9 89 173 134 295 73z m-557 -28 c0
-13 -16 -24 -59 -40 -40 -15 -71 -34 -96 -62 -35 -39 -37 -44 -31 -90 7 -55 7
-55 -60 -38 -59 15 -74 39 -74 116 l0 62 28 -15 c15 -7 38 -13 52 -13 18 1 14
4 -14 10 -44 10 -66 25 -66 44 0 9 10 8 37 -6 59 -30 126 -25 208 15 39 19 71
35 73 35 1 1 2 -7 2 -18z m83 -42 c21 -5 53 -24 72 -41 48 -41 49 -87 3 -122
-74 -56 -188 -81 -255 -55 -109 41 -93 148 32 205 55 26 91 29 148 13z m541
-287 c-3 -17 -21 -31 -62 -50 -75 -34 -177 -36 -238 -5 -55 29 -61 38 -67 116
-4 56 -2 67 11 67 13 0 12 3 -4 14 -26 19 -13 29 20 16 15 -5 46 -9 69 -9 37
1 35 2 -17 9 -64 8 -86 26 -86 68 l0 23 25 -19 c37 -29 117 -46 184 -38 63 8
139 40 149 65 8 19 23 -224 16 -257z m-1456 204 c-21 -8 -48 -20 -61 -29 -23
-15 -72 -13 -82 4 -8 12 87 35 150 37 29 1 29 1 -7 -12z m152 -2 c0 -3 -11
-15 -24 -25 -41 -32 -79 -124 -85 -203 -6 -68 -7 -71 -33 -74 -51 -6 -68 12
-68 75 0 73 26 166 54 192 14 13 45 25 82 30 32 5 62 9 67 10 4 0 7 -2 7 -5z
m80 -4 c10 -7 11 -10 2 -10 -23 0 -103 -83 -128 -132 -14 -27 -31 -72 -39
-101 l-15 -52 4 74 c6 93 42 171 94 206 39 27 58 30 82 15z m133 -11 c20 -5
37 -13 37 -17 0 -4 -16 -16 -36 -27 -47 -25 -139 -126 -155 -169 -12 -32 -17
-35 -73 -45 -33 -6 -61 -9 -63 -7 -7 7 38 128 61 164 60 94 135 127 229 101z
m118 -25 c8 -7 39 -62 69 -120 64 -129 62 -140 -26 -137 -33 1 -97 11 -144 21
l-85 19 45 44 c25 24 54 50 65 57 11 7 6 6 -11 -3 -18 -8 -50 -35 -72 -60 -33
-38 -45 -45 -76 -45 -23 0 -36 5 -36 13 0 19 53 98 86 128 33 30 105 79 116
79 4 0 19 -16 34 -36 23 -30 25 -37 13 -46 -12 -8 -12 -9 1 -5 8 2 21 -5 28
-17 12 -21 12 -20 10 4 -3 27 -4 27 -44 78 -14 17 -22 32 -17 33 4 0 -1 5 -12
10 -16 7 -14 8 10 3 17 -3 37 -12 46 -20z m-527 -36 c-9 -17 -19 -58 -21 -90
-7 -75 -23 -75 -23 0 0 39 6 67 20 90 26 42 46 42 24 0z"/>
<path d="M1312 1457 c-14 -16 -18 -16 -27 -3 -8 10 -16 12 -26 5 -11 -7 -11
-9 5 -9 15 0 17 -5 12 -27 -13 -48 48 -59 114 -20 32 17 40 28 40 50 0 27 -1
28 -51 25 -33 -2 -56 -9 -67 -21z m108 -5 c0 -22 -67 -62 -104 -62 -69 0 10
77 82 79 15 1 22 -5 22 -17z"/>
<path d="M944 1424 c-18 -14 -18 -15 4 -4 12 6 22 13 22 15 0 8 -5 6 -26 -11z"/>
<path d="M898 1396 c-10 -7 -18 -17 -18 -22 1 -12 40 -61 40 -50 0 5 -7 18
-17 28 -15 17 -15 19 2 38 21 23 18 25 -7 6z"/>
<path d="M1010 1381 c0 -6 -6 -11 -12 -11 -7 0 -24 -10 -38 -21 -23 -18 -21
-18 20 2 56 28 53 26 41 34 -6 3 -11 1 -11 -4z"/>
<path d="M1463 1282 c-20 -22 -25 -23 -40 -11 -16 13 -17 12 -5 -3 8 -10 9
-19 3 -22 -5 -3 -8 -14 -7 -24 4 -28 72 -28 124 0 35 19 42 28 40 48 -3 22 -8
25 -43 25 -22 0 -42 2 -45 6 -3 3 -15 -5 -27 -19z m104 -12 c4 -22 -61 -60
-103 -60 -29 0 -35 3 -30 16 3 9 6 18 6 20 0 3 19 14 43 24 47 22 81 22 84 0z"/>
<path d="M1403 1133 c9 -2 25 -2 35 0 9 3 1 5 -18 5 -19 0 -27 -2 -17 -5z"/>
<path d="M1074 1204 c-18 -14 -18 -15 4 -4 12 6 22 13 22 15 0 8 -5 6 -26 -11z"/>
<path d="M1110 1216 c0 -2 8 -10 18 -17 15 -13 16 -12 3 4 -13 16 -21 21 -21
13z"/>
<path d="M1021 1171 l-24 -18 23 -33 c12 -17 25 -28 29 -22 3 5 13 12 21 16 9
3 6 5 -7 2 -13 -2 -29 4 -39 15 -16 18 -15 20 7 38 30 26 22 27 -10 2z"/>
<path d="M1144 1172 c4 -7 2 -21 -5 -30 -12 -15 -11 -15 6 0 16 15 17 20 6 30
-11 11 -13 10 -7 0z"/>
<path d="M684 1038 l-19 -21 30 18 c41 26 40 25 23 25 -8 0 -23 -10 -34 -22z"/>
<path d="M1607 1063 c-18 -18 -23 -19 -32 -7 -8 11 -10 5 -11 -23 -1 -21 4
-41 10 -45 20 -14 78 -8 104 10 15 10 35 22 45 25 18 7 22 33 8 55 -13 21
-100 11 -124 -15z m116 -3 c4 -14 -4 -25 -31 -41 -75 -44 -138 -33 -91 17 38
41 114 56 122 24z"/>
<path d="M1956 1013 c-6 -14 -5 -15 5 -6 7 7 10 15 7 18 -3 3 -9 -2 -12 -12z"/>
<path d="M1970 950 c0 -5 9 -10 20 -10 11 0 20 5 20 10 0 6 -9 10 -20 10 -11
0 -20 -4 -20 -10z"/>
<path d="M2065 940 c3 -5 8 -10 11 -10 2 0 4 5 4 10 0 6 -5 10 -11 10 -5 0 -7
-4 -4 -10z"/>
<path d="M2030 845 c0 -18 19 -40 26 -32 4 4 0 15 -9 24 -9 10 -17 13 -17 8z"/>
<path d="M1240 969 l-25 -21 26 15 c24 14 28 14 45 -1 18 -16 18 -16 0 6 -11
12 -20 22 -20 22 -1 0 -12 -10 -26 -21z"/>
<path d="M1175 927 l-27 -22 22 -28 c22 -28 49 -30 75 -5 6 5 -3 4 -20 -2 -26
-10 -31 -8 -47 12 -16 22 -16 24 10 45 15 12 24 22 20 23 -4 0 -19 -10 -33
-23z"/>
<path d="M1305 900 c-4 -6 -10 -8 -15 -5 -4 3 -14 -3 -21 -13 -12 -15 -12 -15
1 -5 8 6 20 12 25 13 18 3 41 19 28 20 -6 0 -15 -5 -18 -10z"/>
<path d="M694 798 l-29 -33 33 29 c30 28 37 36 29 36 -2 0 -16 -15 -33 -32z"/>
<path d="M849 805 c-15 -8 -30 -22 -33 -32 -6 -14 -3 -13 16 4 13 12 34 26 48
32 14 5 18 10 10 10 -8 0 -27 -6 -41 -14z"/>
<path d="M1801 843 c-1 -7 -10 -13 -22 -13 -11 0 -17 -4 -14 -10 3 -5 3 -15
-1 -21 -4 -8 -11 -5 -18 8 -8 15 -16 18 -31 12 -19 -7 -19 -8 3 -8 24 -1 26
-8 12 -45 -9 -24 -7 -26 31 -36 36 -10 46 -8 99 17 55 26 60 31 60 61 0 40
-16 48 -70 34 -28 -7 -40 -6 -44 2 -3 7 -5 7 -5 -1z m107 -34 c5 -25 -77 -69
-129 -69 -41 0 -41 0 -27 23 26 39 79 68 118 65 23 -2 36 -9 38 -19z"/>
<path d="M1431 757 c2 -1 13 -9 24 -17 19 -14 19 -14 6 3 -7 9 -18 17 -24 17
-6 0 -8 -1 -6 -3z"/>
<path d="M1362 715 l-53 -36 21 -29 c28 -39 35 -43 50 -25 11 13 10 14 -2 10
-8 -3 -23 4 -34 16 -19 21 -19 21 6 42 14 12 37 30 50 39 14 9 23 17 20 17 -3
1 -29 -15 -58 -34z"/>
<path d="M1480 675 c-6 -8 -10 -20 -7 -27 4 -9 6 -7 6 4 1 9 9 18 19 20 11 2
13 6 6 11 -7 4 -17 0 -24 -8z"/>
<path d="M1063 500 c-18 -11 -33 -24 -33 -30 0 -7 61 27 79 46 12 12 -18 2
-46 -16z"/>
<path d="M1879 1506 c12 -16 21 -39 21 -51 0 -30 -40 -65 -76 -65 -21 0 -25
-3 -15 -9 9 -6 24 -6 38 0 14 5 45 9 70 9 55 0 53 10 -2 12 -32 1 -35 3 -21
13 24 18 19 60 -10 92 l-26 28 21 -29z"/>
<path d="M1689 1502 c-17 -15 -19 -21 -9 -27 8 -5 11 -4 6 3 -3 6 -2 13 4 17
6 3 15 -4 20 -17 10 -22 10 -22 5 4 -3 16 0 28 8 31 8 4 8 6 1 6 -7 1 -22 -7
-35 -17z"/>
<path d="M1789 1501 c10 -7 7 -15 -16 -41 -27 -30 -31 -32 -54 -20 -21 12 -23
12 -11 -2 16 -19 81 -33 94 -20 6 6 -1 8 -19 5 l-28 -4 28 25 c15 14 27 28 26
31 -2 16 9 28 20 21 11 -7 11 -10 0 -17 -11 -7 -10 -9 4 -9 9 0 17 4 17 8 0
16 -25 32 -49 32 -19 0 -22 -3 -12 -9z"/>
<path d="M1832 1444 c-7 -8 -8 -14 -3 -14 10 0 25 19 20 25 -2 1 -10 -3 -17
-11z"/>
<path d="M1636 1403 c-6 -14 -5 -15 5 -6 7 7 10 15 7 18 -3 3 -9 -2 -12 -12z"/>
<path d="M1978 1383 c7 -3 16 -2 19 1 4 3 -2 6 -13 5 -11 0 -14 -3 -6 -6z"/>
<path d="M2055 1338 c17 -19 31 -34 33 -32 7 5 -22 41 -42 54 -15 10 -13 4 9
-22z"/>
<path d="M1658 1353 c7 -3 16 -2 19 1 4 3 -2 6 -13 5 -11 0 -14 -3 -6 -6z"/>
<path d="M1858 1339 c-20 -11 -25 -39 -7 -39 5 0 8 4 4 9 -3 5 -1 12 5 16 6 3
15 -4 20 -17 10 -22 10 -22 5 4 -4 23 -1 27 22 31 l28 4 -30 1 c-16 1 -38 -3
-47 -9z"/>
<path d="M1975 1337 c3 -6 -9 -30 -27 -51 -25 -31 -34 -36 -42 -25 -13 16 -36
23 -36 11 0 -14 48 -32 83 -32 18 0 43 10 57 21 l25 21 -27 -16 c-29 -17 -68
-21 -68 -7 0 9 61 41 79 41 18 0 12 18 -11 34 -27 19 -39 20 -33 3z m39 -16
c3 -5 -3 -11 -14 -14 -20 -5 -26 3 -13 16 9 10 21 9 27 -2z"/>
<path d="M1794 1277 c10 -7 40 -26 67 -44 26 -18 60 -35 76 -38 23 -5 21 -3
-12 14 -22 12 -60 34 -85 50 -25 16 -49 30 -55 30 -5 0 -2 -6 9 -12z"/>
<path d="M505 1270 c-3 -6 1 -7 9 -4 18 7 21 14 7 14 -6 0 -13 -4 -16 -10z"/>
<path d="M1705 1250 c3 -5 11 -10 16 -10 6 0 7 5 4 10 -3 6 -11 10 -16 10 -6
0 -7 -4 -4 -10z"/>
<path d="M2155 1180 c27 -12 43 -12 25 0 -8 5 -22 9 -30 9 -10 0 -8 -3 5 -9z"/>
<path d="M1828 1173 c7 -3 16 -2 19 1 4 3 -2 6 -13 5 -11 0 -14 -3 -6 -6z"/>
<path d="M2228 1143 c17 -17 32 -37 32 -44 0 -7 3 -9 6 -6 10 9 -23 54 -48 68
-16 9 -13 3 10 -18z"/>
<path d="M2021 1133 c-28 -19 -26 -33 8 -70 37 -41 88 -51 136 -29 19 9 37 21
41 27 10 17 -5 58 -25 68 -32 18 -138 20 -160 4z m125 -6 c6 -6 -57 -87 -67
-87 -5 0 -14 10 -19 23 -5 12 -9 16 -9 8 -1 -19 -41 16 -41 36 0 19 17 16 30
-4 11 -17 11 -17 6 0 -3 11 -4 22 -2 26 5 7 95 6 102 -2z m38 -13 c25 -25 19
-51 -16 -68 -35 -18 -68 -21 -68 -6 0 5 21 21 48 35 26 14 37 24 25 21 -25 -5
-26 -4 -17 18 8 20 9 20 28 0z"/>
<path d="M1854 1094 c-18 -14 -18 -15 4 -4 12 6 22 13 22 15 0 8 -5 6 -26 -11z"/>
<path d="M1870 1072 c0 -12 19 -26 26 -19 2 2 -2 10 -11 17 -9 8 -15 8 -15 2z"/>
<path d="M2375 971 c23 -10 53 -33 68 -50 29 -35 38 -30 9 6 -21 26 -81 63
-102 63 -8 0 3 -9 25 -19z"/>
<path d="M2206 935 c-21 -11 -36 -55 -18 -55 6 0 8 9 5 20 -8 29 16 25 27 -6
13 -33 13 -47 0 -39 -5 3 -10 2 -10 -3 0 -15 64 -42 97 -42 40 0 93 28 93 48
0 10 -3 13 -8 7 -13 -19 -61 -45 -82 -45 -36 0 -18 23 38 50 28 14 52 28 52
32 0 31 -147 56 -194 33z m120 -5 c22 0 17 -14 -24 -60 -41 -46 -56 -47 -65
-3 -3 16 -9 36 -12 45 -5 13 0 17 27 21 18 2 39 2 46 0 8 -1 20 -3 28 -3z m58
-19 c3 -4 -6 -13 -20 -20 -34 -15 -36 -14 -22 9 13 21 33 26 42 11z"/>
<path d="M2130 805 c-7 -9 -11 -18 -8 -20 3 -3 11 1 18 10 7 9 11 18 8 20 -3
3 -11 -1 -18 -10z"/>
<path d="M2155 740 c-3 -5 3 -10 15 -10 12 0 18 5 15 10 -3 6 -10 10 -15 10
-5 0 -12 -4 -15 -10z"/>
<path d="M2420 735 c-11 -13 -10 -14 4 -9 9 3 16 10 16 15 0 13 -6 11 -20 -6z"/>
<path d="M2245 720 c3 -5 11 -10 16 -10 6 0 7 5 4 10 -3 6 -11 10 -16 10 -6 0
-7 -4 -4 -10z"/>
<path d="M2350 705 c0 -15 4 -24 10 -20 6 3 10 12 10 20 0 8 -4 17 -10 20 -6
4 -10 -5 -10 -20z"/>
<path d="M2400 675 c-19 -23 -7 -39 13 -17 10 11 14 23 9 26 -5 3 -15 -1 -22
-9z"/>
<path d="M2135 670 c-3 -5 -1 -10 4 -10 6 0 11 5 11 10 0 6 -2 10 -4 10 -3 0
-8 -4 -11 -10z"/>
<path d="M2270 660 c-8 -5 -11 -12 -7 -16 4 -4 13 -2 19 4 15 15 7 24 -12 12z"/>
<path d="M2185 640 c-8 -13 5 -13 25 0 13 8 13 10 -2 10 -9 0 -20 -4 -23 -10z"/>
<path d="M2380 620 c8 -5 20 -10 25 -10 6 0 3 5 -5 10 -8 5 -19 10 -25 10 -5
0 -3 -5 5 -10z"/>
<path d="M2210 612 c0 -5 7 -16 16 -23 14 -12 16 -11 13 5 -4 20 -29 35 -29
18z"/>
<path d="M2325 580 c3 -5 13 -10 21 -10 8 0 12 5 9 10 -3 6 -13 10 -21 10 -8
0 -12 -4 -9 -10z"/>
</g>
</svg>
