<?xml version="1.0" standalone="no"?>
<!DOCTYPE svg PUBLIC "-//W3C//DTD SVG 20010904//EN"
 "http://www.w3.org/TR/2001/REC-SVG-20010904/DTD/svg10.dtd">
<svg version="1.0" xmlns="http://www.w3.org/2000/svg"
 width="225.000000pt" height="225.000000pt" viewBox="0 0 225.000000 225.000000"
 preserveAspectRatio="xMidYMid meet">

<g transform="translate(0.000000,225.000000) scale(0.100000,-0.100000)"
fill="#000000" stroke="none">
<path d="M1790 2170 c-12 -17 -30 -30 -40 -30 -11 0 -35 -9 -53 -19 -31 -17
-36 -18 -50 -4 -17 17 -47 11 -47 -9 0 -11 2 -11 8 0 11 16 42 5 42 -15 0 -8
5 -11 11 -7 7 4 10 0 7 -11 -3 -21 -38 -30 -38 -11 0 7 -6 13 -14 13 -8 0 -12
-6 -9 -14 3 -7 -1 -21 -8 -31 -13 -16 -13 -16 6 0 23 19 40 13 48 -17 4 -17 5
-16 7 5 2 24 3 23 9 -5 4 -18 13 -29 21 -27 7 2 17 -3 21 -10 6 -9 9 -6 9 9 0
16 11 27 38 38 20 9 43 20 50 23 8 4 46 5 86 2 52 -4 72 -2 69 6 -6 15 29 28
37 14 5 -8 9 -6 13 4 9 23 33 20 52 -6 8 -13 19 -21 23 -18 4 3 8 -5 10 -17 2
-13 -1 -23 -7 -23 -6 0 -11 5 -11 11 0 5 -5 7 -10 4 -8 -5 -8 -11 -1 -19 6 -7
8 -16 4 -19 -12 -12 -23 -7 -23 11 -1 16 -50 61 -50 45 0 -5 9 -14 20 -21 11
-7 20 -19 20 -26 0 -19 17 -29 32 -19 7 4 22 7 33 8 11 0 24 10 30 23 5 12 16
20 22 17 7 -2 13 2 13 10 0 8 5 15 10 15 6 0 10 5 10 11 0 5 -10 3 -22 -5 -12
-9 -30 -16 -40 -16 -24 0 -34 21 -14 32 21 12 13 25 -27 43 -40 18 -61 35 -70
58 -3 9 -12 17 -19 17 -10 0 -10 -2 0 -9 7 -4 12 -13 10 -19 -3 -12 17 -27 72
-54 34 -16 33 -15 26 -27 -9 -14 -76 18 -76 36 0 7 -8 13 -17 13 -14 0 -15 -2
-4 -9 9 -6 11 -14 4 -26 -7 -12 -13 -14 -17 -6 -4 6 -5 11 -2 11 3 0 -1 18 -9
39 -7 22 -10 43 -7 48 4 4 3 4 -2 0 -13 -10 -16 -36 -5 -43 5 -3 9 -10 9 -16
0 -6 -8 -4 -18 5 -10 10 -25 17 -33 17 -8 0 -3 -6 11 -13 29 -14 37 -41 20
-62 -17 -21 -130 -21 -130 -1 0 8 -3 22 -6 31 -4 9 -3 15 2 13 5 -2 20 5 34
15 13 9 19 17 13 17 -6 0 -19 -7 -27 -16 -14 -13 -16 -14 -16 0 0 8 4 17 10
21 5 3 7 12 4 20 -10 26 -33 24 -54 -5z m29 -1 c-10 -6 -10 -9 -2 -9 9 0 10
-7 2 -26 -5 -15 -7 -36 -3 -47 4 -13 2 -17 -5 -13 -7 5 -9 1 -5 -8 4 -10 1
-16 -8 -16 -25 0 -29 12 -13 37 9 13 13 23 9 23 -4 0 -2 6 3 13 6 6 9 21 7 31
-4 25 4 38 18 30 6 -4 5 -10 -3 -15z m-43 -64 c-5 -20 -11 -25 -23 -20 -15 5
-15 3 1 -14 20 -22 14 -41 -14 -41 -10 0 -20 -7 -24 -15 -7 -19 -36 -20 -36
-1 0 8 -3 23 -7 33 -3 10 -3 15 1 11 12 -10 51 34 48 54 -2 12 5 18 25 20 36
4 37 4 29 -27z m-66 -4 c0 -12 -28 -22 -34 -12 -3 5 -3 11 1 15 9 9 33 7 33
-3z m418 -88 c-2 -9 -8 -18 -15 -20 -7 -3 -9 3 -6 16 6 25 26 28 21 4z"/>
<path d="M758 2131 c-28 -25 -30 -31 -16 -36 9 -4 40 2 67 12 46 17 48 20 31
31 -16 10 -18 9 -13 -4 5 -13 2 -15 -14 -10 -14 5 -23 1 -27 -11 -6 -15 -9
-15 -16 -3 -6 10 -1 19 18 32 15 10 21 18 15 18 -7 0 -27 -13 -45 -29z m2 -21
c0 -5 -5 -10 -11 -10 -5 0 -7 5 -4 10 3 6 8 10 11 10 2 0 4 -4 4 -10z"/>
<path d="M1426 2129 c-14 -17 -15 -24 -6 -33 9 -8 14 -8 17 1 2 7 12 9 20 6
13 -5 15 -2 10 11 -4 10 -7 22 -7 27 0 15 -15 10 -34 -12z"/>
<path d="M1340 2125 c-7 -8 -18 -15 -26 -15 -7 0 -15 -3 -17 -7 -3 -5 5 -8 18
-8 13 0 21 2 19 4 -2 2 3 13 13 23 9 10 14 18 11 18 -3 0 -11 -7 -18 -15z"/>
<path d="M1470 2133 c0 -6 8 -14 17 -17 15 -6 15 -8 3 -16 -9 -6 -10 -10 -3
-10 21 0 23 17 3 35 -11 10 -20 13 -20 8z"/>
<path d="M2150 2100 c-12 -7 -10 -9 7 -7 12 0 19 5 17 9 -6 10 -6 10 -24 -2z"/>
<path d="M1383 2088 c-3 -6 -1 -8 4 -5 11 7 36 -16 27 -25 -2 -3 1 -8 8 -11 8
-3 14 2 14 12 0 21 -43 44 -53 29z"/>
<path d="M510 2070 c-13 -8 -12 -10 3 -10 9 0 17 5 17 10 0 12 -1 12 -20 0z"/>
<path d="M1279 2069 c-10 -6 -7 -9 14 -9 29 0 35 5 14 13 -8 3 -20 1 -28 -4z"/>
<path d="M713 2063 c15 -2 37 -2 50 0 12 2 0 4 -28 4 -27 0 -38 -2 -22 -4z"/>
<path d="M468 2053 c7 -3 16 -2 19 1 4 3 -2 6 -13 5 -11 0 -14 -3 -6 -6z"/>
<path d="M97 2043 c-4 -3 -6 -20 -6 -37 2 -27 2 -28 6 -6 3 14 10 31 15 38 11
12 -3 18 -15 5z"/>
<path d="M388 2033 c7 -3 16 -2 19 1 4 3 -2 6 -13 5 -11 0 -14 -3 -6 -6z"/>
<path d="M879 2023 c-13 -17 -13 -17 6 -3 11 8 22 16 24 17 2 2 0 3 -6 3 -6 0
-17 -8 -24 -17z"/>
<path d="M785 2020 c-4 -6 -11 -7 -17 -4 -7 4 -8 2 -4 -5 6 -9 11 -9 22 0 14
11 18 19 10 19 -3 0 -8 -5 -11 -10z"/>
<path d="M1245 2010 c-3 -6 1 -7 9 -4 18 7 21 14 7 14 -6 0 -13 -4 -16 -10z"/>
<path d="M190 2006 c0 -2 9 -6 20 -9 11 -3 18 -1 14 4 -5 9 -34 13 -34 5z"/>
<path d="M1585 1990 c5 -14 11 -61 15 -105 7 -75 7 -76 9 -22 1 48 4 57 19 57
10 0 24 -6 32 -12 12 -11 12 -10 1 4 -7 9 -22 18 -34 20 -15 2 -23 13 -28 36
-4 18 -10 36 -14 40 -4 4 -4 -4 0 -18z"/>
<path d="M494 1988 c-4 -7 -4 -10 1 -6 10 10 35 -10 35 -28 0 -8 -5 -14 -11
-14 -5 0 -7 5 -3 12 5 7 3 8 -6 3 -10 -6 -9 -11 4 -21 16 -12 16 -13 -1 -17
-14 -4 -14 -5 5 -6 18 -1 22 4 22 27 0 34 -34 71 -46 50z"/>
<path d="M1433 1988 c21 -7 27 -16 27 -39 0 -32 -11 -36 -57 -18 -18 7 -25 7
-18 0 6 -6 28 -14 50 -19 31 -6 41 -13 43 -31 2 -13 -2 -28 -10 -32 -10 -7 -8
-9 6 -9 19 0 19 0 0 100 -7 37 -28 61 -53 59 -9 0 -4 -5 12 -11z"/>
<path d="M1849 1983 c-13 -16 -12 -17 4 -4 9 7 17 15 17 17 0 8 -8 3 -21 -13z"/>
<path d="M1349 1981 c12 -8 51 -4 51 5 0 2 -15 4 -32 4 -23 0 -29 -3 -19 -9z"/>
<path d="M1932 1974 c10 -10 20 -16 22 -13 3 3 -5 11 -17 18 -21 13 -21 12 -5
-5z"/>
<path d="M406 1972 c-5 -8 50 -10 57 -2 3 3 -8 6 -24 7 -15 1 -30 -1 -33 -5z"/>
<path d="M995 1970 c-3 -5 -1 -10 4 -10 6 0 11 5 11 10 0 6 -2 10 -4 10 -3 0
-8 -4 -11 -10z"/>
<path d="M2124 1964 c-18 -14 -18 -15 4 -4 12 6 22 13 22 15 0 8 -5 6 -26 -11z"/>
<path d="M215 1960 c-3 -5 1 -10 10 -10 9 0 13 5 10 10 -3 6 -8 10 -10 10 -2
0 -7 -4 -10 -10z"/>
<path d="M334 1948 c-10 -12 -13 -18 -5 -13 8 4 17 2 22 -6 7 -12 10 -12 21 0
10 10 10 12 1 7 -12 -6 -18 5 -14 27 2 12 -5 8 -25 -15z"/>
<path d="M848 1963 c7 -3 16 -2 19 1 4 3 -2 6 -13 5 -11 0 -14 -3 -6 -6z"/>
<path d="M960 1960 c0 -5 5 -10 11 -10 5 0 7 5 4 10 -3 6 -8 10 -11 10 -2 0
-4 -4 -4 -10z"/>
<path d="M1876 1962 c-2 -4 -1 -14 5 -22 7 -12 9 -11 9 4 0 18 1 18 18 3 13
-12 21 -13 32 -6 13 9 12 10 -2 6 -9 -3 -22 1 -28 9 -14 16 -26 18 -34 6z"/>
<path d="M2144 1948 l-19 -23 23 19 c21 18 27 26 19 26 -2 0 -12 -10 -23 -22z"/>
<path d="M81 1949 c-1 -12 7 -16 23 -15 13 0 22 5 19 9 -3 5 -11 6 -18 3 -8
-3 -16 0 -19 7 -2 7 -5 5 -5 -4z"/>
<path d="M705 1953 c22 -3 46 -9 53 -15 9 -8 11 -7 6 6 -5 12 -18 16 -53 14
l-46 -1 40 -4z"/>
<path d="M1196 1942 c-3 -6 2 -8 12 -5 10 2 35 -8 57 -23 24 -16 34 -19 25 -9
-14 17 -13 18 15 11 16 -4 27 -4 23 -1 -4 4 -24 11 -45 15 -21 5 -48 11 -59
15 -12 4 -25 2 -28 -3z"/>
<path d="M1677 1939 c7 -7 15 -10 18 -7 3 3 -2 9 -12 12 -14 6 -15 5 -6 -5z"/>
<path d="M145 1933 c3 -3 -3 -11 -12 -18 -13 -9 -13 -14 -3 -20 9 -6 11 -4 5
5 -5 8 -3 11 6 8 8 -3 13 -11 11 -17 -1 -7 2 -10 8 -6 8 5 7 12 -2 22 -7 9
-11 18 -10 20 2 3 1 7 -2 9 -3 2 -4 1 -1 -3z"/>
<path d="M218 1933 c-10 -2 -18 -9 -18 -14 0 -6 8 -5 20 1 11 6 20 13 20 15 0
3 -1 4 -2 4 -2 -1 -11 -3 -20 -6z"/>
<path d="M674 1905 l1 -40 50 -1 50 -2 -50 8 -50 7 47 1 c26 1 49 5 51 10 3 4
-17 5 -43 4 -47 -4 -49 -3 -53 25 -3 18 -4 14 -3 -12z"/>
<path d="M295 1920 c27 -12 43 -12 25 0 -8 5 -22 9 -30 9 -10 0 -8 -3 5 -9z"/>
<path d="M1960 1926 c0 -2 7 -7 16 -10 8 -3 12 -2 9 4 -6 10 -25 14 -25 6z"/>
<path d="M795 1910 c-4 -6 1 -7 11 -3 13 5 15 3 9 -7 -5 -9 -4 -11 4 -6 6 4 9
12 6 17 -8 12 -22 12 -30 -1z"/>
<path d="M248 1903 c7 -3 16 -2 19 1 4 3 -2 6 -13 5 -11 0 -14 -3 -6 -6z"/>
<path d="M905 1900 c-16 -7 -17 -9 -3 -9 9 -1 20 4 23 9 7 11 7 11 -20 0z"/>
<path d="M958 1903 c7 -3 16 -2 19 1 4 3 -2 6 -13 5 -11 0 -14 -3 -6 -6z"/>
<path d="M195 1891 c-3 -5 0 -13 6 -17 7 -4 9 -3 5 4 -3 6 2 13 11 15 16 4 16
5 1 6 -9 0 -19 -3 -23 -8z"/>
<path d="M1690 1890 c0 -5 5 -10 11 -10 5 0 7 5 4 10 -3 6 -8 10 -11 10 -2 0
-4 -4 -4 -10z"/>
<path d="M2031 1833 c2 -70 6 -63 11 20 2 26 0 47 -4 47 -5 0 -7 -30 -7 -67z"/>
<path d="M234 1882 c-16 -11 -23 -37 -13 -53 6 -10 9 -7 9 12 0 14 5 30 12 37
13 13 9 16 -8 4z"/>
<path d="M1738 1800 c3 -88 3 -90 -20 -90 -13 0 -42 11 -65 24 -45 26 -53 22
-53 -29 0 -26 53 -66 86 -64 14 0 15 2 4 6 -64 23 -80 36 -80 64 0 34 -2 34
52 10 24 -11 51 -22 61 -25 10 -3 17 -15 17 -30 0 -15 -7 -26 -17 -29 -12 -3
-8 -5 9 -6 15 0 30 4 33 9 3 6 1 10 -4 10 -7 0 -11 42 -11 120 0 66 -3 120 -7
120 -5 0 -7 -40 -5 -90z"/>
<path d="M448 1873 c7 -3 16 -2 19 1 4 3 -2 6 -13 5 -11 0 -14 -3 -6 -6z"/>
<path d="M858 1873 c12 -2 32 -2 45 0 12 2 2 4 -23 4 -25 0 -35 -2 -22 -4z"/>
<path d="M148 1863 c7 -3 16 -2 19 1 4 3 -2 6 -13 5 -11 0 -14 -3 -6 -6z"/>
<path d="M398 1863 c7 -3 16 -2 19 1 4 3 -2 6 -13 5 -11 0 -14 -3 -6 -6z"/>
<path d="M2162 1821 c-1 -36 -8 -62 -19 -75 -16 -19 -16 -19 -1 -7 35 27 52
-16 21 -53 l-18 -21 23 20 c18 15 22 25 17 45 -4 14 -10 52 -14 85 l-8 60 -1
-54z"/>
<path d="M1397 1849 c7 -7 15 -10 18 -7 3 3 -2 9 -12 12 -14 6 -15 5 -6 -5z"/>
<path d="M1175 1839 c-4 -6 -5 -12 -2 -15 2 -3 7 2 10 11 7 17 1 20 -8 4z"/>
<path d="M1228 1843 c6 -2 18 -2 25 0 6 3 1 5 -13 5 -14 0 -19 -2 -12 -5z"/>
<path d="M1492 1805 c0 -16 2 -22 5 -12 2 9 2 23 0 30 -3 6 -5 -1 -5 -18z"/>
<path d="M1178 1803 c7 -3 16 -2 19 1 4 3 -2 6 -13 5 -11 0 -14 -3 -6 -6z"/>
<path d="M1238 1803 c6 -2 18 -2 25 0 6 3 1 5 -13 5 -14 0 -19 -2 -12 -5z"/>
<path d="M1295 1800 c27 -12 43 -12 25 0 -8 5 -22 9 -30 9 -10 0 -8 -3 5 -9z"/>
<path d="M1839 1762 c-19 -15 -46 -35 -60 -45 -24 -18 -24 -18 6 -1 17 9 44
27 62 41 l32 23 80 -42 c71 -38 81 -46 81 -71 0 -32 -2 -31 -99 30 -38 25 -57
31 -64 24 -8 -8 -6 -11 7 -11 10 0 48 -18 85 -40 37 -22 76 -40 87 -39 10 0
13 3 7 6 -7 2 -13 20 -13 38 0 26 -5 34 -22 39 -13 3 -49 21 -82 41 -32 19
-61 35 -65 34 -3 0 -22 -12 -42 -27z"/>
<path d="M1211 1764 c0 -11 3 -14 6 -6 3 7 2 16 -1 19 -3 4 -6 -2 -5 -13z"/>
<path d="M1261 1764 c0 -11 3 -14 6 -6 3 7 2 16 -1 19 -3 4 -6 -2 -5 -13z"/>
<path d="M1371 1764 c0 -11 3 -14 6 -6 3 7 2 16 -1 19 -3 4 -6 -2 -5 -13z"/>
<path d="M1421 1764 c0 -11 3 -14 6 -6 3 7 2 16 -1 19 -3 4 -6 -2 -5 -13z"/>
<path d="M1462 1760 c0 -14 2 -19 5 -12 2 6 2 18 0 25 -3 6 -5 1 -5 -13z"/>
<path d="M524 1748 l-19 -23 23 19 c12 11 22 21 22 23 0 8 -8 2 -26 -19z"/>
<path d="M727 1712 c-20 -21 -37 -41 -37 -45 0 -4 16 11 36 32 24 27 46 41 67
44 l32 4 -30 1 c-24 2 -40 -7 -68 -36z"/>
<path d="M1322 1720 c0 -19 2 -27 5 -17 2 9 2 25 0 35 -3 9 -5 1 -5 -18z"/>
<path d="M1482 1730 c0 -14 2 -19 5 -12 2 6 2 18 0 25 -3 6 -5 1 -5 -13z"/>
<path d="M390 1736 c0 -2 15 -6 34 -8 19 -2 32 0 30 4 -5 8 -64 12 -64 4z"/>
<path d="M853 1733 c9 -2 23 -2 30 0 6 3 -1 5 -18 5 -16 0 -22 -2 -12 -5z"/>
<path d="M561 1719 c0 -9 6 -22 14 -29 10 -9 15 -9 15 -1 0 6 -4 11 -9 11 -5
0 -12 8 -14 18 -4 14 -5 14 -6 1z"/>
<path d="M913 1723 c9 -2 25 -2 35 0 9 3 1 5 -18 5 -19 0 -27 -2 -17 -5z"/>
<path d="M1271 1714 c0 -11 3 -14 6 -6 3 7 2 16 -1 19 -3 4 -6 -2 -5 -13z"/>
<path d="M978 1713 c6 -2 18 -2 25 0 6 3 1 5 -13 5 -14 0 -19 -2 -12 -5z"/>
<path d="M477 1699 c7 -7 15 -10 18 -7 3 3 -2 9 -12 12 -14 6 -15 5 -6 -5z"/>
<path d="M1053 1700 c10 -6 17 -23 17 -40 0 -31 -9 -37 -27 -19 -8 8 -13 7
-18 -3 -5 -7 -4 -10 0 -5 5 4 16 0 26 -9 17 -15 18 -15 24 9 11 40 2 71 -20
75 -18 2 -18 2 -2 -8z"/>
<path d="M1412 1680 c0 -19 2 -27 5 -17 2 9 2 25 0 35 -3 9 -5 1 -5 -18z"/>
<path d="M1451 1694 c0 -11 3 -14 6 -6 3 7 2 16 -1 19 -3 4 -6 -2 -5 -13z"/>
<path d="M1817 1685 c-20 -14 -37 -28 -37 -31 0 -2 18 8 40 22 35 23 47 34 37
34 -1 0 -19 -11 -40 -25z"/>
<path d="M179 1673 c-13 -16 -12 -17 4 -4 9 7 17 15 17 17 0 8 -8 3 -21 -13z"/>
<path d="M1231 1674 c0 -11 3 -14 6 -6 3 7 2 16 -1 19 -3 4 -6 -2 -5 -13z"/>
<path d="M1362 1670 c0 -14 2 -19 5 -12 2 6 2 18 0 25 -3 6 -5 1 -5 -13z"/>
<path d="M1471 1673 c0 -12 -9 -27 -18 -32 -10 -6 -13 -10 -8 -11 22 0 37 18
32 41 -4 23 -4 23 -6 2z"/>
<path d="M500 1649 c9 -31 20 -50 20 -34 0 4 8 2 18 -6 10 -8 8 -4 -5 8 -13
12 -23 29 -23 37 0 8 -4 17 -9 21 -6 3 -6 -7 -1 -26z"/>
<path d="M893 1673 c9 -2 23 -2 30 0 6 3 -1 5 -18 5 -16 0 -22 -2 -12 -5z"/>
<path d="M1282 1660 c0 -14 2 -19 5 -12 2 6 2 18 0 25 -3 6 -5 1 -5 -13z"/>
<path d="M2120 1660 c-9 -6 -10 -10 -3 -10 6 0 15 5 18 10 8 12 4 12 -15 0z"/>
<path d="M1200 1651 c0 -10 29 -36 34 -30 1 2 -6 12 -16 22 -10 9 -18 13 -18
8z"/>
<path d="M783 1638 c-26 -34 -22 -44 16 -39 32 5 33 6 9 9 -34 4 -36 19 -5 32
15 6 17 9 6 9 -9 1 -21 -5 -26 -11z"/>
<path d="M210 1635 c0 -5 10 -21 21 -35 13 -17 17 -18 10 -5 -17 33 -31 51
-31 40z"/>
<path d="M830 1636 c0 -2 8 -10 18 -17 15 -13 16 -12 3 4 -13 16 -21 21 -21
13z"/>
<path d="M117 1619 c7 -7 15 -10 18 -7 3 3 -2 9 -12 12 -14 6 -15 5 -6 -5z"/>
<path d="M920 1614 c-17 -10 -18 -13 -5 -8 11 3 34 10 50 14 27 7 28 8 5 9
-14 0 -36 -7 -50 -15z"/>
<path d="M1375 1620 c-27 -7 -28 -8 -5 -8 14 0 34 3 45 8 25 11 2 11 -40 0z"/>
<path d="M1258 1613 c7 -3 16 -2 19 1 4 3 -2 6 -13 5 -11 0 -14 -3 -6 -6z"/>
<path d="M67 1597 c-3 -8 1 -14 8 -14 7 0 11 6 8 14 -3 7 -6 13 -8 13 -2 0 -5
-6 -8 -13z"/>
<path d="M1298 1603 c6 -2 18 -2 25 0 6 3 1 5 -13 5 -14 0 -19 -2 -12 -5z"/>
<path d="M709 1579 c-9 -18 -13 -19 -21 -8 -8 11 -8 10 -4 -4 3 -10 6 -48 6
-84 0 -37 3 -63 7 -60 3 4 6 20 5 36 0 20 5 31 16 34 15 4 15 5 1 6 -11 1 -16
11 -17 31 -1 26 3 30 26 31 17 1 21 3 10 6 -21 5 -23 19 -5 26 9 4 9 6 0 6 -7
1 -17 -9 -24 -20z"/>
<path d="M160 1580 c0 -5 5 -10 10 -10 6 0 10 5 10 10 0 6 -4 10 -10 10 -5 0
-10 -4 -10 -10z"/>
<path d="M928 1583 c7 -3 16 -2 19 1 4 3 -2 6 -13 5 -11 0 -14 -3 -6 -6z"/>
<path d="M818 1573 c6 -2 18 -2 25 0 6 3 1 5 -13 5 -14 0 -19 -2 -12 -5z"/>
<path d="M1038 1563 c7 -3 16 -2 19 1 4 3 -2 6 -13 5 -11 0 -14 -3 -6 -6z"/>
<path d="M2002 1561 c-18 -3 -33 -9 -32 -13 0 -5 0 -15 0 -24 0 -8 5 -12 10
-9 12 7 42 -13 36 -24 -3 -4 10 -7 27 -8 29 -1 29 -1 7 6 -14 4 -29 17 -35 29
-5 12 -16 20 -22 17 -7 -2 -13 1 -13 6 0 6 9 9 20 6 11 -3 23 0 27 6 4 7 9 2
13 -13 7 -29 35 -38 44 -15 5 13 1 15 -15 10 -16 -5 -20 -3 -16 6 2 8 10 13
16 11 7 -1 10 2 6 8 -7 11 -21 11 -73 1z"/>
<path d="M60 1555 c0 -5 5 -17 10 -25 5 -8 10 -10 10 -5 0 6 -5 17 -10 25 -5
8 -10 11 -10 5z"/>
<path d="M490 1550 c-9 -6 -10 -10 -3 -10 6 0 15 5 18 10 8 12 4 12 -15 0z"/>
<path d="M943 1553 c9 -2 25 -2 35 0 9 3 1 5 -18 5 -19 0 -27 -2 -17 -5z"/>
<path d="M2090 1556 c0 -2 7 -7 16 -10 8 -3 12 -2 9 4 -6 10 -25 14 -25 6z"/>
<path d="M149 1533 c-13 -16 -12 -17 4 -4 9 7 17 15 17 17 0 8 -8 3 -21 -13z"/>
<path d="M185 1540 c3 -5 8 -10 11 -10 2 0 4 5 4 10 0 6 -5 10 -11 10 -5 0 -7
-4 -4 -10z"/>
<path d="M853 1543 c9 -2 23 -2 30 0 6 3 -1 5 -18 5 -16 0 -22 -2 -12 -5z"/>
<path d="M1328 1543 c7 -3 16 -2 19 1 4 3 -2 6 -13 5 -11 0 -14 -3 -6 -6z"/>
<path d="M763 1533 c9 -2 25 -2 35 0 9 3 1 5 -18 5 -19 0 -27 -2 -17 -5z"/>
<path d="M1700 1536 c0 -2 8 -10 18 -17 15 -13 16 -12 3 4 -13 16 -21 21 -21
13z"/>
<path d="M1433 1507 c15 -14 28 -36 28 -49 1 -16 3 -18 6 -6 6 23 -13 55 -40
69 -18 10 -17 7 6 -14z"/>
<path d="M1946 1522 c-2 -4 -1 -14 5 -22 7 -12 9 -10 9 8 0 23 -5 28 -14 14z"/>
<path d="M933 1513 c9 -2 23 -2 30 0 6 3 -1 5 -18 5 -16 0 -22 -2 -12 -5z"/>
<path d="M204 1490 c1 -9 12 -16 26 -17 21 -1 21 -1 3 3 -12 3 -24 11 -26 17
-2 7 -3 5 -3 -3z"/>
<path d="M813 1503 c9 -2 25 -2 35 0 9 3 1 5 -18 5 -19 0 -27 -2 -17 -5z"/>
<path d="M1199 1493 c-13 -16 -12 -17 4 -4 9 7 17 15 17 17 0 8 -8 3 -21 -13z"/>
<path d="M2086 1502 c-4 -7 -1 -12 8 -12 23 0 32 -47 13 -68 -14 -16 -14 -17
9 -17 16 0 23 4 19 13 -3 8 -5 22 -5 32 0 25 -35 66 -44 52z"/>
<path d="M1595 1490 c-3 -5 -1 -10 4 -10 6 0 11 5 11 10 0 6 -2 10 -4 10 -3 0
-8 -4 -11 -10z"/>
<path d="M1725 1490 c-4 -6 3 -10 14 -10 25 0 27 6 6 13 -8 4 -17 2 -20 -3z"/>
<path d="M1986 1487 c3 -10 9 -15 12 -12 3 3 0 11 -7 18 -10 9 -11 8 -5 -6z"/>
<path d="M963 1483 c9 -2 23 -2 30 0 6 3 -1 5 -18 5 -16 0 -22 -2 -12 -5z"/>
<path d="M863 1473 c9 -2 25 -2 35 0 9 3 1 5 -18 5 -19 0 -27 -2 -17 -5z"/>
<path d="M1345 1470 c37 -7 38 -7 10 -10 l-30 -2 30 -7 c20 -4 30 -12 29 -24
-1 -9 2 -14 7 -11 13 8 11 38 -3 52 -7 7 -28 11 -47 11 l-36 -2 40 -7z"/>
<path d="M1635 1470 c-4 -6 -12 -7 -18 -3 -7 4 -6 0 2 -10 7 -9 25 -17 40 -16
26 0 26 0 3 10 -13 5 -20 13 -17 19 3 5 4 10 1 10 -3 0 -8 -5 -11 -10z"/>
<path d="M1777 1459 c4 -13 8 -18 11 -10 2 7 -1 18 -6 23 -8 8 -9 4 -5 -13z"/>
<path d="M1885 1469 c-4 -6 -5 -12 -2 -15 2 -3 7 2 10 11 7 17 1 20 -8 4z"/>
<path d="M753 1463 c9 -2 25 -2 35 0 9 3 1 5 -18 5 -19 0 -27 -2 -17 -5z"/>
<path d="M1263 1444 c-3 -9 2 -23 12 -32 11 -11 15 -12 10 -3 -5 9 -1 19 10
28 11 7 14 13 9 13 -6 0 -16 -6 -23 -12 -11 -11 -13 -10 -8 5 8 21 -1 23 -10
1z"/>
<path d="M943 1443 c9 -2 23 -2 30 0 6 3 -1 5 -18 5 -16 0 -22 -2 -12 -5z"/>
<path d="M1172 1430 c0 -14 2 -19 5 -12 2 6 2 18 0 25 -3 6 -5 1 -5 -13z"/>
<path d="M1557 1385 c3 -33 8 -63 12 -67 3 -4 5 10 3 32 -5 46 9 52 34 15 9
-14 20 -25 25 -25 5 0 -3 14 -18 30 -15 17 -32 28 -39 26 -8 -3 -14 6 -17 22
-2 15 -2 0 0 -33z"/>
<path d="M863 1433 c9 -2 23 -2 30 0 6 3 -1 5 -18 5 -16 0 -22 -2 -12 -5z"/>
<path d="M1875 1422 c-3 -9 -3 -13 1 -9 4 4 13 2 21 -5 20 -17 22 -5 2 14 -16
15 -18 15 -24 0z"/>
<path d="M733 1423 c15 -2 39 -2 55 0 15 2 2 4 -28 4 -30 0 -43 -2 -27 -4z"/>
<path d="M1461 1414 c0 -11 3 -14 6 -6 3 7 2 16 -1 19 -3 4 -6 -2 -5 -13z"/>
<path d="M1350 1400 c-9 -6 -10 -10 -3 -10 6 0 15 5 18 10 8 12 4 12 -15 0z"/>
<path d="M1938 1393 c7 -3 16 -2 19 1 4 3 -2 6 -13 5 -11 0 -14 -3 -6 -6z"/>
<path d="M1440 1375 c-7 -8 -9 -15 -5 -15 4 0 1 -8 -6 -17 -13 -16 -12 -17 3
-4 10 7 16 17 13 21 -3 5 1 10 7 13 7 2 10 7 7 11 -3 4 -12 0 -19 -9z"/>
<path d="M1768 1372 c9 -11 21 -17 25 -14 5 2 0 10 -10 18 -26 20 -36 17 -15
-4z"/>
<path d="M1993 1383 c9 -2 25 -2 35 0 9 3 1 5 -18 5 -19 0 -27 -2 -17 -5z"/>
<path d="M1211 1348 c21 -20 33 -25 51 -20 21 6 21 7 -7 10 -16 2 -39 11 -50
20 -12 9 -9 5 6 -10z"/>
<path d="M1660 1376 c0 -2 9 -6 20 -9 11 -3 20 -1 20 4 0 5 -9 9 -20 9 -11 0
-20 -2 -20 -4z"/>
<path d="M1871 1373 c1 -16 18 -48 18 -35 1 10 6 10 23 1 15 -8 53 -10 117 -6
57 3 88 2 76 -3 -19 -8 -19 -9 1 -9 15 -1 23 6 26 24 4 19 2 23 -7 15 -16 -13
-163 -25 -198 -16 -14 3 -33 13 -41 22 -9 8 -16 12 -15 7z"/>
<path d="M308 1363 c7 -3 16 -2 19 1 4 3 -2 6 -13 5 -11 0 -14 -3 -6 -6z"/>
<path d="M1728 1363 c7 -3 16 -2 19 1 4 3 -2 6 -13 5 -11 0 -14 -3 -6 -6z"/>
<path d="M248 1353 c6 -2 18 -2 25 0 6 3 1 5 -13 5 -14 0 -19 -2 -12 -5z"/>
<path d="M428 1353 c7 -3 16 -2 19 1 4 3 -2 6 -13 5 -11 0 -14 -3 -6 -6z"/>
<path d="M1400 1350 c-9 -6 -10 -10 -3 -10 6 0 15 5 18 10 8 12 4 12 -15 0z"/>
<path d="M886 1335 c-9 -24 -7 -37 4 -30 6 3 10 -1 10 -10 0 -12 -4 -14 -19
-6 -14 8 -22 7 -32 -7 -13 -15 -12 -16 2 -4 14 10 20 10 33 -3 9 -9 20 -13 26
-10 5 3 10 0 10 -7 0 -9 3 -9 10 2 5 8 10 20 10 25 0 6 -4 4 -9 -4 -6 -10 -12
-5 -24 19 -15 29 -15 31 -1 26 10 -4 14 -1 12 6 -7 19 -25 20 -32 3z"/>
<path d="M796 1309 c-27 -32 -36 -59 -12 -37 8 7 12 16 10 19 -7 12 26 31 42
25 14 -5 15 -4 4 9 -16 19 -14 20 -44 -16z"/>
<path d="M140 1320 c-9 -6 -10 -10 -3 -10 6 0 15 5 18 10 8 12 4 12 -15 0z"/>
<path d="M941 1313 c7 -12 15 -20 18 -17 3 2 -3 12 -13 22 -17 16 -18 16 -5
-5z"/>
<path d="M1375 1320 c-13 -6 -15 -9 -5 -9 8 0 22 4 30 9 18 12 2 12 -25 0z"/>
<path d="M1776 1313 c-6 -14 -5 -15 5 -6 7 7 10 15 7 18 -3 3 -9 -2 -12 -12z"/>
<path d="M1890 1303 c0 -10 4 -14 8 -8 4 6 11 13 16 18 5 4 2 7 -7 7 -10 0
-17 -8 -17 -17z"/>
<path d="M2000 1310 l-55 -7 50 -1 c28 0 59 3 70 8 23 10 14 10 -65 0z"/>
<path d="M566 1285 c8 -37 14 -45 14 -19 0 10 -5 26 -10 34 -8 11 -9 7 -4 -15z"/>
<path d="M1288 1303 c6 -2 18 -2 25 0 6 3 1 5 -13 5 -14 0 -19 -2 -12 -5z"/>
<path d="M1618 1293 c7 -3 16 -2 19 1 4 3 -2 6 -13 5 -11 0 -14 -3 -6 -6z"/>
<path d="M1683 1283 c9 -2 23 -2 30 0 6 3 -1 5 -18 5 -16 0 -22 -2 -12 -5z"/>
<path d="M121 1252 c-1 -28 1 -31 13 -20 8 7 10 15 6 18 -4 3 -10 12 -13 20
-3 8 -6 0 -6 -18z"/>
<path d="M963 1245 c0 -22 2 -30 4 -17 2 12 2 30 0 40 -3 9 -5 -1 -4 -23z"/>
<path d="M1780 1255 c-11 -14 -12 -17 -1 -10 11 6 13 1 9 -24 -3 -19 -1 -28 4
-23 5 5 8 24 6 42 -3 31 -4 32 -18 15z"/>
<path d="M1902 1250 c0 -14 2 -19 5 -12 2 6 2 18 0 25 -3 6 -5 1 -5 -13z"/>
<path d="M2112 1239 c-2 -26 -8 -39 -24 -47 -13 -6 -18 -11 -12 -11 26 -2 46
25 41 59 l-4 35 -1 -36z"/>
<path d="M941 1244 c0 -11 3 -14 6 -6 3 7 2 16 -1 19 -3 4 -6 -2 -5 -13z"/>
<path d="M747 1227 c-9 -11 -17 -27 -17 -35 0 -8 -9 -25 -20 -39 -11 -14 -19
-35 -19 -47 1 -18 2 -18 6 -3 4 15 7 16 20 5 15 -12 15 -10 4 10 -16 31 2 57
29 42 10 -6 36 -9 57 -8 l38 1 -44 6 c-55 8 -73 31 -46 60 10 12 16 23 14 25
-2 3 -12 -5 -22 -17z"/>
<path d="M871 1220 c-13 -11 -20 -20 -15 -20 4 0 15 7 25 16 17 16 39 12 39
-7 0 -5 -15 -19 -32 -30 -18 -12 -24 -18 -13 -14 50 18 54 17 61 -9 3 -14 10
-26 15 -26 6 0 5 8 -1 19 -7 13 -7 22 0 26 5 3 10 12 9 18 0 9 -2 9 -6 0 -2
-7 -9 -13 -14 -13 -4 0 -6 7 -3 15 7 17 -12 45 -30 45 -6 -1 -22 -10 -35 -20z"/>
<path d="M1379 1227 c7 -9 11 -23 8 -31 -4 -10 -1 -13 8 -9 16 6 5 36 -18 49
-8 5 -8 2 2 -9z"/>
<path d="M179 1213 c-8 -9 -9 -14 -2 -10 6 4 13 1 16 -5 3 -7 4 -3 4 10 -1 26
-1 26 -18 5z"/>
<path d="M570 1216 c0 -8 -8 -17 -17 -19 -17 -4 -17 -5 0 -6 21 -1 23 -39 2
-47 -21 -9 -19 -23 3 -17 14 3 19 16 21 54 1 27 0 49 -4 49 -3 0 -5 -6 -5 -14z"/>
<path d="M788 1223 c7 -3 16 -2 19 1 4 3 -2 6 -13 5 -11 0 -14 -3 -6 -6z"/>
<path d="M1663 1223 c15 -2 37 -2 50 0 12 2 0 4 -28 4 -27 0 -38 -2 -22 -4z"/>
<path d="M216 1204 c-4 -9 -4 -19 -1 -22 3 -3 5 0 5 7 0 7 4 9 10 6 6 -3 7 1
4 9 -8 20 -10 20 -18 0z"/>
<path d="M150 1195 c0 -8 4 -15 10 -15 5 0 7 7 4 15 -4 8 -8 15 -10 15 -2 0
-4 -7 -4 -15z"/>
<path d="M250 1188 c0 -19 2 -20 10 -8 8 12 12 12 18 2 6 -9 16 -10 34 -3 14
5 29 7 34 3 4 -4 4 -2 0 5 -5 9 -14 9 -31 3 -17 -6 -27 -5 -35 6 -18 21 -30
17 -30 -8z"/>
<path d="M473 1198 c-6 -7 -12 -19 -15 -27 -3 -11 -7 -10 -21 3 -9 10 -17 13
-17 7 0 -6 9 -15 20 -21 17 -9 22 -7 30 16 7 17 15 24 26 20 8 -3 12 -2 9 4
-8 14 -21 13 -32 -2z"/>
<path d="M1910 1201 c0 -10 19 -25 25 -20 1 2 -3 10 -11 17 -8 7 -14 8 -14 3z"/>
<path d="M1582 1184 c9 -9 21 -15 27 -13 6 2 -2 10 -17 17 -25 11 -25 11 -10
-4z"/>
<path d="M1129 1169 l-24 -20 28 17 c15 9 27 18 27 20 0 8 -8 4 -31 -17z"/>
<path d="M1750 1180 c-9 -6 -10 -10 -3 -10 6 0 15 5 18 10 8 12 4 12 -15 0z"/>
<path d="M541 1164 c0 -11 3 -14 6 -6 3 7 2 16 -1 19 -3 4 -6 -2 -5 -13z"/>
<path d="M1349 1169 c-11 -7 -11 -9 -1 -9 8 0 10 -5 6 -12 -5 -8 -1 -8 12 2
10 8 20 15 22 16 2 1 -3 4 -11 7 -8 3 -20 1 -28 -4z"/>
<path d="M1405 1171 c5 -9 0 -20 -16 -33 -17 -14 -18 -16 -4 -9 44 23 47 27
29 42 -15 12 -16 12 -9 0z"/>
<path d="M1978 1173 c18 -2 45 -2 60 0 15 2 0 4 -33 4 -33 0 -45 -2 -27 -4z"/>
<path d="M1653 1163 c15 -2 39 -2 55 0 15 2 2 4 -28 4 -30 0 -43 -2 -27 -4z"/>
<path d="M190 1148 c0 -9 -6 -19 -12 -21 -10 -4 -10 -6 0 -6 14 -1 28 26 18
36 -3 4 -6 -1 -6 -9z"/>
<path d="M233 1140 c1 -18 -2 -24 -14 -22 -12 2 -15 -4 -11 -23 2 -14 9 -28
14 -31 6 -4 8 2 3 15 -3 12 -3 21 2 20 23 -4 47 2 36 9 -7 4 -17 19 -22 32
l-11 25 3 -25z"/>
<path d="M330 1156 c0 -2 8 -10 18 -17 15 -13 16 -12 3 4 -13 16 -21 21 -21
13z"/>
<path d="M1310 1150 c-9 -6 -10 -10 -3 -10 6 0 15 5 18 10 8 12 4 12 -15 0z"/>
<path d="M874 1128 c-3 -5 -14 -6 -24 -3 -10 3 -21 2 -23 -3 -6 -9 32 -10 48
-1 6 3 20 4 33 3 12 -1 20 1 17 4 -9 9 -45 9 -51 0z"/>
<path d="M123 1095 c0 -22 2 -30 4 -17 2 12 2 30 0 40 -3 9 -5 -1 -4 -23z"/>
<path d="M744 1118 c-4 -7 -4 -10 1 -6 4 4 15 2 24 -5 14 -11 14 -10 2 6 -16
20 -18 21 -27 5z"/>
<path d="M1394 1114 c-18 -15 -18 -15 2 -5 12 6 24 7 28 4 3 -3 6 -1 6 5 0 16
-12 15 -36 -4z"/>
<path d="M350 1113 c0 -6 -17 -14 -37 -16 l-38 -4 43 -1 c32 -2 42 -6 42 -19
0 -15 2 -14 19 3 19 19 18 40 -1 28 -6 -4 -14 0 -19 7 -6 9 -9 10 -9 2z"/>
<path d="M508 1113 c7 -3 16 -2 19 1 4 3 -2 6 -13 5 -11 0 -14 -3 -6 -6z"/>
<path d="M1235 1105 c-22 -8 -31 -13 -20 -13 11 0 36 6 55 13 45 17 18 17 -35
0z"/>
<path d="M1340 1110 c-9 -6 -10 -10 -3 -10 6 0 15 5 18 10 8 12 4 12 -15 0z"/>
<path d="M448 1103 c6 -2 18 -2 25 0 6 3 1 5 -13 5 -14 0 -19 -2 -12 -5z"/>
<path d="M550 1100 c0 -3 5 -11 11 -17 7 -7 9 -20 5 -30 -5 -12 -9 -14 -14 -6
-5 7 -11 3 -18 -12 -11 -22 -10 -23 10 -12 11 7 23 13 26 15 11 7 6 69 -7 69
-7 0 -13 -3 -13 -7z"/>
<path d="M1140 1100 c-23 -7 -23 -8 -3 -9 12 -1 25 4 28 9 3 6 5 10 3 9 -2 -1
-14 -5 -28 -9z"/>
<path d="M176 1083 c-6 -14 -5 -15 5 -6 7 7 10 15 7 18 -3 3 -9 -2 -12 -12z"/>
<path d="M1277 1080 c-21 -10 -45 -20 -54 -22 -9 -2 -17 -11 -19 -20 -1 -11 3
-15 13 -11 12 5 12 7 1 14 -10 7 -10 9 3 9 17 0 99 38 99 45 0 7 0 7 -43 -15z"/>
<path d="M1160 1080 c-8 -5 -10 -10 -5 -10 6 0 17 5 25 10 8 5 11 10 5 10 -5
0 -17 -5 -25 -10z"/>
<path d="M1324 1074 c-18 -14 -18 -15 4 -4 12 6 22 13 22 15 0 8 -5 6 -26 -11z"/>
<path d="M1399 1063 l-24 -28 28 24 c25 23 32 31 24 31 -2 0 -14 -12 -28 -27z"/>
<path d="M308 1073 c7 -3 16 -2 19 1 4 3 -2 6 -13 5 -11 0 -14 -3 -6 -6z"/>
<path d="M181 1044 c-6 -15 -7 -24 -1 -24 6 0 10 7 10 16 0 14 3 14 15 4 22
-18 25 -8 4 11 -16 16 -18 15 -28 -7z"/>
<path d="M1259 1043 c-12 -16 -12 -17 1 -7 8 6 22 14 30 17 13 5 12 6 -1 6 -9
1 -23 -7 -30 -16z"/>
<path d="M1663 1053 c9 -2 23 -2 30 0 6 3 -1 5 -18 5 -16 0 -22 -2 -12 -5z"/>
<path d="M1950 1049 c0 -6 -4 -8 -9 -5 -5 3 -23 -7 -40 -23 -16 -15 -33 -26
-37 -22 -4 3 -1 -4 5 -16 10 -19 19 -23 54 -21 40 1 41 1 7 5 -19 3 -39 9 -45
15 -7 8 -6 8 4 3 8 -5 12 -4 8 1 -3 6 -1 16 5 24 8 12 9 12 4 -2 -3 -12 0 -18
10 -18 10 0 13 6 10 18 -4 11 -1 19 6 20 7 1 24 3 37 4 14 2 26 -3 29 -11 3
-8 0 -11 -7 -7 -6 4 -11 2 -11 -3 0 -6 7 -11 15 -11 18 0 20 24 3 37 -21 16
-48 23 -48 12z"/>
<path d="M500 1040 c-23 -7 -23 -8 -3 -9 12 -1 25 4 28 9 3 6 5 10 3 9 -2 -1
-14 -5 -28 -9z"/>
<path d="M711 1034 c0 -11 3 -14 6 -6 3 7 2 16 -1 19 -3 4 -6 -2 -5 -13z"/>
<path d="M1145 1040 c-28 -7 -28 -8 -5 -9 14 0 32 4 40 9 17 11 8 11 -35 0z"/>
<path d="M1740 1046 c0 -2 8 -10 18 -17 15 -13 16 -12 3 4 -13 16 -21 21 -21
13z"/>
<path d="M330 1030 c34 -11 60 -11 35 0 -11 5 -29 8 -40 8 -16 0 -15 -2 5 -8z"/>
<path d="M398 1033 c6 -2 18 -2 25 0 6 3 1 5 -13 5 -14 0 -19 -2 -12 -5z"/>
<path d="M1126 1012 c5 -4 12 -11 15 -15 3 -5 9 -2 12 5 3 9 -3 14 -15 15 -11
1 -16 -1 -12 -5z"/>
<path d="M1295 1005 c-16 -8 -23 -14 -14 -15 8 0 24 7 35 15 23 18 18 18 -21
0z"/>
<path d="M2120 985 c14 -7 24 -16 22 -19 -2 -4 -1 -12 1 -19 3 -6 6 -2 6 10 1
20 -25 44 -46 43 -4 -1 3 -7 17 -15z"/>
<path d="M541 970 c-13 -11 -30 -20 -39 -20 -8 0 -12 -3 -9 -6 9 -10 65 15 71
32 7 18 6 17 -23 -6z"/>
<path d="M1238 983 c7 -3 16 -2 19 1 4 3 -2 6 -13 5 -11 0 -14 -3 -6 -6z"/>
<path d="M140 963 c6 -14 16 -20 25 -17 18 7 20 17 3 11 -7 -2 -19 3 -26 12
-11 14 -12 13 -2 -6z"/>
<path d="M2028 973 c7 -3 16 -2 19 1 4 3 -2 6 -13 5 -11 0 -14 -3 -6 -6z"/>
<path d="M1791 954 c0 -11 3 -14 6 -6 3 7 2 16 -1 19 -3 4 -6 -2 -5 -13z"/>
<path d="M868 953 c7 -3 16 -2 19 1 4 3 -2 6 -13 5 -11 0 -14 -3 -6 -6z"/>
<path d="M1532 940 c0 -14 2 -19 5 -12 2 6 2 18 0 25 -3 6 -5 1 -5 -13z"/>
<path d="M2038 953 c12 -2 32 -2 45 0 12 2 2 4 -23 4 -25 0 -35 -2 -22 -4z"/>
<path d="M1600 945 c0 -5 5 -17 10 -25 5 -8 10 -10 10 -5 0 6 -5 17 -10 25 -5
8 -10 11 -10 5z"/>
<path d="M1958 943 c6 -2 18 -2 25 0 6 3 1 5 -13 5 -14 0 -19 -2 -12 -5z"/>
<path d="M258 933 c7 -3 16 -2 19 1 4 3 -2 6 -13 5 -11 0 -14 -3 -6 -6z"/>
<path d="M458 933 c7 -3 16 -2 19 1 4 3 -2 6 -13 5 -11 0 -14 -3 -6 -6z"/>
<path d="M1870 923 c0 -11 3 -14 8 -7 4 6 14 14 22 17 10 4 8 6 -7 6 -16 1
-23 -5 -23 -16z"/>
<path d="M358 923 c6 -2 18 -2 25 0 6 3 1 5 -13 5 -14 0 -19 -2 -12 -5z"/>
<path d="M1696 915 c-11 -8 -15 -15 -9 -15 6 0 16 7 23 15 16 19 11 19 -14 0z"/>
<path d="M2142 888 c-2 -45 -3 -47 -34 -51 l-33 -4 33 -1 c38 -2 45 9 39 64
-3 38 -4 37 -5 -8z"/>
<path d="M1222 875 c-48 -33 -53 -42 -8 -15 34 20 43 22 69 12 42 -16 44 -9 4
10 -30 15 -34 14 -65 -7z"/>
<path d="M697 856 c-12 -13 -31 -26 -42 -30 -20 -6 -85 -55 -74 -56 3 0 20 11
39 25 18 13 37 22 41 20 4 -3 10 -1 14 5 3 5 16 10 28 9 12 0 16 -3 10 -6 -7
-2 -13 -9 -13 -14 0 -4 7 -5 17 -2 11 5 14 3 8 -6 -4 -8 -21 -11 -40 -9 -19 2
-31 0 -29 -4 7 -11 62 -10 69 2 3 6 16 10 28 11 15 0 17 2 7 6 -8 3 -24 15
-34 26 -19 19 -19 20 -1 33 10 8 13 14 6 14 -6 0 -22 -11 -34 -24z"/>
<path d="M1556 870 c11 -24 46 -60 58 -60 6 0 0 7 -12 16 -12 8 -19 21 -16 27
4 7 4 9 -1 5 -4 -4 -14 0 -22 10 -9 11 -12 11 -7 2z"/>
<path d="M1240 860 c-9 -6 -10 -10 -3 -10 6 0 15 5 18 10 8 12 4 12 -15 0z"/>
<path d="M1270 849 c0 -5 5 -7 10 -4 6 3 10 8 10 11 0 2 -4 4 -10 4 -5 0 -10
-5 -10 -11z"/>
<path d="M1360 840 c8 -5 20 -10 25 -10 6 0 3 5 -5 10 -8 5 -19 10 -25 10 -5
0 -3 -5 5 -10z"/>
<path d="M1998 843 c6 -2 18 -2 25 0 6 3 1 5 -13 5 -14 0 -19 -2 -12 -5z"/>
<path d="M1144 825 c-16 -13 -16 -14 -1 -9 21 7 23 -9 2 -26 -15 -13 -39 -5
-30 11 3 5 -1 6 -9 3 -11 -4 -16 -18 -14 -48 l1 -41 4 38 c4 38 5 38 24 21 10
-9 19 -12 19 -6 0 21 47 42 105 47 33 3 64 10 70 16 7 8 4 10 -10 6 -42 -13
-147 -18 -140 -7 9 14 2 13 -21 -5z"/>
<path d="M1643 833 c9 -2 23 -2 30 0 6 3 -1 5 -18 5 -16 0 -22 -2 -12 -5z"/>
<path d="M1740 830 c-9 -6 -10 -10 -3 -10 6 0 15 5 18 10 8 12 4 12 -15 0z"/>
<path d="M1888 833 c6 -2 18 -2 25 0 6 3 1 5 -13 5 -14 0 -19 -2 -12 -5z"/>
<path d="M1418 819 c31 -17 28 -26 -13 -40 -38 -14 -40 -17 -25 -39 8 -13 10
-12 10 3 0 12 14 24 40 35 44 19 49 27 23 35 -10 2 -27 8 -38 11 -15 5 -15 4
3 -5z"/>
<path d="M2008 823 c6 -2 18 -2 25 0 6 3 1 5 -13 5 -14 0 -19 -2 -12 -5z"/>
<path d="M1326 811 c-4 -6 -2 -11 4 -11 6 0 8 -5 4 -12 -5 -7 -3 -8 7 -3 7 5
24 10 37 11 30 3 42 14 16 14 -10 0 -29 3 -40 6 -12 3 -25 1 -28 -5z"/>
<path d="M1893 813 c9 -2 23 -2 30 0 6 3 -1 5 -18 5 -16 0 -22 -2 -12 -5z"/>
<path d="M281 794 c0 -11 3 -14 6 -6 3 7 2 16 -1 19 -3 4 -6 -2 -5 -13z"/>
<path d="M355 799 c-4 -6 -5 -12 -2 -15 2 -3 7 2 10 11 7 17 1 20 -8 4z"/>
<path d="M1197 788 l-48 -21 32 -14 c18 -7 34 -11 37 -8 3 3 1 5 -5 5 -6 0
-14 7 -17 16 -5 12 -1 14 15 9 16 -5 19 -4 14 5 -6 10 -1 11 21 6 16 -4 25 -3
19 1 -5 5 -12 11 -15 15 -3 4 -27 -3 -53 -14z"/>
<path d="M1638 803 c6 -2 18 -2 25 0 6 3 1 5 -13 5 -14 0 -19 -2 -12 -5z"/>
<path d="M260 789 c0 -7 -8 -18 -17 -26 -16 -13 -16 -13 5 -3 19 9 32 40 17
40 -3 0 -5 -5 -5 -11z"/>
<path d="M798 793 c6 -2 18 -2 25 0 6 3 1 5 -13 5 -14 0 -19 -2 -12 -5z"/>
<path d="M858 783 c7 -3 16 -2 19 1 4 3 -2 6 -13 5 -11 0 -14 -3 -6 -6z"/>
<path d="M898 773 c6 -2 18 -2 25 0 6 3 1 5 -13 5 -14 0 -19 -2 -12 -5z"/>
<path d="M1285 772 c-11 -2 -24 -8 -30 -13 -11 -11 68 -9 85 1 14 9 -26 17
-55 12z"/>
<path d="M318 756 c-10 -7 -15 -16 -11 -19 11 -11 23 -8 21 6 -2 6 3 11 10 9
8 -1 11 2 7 8 -8 12 -6 12 -27 -4z"/>
<path d="M555 759 c-4 -6 -5 -12 -2 -15 2 -3 7 2 10 11 7 17 1 20 -8 4z"/>
<path d="M254 735 c-9 -14 -14 -29 -10 -32 4 -4 9 3 13 16 3 13 11 20 19 17
16 -6 19 10 4 19 -5 3 -17 -6 -26 -20z"/>
<path d="M360 745 c0 -8 4 -15 10 -15 5 0 7 7 4 15 -4 8 -8 15 -10 15 -2 0 -4
-7 -4 -15z"/>
<path d="M603 753 c9 -2 25 -2 35 0 9 3 1 5 -18 5 -19 0 -27 -2 -17 -5z"/>
<path d="M956 719 c-5 -28 -8 -30 -23 -18 -14 12 -14 10 2 -14 10 -15 15 -31
11 -35 -4 -3 -11 0 -16 8 -7 10 -10 11 -10 3 0 -7 -12 -13 -28 -13 -15 0 -34
6 -41 13 -11 10 -13 10 -7 0 4 -8 1 -13 -8 -13 -8 0 -17 6 -19 13 -4 10 -6 10
-6 0 -1 -20 -125 -17 -141 2 -10 12 -10 15 3 15 8 0 18 -6 20 -12 4 -10 6 -10
6 0 1 18 -28 27 -42 13 -9 -9 -8 -14 3 -21 11 -7 8 -10 -15 -10 -16 1 -38 7
-47 14 -19 14 -24 46 -8 46 6 0 10 -5 10 -10 0 -6 16 -8 43 -4 106 16 109 20
14 20 -79 0 -97 -2 -92 -14 3 -7 5 -25 5 -38 l0 -24 193 -2 c138 -1 171 -3
117 -8 l-75 -6 73 -2 c69 -2 72 -3 72 -27 0 -24 -2 -24 -87 -28 l-88 -3 91 -2
92 -2 4 93 c5 100 4 115 -6 66z"/>
<path d="M1304 734 c6 -17 -3 -18 -40 -4 -15 6 -28 9 -30 7 -3 -2 13 -10 33
-18 34 -14 40 -13 55 2 15 16 15 18 -4 22 -14 4 -18 2 -14 -9z"/>
<path d="M1455 728 c-18 -18 -18 -19 -1 -12 16 6 18 2 15 -39 -2 -25 0 -42 4
-38 4 4 7 31 5 58 -3 49 -3 50 -23 31z"/>
<path d="M848 722 c-15 -6 -14 -8 6 -18 18 -8 28 -8 42 3 10 7 13 13 7 13 -7
0 -15 -5 -18 -10 -4 -6 -11 -7 -17 -4 -6 4 -5 10 3 15 16 10 2 11 -23 1z"/>
<path d="M1130 710 c8 -5 24 -10 34 -10 26 0 18 6 -19 14 -22 5 -26 4 -15 -4z"/>
<path d="M1676 705 c4 -8 8 -15 10 -15 2 0 4 7 4 15 0 8 -4 15 -10 15 -5 0 -7
-7 -4 -15z"/>
<path d="M1883 708 c-13 -18 -27 -51 -24 -62 1 -4 -2 -13 -7 -20 -22 -26 22
-77 65 -75 10 0 3 5 -15 10 -42 12 -56 45 -31 72 12 13 24 17 41 12 20 -5 21
-4 5 5 -9 6 -26 8 -37 5 l-21 -7 21 36 c20 36 21 47 3 24z"/>
<path d="M1943 713 c9 -2 25 -2 35 0 9 3 1 5 -18 5 -19 0 -27 -2 -17 -5z"/>
<path d="M350 700 c8 -5 22 -9 30 -9 10 0 8 3 -5 9 -27 12 -43 12 -25 0z"/>
<path d="M443 703 c4 -3 1 -13 -6 -21 -9 -13 -9 -14 1 -8 6 4 12 3 12 -3 0 -5
3 -16 6 -24 8 -22 -39 -16 -48 5 -5 11 -13 15 -23 12 -10 -4 -24 2 -36 15 -11
11 -24 21 -30 21 -5 0 2 -11 17 -25 15 -14 33 -25 41 -25 8 0 11 -5 7 -12 -4
-6 -3 -8 3 -5 6 4 16 0 22 -7 8 -10 9 -16 1 -21 -6 -3 -7 -11 -4 -17 5 -7 1
-9 -9 -5 -17 6 -31 -5 -20 -16 8 -9 45 12 39 22 -7 10 33 48 43 41 7 -6 10 49
3 68 -2 6 -9 12 -15 12 -6 0 -7 -3 -4 -7z"/>
<path d="M765 700 c3 -5 -2 -10 -12 -11 -10 0 -13 -3 -7 -5 6 -3 24 2 40 11
l29 15 -28 0 c-16 0 -26 -4 -22 -10z"/>
<path d="M1594 695 c-4 -8 -1 -22 5 -29 8 -10 9 -16 1 -21 -13 -8 -13 -95 1
-95 5 0 7 5 4 11 -4 5 1 20 12 32 17 21 17 21 0 7 -17 -13 -18 -12 -15 15 1
16 10 31 18 33 13 5 13 3 0 -14 -14 -18 -14 -18 5 -2 11 9 26 18 34 20 16 4
24 -31 11 -47 -7 -8 -5 -12 5 -12 10 0 15 10 14 26 0 26 -17 75 -18 56 -1 -5
-6 -3 -12 5 -9 13 -10 12 -5 -3 5 -15 1 -18 -21 -15 -32 3 -44 34 -16 41 17 4
17 5 0 6 -10 0 -20 -6 -23 -14z"/>
<path d="M2038 695 c23 -7 50 -19 59 -27 14 -11 16 -11 9 1 -10 16 -68 41 -93
40 -10 0 1 -6 25 -14z"/>
<path d="M1196 688 c3 -4 15 -8 28 -8 12 0 28 -6 36 -12 12 -11 12 -10 2 3
-13 17 -76 33 -66 17z"/>
<path d="M1378 683 c7 -3 16 -2 19 1 4 3 -2 6 -13 5 -11 0 -14 -3 -6 -6z"/>
<path d="M241 645 c-32 -37 -39 -51 -20 -39 7 4 9 0 5 -14 -6 -17 -1 -24 27
-35 18 -8 45 -18 58 -21 18 -5 17 -3 -8 11 -17 10 -41 30 -52 45 -22 27 -27
43 -12 34 5 -3 14 1 21 9 7 8 9 15 5 15 -4 0 -2 7 5 15 26 31 1 13 -29 -20z
m9 -65 c0 -5 -4 -10 -10 -10 -5 0 -10 5 -10 10 0 6 5 10 10 10 6 0 10 -4 10
-10z"/>
<path d="M310 667 c0 -8 -9 -22 -20 -32 -11 -10 -20 -23 -20 -29 1 -6 9 -1 20
12 12 15 20 18 23 10 2 -7 3 -5 2 5 -2 9 1 17 5 17 5 0 10 -10 12 -22 3 -22 4
-22 9 -3 3 12 -2 27 -13 38 -13 12 -18 13 -18 4z"/>
<path d="M1890 676 c0 -2 9 -6 20 -9 11 -3 18 -1 14 4 -5 9 -34 13 -34 5z"/>
<path d="M1295 660 c-19 -8 -19 -9 3 -9 12 -1 22 4 22 9 0 6 -1 10 -2 9 -2 0
-12 -4 -23 -9z"/>
<path d="M121 644 c0 -11 9 -29 22 -40 22 -19 22 -19 6 1 -10 11 -19 29 -22
40 -4 19 -5 19 -6 -1z"/>
<path d="M1947 639 c7 -7 15 -10 18 -7 3 3 -2 9 -12 12 -14 6 -15 5 -6 -5z"/>
<path d="M2030 640 c34 -11 60 -11 35 0 -11 5 -29 8 -40 8 -16 0 -15 -2 5 -8z"/>
<path d="M2106 642 c-3 -6 -2 -13 4 -17 17 -10 11 -25 -7 -19 -15 5 -15 4 -3
-5 27 -19 3 -21 -66 -7 -38 8 -71 13 -73 10 -2 -2 2 -4 10 -5 8 0 6 -4 -6 -9
-14 -6 -7 -8 25 -5 35 4 39 3 20 -4 -14 -5 -18 -10 -10 -10 8 -1 26 -4 40 -6
22 -5 22 -4 5 4 -18 9 -17 10 8 10 16 1 26 -3 22 -9 -3 -5 -1 -10 5 -10 21 0
4 -24 -21 -31 -20 -6 -20 -7 -4 -8 30 -1 61 31 68 69 7 36 -5 71 -17 52z"/>
<path d="M1107 629 c7 -7 15 -10 18 -7 3 3 -2 9 -12 12 -14 6 -15 5 -6 -5z"/>
<path d="M1990 630 c8 -5 22 -9 30 -9 10 0 8 3 -5 9 -27 12 -43 12 -25 0z"/>
<path d="M1890 620 c-13 -9 -13 -10 0 -10 13 0 13 -1 0 -10 -12 -7 -10 -9 7
-7 15 1 19 5 13 13 -6 6 -7 14 -3 17 9 10 0 8 -17 -3z"/>
<path d="M376 608 c3 -5 10 -6 15 -3 13 9 11 12 -6 12 -8 0 -12 -4 -9 -9z"/>
<path d="M1398 604 c-38 -20 -36 -28 2 -9 17 9 30 18 30 20 0 7 -1 6 -32 -11z"/>
<path d="M1927 609 c7 -7 15 -10 18 -7 3 3 -2 9 -12 12 -14 6 -15 5 -6 -5z"/>
<path d="M2048 613 c6 -2 18 -2 25 0 6 3 1 5 -13 5 -14 0 -19 -2 -12 -5z"/>
<path d="M96 594 c-6 -16 58 -94 78 -94 6 0 5 4 -3 9 -8 5 -16 17 -17 25 -1 9
-13 29 -27 46 -19 23 -26 26 -31 14z m46 -48 c10 -19 10 -20 -6 -7 -9 8 -22
24 -28 35 -10 19 -10 20 6 7 9 -8 22 -24 28 -35z"/>
<path d="M353 595 c0 -8 4 -12 9 -9 5 3 6 10 3 15 -9 13 -12 11 -12 -6z"/>
<path d="M583 565 c0 -22 2 -30 4 -17 2 12 2 30 0 40 -3 9 -5 -1 -4 -23z"/>
<path d="M200 579 c0 -6 -9 -8 -22 -4 -16 4 -19 3 -9 -3 11 -8 11 -10 0 -15
-8 -2 0 -5 17 -4 26 0 30 3 27 18 -6 21 -13 25 -13 8z"/>
<path d="M693 583 c42 -2 112 -2 155 0 42 1 7 3 -78 3 -85 0 -120 -2 -77 -3z"/>
<path d="M334 572 c3 -6 1 -12 -6 -14 -7 -3 -5 -7 6 -11 11 -5 15 -3 10 5 -5
8 -2 9 9 5 24 -9 21 0 -4 14 -13 6 -19 7 -15 1z"/>
<path d="M1302 564 c-11 -12 -9 -14 7 -14 11 0 23 5 27 12 4 6 3 8 -4 4 -5 -3
-12 -2 -14 3 -1 5 -9 3 -16 -5z"/>
<path d="M1670 565 c-11 -13 -10 -14 4 -9 13 5 15 1 13 -17 -2 -13 -10 -25
-17 -27 -8 -3 -10 0 -5 8 4 7 -4 5 -18 -5 -24 -15 -26 -15 -36 2 -9 16 -10 16
-11 1 0 -9 5 -18 11 -20 9 -3 9 -10 0 -27 -15 -27 -11 -34 13 -25 12 5 14 9 6
14 -18 11 0 40 25 40 12 0 28 -7 35 -15 10 -13 9 -15 -8 -15 -12 0 -23 -4 -26
-8 -3 -5 8 -6 25 -4 29 4 37 16 20 26 -5 3 -7 23 -4 45 6 42 -8 59 -27 36z"/>
<path d="M1958 543 c7 -3 16 -2 19 1 4 3 -2 6 -13 5 -11 0 -14 -3 -6 -6z"/>
<path d="M270 530 c8 -5 20 -10 25 -10 6 0 3 5 -5 10 -8 5 -19 10 -25 10 -5 0
-3 -5 5 -10z"/>
<path d="M678 533 c18 -2 45 -2 60 0 15 2 0 4 -33 4 -33 0 -45 -2 -27 -4z"/>
<path d="M1998 533 c6 -2 18 -2 25 0 6 3 1 5 -13 5 -14 0 -19 -2 -12 -5z"/>
<path d="M235 520 c27 -12 43 -12 25 0 -8 5 -22 9 -30 9 -10 0 -8 -3 5 -9z"/>
<path d="M208 503 c7 -3 16 -2 19 1 4 3 -2 6 -13 5 -11 0 -14 -3 -6 -6z"/>
<path d="M1054 478 c-5 -7 -3 -8 5 -4 14 9 51 -21 51 -41 0 -7 5 -13 11 -13 6
0 8 7 5 16 -4 9 -1 24 6 33 11 14 11 14 -3 4 -13 -10 -19 -10 -35 2 -23 18
-31 18 -40 3z"/>
<path d="M1175 466 c0 -13 3 -22 8 -19 4 2 7 13 7 24 0 10 -3 19 -7 19 -5 0
-8 -11 -8 -24z"/>
<path d="M2005 480 c4 -6 1 -18 -6 -26 -6 -8 -10 -16 -7 -19 2 -2 12 9 22 25
15 27 16 30 1 30 -9 0 -13 -5 -10 -10z"/>
<path d="M1949 463 c-13 -16 -12 -17 4 -4 16 13 21 21 13 21 -2 0 -10 -8 -17
-17z"/>
<path d="M1301 443 c0 -16 3 -22 6 -15 4 10 12 8 32 -10 24 -21 24 -21 -3 9
l-28 31 23 5 c22 4 22 4 -3 6 -24 1 -28 -3 -27 -26z"/>
<path d="M720 436 c0 -2 7 -7 16 -10 8 -3 12 -2 9 4 -6 10 -25 14 -25 6z"/>
<path d="M1037 426 c-3 -8 0 -17 7 -19 10 -4 12 1 9 14 -6 23 -9 24 -16 5z"/>
<path d="M2020 426 c0 -9 -8 -13 -22 -10 -21 4 -21 3 -3 -4 19 -9 19 -9 0 -20
-19 -11 -18 -11 5 -8 14 1 26 8 26 14 1 7 2 17 3 22 2 16 21 12 21 -5 0 -22
-39 -58 -55 -51 -8 3 -17 1 -20 -4 -13 -21 37 -8 61 15 14 14 37 26 52 26 27
2 27 2 2 6 -14 3 -29 11 -33 19 -10 18 -37 18 -37 0z"/>
<path d="M210 399 c-30 -16 -62 -37 -70 -46 -10 -11 -4 -9 20 5 19 11 55 32
80 46 25 14 41 26 35 26 -5 0 -35 -14 -65 -31z"/>
<path d="M335 413 c17 -8 43 -27 60 -42 l30 -26 -25 28 c-24 28 -70 57 -87 57
-4 -1 6 -8 22 -17z"/>
<path d="M1143 416 c-13 -6 -23 -18 -23 -26 0 -9 3 -11 8 -4 4 5 18 18 32 27
27 19 17 21 -17 3z"/>
<path d="M760 416 c0 -2 8 -10 18 -17 15 -13 16 -12 3 4 -13 16 -21 21 -21 13z"/>
<path d="M1190 416 c0 -2 8 -10 18 -17 15 -13 16 -12 3 4 -13 16 -21 21 -21
13z"/>
<path d="M984 388 l-19 -23 23 19 c21 18 27 26 19 26 -2 0 -12 -10 -23 -22z"/>
<path d="M1900 390 l-25 -21 28 12 c15 7 27 16 27 21 0 11 -1 10 -30 -12z"/>
<path d="M1548 393 c7 -3 16 -2 19 1 4 3 -2 6 -13 5 -11 0 -14 -3 -6 -6z"/>
<path d="M2156 385 c4 -8 8 -15 10 -15 2 0 4 7 4 15 0 8 -4 15 -10 15 -5 0 -7
-7 -4 -15z"/>
<path d="M800 387 c0 -3 12 -12 26 -22 15 -9 23 -12 20 -6 -7 11 -46 35 -46
28z"/>
<path d="M260 365 c0 -8 7 -15 15 -15 8 0 15 7 15 15 0 8 -7 15 -15 15 -8 0
-15 -7 -15 -15z"/>
<path d="M1491 366 c-10 -12 -8 -17 7 -25 14 -7 19 -19 18 -36 -3 -19 1 -25
18 -26 19 -1 18 -2 -4 -9 -20 -7 -21 -8 -5 -9 20 0 55 20 55 33 0 4 -4 5 -9 2
-5 -4 -12 0 -14 6 -4 10 -6 10 -6 1 -1 -7 -6 -13 -12 -13 -6 0 -8 7 -5 17 4
10 -2 24 -14 36 -25 22 -19 36 7 16 9 -8 14 -9 10 -2 -4 6 -1 14 5 16 7 3 1 6
-13 6 -15 1 -32 -5 -38 -13z"/>
<path d="M315 358 c11 -6 28 -20 38 -32 l18 -21 -11 22 c-10 22 -39 43 -57 43
-4 0 1 -6 12 -12z"/>
<path d="M527 363 c-10 -9 -9 -93 1 -93 4 0 7 23 7 50 0 28 0 50 -1 50 0 0 -4
-3 -7 -7z"/>
<path d="M1554 359 c-4 -8 -3 -10 5 -5 6 4 14 0 17 -11 3 -10 10 -27 14 -38 7
-17 9 -16 7 8 -2 33 -31 65 -43 46z"/>
<path d="M1648 363 c7 -3 16 -2 19 1 4 3 -2 6 -13 5 -11 0 -14 -3 -6 -6z"/>
<path d="M1827 345 c-20 -14 -37 -30 -37 -35 0 -6 8 -2 18 8 9 9 29 25 42 34
14 9 23 17 20 17 -3 1 -22 -10 -43 -24z"/>
<path d="M1460 285 c41 -44 75 -81 76 -82 0 -2 9 7 20 19 16 19 16 20 1 9 -15
-12 -20 -11 -40 7 -22 21 -36 69 -16 57 5 -4 9 -2 9 4 0 15 -20 24 -21 9 0 -7
-5 -4 -10 7 -7 16 -8 14 -3 -10 l5 -30 -48 45 c-26 25 -14 9 27 -35z"/>
<path d="M1690 353 c7 -3 5 -13 -7 -26 -15 -18 -15 -19 -1 -9 15 12 17 9 21
-25 3 -29 4 -27 3 11 -1 31 -6 50 -14 52 -7 1 -8 0 -2 -3z"/>
<path d="M192 338 c6 -18 28 -21 28 -4 0 9 -7 16 -16 16 -9 0 -14 -5 -12 -12z"/>
<path d="M540 346 c0 -2 7 -7 16 -10 8 -3 12 -2 9 4 -6 10 -25 14 -25 6z"/>
<path d="M2161 334 c0 -11 3 -14 6 -6 3 7 2 16 -1 19 -3 4 -6 -2 -5 -13z"/>
<path d="M1148 333 c7 -3 16 -2 19 1 4 3 -2 6 -13 5 -11 0 -14 -3 -6 -6z"/>
<path d="M104 305 c-9 -14 -15 -27 -13 -30 3 -2 12 10 21 26 21 36 15 39 -8 4z"/>
<path d="M964 317 c3 -10 6 -21 6 -25 0 -3 7 3 15 14 13 17 14 17 15 2 0 -9 4
-19 9 -22 4 -3 6 6 3 19 -5 27 -16 32 -28 14 -4 -8 -9 -7 -16 2 -7 11 -8 9 -4
-4z"/>
<path d="M1198 308 c7 -7 12 -30 12 -52 0 -49 6 -44 13 12 3 24 1 40 -4 36 -5
-3 -9 0 -9 5 0 6 -5 11 -12 11 -9 0 -9 -3 0 -12z"/>
<path d="M1300 314 c0 -5 28 -36 63 -69 l62 -60 -60 65 c-33 35 -61 66 -62 69
-2 2 -3 0 -3 -5z"/>
<path d="M2108 313 c-11 -3 -18 -13 -17 -26 1 -16 3 -17 6 -5 7 27 30 28 42 2
13 -30 31 -31 30 -1 0 21 -1 21 -9 2 -7 -18 -8 -18 -15 8 -4 15 -10 26 -14 26
-3 -1 -14 -3 -23 -6z"/>
<path d="M310 296 c0 -8 5 -18 10 -21 6 -3 10 3 10 14 0 12 -4 21 -10 21 -5 0
-10 -6 -10 -14z"/>
<path d="M1126 301 c-3 -4 6 -6 19 -3 14 2 25 6 25 8 0 8 -39 4 -44 -5z"/>
<path d="M223 293 c15 -2 27 -10 27 -18 0 -7 10 -12 25 -11 l25 1 -23 17 c-12
10 -35 17 -52 16 l-30 -1 28 -4z"/>
<path d="M371 284 c0 -11 3 -14 6 -6 3 7 2 16 -1 19 -3 4 -6 -2 -5 -13z"/>
<path d="M630 296 c0 -2 7 -7 16 -10 8 -3 12 -2 9 4 -6 10 -25 14 -25 6z"/>
<path d="M1084 289 c-4 -7 -3 -9 4 -5 5 3 12 0 15 -6 2 -7 7 -10 11 -7 4 3 0
12 -8 18 -11 9 -16 9 -22 0z"/>
<path d="M120 274 c0 -14 3 -14 15 -4 8 7 15 14 15 16 0 2 -7 4 -15 4 -8 0
-15 -7 -15 -16z"/>
<path d="M169 273 c-13 -16 -12 -17 4 -4 16 13 21 21 13 21 -2 0 -10 -8 -17
-17z"/>
<path d="M1609 273 c-13 -16 -12 -17 4 -4 16 13 21 21 13 21 -2 0 -10 -8 -17
-17z"/>
<path d="M1824 278 c-3 -5 -3 -12 0 -15 3 -4 6 -2 6 4 0 6 12 9 26 7 14 -1 23
0 20 4 -10 9 -46 10 -52 0z"/>
<path d="M577 257 c3 -16 19 -31 49 -45 l44 -22 0 21 c0 13 4 18 12 13 7 -4 8
-3 4 4 -10 17 -26 15 -26 -3 0 -8 -4 -15 -10 -15 -5 0 -10 5 -10 10 0 6 -9 10
-21 10 -13 0 -18 4 -13 12 4 7 3 8 -4 4 -8 -5 -12 0 -12 13 0 12 -4 21 -9 21
-4 0 -6 -11 -4 -23z"/>
<path d="M827 269 c7 -9 10 -19 6 -22 -3 -4 -1 -7 5 -7 6 0 12 -8 14 -17 3
-11 6 -5 9 14 3 18 1 30 -3 27 -5 -3 -17 0 -26 8 -15 11 -15 11 -5 -3z"/>
<path d="M1161 264 c0 -11 3 -14 6 -6 3 7 2 16 -1 19 -3 4 -6 -2 -5 -13z"/>
<path d="M1895 254 c2 -30 19 -51 29 -35 4 6 24 12 44 12 25 1 29 3 14 6 -13
3 -26 11 -29 19 -3 8 -10 11 -15 8 -7 -4 -6 -9 1 -13 6 -4 3 -11 -9 -19 -18
-11 -20 -10 -20 12 0 14 -4 27 -8 30 -4 2 -7 -7 -7 -20z"/>
<path d="M2043 253 c-7 -15 -13 -33 -13 -40 0 -7 -4 -13 -10 -13 -5 0 -10 5
-10 12 0 6 -2 9 -5 6 -3 -3 -3 -13 1 -22 8 -21 34 -2 34 25 0 11 5 20 10 20 6
1 14 2 19 3 5 0 13 5 18 10 5 5 3 6 -4 2 -8 -4 -13 -1 -13 8 0 24 -14 19 -27
-11z"/>
<path d="M778 263 c6 -2 18 -2 25 0 6 3 1 5 -13 5 -14 0 -19 -2 -12 -5z"/>
<path d="M531 214 c-1 -38 4 -55 17 -65 14 -11 15 -11 5 1 -7 8 -13 26 -13 42
0 22 4 26 18 21 16 -5 16 -5 1 8 -9 8 -19 21 -22 29 -3 8 -6 -8 -6 -36z"/>
<path d="M730 233 c-12 -16 -24 -26 -27 -25 -2 2 -7 1 -10 -2 -10 -10 21 -6
37 4 8 5 11 10 6 10 -5 0 -1 9 9 20 10 11 15 20 12 20 -3 0 -15 -12 -27 -27z"/>
<path d="M1060 250 c-9 -6 -10 -10 -3 -10 6 0 15 5 18 10 8 12 4 12 -15 0z"/>
<path d="M82 230 c0 -14 2 -19 5 -12 2 6 2 18 0 25 -3 6 -5 1 -5 -13z"/>
<path d="M152 230 c0 -14 2 -19 5 -12 2 6 2 18 0 25 -3 6 -5 1 -5 -13z"/>
<path d="M200 235 c0 -9 5 -15 11 -13 6 2 11 8 11 13 0 5 -5 11 -11 13 -6 2
-11 -4 -11 -13z"/>
<path d="M301 234 c0 -11 3 -14 6 -6 3 7 2 16 -1 19 -3 4 -6 -2 -5 -13z"/>
<path d="M381 234 c0 -11 3 -14 6 -6 3 7 2 16 -1 19 -3 4 -6 -2 -5 -13z"/>
<path d="M430 226 c0 -17 -38 -66 -51 -66 -6 0 -8 10 -4 23 5 19 4 18 -9 -4
-21 -36 -116 -56 -116 -24 0 17 -26 21 -32 4 -2 -6 -16 2 -31 17 -15 15 -25
20 -22 11 14 -34 57 -51 134 -52 72 0 74 0 107 37 30 33 44 68 29 68 -3 0 -5
-6 -5 -14z"/>
<path d="M1814 225 c-4 -8 -11 -12 -17 -8 -6 3 -7 1 -3 -5 10 -16 14 -15 26 8
6 11 8 20 5 20 -3 0 -8 -7 -11 -15z"/>
<path d="M1711 219 c-1 -18 -50 -66 -106 -103 -48 -32 -52 -32 -58 -3 -4 19
-4 18 -6 -5 -1 -35 11 -35 68 1 60 39 115 96 108 113 -4 10 -6 9 -6 -3z"/>
<path d="M2155 190 c0 -21 3 -36 8 -33 4 2 7 17 7 33 0 16 -3 31 -7 33 -5 3
-8 -12 -8 -33z"/>
<path d="M120 196 c0 -8 5 -18 10 -21 6 -3 10 3 10 14 0 12 -4 21 -10 21 -5 0
-10 -6 -10 -14z"/>
<path d="M320 195 c0 -8 5 -15 10 -15 6 0 10 7 10 15 0 8 -4 15 -10 15 -5 0
-10 -7 -10 -15z"/>
<path d="M590 200 c8 -5 20 -10 25 -10 6 0 3 5 -5 10 -8 5 -19 10 -25 10 -5 0
-3 -5 5 -10z"/>
<path d="M1200 175 c-11 -13 -10 -14 4 -9 9 3 16 10 16 15 0 13 -6 11 -20 -6z"/>
<path d="M1465 150 c21 -22 41 -40 44 -40 3 0 -13 18 -34 40 -21 22 -41 40
-44 40 -3 0 13 -18 34 -40z"/>
<path d="M2050 175 c-14 -8 -38 -15 -55 -16 -29 -1 -29 -1 -5 -8 17 -5 36 -1
58 12 17 10 32 21 32 23 0 6 -2 5 -30 -11z"/>
<path d="M668 173 c7 -3 16 -2 19 1 4 3 -2 6 -13 5 -11 0 -14 -3 -6 -6z"/>
<path d="M980 157 c0 -14 7 -28 16 -31 14 -5 15 -4 5 8 -7 8 -10 20 -7 25 4 5
2 12 -4 16 -6 4 -10 -4 -10 -18z"/>
<path d="M1803 140 c0 -25 2 -35 4 -22 2 12 2 32 0 45 -2 12 -4 2 -4 -23z"/>
<path d="M109 153 c12 -23 69 -59 78 -50 2 3 -6 8 -18 12 -12 4 -33 19 -47 34
-22 23 -23 23 -13 4z"/>
<path d="M1883 163 c9 -2 23 -2 30 0 6 3 -1 5 -18 5 -16 0 -22 -2 -12 -5z"/>
<path d="M1038 143 c6 -2 18 -2 25 0 6 3 1 5 -13 5 -14 0 -19 -2 -12 -5z"/>
<path d="M650 130 c20 -13 33 -13 25 0 -3 6 -14 10 -23 10 -15 0 -15 -2 -2
-10z"/>
<path d="M838 133 c7 -3 16 -2 19 1 4 3 -2 6 -13 5 -11 0 -14 -3 -6 -6z"/>
<path d="M325 117 c-11 -6 -45 -14 -75 -18 l-55 -6 48 -2 c41 -1 107 20 107
34 0 7 -2 6 -25 -8z"/>
<path d="M630 105 c14 -8 32 -14 40 -14 8 0 0 6 -19 14 -42 19 -54 19 -21 0z"/>
<path d="M1028 113 c7 -3 16 -2 19 1 4 3 -2 6 -13 5 -11 0 -14 -3 -6 -6z"/>
<path d="M1083 103 c9 -2 23 -2 30 0 6 3 -1 5 -18 5 -16 0 -22 -2 -12 -5z"/>
<path d="M2035 95 c-16 -8 -23 -14 -14 -15 8 0 24 7 35 15 23 18 18 18 -21 0z"/>
<path d="M1863 93 c15 -2 37 -2 50 0 12 2 0 4 -28 4 -27 0 -38 -2 -22 -4z"/>
</g>
</svg>
