<?xml version="1.0" standalone="no"?>
<!DOCTYPE svg PUBLIC "-//W3C//DTD SVG 20010904//EN"
 "http://www.w3.org/TR/2001/REC-SVG-20010904/DTD/svg10.dtd">
<svg version="1.0" xmlns="http://www.w3.org/2000/svg"
 width="301.000000pt" height="167.000000pt" viewBox="0 0 301.000000 167.000000"
 preserveAspectRatio="xMidYMid meet">

<g transform="translate(0.000000,167.000000) scale(0.100000,-0.100000)"
fill="#000000" stroke="none">
<path d="M1421 1655 c-24 -7 -60 -26 -80 -42 -33 -26 -40 -28 -78 -20 -23 5
-57 7 -75 3 -52 -10 -115 -55 -139 -101 -14 -27 -38 -49 -69 -67 -57 -32 -100
-107 -100 -174 0 -40 -1 -42 -37 -49 -45 -8 -158 -58 -167 -74 -12 -20 4 -49
39 -71 l34 -21 -29 -42 c-37 -55 -54 -124 -47 -191 5 -55 34 -123 60 -145 12
-9 14 -28 10 -85 -6 -78 11 -135 61 -201 53 -69 197 -114 277 -86 32 11 34 10
72 -34 57 -67 115 -97 198 -103 51 -3 81 0 113 12 41 16 49 16 91 2 113 -39
225 -9 307 83 42 47 48 50 73 41 70 -26 187 -1 253 56 72 61 109 162 93 249
-8 41 -5 52 21 100 53 98 48 213 -12 302 l-29 42 34 21 c35 22 51 51 39 71 -9
16 -122 66 -167 74 -36 7 -37 9 -37 49 0 68 -43 142 -101 174 -28 16 -53 38
-60 54 -17 41 -82 95 -131 109 -29 8 -58 9 -89 2 -43 -8 -49 -7 -80 19 -63 53
-162 70 -248 43z m149 -140 c15 -8 38 -30 50 -50 29 -46 63 -55 111 -27 21 12
47 22 57 22 30 0 58 -30 71 -76 9 -33 18 -44 44 -53 91 -34 106 -63 68 -131
-18 -32 -19 -44 -11 -95 5 -31 17 -69 25 -82 19 -28 71 -53 111 -53 17 0 40
-13 66 -40 40 -39 40 -41 36 -99 -3 -50 -10 -67 -41 -107 -20 -26 -37 -52 -37
-57 0 -6 7 -34 17 -63 15 -49 15 -55 -1 -98 -31 -80 -130 -113 -201 -66 -34
23 -83 26 -109 7 -10 -7 -30 -38 -44 -67 -46 -93 -131 -120 -212 -66 -49 33
-66 33 -113 0 -45 -30 -108 -34 -156 -9 -33 17 -71 68 -71 96 0 20 -38 55 -67
62 -13 3 -41 -5 -69 -20 -38 -20 -57 -24 -98 -20 -42 4 -55 10 -84 42 -33 35
-34 40 -28 94 3 31 8 73 12 93 5 33 2 41 -29 70 -46 43 -57 67 -57 122 0 64
45 114 115 127 63 12 93 32 111 74 19 46 18 135 -2 163 -8 12 -14 37 -12 54 3
33 15 43 85 69 26 9 35 20 44 53 13 46 41 76 71 76 10 0 36 -10 57 -22 47 -27
78 -20 110 27 13 20 36 42 50 50 34 19 95 19 131 0z"/>
<path d="M1495 1171 c-11 -37 -85 -64 -160 -59 -60 4 -62 3 -75 -25 -16 -37
-78 -77 -129 -84 -23 -3 -41 -11 -41 -17 0 -25 79 -174 124 -233 92 -122 194
-188 291 -188 96 0 186 57 281 178 53 68 117 186 130 240 6 25 4 27 -25 27
-45 0 -82 22 -128 74 -38 43 -42 45 -74 36 -77 -22 -146 -3 -172 47 l-14 27
-8 -23z m-106 -147 c29 -21 52 -74 44 -105 -8 -34 -50 -76 -81 -82 -97 -19
-162 104 -93 174 34 34 92 40 130 13z m362 -13 c53 -53 34 -137 -37 -167 -29
-12 -39 -12 -66 -1 -62 27 -86 77 -64 132 30 70 114 88 167 36z"/>
</g>
</svg>
